<?xml version="1.0" encoding="UTF-8"?>
<svg xmlns="http://www.w3.org/2000/svg" onmouseup="{ if(window.parent.document.onmouseup) window.parent.document.onmouseup(arguments[0]);}" viewBox="0 0 432.97 105.7" xmlns:xlink="http://www.w3.org/1999/xlink"><defs><style>
      .cls-1 {
        fill: #bfd63e;
      }

      .cls-2 {
        fill: #9f461e;
      }

      .cls-3 {
        letter-spacing: -.01em;
      }

      .cls-4 {
        fill: #f3e7b3;
      }

      .cls-5 {
        fill: url(#_Безымянный_градиент_3-3);
      }

      .cls-6 {
        fill: url(#_Безымянный_градиент_4);
      }

      .cls-7 {
        fill: url(#_Безымянный_градиент_3-10);
      }

      .cls-8 {
        fill: url(#_Безымянный_градиент_5);
      }

      .cls-9 {
        fill: url(#_Безымянный_градиент_3-7);
      }

      .cls-10 {
        fill: url(#_Безымянный_градиент_3-13);
      }

      .cls-11 {
        fill: #f5e051;
      }

      .cls-12 {
        fill: url(#_Безымянный_градиент_3-6);
      }

      .cls-13 {
        fill: none;
      }

      .cls-14 {
        letter-spacing: -.03em;
      }

      .cls-15 {
        fill: url(#_Безымянный_градиент_3-2);
      }

      .cls-16 {
        letter-spacing: -.01em;
      }

      .cls-17 {
        fill: url(#_Безымянный_градиент_3-9);
      }

      .cls-18 {
        fill: #f5e7b6;
      }

      .cls-19 {
        isolation: isolate;
      }

      .cls-20 {
        fill: #fff;
        font-family: Montserrat-SemiBold, Montserrat;
        font-size: 29.63px;
        font-weight: 600;
      }

      .cls-21 {
        fill: #ecc792;
      }

      .cls-22 {
        fill: url(#_Безымянный_градиент_3-8);
      }

      .cls-23 {
        fill: url(#_Безымянный_градиент_2);
      }

      .cls-24 {
        fill: url(#_Безымянный_градиент_3-4);
      }

      .cls-25 {
        fill: url(#_Безымянный_градиент_3-12);
      }

      .cls-26, .cls-27 {
        mix-blend-mode: multiply;
      }

      .cls-28 {
        fill: #d93f35;
      }

      .cls-29 {
        fill: #ee8e99;
      }

      .cls-27 {
        fill: #eaebea;
      }

      .cls-30 {
        fill: url(#_Безымянный_градиент_3-5);
      }

      .cls-31 {
        fill: url(#_Безымянный_градиент_3-11);
      }

      .cls-32 {
        fill: #ffe712;
      }

      .cls-33 {
        letter-spacing: 0em;
      }

      .cls-34 {
        fill: url(#_Безымянный_градиент_3);
      }

      .cls-35 {
        clip-path: url(#clippath);
      }

      .cls-36 {
        letter-spacing: .01em;
      }

      .cls-37 {
        letter-spacing: 0em;
      }
    </style><linearGradient gradientUnits="userSpaceOnUse" y2="107.9" x2="222.11" y1="90.78" x1="222.11" data-name="Безымянный градиент 5" id="_Безымянный_градиент_5"><stop stop-color="#b23608" offset="0"/><stop stop-color="#9e2e06" offset=".07"/><stop stop-color="#872503" offset=".17"/><stop stop-color="#741d02" offset=".29"/><stop stop-color="#671800" offset=".43"/><stop stop-color="#601500" offset=".61"/><stop stop-color="#5e1500" offset="1"/></linearGradient><linearGradient gradientUnits="userSpaceOnUse" y2="47.08" x2="57.6" y1="38.57" x1="57.6" data-name="Безымянный градиент 4" id="_Безымянный_градиент_4"><stop stop-color="#b23608" offset="0"/><stop stop-color="#932905" offset=".26"/><stop stop-color="#761e02" offset=".55"/><stop stop-color="#641700" offset=".81"/><stop stop-color="#5e1500" offset="1"/></linearGradient><clipPath id="clippath"><path data-cppathid="10000" d="M397.17,93.89s-.04.08-.07.12c0,0,0,0,0,0-.04.08-.09.15-.13.23-.03.05-.06.11-.09.16-.05.08-.1.16-.15.24-.07.11-.14.22-.21.33-.07.11-.15.23-.22.34-.04.06-.08.11-.12.17-.22.32-.45.64-.68.97-.07.09-.13.18-.2.26,0,0,0,0,0,0-.16.2-.31.41-.48.61-.12.14-.23.29-.35.43-1.29,1.56-2.66,2.91-3.51,3.28-2.14.93-5.77-.24-8.29,0-2.52.24-9.47,1.82-14.58,1.47-5.11-.34-223.94-2.4-230.57-1.47s-12.5-.93-15.31,0c-2.81.93-15.31,1.13-21.94,0-6.63-1.13-12.53,3.27-17.6,3.33-1.1.01-2.35-.02-3.7-.07-.13,0-.27,0-.4-.02-.13,0-.27-.01-.41-.02-.14,0-.27-.01-.41-.02-.27-.01-.55-.02-.83-.04-.14,0-.28-.01-.42-.02-.14,0-.28-.01-.42-.02-.35-.02-.71-.03-1.06-.05h0c-.43-.02-.86-.04-1.29-.05h0c-.29-.01-.57-.02-.86-.03h0c-1.7-.06-3.37-.1-4.92-.07h-.02c-.32,0-.62.01-.93.03-.06,0-.12,0-.17,0-.1,0-.19,0-.29.01-.06,0-.11,0-.17,0-.19,0-.38.02-.57.04-.11,0-.21.02-.31.03-.08,0-.17.01-.25.02-.33.03-.64.07-.94.11-.99.14-2.02.17-3.03.12-.18,0-.36-.02-.54-.03-.66-.05-1.31-.12-1.94-.22-.11-.02-.22-.03-.34-.05-.17-.03-.33-.06-.49-.08-.11-.02-.21-.04-.32-.06-.16-.03-.31-.06-.47-.09-.15-.03-.3-.06-.45-.09h0c-.1-.02-.19-.04-.29-.06-.05-.01-.09-.02-.14-.03-.09-.02-.18-.04-.27-.06-.09-.02-.18-.04-.26-.06-.13-.03-.25-.06-.37-.09-.12-.03-.23-.06-.34-.09-.11-.03-.21-.06-.31-.09-.1-.03-.19-.06-.28-.08-.15-.04-.28-.08-.39-.12-.04-.01-.09-.03-.13-.04-.02,0-.04-.01-.06-.02-.04-.01-.07-.02-.1-.03-.02,0-.03,0-.04-.01-.03,0-.05-.02-.07-.02-.07-.02-.13-.05-.2-.08-.01,0-.03-.01-.04-.02-.02-.01-.05-.03-.07-.04-.02,0-.04-.02-.06-.03h0s-.04-.02-.06-.03h0s-.04-.03-.07-.04c-.01,0-.03-.01-.04-.02-.06-.04-.13-.07-.21-.11h0s-.06-.03-.09-.05c-.05-.03-.1-.05-.15-.08-.08-.05-.17-.1-.27-.15-.15-.08-.31-.17-.48-.27-.06-.04-.13-.07-.19-.11-.04-.03-.09-.05-.13-.08-.02-.01-.04-.03-.07-.04-.04-.03-.09-.05-.14-.08-.02-.01-.05-.03-.07-.04-.07-.04-.14-.08-.21-.12-.49-.29-1.02-.62-1.54-.96-.05-.03-.1-.06-.15-.1-.02-.02-.05-.03-.07-.05-.05-.03-.1-.07-.15-.1-.05-.03-.1-.07-.14-.1-.02-.02-.05-.03-.07-.05-.12-.08-.24-.17-.35-.25-.07-.05-.14-.1-.21-.15-.2-.15-.4-.3-.58-.45-.04-.03-.08-.07-.12-.1-.02-.02-.04-.03-.06-.05-.06-.05-.12-.1-.17-.15-.04-.03-.07-.07-.11-.1-.04-.03-.07-.06-.11-.1-.02-.02-.03-.03-.05-.05-.07-.06-.13-.13-.19-.19-.03-.03-.06-.06-.09-.09-.04-.05-.08-.09-.12-.14-.03-.03-.05-.06-.07-.09-.04-.04-.07-.09-.1-.13-.07-.1-.13-.2-.18-.29,0,0,0,0,0,0-.02-.04-.04-.08-.05-.12h0c-.05-.12-.09-.26-.12-.41h0c-.01-.05-.02-.1-.03-.16,0-.03-.01-.06-.02-.08-.01-.06-.02-.11-.03-.17,0-.03,0-.06-.01-.09,0-.06-.02-.12-.03-.18,0-.03,0-.06-.01-.1,0-.06-.01-.13-.02-.19-.02-.23-.04-.48-.05-.75,0-.07,0-.15,0-.23-.08-2.5.28-6.12.67-9.04,0-.07.02-.14.03-.22.04-.32.09-.62.13-.92,0-.06.02-.12.03-.18.03-.23.07-.44.1-.65,0-.06.02-.11.03-.17,0-.01,0-.02,0-.03,0-.05.02-.11.03-.16.03-.2.06-.38.09-.56,0-.06.02-.11.03-.17.01-.08.03-.16.04-.24.02-.1.04-.2.05-.3.02-.09.03-.19.05-.27,0-.02,0-.04.01-.06,0-.04.02-.08.02-.12.02-.08.03-.15.04-.22,0-.03.01-.07.02-.1.01-.05.02-.09.03-.13,0-.04.02-.08.03-.11,0-.02.01-.04.02-.06,0-.03.02-.05.02-.07.17-.5-.01-1.6-.28-2.83-.03-.12-.05-.24-.08-.36,0,0,0,0,0,0-.02-.08-.04-.16-.05-.24,0-.04-.02-.08-.03-.12-.08-.36-.17-.73-.26-1.09-.24-1.04-.47-2.02-.52-2.68-.01-.15-.02-.33-.03-.56-.04-1.38.04-4.13.26-6.7.02-.21.04-.42.06-.62.03-.27.06-.54.09-.81.01-.13.03-.26.05-.39.05-.39.1-.76.16-1.11.03-.18.06-.34.09-.51.02-.11.04-.22.06-.32.01-.05.02-.1.03-.15.03-.15.07-.29.1-.43.01-.05.02-.09.04-.13.02-.09.05-.17.07-.25.07-.24.15-.44.24-.6.68-1.32.26-3.96-.3-6.29-.02-.09-.04-.17-.06-.26-.02-.09-.04-.17-.06-.26-.02-.08-.04-.17-.07-.25h0c-.02-.08-.04-.17-.07-.25-.01-.04-.02-.08-.03-.12-.02-.08-.04-.16-.07-.24-.01-.04-.02-.08-.03-.12-.02-.08-.04-.16-.06-.23-.03-.11-.06-.23-.1-.34-.06-.22-.12-.43-.18-.62-.07-.23-.13-.44-.18-.63-.07-.23-.12-.48-.16-.73-.15-.93-.15-2.01-.1-2.96.02-.34.04-.67.07-.97,0-.06.01-.11.02-.17,0-.03,0-.06.01-.08,0-.05.02-.11.03-.16.07-.29.19-.55.34-.76.04-.06.13-.13.26-.2.02-.01.04-.02.07-.04.01,0,.02-.01.03-.02.04-.02.07-.04.11-.05.01,0,.03-.01.04-.02.12-.06.25-.11.38-.16.03-.01.06-.02.09-.04.11-.04.21-.08.32-.12.03-.01.06-.02.09-.03.03,0,.06-.02.09-.03.03,0,.06-.02.09-.03.03,0,.05-.02.07-.03.04-.01.09-.03.13-.04.03,0,.05-.02.08-.02.14-.05.26-.08.34-.1,0,0,0,0,0,0,.01,0,.03,0,.04-.01.22-.06.36-.16.44-.29.02-.03.03-.06.05-.09.22-.59-.41-1.66-.93-2.61-.42-.77-.87-1.58-1.26-2.22-.11-.18-.21-.35-.31-.5,0,0,0,0,0,0-.04-.06-.07-.12-.11-.17-.02-.03-.04-.05-.05-.08-.03-.05-.07-.1-.1-.14-.02-.02-.03-.05-.05-.07-.04-.05-.07-.1-.11-.14l-.02-.02c-.07-.08-.13-.17-.19-.27-.01-.02-.02-.04-.04-.06-.02-.04-.05-.08-.07-.12-.03-.06-.06-.13-.09-.2-.02-.05-.04-.09-.06-.14-.19-.52-.29-1.17-.25-1.94,0-.06,0-.13,0-.19,0-.1.01-.2.03-.3,0-.07.01-.13.02-.2,0-.03,0-.07.01-.1.02-.17.05-.35.09-.53,0-.04.01-.07.02-.11.01-.07.03-.15.05-.22.02-.07.04-.15.05-.22,0,0,0,0,0,0,.04-.15.08-.3.13-.46.08-.27.18-.55.28-.83.29-.77.23-3.16.04-6.2,0,0,0-.02,0-.02-.03-.49-.06-.99-.1-1.51,0-.02,0-.03,0-.05-.02-.3-.04-.61-.06-.92,0-.02,0-.04,0-.05-.01-.15-.02-.3-.03-.45-.02-.23-.03-.47-.05-.71,0-.09-.01-.18-.02-.28,0-.07-.01-.14-.02-.21,0-.1-.01-.2-.02-.31-.39-5.4-.84-11.32-.44-14.06.01-.08.02-.15.04-.23.03-.2.07-.37.12-.53.01-.04.02-.08.03-.11.01-.04.02-.07.04-.1.02-.05.04-.1.06-.14.03-.06.06-.11.09-.16.02-.04.05-.07.07-.1.08-.1.17-.16.27-.18.91-.17,2.18-.28,3.61-.35.32-.01.64-.03.98-.04.33,0,.67-.02,1.01-.03.51-.01,1.04-.02,1.56-.03,1.33-.02,2.66-.02,3.89-.02,1.56,0,19.09-.33,44.18-.71,36.46-.56,88.86-1.24,131.36-1.23,20.35,0,24.3.89,44.59,1.15,10.9.14,38.6-.42,48.93-.24,27.32.46,35.94.81,37.96,1,6.01-.19,26.42.05,28.07.06,1.79,0,2.6,21.88,2.6,24.61s0,5.51.25,9.29c.26,3.77.69,6.44.69,8.01,0,0,0,.01,0,.02,0,0,0,0,0,0,0,.02,0,.03,0,.05,0,0,0,0,0,0-.39,1.64-13.32,6.1-12.57,6.1.05,0,.15.01.28.03h0c1.93.31,11.86,2.69,11.86,4.17,0,.29.02.74.06,1.31.14,2.54-1.01,21.65-.87,22.27.3,1.35.87,3.86,1.46,6.01.02.06.03.12.05.18.03.09.05.18.08.27.02.06.03.12.05.18.02.06.03.12.05.17.01.05.03.1.04.15,0,.01,0,.03.01.04.02.08.04.15.07.23.02.06.03.11.05.16.03.11.07.21.1.32.03.1.07.2.1.3.02.07.05.14.07.21.02.05.03.09.05.14,0,0,0,0,0,0,.01.05.03.09.05.13.01.04.03.08.05.13.05.14.11.28.16.4.02.05.04.1.07.15.04.08.07.15.1.21.01.03.03.05.04.07.01.02.03.04.04.07,0,.01.01.02.02.03.01.02.02.04.04.05,0,0,.01.02.02.03.01.02.02.03.04.04h0s.02.02.03.03c.22.31,0,1.04-.5,1.97Z" class="cls-13"/></clipPath><radialGradient gradientUnits="userSpaceOnUse" gradientTransform="translate(2466.71 7499.32) rotate(90) scale(2.28 2.41)" r="171.95" fy="954.18" fx="-3206.37" cy="954.18" cx="-3206.37" data-name="Безымянный градиент 3" id="_Безымянный_градиент_3"><stop stop-color="#481103" offset="0"/><stop stop-color="#a55211" offset="1"/></radialGradient><radialGradient xlink:href="#_Безымянный_градиент_3" r="190.12" fy="953.9" fx="-3177.28" cy="953.9" cx="-3177.28" data-name="Безымянный градиент 3" id="_Безымянный_градиент_3-2"/><radialGradient xlink:href="#_Безымянный_градиент_3" r="195.93" fy="949.92" fx="-3162.42" cy="949.92" cx="-3162.42" data-name="Безымянный градиент 3" id="_Безымянный_градиент_3-3"/><radialGradient xlink:href="#_Безымянный_градиент_3" r="194.88" fy="950.22" fx="-3158.09" cy="950.22" cx="-3158.09" data-name="Безымянный градиент 3" id="_Безымянный_градиент_3-4"/><radialGradient xlink:href="#_Безымянный_градиент_3" r="218.38" fy="959.29" fx="-3133.09" cy="959.29" cx="-3133.09" data-name="Безымянный градиент 3" id="_Безымянный_градиент_3-5"/><radialGradient xlink:href="#_Безымянный_градиент_3" r="216.57" fy="990.57" fx="-3108.3" cy="990.57" cx="-3108.3" data-name="Безымянный градиент 3" id="_Безымянный_градиент_3-6"/><radialGradient xlink:href="#_Безымянный_градиент_3" gradientTransform="translate(193.51 5631.07) rotate(116.21) scale(1.09 2.39) skewX(5.08)" r="157.42" fy="1108.3" fx="-4628.57" cy="1108.3" cx="-4628.57" data-name="Безымянный градиент 3" id="_Безымянный_градиент_3-7"/><radialGradient xlink:href="#_Безымянный_градиент_3" gradientTransform="translate(193.51 5631.07) rotate(116.21) scale(1.09 2.39) skewX(5.08)" r="138.33" fy="1107.55" fx="-4625.53" cy="1107.55" cx="-4625.53" data-name="Безымянный градиент 3" id="_Безымянный_градиент_3-8"/><radialGradient xlink:href="#_Безымянный_градиент_3" gradientTransform="translate(193.51 5631.07) rotate(116.21) scale(1.09 2.39) skewX(5.08)" r="105.02" fy="1107.87" fx="-4624.89" cy="1107.87" cx="-4624.89" data-name="Безымянный градиент 3" id="_Безымянный_градиент_3-9"/><radialGradient xlink:href="#_Безымянный_градиент_3" gradientTransform="translate(193.51 5631.07) rotate(116.21) scale(1.09 2.39) skewX(5.08)" r="105.02" fy="1107.87" fx="-4624.89" cy="1107.87" cx="-4624.89" data-name="Безымянный градиент 3" id="_Безымянный_градиент_3-10"/><radialGradient xlink:href="#_Безымянный_градиент_3" gradientTransform="translate(193.51 5631.07) rotate(116.21) scale(1.09 2.39) skewX(5.08)" r="75.08" fy="1094.34" fx="-4623.84" cy="1094.34" cx="-4623.84" data-name="Безымянный градиент 3" id="_Безымянный_градиент_3-11"/><radialGradient xlink:href="#_Безымянный_градиент_3" gradientTransform="translate(193.51 5631.07) rotate(116.21) scale(1.09 2.39) skewX(5.08)" r="75.08" fy="1094.34" fx="-4623.84" cy="1094.34" cx="-4623.84" data-name="Безымянный градиент 3" id="_Безымянный_градиент_3-12"/><radialGradient xlink:href="#_Безымянный_градиент_3" gradientTransform="translate(193.51 5631.07) rotate(116.21) scale(1.09 2.39) skewX(5.08)" r="46.84" fy="1092.65" fx="-4620.45" cy="1092.65" cx="-4620.45" data-name="Безымянный градиент 3" id="_Безымянный_градиент_3-13"/><linearGradient gradientUnits="userSpaceOnUse" y2="49.93" x2="383.88" y1="55.9" x1="385.73" data-name="Безымянный градиент 2" id="_Безымянный_градиент_2"><stop stop-color="#7a1e00" offset="0"/><stop stop-color="#761c00" offset=".1"/><stop stop-color="#641700" offset=".62"/><stop stop-color="#5e1500" offset="1"/></linearGradient></defs><g class="cls-19"><g id="Layer_2"><g data-name="Layer_1" id="Layer_1-2"><g><g><g><g><path data-cppathid="10001" d="M397.17,93.89s-.04.08-.07.12c0,0,0,0,0,0-.04.08-.09.15-.13.23-.03.05-.06.11-.09.16-.05.08-.1.16-.15.24-.07.11-.14.22-.21.33-.07.11-.15.23-.22.34-.04.06-.08.11-.12.17-.22.32-.45.64-.68.97-.07.09-.13.18-.2.26,0,0,0,0,0,0-.16.2-.31.41-.48.61-.12.14-.23.29-.35.43-1.29,1.56-2.66,2.91-3.51,3.28-2.14.93-5.77-.24-8.29,0-2.52.24-9.47,1.82-14.58,1.47-5.11-.34-223.94-2.4-230.57-1.47s-12.5-.93-15.31,0c-2.81.93-15.31,1.13-21.94,0-6.63-1.13-12.53,3.27-17.6,3.33-1.1.01-2.35-.02-3.7-.07-.13,0-.27,0-.4-.02-.13,0-.27-.01-.41-.02-.14,0-.27-.01-.41-.02-.27-.01-.55-.02-.83-.04-.14,0-.28-.01-.42-.02-.14,0-.28-.01-.42-.02-.35-.02-.71-.03-1.06-.05h0c-.43-.02-.86-.04-1.29-.05h0c-.29-.01-.57-.02-.86-.03h0c-1.7-.06-3.37-.1-4.92-.07h-.02c-.32,0-.62.01-.93.03-.06,0-.12,0-.17,0-.1,0-.19,0-.29.01-.06,0-.11,0-.17,0-.19,0-.38.02-.57.04-.11,0-.21.02-.31.03-.08,0-.17.01-.25.02-.33.03-.64.07-.94.11-.99.14-2.02.17-3.03.12-.18,0-.36-.02-.54-.03-.66-.05-1.31-.12-1.94-.22-.11-.02-.22-.03-.34-.05-.17-.03-.33-.06-.49-.08-.11-.02-.21-.04-.32-.06-.16-.03-.31-.06-.47-.09-.15-.03-.3-.06-.45-.09h0c-.1-.02-.19-.04-.29-.06-.05-.01-.09-.02-.14-.03-.09-.02-.18-.04-.27-.06-.09-.02-.18-.04-.26-.06-.13-.03-.25-.06-.37-.09-.12-.03-.23-.06-.34-.09-.11-.03-.21-.06-.31-.09-.1-.03-.19-.06-.28-.08-.15-.04-.28-.08-.39-.12-.04-.01-.09-.03-.13-.04-.02,0-.04-.01-.06-.02-.04-.01-.07-.02-.1-.03-.02,0-.03,0-.04-.01-.03,0-.05-.02-.07-.02-.07-.02-.13-.05-.2-.08-.01,0-.03-.01-.04-.02-.02-.01-.05-.03-.07-.04-.02,0-.04-.02-.06-.03h0s-.04-.02-.06-.03h0s-.04-.03-.07-.04c-.01,0-.03-.01-.04-.02-.06-.04-.13-.07-.21-.11h0s-.06-.03-.09-.05c-.05-.03-.1-.05-.15-.08-.08-.05-.17-.1-.27-.15-.15-.08-.31-.17-.48-.27-.06-.04-.13-.07-.19-.11-.04-.03-.09-.05-.13-.08-.02-.01-.04-.03-.07-.04-.04-.03-.09-.05-.14-.08-.02-.01-.05-.03-.07-.04-.07-.04-.14-.08-.21-.12-.49-.29-1.02-.62-1.54-.96-.05-.03-.1-.06-.15-.1-.02-.02-.05-.03-.07-.05-.05-.03-.1-.07-.15-.1-.05-.03-.1-.07-.14-.1-.02-.02-.05-.03-.07-.05-.12-.08-.24-.17-.35-.25-.07-.05-.14-.1-.21-.15-.2-.15-.4-.3-.58-.45-.04-.03-.08-.07-.12-.1-.02-.02-.04-.03-.06-.05-.06-.05-.12-.1-.17-.15-.04-.03-.07-.07-.11-.1-.04-.03-.07-.06-.11-.1-.02-.02-.03-.03-.05-.05-.07-.06-.13-.13-.19-.19-.03-.03-.06-.06-.09-.09-.04-.05-.08-.09-.12-.14-.03-.03-.05-.06-.07-.09-.04-.04-.07-.09-.1-.13-.07-.1-.13-.2-.18-.29,0,0,0,0,0,0-.02-.04-.04-.08-.05-.12h0c-.05-.12-.09-.26-.12-.41h0c-.01-.05-.02-.1-.03-.16,0-.03-.01-.06-.02-.08-.01-.06-.02-.11-.03-.17,0-.03,0-.06-.01-.09,0-.06-.02-.12-.03-.18,0-.03,0-.06-.01-.1,0-.06-.01-.13-.02-.19-.02-.23-.04-.48-.05-.75,0-.07,0-.15,0-.23-.08-2.5.28-6.12.67-9.04,0-.07.02-.14.03-.22.04-.32.09-.62.13-.92,0-.06.02-.12.03-.18.03-.23.07-.44.1-.65,0-.06.02-.11.03-.17,0-.01,0-.02,0-.03,0-.05.02-.11.03-.16.03-.2.06-.38.09-.56,0-.06.02-.11.03-.17.01-.08.03-.16.04-.24.02-.1.04-.2.05-.3.02-.09.03-.19.05-.27,0-.02,0-.04.01-.06,0-.04.02-.08.02-.12.02-.08.03-.15.04-.22,0-.03.01-.07.02-.1.01-.05.02-.09.03-.13,0-.04.02-.08.03-.11,0-.02.01-.04.02-.06,0-.03.02-.05.02-.07.17-.5-.01-1.6-.28-2.83-.03-.12-.05-.24-.08-.36,0,0,0,0,0,0-.02-.08-.04-.16-.05-.24,0-.04-.02-.08-.03-.12-.08-.36-.17-.73-.26-1.09-.24-1.04-.47-2.02-.52-2.68-.01-.15-.02-.33-.03-.56-.04-1.38.04-4.13.26-6.7.02-.21.04-.42.06-.62.03-.27.06-.54.09-.81.01-.13.03-.26.05-.39.05-.39.1-.76.16-1.11.03-.18.06-.34.09-.51.02-.11.04-.22.06-.32.01-.05.02-.1.03-.15.03-.15.07-.29.1-.43.01-.05.02-.09.04-.13.02-.09.05-.17.07-.25.07-.24.15-.44.24-.6.68-1.32.26-3.96-.3-6.29-.02-.09-.04-.17-.06-.26-.02-.09-.04-.17-.06-.26-.02-.08-.04-.17-.07-.25h0c-.02-.08-.04-.17-.07-.25-.01-.04-.02-.08-.03-.12-.02-.08-.04-.16-.07-.24-.01-.04-.02-.08-.03-.12-.02-.08-.04-.16-.06-.23-.03-.11-.06-.23-.1-.34-.06-.22-.12-.43-.18-.62-.07-.23-.13-.44-.18-.63-.07-.23-.12-.48-.16-.73-.15-.93-.15-2.01-.1-2.96.02-.34.04-.67.07-.97,0-.06.01-.11.02-.17,0-.03,0-.06.01-.08,0-.05.02-.11.03-.16.07-.29.19-.55.34-.76.04-.06.13-.13.26-.2.02-.01.04-.02.07-.04.01,0,.02-.01.03-.02.04-.02.07-.04.11-.05.01,0,.03-.01.04-.02.12-.06.25-.11.38-.16.03-.01.06-.02.09-.04.11-.04.21-.08.32-.12.03-.01.06-.02.09-.03.03,0,.06-.02.09-.03.03,0,.06-.02.09-.03.03,0,.05-.02.07-.03.04-.01.09-.03.13-.04.03,0,.05-.02.08-.02.14-.05.26-.08.34-.1,0,0,0,0,0,0,.01,0,.03,0,.04-.01.22-.06.36-.16.44-.29.02-.03.03-.06.05-.09.22-.59-.41-1.66-.93-2.61-.42-.77-.87-1.58-1.26-2.22-.11-.18-.21-.35-.31-.5,0,0,0,0,0,0-.04-.06-.07-.12-.11-.17-.02-.03-.04-.05-.05-.08-.03-.05-.07-.1-.1-.14-.02-.02-.03-.05-.05-.07-.04-.05-.07-.1-.11-.14l-.02-.02c-.07-.08-.13-.17-.19-.27-.01-.02-.02-.04-.04-.06-.02-.04-.05-.08-.07-.12-.03-.06-.06-.13-.09-.2-.02-.05-.04-.09-.06-.14-.19-.52-.29-1.17-.25-1.94,0-.06,0-.13,0-.19,0-.1.01-.2.03-.3,0-.07.01-.13.02-.2,0-.03,0-.07.01-.1.02-.17.05-.35.09-.53,0-.04.01-.07.02-.11.01-.07.03-.15.05-.22.02-.07.04-.15.05-.22,0,0,0,0,0,0,.04-.15.08-.3.13-.46.08-.27.18-.55.28-.83.29-.77.23-3.16.04-6.2,0,0,0-.02,0-.02-.03-.49-.06-.99-.1-1.51,0-.02,0-.03,0-.05-.02-.3-.04-.61-.06-.92,0-.02,0-.04,0-.05-.01-.15-.02-.3-.03-.45-.02-.23-.03-.47-.05-.71,0-.09-.01-.18-.02-.28,0-.07-.01-.14-.02-.21,0-.1-.01-.2-.02-.31-.39-5.4-.84-11.32-.44-14.06.01-.08.02-.15.04-.23.03-.2.07-.37.12-.53.01-.04.02-.08.03-.11.01-.04.02-.07.04-.1.02-.05.04-.1.06-.14.03-.06.06-.11.09-.16.02-.04.05-.07.07-.1.08-.1.17-.16.27-.18.91-.17,2.18-.28,3.61-.35.32-.01.64-.03.98-.04.33,0,.67-.02,1.01-.03.51-.01,1.04-.02,1.56-.03,1.33-.02,2.66-.02,3.89-.02,1.56,0,19.09-.33,44.18-.71,36.46-.56,88.86-1.24,131.36-1.23,20.35,0,24.3.89,44.59,1.15,10.9.14,38.6-.42,48.93-.24,27.32.46,35.94.81,37.96,1,6.01-.19,26.42.05,28.07.06,1.79,0,2.6,21.88,2.6,24.61s0,5.51.25,9.29c.26,3.77.69,6.44.69,8.01,0,0,0,.01,0,.02,0,0,0,0,0,0,0,.02,0,.03,0,.05,0,0,0,0,0,0-.39,1.64-13.32,6.1-12.57,6.1.05,0,.15.01.28.03h0c1.93.31,11.86,2.69,11.86,4.17,0,.29.02.74.06,1.31.14,2.54-1.01,21.65-.87,22.27.3,1.35.87,3.86,1.46,6.01.02.06.03.12.05.18.03.09.05.18.08.27.02.06.03.12.05.18.02.06.03.12.05.17.01.05.03.1.04.15,0,.01,0,.03.01.04.02.08.04.15.07.23.02.06.03.11.05.16.03.11.07.21.1.32.03.1.07.2.1.3.02.07.05.14.07.21.02.05.03.09.05.14,0,0,0,0,0,0,.01.05.03.09.05.13.01.04.03.08.05.13.05.14.11.28.16.4.02.05.04.1.07.15.04.08.07.15.1.21.01.03.03.05.04.07.01.02.03.04.04.07,0,.01.01.02.02.03.01.02.02.04.04.05,0,0,.01.02.02.03.01.02.02.03.04.04h0s.02.02.03.03c.22.31,0,1.04-.5,1.97Z" class="cls-32"/><path data-cppathid="10002" d="M390.97,101.05c-2.14.93-5.77-.24-8.29,0-2.52.24-9.47,1.82-14.58,1.47-5.11-.34-223.94-2.4-230.57-1.47-6.63.93-12.5-.93-15.31,0-2.81.93-15.31,1.13-21.94,0-6.63-1.13-12.53,3.27-17.6,3.33-5.07.06-13.52-.83-18.37-.14-4.47.63-9.81-1.07-10.61-1.34-.07-.02-.13-.05-.2-.08-.8-.42-6.41-3.45-7.05-5.1,2.72,0,7.61-3.04,11.86-1.9,4.25,1.14,13.56-.5,13.56-.5,0,0,15.76-1.83,18.76-1.83s8.96-1.6,13.38,0c4.42,1.6,18.71.92,20.07,0,1.36-.91,5.84-1.83,10.23-1.83s219.83.74,223.75,2.08c3.91,1.35,15.82,0,15.82,0,0,0,10.19-.48,12.66-1.17,2.47-.69,11.09-.69,11.09-.69.96,1.03-4.53,8.24-6.68,9.16Z" class="cls-8"/></g><path data-cppathid="10003" d="M65.68,45c-1.15-.06-1.02-.34-2.34-.34s-.85.43-2.25.39c-1.4-.04-1.27-.5-2.25-.44-.98.06-3.23-.23-4.25-.23s-2.08.83-2.59.67c-.5-.16-3.05.27-3.18.29.01,0,.03,0,.04-.01.22-.06.36-.16.44-.29.02-.03.03-.06.05-.1.22-.59-.42-1.66-.93-2.61-.42-.77-.87-1.58-1.26-2.22-.11-.18-.21-.35-.31-.49h0c-.04-.06-.08-.12-.11-.17-.02-.03-.04-.05-.05-.08-.04-.05-.07-.1-.1-.14-.02-.02-.03-.05-.05-.07-.04-.05-.07-.1-.1-.14.75.85,1.73.9,3.87.9s4.21,1.66,4.72,2.12c.51.45,2.55,1.14,3.95,1.14s2.38-1.14,3.1-1.14c.72,0,.34-.4,1.4.28,1.06.69,3.53,1.2,3.53,1.2,0,0,1.32.17,1.74,0,.42-.17-1.91,1.54-3.06,1.49Z" class="cls-6"/></g><g class="cls-35"><g class="cls-26"><g><path data-cppathid="10004" d="M432.97,19.51s-.06-.02-.09-.03c-5.14-1.74-10.3-3.49-15.44-5.32-5.22-1.57-9.62-6.2-13.69-10.3-.33-.33-.65-.65-.97-.97-.77-.95-1.53-1.92-2.28-2.89h32.48v19.51Z" class="cls-34"/><path data-cppathid="10005" d="M432.97,38.97s-.06-.02-.09-.03c-8.64-3.02-17.56-5.78-26.8-8.28-15.88-4.53-26.06-14.7-34.24-26.8-.86-1.27-1.69-2.56-2.51-3.86h31.16c.75.97,1.51,1.94,2.28,2.89.32.32.64.64.97.97,4.07,4.1,8.47,8.73,13.69,10.3,5.15,1.83,10.3,3.58,15.44,5.32.03.01.06.02.09.03v19.46Z" class="cls-15"/><path data-cppathid="10006" d="M432.97,60.97s-.06-.02-.09-.02c-9.37-2.2-18.64-4.52-27.44-7.61-10.94-4.04-21.56-8.75-30.81-16.04-6.61-4.95-12.55-10.56-18.02-16.63-4.64-5.24-8.93-10.8-12.81-16.8-.66-1.02-1.31-2.06-1.94-3.11-.18-.25-.35-.5-.53-.75h28.01c.82,1.3,1.65,2.59,2.51,3.86,8.18,12.1,18.36,22.27,34.24,26.8,9.24,2.51,18.16,5.26,26.8,8.28.03,0,.06.02.09.03v22Z" class="cls-5"/><path data-cppathid="10007" d="M432.97,77.7s-.06-.02-.09-.02c-29.02-7.13-58.24-13.44-81.35-33.07-4.84-4.13-9.42-8.36-13.79-12.8-4.37-4.45-8.51-9.11-12.46-14.13-3.75-4.66-7.52-9.27-11.35-13.82-.63-.75-1.26-1.5-1.9-2.24-.46-.54-.93-1.07-1.39-1.62h30.68c.18.25.35.5.53.75.64,1.05,1.28,2.08,1.94,3.11,3.87,6,8.17,11.57,12.81,16.8,5.46,6.08,11.41,11.69,18.02,16.63,9.25,7.29,19.87,11.99,30.81,16.04,8.79,3.09,18.07,5.41,27.44,7.61.03,0,.06.02.09.02v16.73Z" class="cls-24"/><path data-cppathid="10008" d="M432.97,93.02s-.06-.02-.09-.03c-1.17-.41-2.34-.81-3.54-1.18-27.17-8.84-53.03-18.7-77.42-31.96-8.26-4.49-16.53-8.93-24.79-13.29-8.31-4.47-16.63-10.55-23.68-17.45-4.93-4.47-9.8-8.99-14.57-13.62-3.91-3.8-7.75-7.66-11.49-11.63-.83-.87-1.64-1.75-2.46-2.63-.41-.41-.83-.82-1.24-1.23h36.96c.46.54.93,1.07,1.39,1.62.64.75,1.27,1.49,1.9,2.24,3.83,4.55,7.61,9.16,11.35,13.82,3.94,5.02,8.09,9.69,12.46,14.13,4.37,4.45,8.95,8.67,13.79,12.8,23.1,19.63,52.32,25.94,81.35,33.07.03,0,.06.02.09.02v15.32Z" class="cls-30"/><path data-cppathid="10009" d="M432.97,105.7h-.68c-8.01-6.07-18.77-9.48-28.68-12.52-24.19-8.32-48.41-18.24-71.68-28.75-9.18-4.38-18.1-8.8-26.32-13.4-8.22-4.61-15.73-9.4-22.09-14.55-7.47-5.11-14.8-10.16-21.85-15.21-7.42-6.02-14.95-11.88-22.71-17.4-.53-.38-1.07-.76-1.61-1.14-1.29-.92-2.58-1.82-3.89-2.72h40.22c.41.41.83.82,1.24,1.23.82.88,1.63,1.76,2.46,2.63,3.74,3.97,7.58,7.83,11.49,11.63,4.77,4.63,9.64,9.16,14.57,13.62,7.05,6.9,15.38,12.98,23.68,17.45,8.26,4.36,16.53,8.8,24.79,13.29,24.38,13.26,50.25,23.12,77.42,31.96,1.19.37,2.37.77,3.54,1.18.03,0,.06.02.09.03v12.67Z" class="cls-12"/><path data-cppathid="10010" d="M331.93,64.42c-9.18-4.38-18.1-8.79-26.32-13.4-8.22-4.6-15.73-9.4-22.09-14.55-7.46-5.11-14.8-10.16-21.85-15.21-7.94-6.44-15.99-12.69-24.32-18.54-1.29-.92-2.59-1.82-3.89-2.72h-61.49c18.99,8.44,37.64,17.58,55.47,27.74,9.45,5.32,18.66,10.94,27.67,16.78,6.94,4.61,14.39,9.27,22.16,13.98,6.85,4.54,14.52,8.66,22.58,12.63,8.05,3.98,16.49,7.81,24.86,11.77,13.25,6.97,28.87,13.84,42.08,22.8h65.5c-8.01-6.07-18.77-9.48-28.68-12.52-24.2-8.32-48.41-18.25-71.67-28.76Z" class="cls-9"/><path data-cppathid="10011" d="M299.85,71.13c-8.05-3.98-15.73-8.1-22.58-12.63-7.77-4.72-15.22-9.38-22.16-13.98-9.01-5.84-18.23-11.45-27.67-16.78C209.62,17.58,190.96,8.45,171.97,0h-84.24c13.16,7.29,26.59,14.17,40.39,20.62,29.91,13.66,65.6,24.47,95.99,41.04,6.08,3.31,11.94,6.86,17.51,10.7,13.42,10.44,28.11,20.62,39.46,33.34h85.72c-13.21-8.96-28.82-15.83-42.08-22.8-8.37-3.96-16.81-7.79-24.86-11.77Z" class="cls-22"/><path data-cppathid="10012" d="M0,105.7h16.89c-5.71-3.79-11.34-7.69-16.89-11.68v11.68Z" class="cls-17"/><path data-cppathid="10013" d="M241.61,72.36c-5.56-3.84-11.43-7.39-17.51-10.7-30.39-16.57-66.08-27.38-95.99-41.04C114.32,14.17,100.89,7.29,87.73,0h-54.8c11.43,9.56,23.2,18.63,36.51,26.52,36.26,23.23,77.31,33.43,113.89,56,8.98,5.57,21.01,11.1,30.34,18.21,2.06,1.57,3.99,3.22,5.72,4.96h61.68c-11.35-12.72-26.03-22.9-39.46-33.34Z" class="cls-7"/><path data-cppathid="10014" d="M0,94.02c5.55,3.99,11.18,7.9,16.89,11.68h41.4c-20.69-8.64-40.29-19.6-58.28-32.76v21.07Z" class="cls-31"/><path data-cppathid="10015" d="M213.67,100.74c-9.33-7.12-21.36-12.64-30.34-18.21-36.58-22.57-77.63-32.78-113.89-56C56.14,18.64,44.37,9.56,32.93,0H0v5.65c1.11.87,2.18,1.76,3.21,2.7,35.77,37.36,80.58,57.99,124.2,89.26,3.63,2.4,6.94,5.09,9.83,8.09h82.16c-1.73-1.74-3.66-3.39-5.72-4.96Z" class="cls-25"/><path data-cppathid="10016" d="M127.4,97.61C83.78,66.34,38.98,45.71,3.21,8.35c-1.02-.94-2.1-1.83-3.21-2.7v67.29c17.99,13.16,37.6,24.12,58.28,32.76h78.95c-2.89-3-6.2-5.69-9.83-8.09Z" class="cls-10"/></g></g></g><path data-cppathid="10017" d="M396.1,48.26s-1.25-.13-3.32,0-2.32-.27-4.48.63-1.99,1.2-3.65,2.1-1.33,1.1-4.23,2.1-2.32,1.3-4.9,1.6-3.9.3-1.58.6.76,1.92,4.73.7c3.65-1.13,5.14-1.52,5.14-1.52,0,0,8.64-1.38,10.3-2.28s1.99-3.93,1.99-3.93Z" class="cls-23"/></g><text data-cppathid="10018" transform="translate(116.62 61.29)" class="cls-20"><tspan data-cppathid="10019" y="0" x="0" class="cls-3">P</tspan><tspan data-cppathid="10020" y="0" x="21.22">US</tspan><tspan data-cppathid="10021" y="0" x="63.24" class="cls-14">A</tspan><tspan data-cppathid="10022" y="0" x="84.39">T BE</tspan><tspan data-cppathid="10023" y="0" x="152.81" class="cls-33">L</tspan><tspan data-cppathid="10024" y="0" x="170.71" class="cls-36">A</tspan><tspan data-cppathid="10025" y="0" x="193.35" class="cls-16">J</tspan><tspan data-cppathid="10026" y="0" x="208.52" class="cls-37">AR</tspan></text><g><rect data-cppathid="10027" height="15.56" width="37.96" y="49.48" x="70.06" class="cls-2"/><path data-cppathid="10028" d="M108.02,56.96c-1.58,0-1.58.65-3.17.65s-1.58-.65-3.17-.65-1.58.65-3.16.65-1.58-.65-3.16-.65-1.58.65-3.16.65-1.58-.65-3.16-.65-1.58.65-3.16.65-1.58-.65-3.16-.65-1.58.65-3.16.65-1.58-.65-3.16-.65-1.58.65-3.16.65-1.58-.65-3.16-.65v-1.23c1.58,0,1.58.65,3.16.65s1.58-.65,3.16-.65,1.58.65,3.16.65,1.58-.65,3.16-.65,1.58.65,3.16.65,1.58-.65,3.16-.65,1.58.65,3.16.65,1.58-.65,3.16-.65,1.58.65,3.16.65,1.58-.65,3.16-.65,1.58.65,3.17.65,1.58-.65,3.17-.65v1.23Z" class="cls-18"/><path data-cppathid="10029" d="M108.02,60.65c-1.58,0-1.58.65-3.17.65s-1.58-.65-3.17-.65-1.58.65-3.16.65-1.58-.65-3.16-.65-1.58.65-3.16.65-1.58-.65-3.16-.65-1.58.65-3.16.65-1.58-.65-3.16-.65-1.58.65-3.16.65-1.58-.65-3.16-.65-1.58.65-3.16.65-1.58-.65-3.16-.65v-1.23c1.58,0,1.58.65,3.16.65s1.58-.65,3.16-.65,1.58.65,3.16.65,1.58-.65,3.16-.65,1.58.65,3.16.65,1.58-.65,3.16-.65,1.58.65,3.16.65,1.58-.65,3.16-.65,1.58.65,3.16.65,1.58-.65,3.16-.65,1.58.65,3.17.65,1.58-.65,3.17-.65v1.23Z" class="cls-18"/><path data-cppathid="10030" d="M70.06,62.92v2.12h37.96v-15.56h-2.16c-1.07,3.71-6.92,16.69-35.8,13.44Z" class="cls-27"/><path data-cppathid="10031" d="M108.27,52.26c-.03-1.96-.2-3.92-.85-5.8-1.91-6.05-7.48-8.71-10.56-9.74-1.25-.42-2.61-.3-3.77.33l-22.99,12.41c-.61.3-.99.91-1.17,1.59-.18.69-.22,1.38.02,2.06.04.1.09.19.16.28,1.17,1.32,2.67.15,4.22-.85,1.56-1.01,3.49-.97,3.49-.97.41-.02.83.03,1.24.07.93.11,1.82.44,2.71.71,1.16.34,2.32.56,3.45.09,1.42-.6,3-1.17,4.61-1.08,1.66.1,3.14,1,4.81,1.1,2.34.14,4.31-.63,6.47-1.33,1.5-.49,3.12.19,4.94,1.51v12.4h3.19c0-3.76-.02-7.52.01-11.28,0-.5,0-1,0-1.5Z" class="cls-29"/><g><g><path data-cppathid="10032" d="M82,31.36s-1.83,4.03,1.19,4.75c2.32-2.05-1.19-4.75-1.19-4.75Z" class="cls-1"/><path data-cppathid="10033" d="M86.69,32.69s-4.4.45-3.5,3.41c2.94.97,3.5-3.41,3.5-3.41Z" class="cls-1"/><path data-cppathid="10034" d="M78.43,34.96s2.72,3.49,4.75,1.15c-.74-3.01-4.75-1.15-4.75-1.15Z" class="cls-1"/></g><path data-cppathid="10035" d="M82.82,35.41c-.43.12-.82.23-1.15.32-1.51.38-3.55,1.34-3.28,3.22.01.09.03.18.05.27.78,3.11,4.36,5.69,6.61,5.13,2.25-.56,4.2-4.53,3.42-7.64-.62-2.48-3.56-1.87-5.65-1.3Z" class="cls-28"/><g><path data-cppathid="10036" d="M80.57,38.39c.2.26.26.56.13.66-.13.1-.4-.03-.61-.29-.2-.26-.26-.56-.13-.66.13-.1.4.03.61.29Z" class="cls-11"/><path data-cppathid="10037" d="M83.75,37.72c.05.33-.04.62-.21.64s-.34-.22-.39-.55c-.05-.33.04-.62.21-.64.16-.03.34.22.39.55Z" class="cls-11"/><path data-cppathid="10038" d="M86.53,37c-.12.31-.35.51-.5.45s-.18-.36-.06-.67c.12-.31.35-.51.5-.45s.18.36.06.67Z" class="cls-11"/><path data-cppathid="10039" d="M85.77,39.62c.09.32.04.62-.12.66-.16.05-.36-.18-.46-.49-.09-.32-.04-.62.12-.66.16-.05.36.18.46.49Z" class="cls-11"/><path data-cppathid="10040" d="M85.05,42.27c-.01.33-.15.6-.32.59-.17,0-.29-.28-.28-.61.01-.33.15-.6.32-.59.17,0,.29.28.28.61Z" class="cls-11"/><path data-cppathid="10041" d="M82.84,40.73c.03.33-.08.61-.24.63-.17.02-.33-.24-.36-.57s.08-.61.24-.63c.17-.02.33.24.36.57Z" class="cls-11"/></g><path data-cppathid="10042" d="M86.74,35c.03.08.05.16.07.25.78,3.11-1.17,7.08-3.42,7.64-1.01.25-2.28-.13-3.45-.9,1.46,1.68,3.59,2.74,5.11,2.36,2.25-.56,4.2-4.53,3.42-7.64-.26-1.02-.91-1.52-1.74-1.71Z" class="cls-27"/></g><g><path data-cppathid="10043" d="M96.28,41.32s-.07-.01-.07-.01c.72-5.49-5.66-7.63-5.66-7.63,1.32,1.72-1.93,2.95-1.93,2.95-5.54,1.39-3.97,4.51-3.97,4.51-.06.01-.12.03-.17.05-3.14.84-2.53,5.45.71,5.45h10.53c3.23,0,3.72-4.68.56-5.32Z" class="cls-4"/><path data-cppathid="10044" d="M96.28,41.32s-.07-.01-.07-.01c0-.06.01-.12.02-.18.56-5.36-5.68-7.45-5.68-7.45,0,0,5.27,4.52,2.91,8.01,0,0,0,0-.02.03-.44.62-1.12,1.04-1.87,1.12-1.06.12-2.29.11-3.68-.14,0,0,2.61,1.44,5.27,1.37.18.24.31.55.22.9-.1.43-.5.73-.95.75-1.94.09-4.41.09-6.58-.04-2.19-.13-3.12-1.34-3.45-1.95-.02.58.13,1.16.44,1.65,0,0,0,0,0,0,0,0,0,0,.01.01.05.08.1.15.15.22.01.02.02.03.04.05.06.07.12.14.19.21.02.02.03.03.05.05.05.05.11.1.17.14.02.02.05.04.07.06.07.05.14.1.22.15.03.02.06.03.1.05.05.03.11.06.17.08.04.02.08.03.12.05,0,0,.01,0,.02,0h0c.31.11.65.18,1.03.18h10.53c3.23,0,3.72-4.68.56-5.32Z" class="cls-21"/></g></g></g></g></g></g></svg>