<?xml version="1.0" encoding="UTF-8"?>
<svg xmlns="http://www.w3.org/2000/svg" onmouseup="{ if(window.parent.document.onmouseup) window.parent.document.onmouseup(arguments[0]);}" viewBox="0 0 352.29 99.94" xmlns:xlink="http://www.w3.org/1999/xlink"><defs><style>
      .cls-1 {
        fill: #bfd63e;
      }

      .cls-2 {
        fill: #9f461e;
      }

      .cls-3 {
        fill: #f3e7b3;
      }

      .cls-4 {
        fill: url(#_Безымянный_градиент_3-3);
      }

      .cls-5 {
        fill: url(#_Безымянный_градиент_4);
      }

      .cls-6 {
        letter-spacing: -.04em;
      }

      .cls-7 {
        fill: url(#_Безымянный_градиент_3-10);
      }

      .cls-8 {
        fill: url(#_Безымянный_градиент_5);
      }

      .cls-9 {
        fill: url(#_Безымянный_градиент_3-7);
      }

      .cls-10 {
        fill: #f5e051;
      }

      .cls-11 {
        letter-spacing: 0em;
      }

      .cls-12 {
        fill: url(#_Безымянный_градиент_3-6);
      }

      .cls-13 {
        fill: none;
      }

      .cls-14 {
        fill: url(#_Безымянный_градиент_3-2);
      }

      .cls-15 {
        letter-spacing: -.01em;
      }

      .cls-16 {
        fill: url(#_Безымянный_градиент_3-9);
      }

      .cls-17 {
        fill: #f5e7b6;
      }

      .cls-18 {
        isolation: isolate;
      }

      .cls-19 {
        fill: #fff;
        font-family: Montserrat-SemiBold, Montserrat;
        font-size: 29.63px;
        font-weight: 600;
      }

      .cls-20 {
        fill: #ecc792;
      }

      .cls-21 {
        fill: url(#_Безымянный_градиент_3-8);
      }

      .cls-22 {
        fill: url(#_Безымянный_градиент_2);
      }

      .cls-23 {
        fill: url(#_Безымянный_градиент_3-4);
      }

      .cls-24, .cls-25 {
        mix-blend-mode: multiply;
      }

      .cls-26 {
        fill: #d93f35;
      }

      .cls-27 {
        fill: #ee8e99;
      }

      .cls-25 {
        fill: #eaebea;
      }

      .cls-28 {
        fill: url(#_Безымянный_градиент_3-5);
      }

      .cls-29 {
        fill: url(#_Безымянный_градиент_3-11);
      }

      .cls-30 {
        fill: #ffe712;
      }

      .cls-31 {
        fill: url(#_Безымянный_градиент_3);
      }

      .cls-32 {
        clip-path: url(#clippath);
      }
    </style><linearGradient gradientUnits="userSpaceOnUse" y2="103.54" x2="176.64" y1="86" x1="176.64" data-name="Безымянный градиент 5" id="_Безымянный_градиент_5"><stop stop-color="#b23608" offset="0"/><stop stop-color="#9e2e06" offset=".07"/><stop stop-color="#872503" offset=".17"/><stop stop-color="#741d02" offset=".29"/><stop stop-color="#671800" offset=".43"/><stop stop-color="#601500" offset=".61"/><stop stop-color="#5e1500" offset="1"/></linearGradient><linearGradient gradientUnits="userSpaceOnUse" y2="42.64" x2="12.13" y1="34.13" x1="12.13" data-name="Безымянный градиент 4" id="_Безымянный_градиент_4"><stop stop-color="#b23608" offset="0"/><stop stop-color="#932905" offset=".26"/><stop stop-color="#761e02" offset=".55"/><stop stop-color="#641700" offset=".81"/><stop stop-color="#5e1500" offset="1"/></linearGradient><clipPath id="clippath"><path data-cppathid="10000" d="M351.7,89.46s-.04.08-.07.12c-.53.95-1.14,1.84-1.8,2.71,0,0,0,0,0,0-3.5,5.68-6.97,4.67-12.62,4.32-2.52.24-9.47,1.82-14.58,1.47-31.82-1.44-239.41-1.27-267.82-1.47-6.63-1.13-12.53,3.26-17.6,3.33-8.57-.8-17.48.55-25.94-.65-1.14-.29-2.34-.5-3.41-1h0c-2.35-1.41-5.15-2.64-6.82-4.89-.08-.17-.13-.32-.18-.52-1.25-6.14,1.9-12.59.91-18.91-1.4-4.74-.93-9.51-.19-14.83,1.03-2.73,1.15-5.46.05-8.94-4.58-14.73,6.86-4.21-.28-15.03,0,0,0,0,0,0C.08,33.77,0,31.77.51,29.95,2.33,23.6-.89,9.28.25,3.66c.24-2.51,4.25-1.31,6.27-1.73,61.47-.59,156.39-3.49,225.59-.84,36.44-.69,88.67.7,114.96.82,2.98,8.47,2.35,31.92,3.55,41.92-.09,1.75-14.29,6.29-12.3,6.19,1.93.31,11.86,2.69,11.86,4.17.4,9.56-2.38,24.14,1.37,31.94.46,1.35,1.2,1.57.14,3.31Z" class="cls-13"/></clipPath><radialGradient gradientUnits="userSpaceOnUse" gradientTransform="translate(2119.8 7479.48) rotate(90) scale(2.28 2.41)" r="190.12" fy="828.78" fx="-3170.54" cy="828.78" cx="-3170.54" data-name="Безымянный градиент 3" id="_Безымянный_градиент_3"><stop stop-color="#481103" offset="0"/><stop stop-color="#a55211" offset="1"/></radialGradient><radialGradient xlink:href="#_Безымянный_градиент_3" r="195.93" fy="824.8" fx="-3155.68" cy="824.8" cx="-3155.68" data-name="Безымянный градиент 3" id="_Безымянный_градиент_3-2"/><radialGradient xlink:href="#_Безымянный_градиент_3" r="194.88" fy="825.1" fx="-3151.35" cy="825.1" cx="-3151.35" data-name="Безымянный градиент 3" id="_Безымянный_градиент_3-3"/><radialGradient xlink:href="#_Безымянный_градиент_3" r="218.38" fy="834.17" fx="-3126.35" cy="834.17" cx="-3126.35" data-name="Безымянный градиент 3" id="_Безымянный_градиент_3-4"/><radialGradient xlink:href="#_Безымянный_градиент_3" r="216.57" fy="865.45" fx="-3101.55" cy="865.45" cx="-3101.55" data-name="Безымянный градиент 3" id="_Безымянный_градиент_3-5"/><radialGradient xlink:href="#_Безымянный_градиент_3" gradientTransform="translate(-147.29 5430.43) rotate(116.21) scale(1.09 2.39) skewX(5.08)" r="157.42" fy="960.89" fx="-4573.64" cy="960.89" cx="-4573.64" data-name="Безымянный градиент 3" id="_Безымянный_градиент_3-6"/><radialGradient xlink:href="#_Безымянный_градиент_3" gradientTransform="translate(-147.29 5430.43) rotate(116.21) scale(1.09 2.39) skewX(5.08)" r="138.66" fy="960.15" fx="-4570.46" cy="960.15" cx="-4570.46" data-name="Безымянный градиент 3" id="_Безымянный_градиент_3-7"/><radialGradient xlink:href="#_Безымянный_градиент_3" gradientTransform="translate(-147.29 5430.43) rotate(116.21) scale(1.09 2.39) skewX(5.08)" r="104.52" fy="960.47" fx="-4570.07" cy="960.47" cx="-4570.07" data-name="Безымянный градиент 3" id="_Безымянный_градиент_3-8"/><radialGradient xlink:href="#_Безымянный_градиент_3" gradientTransform="translate(-147.29 5430.43) rotate(116.21) scale(1.09 2.39) skewX(5.08)" r="75.08" fy="946.94" fx="-4568.92" cy="946.94" cx="-4568.92" data-name="Безымянный градиент 3" id="_Безымянный_градиент_3-9"/><radialGradient xlink:href="#_Безымянный_градиент_3" gradientTransform="translate(-147.29 5430.43) rotate(116.21) scale(1.09 2.39) skewX(5.08)" r="75.08" fy="946.94" fx="-4568.92" cy="946.94" cx="-4568.92" data-name="Безымянный градиент 3" id="_Безымянный_градиент_3-10"/><radialGradient xlink:href="#_Безымянный_градиент_3" gradientTransform="translate(-147.29 5430.43) rotate(116.21) scale(1.09 2.39) skewX(5.08)" r="46.81" fy="945.25" fx="-4565.54" cy="945.25" cx="-4565.54" data-name="Безымянный градиент 3" id="_Безымянный_градиент_3-11"/><linearGradient gradientUnits="userSpaceOnUse" y2="45.5" x2="338.41" y1="51.39" x1="340.24" data-name="Безымянный градиент 2" id="_Безымянный_градиент_2"><stop stop-color="#7a1e00" offset="0"/><stop stop-color="#761c00" offset=".1"/><stop stop-color="#641700" offset=".62"/><stop stop-color="#5e1500" offset="1"/></linearGradient></defs><g class="cls-18"><g id="Layer_2"><g data-name="Layer_1" id="Layer_1-2"><g><g><g><g><path data-cppathid="10001" d="M351.7,89.46s-.04.08-.07.12c-.53.95-1.14,1.84-1.8,2.71,0,0,0,0,0,0-3.5,5.68-6.97,4.67-12.62,4.32-2.52.24-9.47,1.82-14.58,1.47-31.82-1.44-239.41-1.27-267.82-1.47-6.63-1.13-12.53,3.26-17.6,3.33-8.57-.8-17.48.55-25.94-.65-1.14-.29-2.34-.5-3.41-1h0c-2.35-1.41-5.15-2.64-6.82-4.89-.08-.17-.13-.32-.18-.52-1.25-6.14,1.9-12.59.91-18.91-1.4-4.74-.93-9.51-.19-14.83,1.03-2.73,1.15-5.46.05-8.94-4.58-14.73,6.86-4.21-.28-15.03,0,0,0,0,0,0C.08,33.77,0,31.77.51,29.95,2.33,23.6-.89,9.28.25,3.66c.24-2.51,4.25-1.31,6.27-1.73,61.47-.59,156.39-3.49,225.59-.84,36.44-.69,88.67.7,114.96.82,2.98,8.47,2.35,31.92,3.55,41.92-.09,1.75-14.29,6.29-12.3,6.19,1.93.31,11.86,2.69,11.86,4.17.4,9.56-2.38,24.14,1.37,31.94.46,1.35,1.2,1.57.14,3.31Z" class="cls-30"/><path data-cppathid="10002" d="M345.5,96.62c-59.45,5.03-249.94-6.31-308.28,3.33-11.99-1.4-28.2,3.37-36.22-6.66,2.72,0,7.61-3.04,11.86-1.9,13.06,1.15,19.02-2.06,32.33-2.33,3.01,0,8.96-1.6,13.38,0,4.42,1.6,18.71.92,20.07,0,40.05-6.26,236.41,3.71,273.55-1.6.96,1.03-4.53,8.24-6.68,9.16Z" class="cls-8"/></g><path data-cppathid="10003" d="M20.21,40.56c-1.15-.06-1.02-.34-2.34-.34s-.85.43-2.25.39c-2.3-.51-4.21-.55-6.51-.67-1.95.63-4.13.73-5.77.97,1.73-1.03-1.46-4.31-1.97-5.73h0c-.13-.21-.27-.41-.42-.6.75.85,1.73.9,3.87.9,4.53.5,4.42,3.28,8.67,3.26,1.4,0,2.38-1.14,3.1-1.14.72,0,.34-.4,1.4.28,1.06.69,3.53,1.2,3.53,1.2,0,0,1.32.17,1.74,0,.42-.17-1.91,1.54-3.06,1.49Z" class="cls-5"/></g><g class="cls-32"><g class="cls-24"><g><path data-cppathid="10004" d="M387.5,34.53c-27.12-8.49-49.09-12.21-63.64-38.97h31.16c7.7,11.51,20.01,15.85,32.48,19.51v19.46Z" class="cls-31"/><path data-cppathid="10005" d="M387.5,56.53c-38.12-6.81-72.14-26.85-91.64-60.97h28.01c14.57,26.79,36.52,30.47,63.64,38.97v22Z" class="cls-14"/><path data-cppathid="10006" d="M387.5,73.27c-57.37-10.73-88-31.11-122.33-77.7h30.68c19.51,34.12,53.52,54.16,91.64,60.97v16.73Z" class="cls-4"/><path data-cppathid="10007" d="M387.5,88.58c-37.75-11.48-72.09-27.41-105.84-46.46-20.49-11.36-36.98-30.01-53.45-46.56h36.96c34.63,46.84,64.66,66.81,122.33,77.7v15.32Z" class="cls-23"/><path data-cppathid="10008" d="M387.5,101.26h-.68c-8.01-6.07-18.77-9.48-28.68-12.52-33.21-11.72-67.28-25.31-98-42.15-26.29-15.24-47.74-33.84-72.15-51.02h40.22c16.46,16.55,32.96,35.21,53.45,46.56,33.75,19.05,68.09,34.98,105.84,46.46v12.67Z" class="cls-28"/><path data-cppathid="10009" d="M286.46,59.98c-37.05-16.07-66.45-41.36-98.47-64.42h-61.49c37.51,16,71.1,36.52,105.3,58.5,28.29,17.94,60.91,28.35,89.52,47.2h65.5c-8.01-6.07-18.77-9.48-28.68-12.52-24.2-8.32-48.41-18.25-71.67-28.76Z" class="cls-12"/><path data-cppathid="10010" d="M254.38,66.69C210.93,43.13,172.55,14.14,126.5-4.44c0,0-84.24,0-84.24,0,62.51,37.03,142.53,48.92,193.34,105.7h85.72c-21.58-13.93-44.58-23.57-66.94-34.57Z" class="cls-9"/><path data-cppathid="10011" d="M196.14,67.92c-33.95-23.35-77.59-35.32-113.49-51.74C29.58-11.07,46.81-3.73-12.54-4.44,41.48,44.66,117.22,56.05,173.92,101.26h61.68c-11.35-12.72-26.03-22.9-39.46-33.34Z" class="cls-21"/><path data-cppathid="10012" d="M-45.47,89.58c5.55,3.99,11.18,7.9,16.89,11.68H12.81c-20.69-8.64-40.29-19.6-58.28-32.76v21.07Z" class="cls-16"/><path data-cppathid="10013" d="M168.2,96.3C111.14,55.86,39.98,42.56-12.54-4.44h-32.93V1.21C-6.28,42.73,46.08,64.5,91.76,101.26h82.16c-1.73-1.74-3.66-3.39-5.72-4.96Z" class="cls-7"/><path data-cppathid="10014" d="M81.93,93.17C36.83,61.39-8.39,39.46-45.47,1.21v67.29C11.5,111.2,26.53,100.25,91.76,101.26c-2.89-3-6.2-5.69-9.83-8.09Z" class="cls-29"/></g></g></g><path data-cppathid="10015" d="M350.63,43.82c-1.18.04-5.82-.38-7.8.63-4.21,2.21-7.87,5-12.79,5.8-2.57.3-3.9.3-1.58.6s.76,1.92,4.73.7c7.1-2.46,8.21-1.44,15.44-3.8,1.66-.9,1.99-3.93,1.99-3.93Z" class="cls-22"/></g><text data-cppathid="10016" transform="translate(71.15 56.85)" class="cls-19"><tspan data-cppathid="10017" y="0" x="0" class="cls-11">E</tspan><tspan data-cppathid="10018" y="0" x="19.56" class="cls-6">V</tspan><tspan data-cppathid="10019" y="0" x="40.06">A</tspan><tspan data-cppathid="10020" y="0" x="62.26" class="cls-11">L</tspan><tspan data-cppathid="10021" y="0" x="79.71" class="cls-15">U</tspan><tspan data-cppathid="10022" y="0" x="102.65">ASI</tspan></text><g><rect data-cppathid="10023" height="15.56" width="37.96" y="45.04" x="24.59" class="cls-2"/><path data-cppathid="10024" d="M62.55,52.52c-1.58,0-1.58.65-3.17.65s-1.58-.65-3.17-.65-1.58.65-3.16.65-1.58-.65-3.16-.65-1.58.65-3.16.65-1.58-.65-3.16-.65-1.58.65-3.16.65-1.58-.65-3.16-.65-1.58.65-3.16.65-1.58-.65-3.16-.65-1.58.65-3.16.65-1.58-.65-3.16-.65v-1.23c1.58,0,1.58.65,3.16.65s1.58-.65,3.16-.65,1.58.65,3.16.65,1.58-.65,3.16-.65,1.58.65,3.16.65,1.58-.65,3.16-.65,1.58.65,3.16.65,1.58-.65,3.16-.65,1.58.65,3.16.65,1.58-.65,3.16-.65,1.58.65,3.17.65,1.58-.65,3.17-.65v1.23Z" class="cls-17"/><path data-cppathid="10025" d="M62.55,56.21c-1.58,0-1.58.65-3.17.65s-1.58-.65-3.17-.65-1.58.65-3.16.65-1.58-.65-3.16-.65-1.58.65-3.16.65-1.58-.65-3.16-.65-1.58.65-3.16.65-1.58-.65-3.16-.65-1.58.65-3.16.65-1.58-.65-3.16-.65-1.58.65-3.16.65-1.58-.65-3.16-.65v-1.23c1.58,0,1.58.65,3.16.65s1.58-.65,3.16-.65,1.58.65,3.16.65,1.58-.65,3.16-.65,1.58.65,3.16.65,1.58-.65,3.16-.65,1.58.65,3.16.65,1.58-.65,3.16-.65,1.58.65,3.16.65,1.58-.65,3.16-.65,1.58.65,3.17.65,1.58-.65,3.17-.65v1.23Z" class="cls-17"/><path data-cppathid="10026" d="M24.59,58.48v2.12h37.96v-15.56h-2.16c-1.07,3.71-6.92,16.69-35.8,13.44Z" class="cls-25"/><path data-cppathid="10027" d="M62.8,47.82c.73-8.45-8.29-17.73-15.18-15.21-.35.46-25.68,13.04-24.16,14-1.07,6.48,5.85-.28,7.89.51,10.43,2.78,7.24-2.02,16.82.9,4.3.39,7.37-3.42,11.42.18v12.4h3.19c-.01-4.26,0-8.52,0-12.78Z" class="cls-27"/><g><g><path data-cppathid="10028" d="M36.53,26.93s-1.83,4.03,1.19,4.75c2.32-2.05-1.19-4.75-1.19-4.75Z" class="cls-1"/><path data-cppathid="10029" d="M41.22,28.26s-4.4.45-3.5,3.41c2.94.97,3.5-3.41,3.5-3.41Z" class="cls-1"/><path data-cppathid="10030" d="M32.96,30.52s2.72,3.49,4.75,1.15c-.74-3.01-4.75-1.15-4.75-1.15Z" class="cls-1"/></g><path data-cppathid="10031" d="M37.35,30.98c-8.45.94-2.66,9.62,2.24,8.94,4.64-1.55,5.56-12.25-2.24-8.94Z" class="cls-26"/><g><path data-cppathid="10032" d="M35.1,33.95c.48.62,0,.99-.48.37-.48-.62,0-.99.48-.37Z" class="cls-10"/><path data-cppathid="10033" d="M38.28,33.28c.13.77-.48.87-.6.09-.13-.77.48-.87.6-.09Z" class="cls-10"/><path data-cppathid="10034" d="M41.06,32.56c-.28.73-.85.5-.56-.22.28-.73.85-.5.56.22Z" class="cls-10"/><path data-cppathid="10035" d="M40.3,35.19c.22.75-.37.92-.58.17-.22-.75.37-.92.58-.17Z" class="cls-10"/><path data-cppathid="10036" d="M39.58,37.83c-.02.78-.63.76-.6-.02.02-.78.63-.76.6.02Z" class="cls-10"/><path data-cppathid="10037" d="M37.37,36.29c.08.78-.53.84-.6.06-.08-.78.53-.84.6-.06Z" class="cls-10"/></g><path data-cppathid="10038" d="M41.27,30.56c1.17,4.57-2.48,10.26-6.79,6.99,5.74,7.37,12.13-4.27,6.79-6.99Z" class="cls-25"/></g><g><path data-cppathid="10039" d="M50.81,36.89s-.07-.01-.07-.01c.72-5.49-5.66-7.63-5.66-7.63,1.76,3.77-7.92,2.81-5.9,7.46-3.27.67-2.82,5.49.54,5.49,0,0,10.53,0,10.53,0,3.23,0,3.72-4.68.56-5.32Z" class="cls-3"/><path data-cppathid="10040" d="M50.81,36.89s-.07-.01-.07-.01c.79-5.31-5.65-7.69-5.66-7.63,2.97,1.8,6.93,10.96-2.66,9.02,0,0,2.61,1.44,5.27,1.37,2.07,3.1-10.91,1.93-10.75-.34-.02.58.13,1.16.44,1.65,0,0,0,0,0,0,.3.49.76.87,1.3,1.07h0c-.24.34,11.27.13,11.57.18,3.23,0,3.72-4.68.56-5.32Z" class="cls-20"/></g></g></g></g></g></g></svg>