<?xml version="1.0" encoding="UTF-8"?>
<svg xmlns="http://www.w3.org/2000/svg" onmouseup="{ if(window.parent.document.onmouseup) window.parent.document.onmouseup(arguments[0]);}" viewBox="0 0 417.14 541.02" id="Layer_2"><defs><style>
      .cls-1 {
        fill: #231f20;
      }
    </style></defs><g id="Capa_1"><path data-cppathid="10000" d="M406.27,198.96c-4.67-3.33-10.27-5.06-15.94-5.06-2.63,0-5.28.37-7.85,1.13-9.87,2.91-20.46,5.55-31.64,7.89.42-32.15.77-68.84.29-76.38C346.93,61.35,290.71,6.02,223.13.59c-4.24-.34-8.48-.53-12.6-.58-36.84-.38-69.36,11.13-96.64,34.21-27.08,22.9-44.86,56.66-47.58,90.3-.56,6.91-.57,45.47-.51,78.3-11-2.32-21.42-4.91-31.14-7.78-2.58-.76-5.22-1.13-7.86-1.13-5.67,0-11.27,1.74-15.94,5.06-6.84,4.87-10.87,12.57-10.87,20.76v295.48c0,14.26,12,25.82,26.81,25.82h363.52c14.8,0,26.81-11.56,26.81-25.82V219.73c0-8.19-4.03-15.89-10.87-20.76ZM126.01,212.06c.49-41.65,2.74-98.4,12.21-113.83,15.1-24.59,39.96-39.04,68.21-39.64,1.01-.02,2-.03,2.98-.02,28.64.29,53.74,14.46,68.86,38.87,10.19,16.45,12.47,71.2,12.53,114.65-26.02,2.7-53.73,4.1-82.23,4.1s-56.45-1.42-82.56-4.14Z" class="cls-1"/></g></svg>