<?xml version="1.0" encoding="UTF-8"?>
<svg xmlns="http://www.w3.org/2000/svg" onmouseup="{ if(window.parent.document.onmouseup) window.parent.document.onmouseup(arguments[0]);}" viewBox="0 0 277.62 290.87" id="Layer_2"><defs><style>
      .cls-1 {
        fill: #f5d073;
      }

      .cls-2, .cls-3 {
        fill: #489091;
      }

      .cls-4 {
        fill: #fff;
      }

      .cls-4, .cls-5, .cls-6, .cls-7, .cls-8, .cls-9 {
        fill-rule: evenodd;
      }

      .cls-10 {
        fill: #f75b40;
      }

      .cls-5 {
        fill: #f6460a;
      }

      .cls-11 {
        fill: #3b787b;
      }

      .cls-3 {
        opacity: .2;
      }

      .cls-6 {
        fill: #f8754a;
      }

      .cls-12 {
        fill: #fff1d1;
      }

      .cls-7 {
        fill: #d53c09;
      }

      .cls-8 {
        fill: #611c05;
      }

      .cls-13 {
        fill: #ffe495;
      }

      .cls-14 {
        fill: #ffeabe;
      }

      .cls-9 {
        fill: #962a06;
      }

      .cls-15 {
        fill: #f6d9a9;
      }

      .cls-16 {
        fill: #edcf95;
      }
    </style></defs><g data-name="Layer_1" id="Layer_1-2"><g><path data-cppathid="10000" d="M222.14,234.91c10.82-10.92,19.57-24.02,25.57-38.64,5.77-14.04,8.95-29.39,8.95-45.42s-3.18-31.38-8.95-45.42c-6-14.61-14.75-27.72-25.59-38.62-10.86-10.95-23.85-19.78-38.28-25.81-13.93-5.82-29.14-9.03-45.03-9.03s-31.12,3.21-45.03,9.03c-14.43,6.03-27.42,14.86-38.3,25.79-10.82,10.92-19.57,24.02-25.57,38.63-5.77,14.04-8.95,29.39-8.95,45.42s3.19,31.39,8.95,45.43c6,14.61,14.75,27.72,25.57,38.63,10.82,10.91,23.82,19.74,38.3,25.79,13.93,5.82,29.14,9.03,45.03,9.03s31.11-3.21,45.03-9.03c14.49-6.05,27.49-14.88,38.3-25.79ZM138.81,248.6c-13.19,0-25.72-2.62-37.1-7.38-11.79-4.93-22.46-12.2-31.43-21.25-8.97-9.05-16.18-19.81-21.07-31.7-4.71-11.47-7.31-24.12-7.31-37.42s2.6-25.94,7.31-37.42c4.89-11.89,12.09-22.65,21.07-31.7v-.04c8.92-9.01,19.59-16.27,31.43-21.21,11.37-4.75,23.9-7.38,37.1-7.38s25.72,2.63,37.1,7.38c11.83,4.94,22.5,12.2,31.42,21.21v.04c8.98,9.05,16.18,19.81,21.07,31.7,4.71,11.47,7.32,24.11,7.32,37.41s-2.6,25.94-7.32,37.42c-4.88,11.89-12.09,22.65-21.07,31.7-8.97,9.05-19.64,16.33-31.43,21.25-11.37,4.75-23.9,7.38-37.09,7.38Z" class="cls-8"/><path data-cppathid="10001" d="M228.4,188.27c4.71-11.47,7.32-24.11,7.32-37.42s-2.6-25.94-7.32-37.41c-4.88-11.89-12.09-22.65-21.07-31.7v-.04c-8.92-9.01-19.59-16.27-31.42-21.21-11.38-4.75-23.91-7.38-37.1-7.38s-25.72,2.63-37.1,7.38c-11.84,4.94-22.5,12.2-31.43,21.21v.04c-8.97,9.05-16.18,19.81-21.07,31.7-4.71,11.47-7.31,24.11-7.31,37.42s2.6,25.95,7.31,37.42c4.89,11.89,12.09,22.65,21.07,31.7,8.97,9.05,19.64,16.32,31.43,21.25,11.38,4.75,23.91,7.38,37.1,7.38s25.72-2.62,37.09-7.38c11.79-4.92,22.46-12.2,31.43-21.25,8.98-9.05,16.18-19.81,21.07-31.7Z" class="cls-8"/><path data-cppathid="10002" d="M236.96,51.85c-12.76-12.87-28.05-23.26-45.1-30.38-16.39-6.84-34.31-10.63-53.04-10.63-38.33,0-73.04,15.68-98.15,41.01-12.75,12.86-23.06,28.3-30.12,45.5C3.75,113.88,0,131.96,0,150.85s3.75,36.97,10.54,53.51c7.06,17.2,17.37,32.63,30.12,45.5h.04c12.77,12.88,28.06,23.28,45.07,30.38,16.39,6.84,34.31,10.63,53.05,10.63s36.65-3.78,53.04-10.63c17.01-7.1,32.3-17.5,45.07-30.38h.04c12.76-12.87,23.06-28.3,30.12-45.5,6.79-16.54,10.54-34.61,10.54-53.51s-3.75-36.97-10.54-53.51c-7.06-17.2-17.37-32.63-30.12-45.5ZM247.77,196.35c-5.95,14.48-14.71,27.57-25.6,38.59-10.88,10.97-23.86,19.81-38.25,25.82-13.84,5.78-29.08,8.98-45.1,8.98s-31.27-3.2-45.11-8.98c-14.39-6.01-27.37-14.85-38.23-25.84-10.91-11-19.68-24.09-25.62-38.56-5.73-13.97-8.9-29.33-8.9-45.5s3.17-31.54,8.9-45.5c5.94-14.48,14.71-27.56,25.62-38.56,21.32-21.51,50.79-34.82,83.34-34.82,16.03,0,31.27,3.2,45.11,8.98,14.35,6,27.33,14.84,38.23,25.84,10.9,11,19.67,24.09,25.62,38.57,5.73,13.97,8.9,29.33,8.9,45.5s-3.17,31.54-8.9,45.5Z" class="cls-8"/><path data-cppathid="10003" d="M138.81,21.4c-35.44,0-67.53,14.49-90.75,37.91-23.22,23.42-37.59,55.79-37.59,91.53s14.37,68.11,37.59,91.54c23.22,23.42,55.31,37.91,90.75,37.91s67.53-14.49,90.75-37.91c23.22-23.42,37.59-55.79,37.59-91.54s-14.37-68.11-37.59-91.53c-23.22-23.42-55.31-37.91-90.75-37.91ZM214.74,227.44c-19.43,19.59-46.28,31.72-75.93,31.72s-56.5-12.13-75.93-31.72c-19.43-19.6-31.45-46.68-31.45-76.59s12.02-56.99,31.45-76.59c19.43-19.6,46.28-31.72,75.93-31.72s56.5,12.13,75.93,31.72c19.43,19.6,31.45,46.68,31.45,76.59s-12.02,56.99-31.45,76.59Z" class="cls-8"/><path data-cppathid="10004" d="M207.33,70.86c-8.92-9-19.59-16.26-31.42-21.21-11.38-4.75-23.91-7.38-37.1-7.38s-25.72,2.62-37.1,7.38c-11.84,4.94-22.5,12.2-31.43,21.21l-.04.04c-8.93,9-16.13,19.76-21.03,31.7-4.71,11.47-7.31,24.11-7.31,37.42s2.6,25.94,7.31,37.42c4.9,11.93,12.1,22.7,21.03,31.7h.04c8.97,9.05,19.64,16.32,31.43,21.25,11.38,4.75,23.91,7.38,37.1,7.38s25.72-2.62,37.09-7.38c11.79-4.92,22.46-12.2,31.43-21.25,8.97-9.05,16.18-19.81,21.07-31.7,4.71-11.47,7.32-24.11,7.32-37.42s-2.6-25.94-7.32-37.42c-4.88-11.89-12.09-22.65-21.07-31.7v-.04Z" class="cls-9"/><path data-cppathid="10005" d="M183.85,30.17c-13.93-5.82-29.14-9.03-45.03-9.03s-31.12,3.21-45.03,9.03c-14.42,6.03-27.4,14.85-38.26,25.79l-.04.04c-10.85,10.95-19.6,24.04-25.57,38.59-5.77,14.04-8.95,29.39-8.95,45.42s3.19,31.38,8.95,45.42c5.98,14.55,14.73,27.66,25.57,38.63,10.82,10.91,23.82,19.74,38.3,25.79,13.93,5.82,29.14,9.03,45.03,9.03s31.11-3.21,45.03-9.03c14.49-6.05,27.49-14.88,38.3-25.79,10.82-10.91,19.57-24.02,25.57-38.63,5.77-14.04,8.95-29.39,8.95-45.42s-3.18-31.38-8.95-45.42c-6-14.61-14.75-27.72-25.59-38.61-10.86-10.95-23.85-19.78-38.28-25.81ZM235.71,140.02c0,13.3-2.6,25.94-7.32,37.42-4.88,11.89-12.09,22.65-21.07,31.7-8.97,9.05-19.64,16.33-31.43,21.25-11.37,4.75-23.9,7.38-37.09,7.38s-25.72-2.62-37.1-7.38c-11.79-4.93-22.46-12.2-31.43-21.25h-.04c-8.93-9-16.13-19.76-21.03-31.7-4.71-11.48-7.31-24.12-7.31-37.42s2.6-25.94,7.31-37.42c4.9-11.94,12.1-22.7,21.03-31.7l.04-.04c8.92-9,19.59-16.26,31.43-21.21,11.37-4.75,23.9-7.38,37.1-7.38s25.72,2.62,37.1,7.38c11.83,4.94,22.5,12.2,31.42,21.21v.04c8.97,9.05,16.18,19.81,21.07,31.7,4.71,11.48,7.32,24.12,7.32,37.42Z" class="cls-9"/><path data-cppathid="10006" d="M191.86,10.63C175.47,3.78,157.54,0,138.81,0s-36.66,3.78-53.05,10.63c-16.99,7.09-32.28,17.49-45.06,30.38l-.04.04c-12.78,12.9-23.09,28.32-30.12,45.46C3.75,103.04,0,121.12,0,140.02s3.75,36.97,10.54,53.51c7.04,17.14,17.35,32.57,30.12,45.49,12.75,12.86,28.06,23.26,45.1,30.38,16.39,6.85,34.32,10.63,53.05,10.63s36.66-3.78,53.04-10.63c17.05-7.12,32.35-17.52,45.1-30.38,12.76-12.87,23.06-28.3,30.12-45.5,6.79-16.53,10.54-34.61,10.54-53.51,0-38.66-15.54-73.67-40.68-98.99-12.79-12.9-28.09-23.3-45.08-30.4ZM247.77,185.52c-5.95,14.48-14.71,27.56-25.62,38.56-10.9,11-23.88,19.84-38.23,25.84-13.84,5.78-29.08,8.98-45.11,8.98s-31.27-3.19-45.11-8.98c-14.35-6-27.33-14.84-38.23-25.84h-.04c-10.86-10.95-19.62-24.04-25.58-38.56-5.73-13.97-8.9-29.33-8.9-45.5s3.17-31.54,8.9-45.5c5.96-14.53,14.72-27.61,25.58-38.56l.04-.04c10.86-10.95,23.83-19.79,38.23-25.8,13.84-5.78,29.08-8.98,45.11-8.98s31.27,3.2,45.11,8.98c14.39,6.01,27.37,14.84,38.23,25.8v.04c21.32,21.51,34.52,51.24,34.52,84.07,0,16.17-3.17,31.54-8.9,45.5Z" class="cls-9"/><path data-cppathid="10007" d="M138.81,10.57c-35.44,0-67.53,14.49-90.75,37.91-23.22,23.42-37.59,55.79-37.59,91.54s14.37,68.11,37.59,91.53c23.22,23.42,55.31,37.91,90.75,37.91s67.53-14.49,90.75-37.91c23.22-23.42,37.59-55.79,37.59-91.53s-14.37-68.11-37.59-91.54c-23.22-23.42-55.31-37.91-90.75-37.91ZM214.74,216.61c-19.43,19.59-46.28,31.72-75.93,31.72s-56.5-12.13-75.93-31.72c-19.43-19.6-31.45-46.68-31.45-76.59s12.02-56.99,31.45-76.59c19.43-19.6,46.28-31.72,75.93-31.72s56.5,12.13,75.93,31.72c19.43,19.6,31.45,46.68,31.45,76.59s-12.02,56.99-31.45,76.59Z" class="cls-4"/><path data-cppathid="10008" d="M138.81,21.13c-65.09,0-117.86,53.22-117.86,118.88s52.77,118.88,117.86,118.88,117.86-53.22,117.86-118.88S203.9,21.13,138.81,21.13Z" class="cls-7"/><path data-cppathid="10009" d="M138.81,27.56c-29.96,0-57.09,12.25-76.72,32.06-19.63,19.81-31.78,47.17-31.78,77.39s12.15,57.58,31.78,77.38c19.63,19.8,46.76,32.06,76.72,32.06s57.08-12.25,76.72-32.06c19.63-19.8,31.78-47.17,31.78-77.38s-12.15-57.58-31.78-77.39c-19.63-19.8-46.76-32.06-76.72-32.06ZM213.68,212.52c-19.15,19.32-45.63,31.28-74.87,31.28s-55.71-11.96-74.87-31.28c-19.15-19.32-31.01-46.02-31.01-75.52s11.85-56.19,31.01-75.52c19.16-19.32,45.63-31.28,74.87-31.28s55.71,11.96,74.87,31.28c19.15,19.32,31.01,46.03,31.01,75.52s-11.85,56.2-31.01,75.52Z" class="cls-6"/><path data-cppathid="10010" d="M138.81,28.89c-59.2,0-107.19,48.41-107.19,108.12s47.99,108.12,107.19,108.12,107.18-48.41,107.18-108.12S198.01,28.89,138.81,28.89Z" class="cls-5"/><path data-cppathid="10011" d="M138.81,239.86c-58.1,0-105.4-46.64-107.12-104.82-.03,1.09-.05,2.19-.05,3.29,0,59.7,47.98,108.1,107.17,108.1s107.17-48.4,107.17-108.1c0-1.1-.02-2.19-.05-3.28-1.72,58.18-49.02,104.82-107.12,104.82Z" class="cls-6"/></g><g><path data-cppathid="10012" d="M214.81,191.76l-73.54,8.26-73.54-8.26c-.79-.09-1.39-.79-1.39-1.63v-98.9c0-.9.7-1.64,1.55-1.64h146.75c.86,0,1.55.73,1.55,1.64v98.9c0,.84-.6,1.54-1.39,1.63Z" class="cls-11"/><path data-cppathid="10013" d="M204.63,183.62l-63.09,6.39c-.18.02-.36.02-.54,0l-63.09-6.39c-.61-.06-1.08-.57-1.08-1.19v-101.22c0-.72.64-1.28,1.36-1.18l62.92,8.76h.33l62.91-8.76c.72-.1,1.36.46,1.36,1.18v101.22c0,.62-.47,1.13-1.08,1.19Z" class="cls-14"/><polygon data-cppathid="10014" points="143.42 189.84 141.27 190.03 139.13 189.84 139.13 88.51 141.11 88.79 143.42 88.51 143.42 189.84" class="cls-1"/><path data-cppathid="10015" d="M204.63,183.62l-63.09,6.39c-.18.02-.36.02-.54,0l-63.09-6.39c-.61-.06-1.08-.57-1.08-1.19v-101.22c0-.72.64-1.28,1.36-1.18l62.92,8.76h.33l62.91-8.76c.72-.1,1.36.46,1.36,1.18v101.22c0,.62-.47,1.13-1.08,1.19Z" class="cls-14"/><polygon data-cppathid="10016" points="143.42 189.84 141.27 190.03 139.13 189.84 139.13 88.51 141.11 88.79 143.42 88.51 143.42 189.84" class="cls-1"/><g><path data-cppathid="10017" d="M141.12,190.02s-.08,0-.12,0l-.77-.08-1.1-.1h0s-61.21-6.22-61.21-6.22c-.61-.06-1.08-.57-1.08-1.19v-92.84h-8.94c-.86,0-1.55.73-1.55,1.64v98.9c0,.84.6,1.54,1.39,1.63l73.54,8.26v-9.99h-.15Z" class="cls-2"/><path data-cppathid="10018" d="M139.13,88.51l1.98.28-62.92-8.76c-.72-.1-1.36.46-1.36,1.18v8.39h62.3v-1.08Z" class="cls-12"/><path data-cppathid="10019" d="M141.54,190.02l.77-.08-.89.08s.08,0,.12,0Z" class="cls-14"/><path data-cppathid="10020" d="M77.92,183.62l61.21,6.2v-100.23h-62.3v92.84c0,.62.47,1.13,1.08,1.19Z" class="cls-12"/><path data-cppathid="10021" d="M141,190.02s.08,0,.12,0l-.89-.08.77.08Z" class="cls-14"/><path data-cppathid="10022" d="M141.27,88.77l-.16.02h.16v-.02Z" class="cls-1"/><path data-cppathid="10023" d="M141.44,88.79l1.98-.28-2.14.26v.02h.17Z" class="cls-1"/><polygon data-cppathid="10024" points="143.42 189.84 143.42 189.83 142.32 189.94 143.42 189.84" class="cls-1"/><polygon data-cppathid="10025" points="139.13 189.84 140.23 189.94 139.13 189.83 139.13 189.84" class="cls-1"/><path data-cppathid="10026" d="M141.27,190.03h.15c-.05-.01-.1-.01-.15-.01h0Z" class="cls-1"/><path data-cppathid="10027" d="M141.12,190.02h.15s0,0,0,0c-.05,0-.1,0-.15,0Z" class="cls-1"/><path data-cppathid="10028" d="M139.13,89.6h2.14v-.81h-.16l-1.98-.28v1.08Z" class="cls-13"/><path data-cppathid="10029" d="M141.27,89.6h-2.14v100.23l1.1.11.89.08c.05,0,.1,0,.15,0v-100.42Z" class="cls-13"/></g><polygon data-cppathid="10030" points="122.51 101.7 100.58 99.55 100.58 95.91 122.5 98.02 122.51 101.7" class="cls-15"/><polygon data-cppathid="10031" points="132.38 112.74 88.14 108.77 88.14 105.13 132.38 109.25 132.38 112.74" class="cls-15"/><polygon data-cppathid="10032" points="132.38 122.17 88.14 118.34 88.14 114.7 132.5 118.64 132.38 122.17" class="cls-15"/><polygon data-cppathid="10033" points="132.5 132.36 88.14 128.21 88.14 124.57 132.5 128.79 132.5 132.36" class="cls-15"/><polygon data-cppathid="10034" points="150.43 112.28 194.82 108.38 194.82 104.75 150.51 108.61 150.43 112.28" class="cls-16"/><polygon data-cppathid="10035" points="150.45 122.4 194.82 118.25 194.82 114.61 150.51 118.73 150.45 122.4" class="cls-16"/><polygon data-cppathid="10036" points="150.44 131.9 194.82 127.96 194.82 124.33 150.43 128.24 150.44 131.9" class="cls-16"/><polygon data-cppathid="10037" points="150.43 141.43 194.82 137.53 194.82 133.9 150.51 137.76 150.43 141.43" class="cls-16"/><polygon data-cppathid="10038" points="150.45 151.55 194.82 147.4 194.82 143.77 150.51 147.89 150.45 151.55" class="cls-16"/><polygon data-cppathid="10039" points="150.45 161.99 194.83 158.05 194.83 154.42 150.44 158.33 150.45 161.99" class="cls-16"/><polygon data-cppathid="10040" points="132.38 141.66 88.14 137.68 88.14 134.05 132.38 138.16 132.38 141.66" class="cls-15"/><polygon data-cppathid="10041" points="132.38 151.09 125.87 150.52 124.1 151.83 92.99 149.35 90.8 147.48 88.14 147.25 88.14 143.62 92.82 144.04 97.55 143.16 123.96 145.53 124.65 146.86 132.5 147.56 132.38 151.09" class="cls-15"/><polygon data-cppathid="10042" points="132.5 161.27 125.21 160.59 123.39 161.84 91.53 159.38 89.35 157.23 88.14 157.12 88.14 153.49 89.33 153.6 92.04 152.65 124.65 155.34 126.15 157.1 132.5 157.7 132.5 161.27" class="cls-15"/><polygon data-cppathid="10043" points="116.36 172.96 119.87 176.6 123.39 173.91 120.81 169.9 116.36 172.96" class="cls-2"/><g><path data-cppathid="10044" d="M107.6,135.68c-10.86,0-19.67,8.81-19.67,19.67s8.8,19.67,19.67,19.67,19.67-8.81,19.67-19.67-8.81-19.67-19.67-19.67ZM107.6,171.13c-8.72,0-15.79-7.07-15.79-15.79s7.07-15.79,15.79-15.79,15.79,7.07,15.79,15.79-7.07,15.79-15.79,15.79Z" class="cls-10"/><circle data-cppathid="10045" transform="translate(-76.99 195.79) rotate(-67.65)" r="15.79" cy="155.34" cx="107.6" class="cls-3"/></g><path data-cppathid="10046" d="M139.13,198.74h0c-1.77,1.32-4.27.95-5.58-.81l-14.72-19.74c-.3-.4-.22-.96.18-1.26l4.95-3.69c.4-.3.96-.22,1.26.18l14.72,19.74c1.32,1.77.95,4.27-.81,5.58Z" class="cls-10"/></g></g></svg>