<?xml version="1.0" encoding="UTF-8"?>
<svg xmlns="http://www.w3.org/2000/svg" onmouseup="{ if(window.parent.document.onmouseup) window.parent.document.onmouseup(arguments[0]);}" viewBox="0 0 277.62 290.87" id="Layer_2"><defs><style>
      .cls-1 {
        fill: #f5d073;
      }

      .cls-2 {
        fill: #489091;
      }

      .cls-3 {
        fill: #fff;
      }

      .cls-3, .cls-4, .cls-5, .cls-6, .cls-7, .cls-8 {
        fill-rule: evenodd;
      }

      .cls-9 {
        fill: #f75b40;
      }

      .cls-4 {
        fill: #f6460a;
      }

      .cls-10 {
        fill: #3b787b;
      }

      .cls-5 {
        fill: #f8754a;
      }

      .cls-11 {
        fill: #ff6c59;
      }

      .cls-6 {
        fill: #d53c09;
      }

      .cls-7 {
        fill: #611c05;
      }

      .cls-12 {
        fill: #ffe495;
      }

      .cls-8 {
        fill: #962a06;
      }
    </style></defs><g data-name="Layer_1" id="Layer_1-2"><g><path data-cppathid="10000" d="M222.14,234.91c10.82-10.92,19.57-24.02,25.57-38.64,5.77-14.04,8.95-29.39,8.95-45.42s-3.18-31.38-8.95-45.42c-6-14.61-14.75-27.72-25.59-38.62-10.86-10.95-23.85-19.78-38.28-25.81-13.93-5.82-29.14-9.03-45.03-9.03s-31.12,3.21-45.03,9.03c-14.43,6.03-27.42,14.86-38.3,25.79-10.82,10.92-19.57,24.02-25.57,38.63-5.77,14.04-8.95,29.39-8.95,45.42s3.19,31.39,8.95,45.43c6,14.61,14.75,27.72,25.57,38.63,10.82,10.91,23.82,19.74,38.3,25.79,13.93,5.82,29.14,9.03,45.03,9.03s31.11-3.21,45.03-9.03c14.49-6.05,27.49-14.88,38.3-25.79ZM138.81,248.6c-13.19,0-25.72-2.62-37.1-7.38-11.79-4.93-22.46-12.2-31.43-21.25-8.97-9.05-16.18-19.81-21.07-31.7-4.71-11.47-7.31-24.12-7.31-37.42s2.6-25.94,7.31-37.42c4.89-11.89,12.09-22.65,21.07-31.7v-.04c8.92-9.01,19.59-16.27,31.43-21.21,11.37-4.75,23.9-7.38,37.1-7.38s25.72,2.63,37.1,7.38c11.83,4.94,22.5,12.2,31.42,21.21v.04c8.98,9.05,16.18,19.81,21.07,31.7,4.71,11.47,7.32,24.11,7.32,37.41s-2.6,25.94-7.32,37.42c-4.88,11.89-12.09,22.65-21.07,31.7-8.97,9.05-19.64,16.33-31.43,21.25-11.37,4.75-23.9,7.38-37.09,7.38Z" class="cls-7"/><path data-cppathid="10001" d="M228.4,188.27c4.71-11.47,7.32-24.11,7.32-37.42s-2.6-25.94-7.32-37.41c-4.88-11.89-12.09-22.65-21.07-31.7v-.04c-8.92-9.01-19.59-16.27-31.42-21.21-11.38-4.75-23.91-7.38-37.1-7.38s-25.72,2.63-37.1,7.38c-11.84,4.94-22.5,12.2-31.43,21.21v.04c-8.97,9.05-16.18,19.81-21.07,31.7-4.71,11.47-7.31,24.11-7.31,37.42s2.6,25.95,7.31,37.42c4.89,11.89,12.09,22.65,21.07,31.7,8.97,9.05,19.64,16.32,31.43,21.25,11.38,4.75,23.91,7.38,37.1,7.38s25.72-2.62,37.09-7.38c11.79-4.92,22.46-12.2,31.43-21.25,8.98-9.05,16.18-19.81,21.07-31.7Z" class="cls-7"/><path data-cppathid="10002" d="M236.96,51.85c-12.76-12.87-28.05-23.26-45.1-30.38-16.39-6.84-34.31-10.63-53.04-10.63-38.33,0-73.04,15.68-98.15,41.01-12.75,12.86-23.06,28.3-30.12,45.5C3.75,113.88,0,131.96,0,150.85s3.75,36.97,10.54,53.51c7.06,17.2,17.37,32.63,30.12,45.5h.04c12.77,12.88,28.06,23.28,45.07,30.38,16.39,6.84,34.31,10.63,53.05,10.63s36.65-3.78,53.04-10.63c17.01-7.1,32.3-17.5,45.07-30.38h.04c12.76-12.87,23.06-28.3,30.12-45.5,6.79-16.54,10.54-34.61,10.54-53.51s-3.75-36.97-10.54-53.51c-7.06-17.2-17.37-32.63-30.12-45.5ZM247.77,196.35c-5.95,14.48-14.71,27.57-25.6,38.59-10.88,10.97-23.86,19.81-38.25,25.82-13.84,5.78-29.08,8.98-45.1,8.98s-31.27-3.2-45.11-8.98c-14.39-6.01-27.37-14.85-38.23-25.84-10.91-11-19.68-24.09-25.62-38.56-5.73-13.97-8.9-29.33-8.9-45.5s3.17-31.54,8.9-45.5c5.94-14.48,14.71-27.56,25.62-38.56,21.32-21.51,50.79-34.82,83.34-34.82,16.03,0,31.27,3.2,45.11,8.98,14.35,6,27.33,14.84,38.23,25.84,10.9,11,19.67,24.09,25.62,38.57,5.73,13.97,8.9,29.33,8.9,45.5s-3.17,31.54-8.9,45.5Z" class="cls-7"/><path data-cppathid="10003" d="M138.81,21.4c-35.44,0-67.53,14.49-90.75,37.91-23.22,23.42-37.59,55.79-37.59,91.53s14.37,68.11,37.59,91.54c23.22,23.42,55.31,37.91,90.75,37.91s67.53-14.49,90.75-37.91c23.22-23.42,37.59-55.79,37.59-91.54s-14.37-68.11-37.59-91.53c-23.22-23.42-55.31-37.91-90.75-37.91ZM214.74,227.44c-19.43,19.59-46.28,31.72-75.93,31.72s-56.5-12.13-75.93-31.72c-19.43-19.6-31.45-46.68-31.45-76.59s12.02-56.99,31.45-76.59c19.43-19.6,46.28-31.72,75.93-31.72s56.5,12.13,75.93,31.72c19.43,19.6,31.45,46.68,31.45,76.59s-12.02,56.99-31.45,76.59Z" class="cls-7"/><path data-cppathid="10004" d="M207.33,70.86c-8.92-9-19.59-16.26-31.42-21.21-11.38-4.75-23.91-7.38-37.1-7.38s-25.72,2.62-37.1,7.38c-11.84,4.94-22.5,12.2-31.43,21.21l-.04.04c-8.93,9-16.13,19.76-21.03,31.7-4.71,11.47-7.31,24.11-7.31,37.42s2.6,25.94,7.31,37.42c4.9,11.93,12.1,22.7,21.03,31.7h.04c8.97,9.05,19.64,16.32,31.43,21.25,11.38,4.75,23.91,7.38,37.1,7.38s25.72-2.62,37.09-7.38c11.79-4.92,22.46-12.2,31.43-21.25,8.97-9.05,16.18-19.81,21.07-31.7,4.71-11.47,7.32-24.11,7.32-37.42s-2.6-25.94-7.32-37.42c-4.88-11.89-12.09-22.65-21.07-31.7v-.04Z" class="cls-8"/><path data-cppathid="10005" d="M183.85,30.17c-13.93-5.82-29.14-9.03-45.03-9.03s-31.12,3.21-45.03,9.03c-14.42,6.03-27.4,14.85-38.26,25.79l-.04.04c-10.85,10.95-19.6,24.04-25.57,38.59-5.77,14.04-8.95,29.39-8.95,45.42s3.19,31.38,8.95,45.42c5.98,14.55,14.73,27.66,25.57,38.63,10.82,10.91,23.82,19.74,38.3,25.79,13.93,5.82,29.14,9.03,45.03,9.03s31.11-3.21,45.03-9.03c14.49-6.05,27.49-14.88,38.3-25.79,10.82-10.91,19.57-24.02,25.57-38.63,5.77-14.04,8.95-29.39,8.95-45.42s-3.18-31.38-8.95-45.42c-6-14.61-14.75-27.72-25.59-38.61-10.86-10.95-23.85-19.78-38.28-25.81ZM235.71,140.02c0,13.3-2.6,25.94-7.32,37.42-4.88,11.89-12.09,22.65-21.07,31.7-8.97,9.05-19.64,16.33-31.43,21.25-11.37,4.75-23.9,7.38-37.09,7.38s-25.72-2.62-37.1-7.38c-11.79-4.93-22.46-12.2-31.43-21.25h-.04c-8.93-9-16.13-19.76-21.03-31.7-4.71-11.48-7.31-24.12-7.31-37.42s2.6-25.94,7.31-37.42c4.9-11.94,12.1-22.7,21.03-31.7l.04-.04c8.92-9,19.59-16.26,31.43-21.21,11.37-4.75,23.9-7.38,37.1-7.38s25.72,2.62,37.1,7.38c11.83,4.94,22.5,12.2,31.42,21.21v.04c8.97,9.05,16.18,19.81,21.07,31.7,4.71,11.48,7.32,24.12,7.32,37.42Z" class="cls-8"/><path data-cppathid="10006" d="M191.86,10.63C175.47,3.78,157.54,0,138.81,0s-36.66,3.78-53.05,10.63c-16.99,7.09-32.28,17.49-45.06,30.38l-.04.04c-12.78,12.9-23.09,28.32-30.12,45.46C3.75,103.04,0,121.12,0,140.02s3.75,36.97,10.54,53.51c7.04,17.14,17.35,32.57,30.12,45.49,12.75,12.86,28.06,23.26,45.1,30.38,16.39,6.85,34.32,10.63,53.05,10.63s36.66-3.78,53.04-10.63c17.05-7.12,32.35-17.52,45.1-30.38,12.76-12.87,23.06-28.3,30.12-45.5,6.79-16.53,10.54-34.61,10.54-53.51,0-38.66-15.54-73.67-40.68-98.99-12.79-12.9-28.09-23.3-45.08-30.4ZM247.77,185.52c-5.95,14.48-14.71,27.56-25.62,38.56-10.9,11-23.88,19.84-38.23,25.84-13.84,5.78-29.08,8.98-45.11,8.98s-31.27-3.19-45.11-8.98c-14.35-6-27.33-14.84-38.23-25.84h-.04c-10.86-10.95-19.62-24.04-25.58-38.56-5.73-13.97-8.9-29.33-8.9-45.5s3.17-31.54,8.9-45.5c5.96-14.53,14.72-27.61,25.58-38.56l.04-.04c10.86-10.95,23.83-19.79,38.23-25.8,13.84-5.78,29.08-8.98,45.11-8.98s31.27,3.2,45.11,8.98c14.39,6.01,27.37,14.84,38.23,25.8v.04c21.32,21.51,34.52,51.24,34.52,84.07,0,16.17-3.17,31.54-8.9,45.5Z" class="cls-8"/><path data-cppathid="10007" d="M138.81,10.57c-35.44,0-67.53,14.49-90.75,37.91-23.22,23.42-37.59,55.79-37.59,91.54s14.37,68.11,37.59,91.53c23.22,23.42,55.31,37.91,90.75,37.91s67.53-14.49,90.75-37.91c23.22-23.42,37.59-55.79,37.59-91.53s-14.37-68.11-37.59-91.54c-23.22-23.42-55.31-37.91-90.75-37.91ZM214.74,216.61c-19.43,19.59-46.28,31.72-75.93,31.72s-56.5-12.13-75.93-31.72c-19.43-19.6-31.45-46.68-31.45-76.59s12.02-56.99,31.45-76.59c19.43-19.6,46.28-31.72,75.93-31.72s56.5,12.13,75.93,31.72c19.43,19.6,31.45,46.68,31.45,76.59s-12.02,56.99-31.45,76.59Z" class="cls-3"/><path data-cppathid="10008" d="M138.81,21.13c-65.09,0-117.86,53.22-117.86,118.88s52.77,118.88,117.86,118.88,117.86-53.22,117.86-118.88S203.9,21.13,138.81,21.13Z" class="cls-6"/><path data-cppathid="10009" d="M138.81,27.56c-29.96,0-57.09,12.25-76.72,32.06-19.63,19.81-31.78,47.17-31.78,77.39s12.15,57.58,31.78,77.38c19.63,19.8,46.76,32.06,76.72,32.06s57.08-12.25,76.72-32.06c19.63-19.8,31.78-47.17,31.78-77.38s-12.15-57.58-31.78-77.39c-19.63-19.8-46.76-32.06-76.72-32.06ZM213.68,212.52c-19.15,19.32-45.63,31.28-74.87,31.28s-55.71-11.96-74.87-31.28c-19.15-19.32-31.01-46.02-31.01-75.52s11.85-56.19,31.01-75.52c19.16-19.32,45.63-31.28,74.87-31.28s55.71,11.96,74.87,31.28c19.15,19.32,31.01,46.03,31.01,75.52s-11.85,56.2-31.01,75.52Z" class="cls-5"/><path data-cppathid="10010" d="M138.81,28.89c-59.2,0-107.19,48.41-107.19,108.12s47.99,108.12,107.19,108.12,107.18-48.41,107.18-108.12S198.01,28.89,138.81,28.89Z" class="cls-4"/><path data-cppathid="10011" d="M138.81,239.86c-58.1,0-105.4-46.64-107.12-104.82-.03,1.09-.05,2.19-.05,3.29,0,59.7,47.98,108.1,107.17,108.1s107.17-48.4,107.17-108.1c0-1.1-.02-2.19-.05-3.28-1.72,58.18-49.02,104.82-107.12,104.82Z" class="cls-5"/></g><g><rect data-cppathid="10012" ry="1.47" rx="1.47" height="120" width="32.52" y="75.43" x="64.23" class="cls-9"/><rect data-cppathid="10013" ry="1.47" rx="1.47" height="108.39" width="32.52" y="87.04" x="103.08" class="cls-10"/><path data-cppathid="10014" d="M119.34,87.04h-13.8c-1.36,0-2.46,1.1-2.46,2.46v3.91h16.26v-6.38Z" class="cls-2"/><path data-cppathid="10015" d="M103.08,103.19v89.78c0,1.36,1.1,2.46,2.46,2.46h13.8v-92.24h-16.26Z" class="cls-2"/><rect data-cppathid="10016" ry="1.47" rx="1.47" height="120" width="32.52" y="75.43" x="142.02" class="cls-1"/><rect data-cppathid="10017" ry="1.47" rx="1.47" height="120" width="32.52" y="75.43" x="180.87" class="cls-10"/><rect data-cppathid="10018" height="6.38" width="32.52" y="87.04" x="64.23" class="cls-10"/><rect data-cppathid="10019" height="6.38" width="32.52" y="180.29" x="64.23" class="cls-10"/><path data-cppathid="10020" d="M166.35,95.12c0,4.46-3.62,8.07-8.07,8.07s-8.07-3.61-8.07-8.07,3.61-8.07,8.07-8.07,8.07,3.61,8.07,8.07Z" class="cls-10"/><path data-cppathid="10021" d="M114.79,183.47c0,1.69-1.37,3.06-3.06,3.06s-3.06-1.37-3.06-3.06,1.37-3.06,3.06-3.06,3.06,1.37,3.06,3.06Z" class="cls-12"/><path data-cppathid="10022" d="M130.16,183.47c0,1.69-1.37,3.06-3.06,3.06s-3.06-1.37-3.06-3.06,1.37-3.06,3.06-3.06,3.06,1.37,3.06,3.06Z" class="cls-1"/><rect data-cppathid="10023" height="9.77" width="32.52" y="93.42" x="103.08" class="cls-1"/><path data-cppathid="10024" d="M204.66,135.43c0,4.46-3.61,8.07-8.07,8.07s-8.07-3.62-8.07-8.07,3.61-8.07,8.07-8.07,8.07,3.61,8.07,8.07Z" class="cls-9"/><rect data-cppathid="10025" height="120" width="3.64" y="75.43" x="195.31" class="cls-9"/><path data-cppathid="10026" d="M205.2,135.43c0,4.46-3.61,8.07-8.07,8.07s-8.07-3.62-8.07-8.07,3.62-8.07,8.07-8.07,8.07,3.61,8.07,8.07Z" class="cls-9"/><rect data-cppathid="10027" transform="translate(394.25 270.87) rotate(180)" height="120" width="6.16" y="75.43" x="194.05" class="cls-9"/><path data-cppathid="10028" d="M64.23,186.66v6.31c0,1.36,1.1,2.46,2.46,2.46h12.82l.06-8.77h-15.35Z" class="cls-11"/><path data-cppathid="10029" d="M80.36,75.43h-13.67c-1.36,0-2.46,1.1-2.46,2.46v9.15h16.05l.08-11.61Z" class="cls-11"/><polygon data-cppathid="10030" points="80.23 93.42 64.23 93.42 64.23 180.29 79.62 180.29 80.23 93.42" class="cls-11"/><path data-cppathid="10031" d="M150.21,95.12c0-4.46,3.61-8.07,8.07-8.07v-11.61h-13.8c-1.36,0-2.46,1.1-2.46,2.46v115.07c0,1.36,1.1,2.46,2.46,2.46h13.8v-92.24c-4.46,0-8.07-3.61-8.07-8.07Z" class="cls-12"/><path data-cppathid="10032" d="M189.05,135.43c0-3.37,2.06-6.25,4.99-7.46v-52.54h-10.72c-1.36,0-2.46,1.1-2.46,2.46v115.07c0,1.36,1.1,2.46,2.46,2.46h10.72v-52.54c-2.93-1.21-4.99-4.09-4.99-7.46Z" class="cls-2"/><polygon data-cppathid="10033" points="80.28 87.04 64.23 87.04 64.23 93.42 80.23 93.42 80.28 87.04" class="cls-2"/><polygon data-cppathid="10034" points="79.62 180.29 64.23 180.29 64.23 186.66 79.58 186.66 79.62 180.29" class="cls-2"/><path data-cppathid="10035" d="M150.21,95.12c0,4.46,3.61,8.07,8.07,8.07v-16.15c-4.46,0-8.07,3.62-8.07,8.07Z" class="cls-2"/><rect data-cppathid="10036" height="9.77" width="16.26" y="93.42" x="103.08" class="cls-12"/><path data-cppathid="10037" d="M189.05,135.43c0,3.37,2.06,6.25,4.99,7.46v-14.92c-2.93,1.21-4.99,4.09-4.99,7.46Z" class="cls-11"/><path data-cppathid="10038" d="M197.13,127.36v-51.93h-3.08v52.54c.95-.39,1.99-.62,3.08-.62Z" class="cls-11"/><path data-cppathid="10039" d="M194.05,142.89v52.54h3.08v-51.93c-1.09,0-2.13-.22-3.08-.62Z" class="cls-11"/><path data-cppathid="10040" d="M194.05,127.97v14.92c.95.39,1.99.62,3.08.62v-16.15c-1.09,0-2.13.22-3.08.62Z" class="cls-11"/></g></g></svg>