<?xml version="1.0" encoding="UTF-8"?>
<svg xmlns="http://www.w3.org/2000/svg" onmouseup="{ if(window.parent.document.onmouseup) window.parent.document.onmouseup(arguments[0]);}" viewBox="0 0 277.62 290.87"><defs><style>
      .cls-1, .cls-2 {
        fill: #fff;
      }

      .cls-2, .cls-3, .cls-4, .cls-5, .cls-6, .cls-7 {
        fill-rule: evenodd;
      }

      .cls-3 {
        fill: #f6460a;
      }

      .cls-8 {
        fill: #b31f1c;
      }

      .cls-9 {
        isolation: isolate;
      }

      .cls-4 {
        fill: #f8754a;
      }

      .cls-5 {
        fill: #d53c09;
      }

      .cls-6 {
        fill: #611c05;
      }

      .cls-10 {
        fill: #dbe4e9;
        mix-blend-mode: multiply;
      }

      .cls-7 {
        fill: #962a06;
      }

      .cls-11 {
        fill: #352e35;
      }
    </style></defs><g class="cls-9"><g id="Layer_2"><g data-name="Layer_1" id="Layer_1-2"><g><path data-cppathid="10000" d="M222.14,234.91c10.82-10.92,19.57-24.02,25.57-38.64,5.77-14.04,8.95-29.39,8.95-45.42s-3.18-31.38-8.95-45.42c-6-14.61-14.75-27.72-25.59-38.62-10.86-10.95-23.85-19.78-38.28-25.81-13.93-5.82-29.14-9.03-45.03-9.03s-31.12,3.21-45.03,9.03c-14.43,6.03-27.42,14.86-38.3,25.79-10.82,10.92-19.57,24.02-25.57,38.63-5.77,14.04-8.95,29.39-8.95,45.42s3.19,31.39,8.95,45.43c6,14.61,14.75,27.72,25.57,38.63,10.82,10.91,23.82,19.74,38.3,25.79,13.93,5.82,29.14,9.03,45.03,9.03s31.11-3.21,45.03-9.03c14.49-6.05,27.49-14.88,38.3-25.79ZM138.81,248.6c-13.19,0-25.72-2.62-37.1-7.38-11.79-4.93-22.46-12.2-31.43-21.25-8.97-9.05-16.18-19.81-21.07-31.7-4.71-11.47-7.31-24.12-7.31-37.42s2.6-25.94,7.31-37.42c4.89-11.89,12.09-22.65,21.07-31.7v-.04c8.92-9.01,19.59-16.27,31.43-21.21,11.37-4.75,23.9-7.38,37.1-7.38s25.72,2.63,37.1,7.38c11.83,4.94,22.5,12.2,31.42,21.21v.04c8.98,9.05,16.18,19.81,21.07,31.7,4.71,11.47,7.32,24.11,7.32,37.41s-2.6,25.94-7.32,37.42c-4.88,11.89-12.09,22.65-21.07,31.7-8.97,9.05-19.64,16.33-31.43,21.25-11.37,4.75-23.9,7.38-37.09,7.38Z" class="cls-6"/><path data-cppathid="10001" d="M228.4,188.27c4.71-11.47,7.32-24.11,7.32-37.42s-2.6-25.94-7.32-37.41c-4.88-11.89-12.09-22.65-21.07-31.7v-.04c-8.92-9.01-19.59-16.27-31.42-21.21-11.38-4.75-23.91-7.38-37.1-7.38s-25.72,2.63-37.1,7.38c-11.84,4.94-22.5,12.2-31.43,21.21v.04c-8.97,9.05-16.18,19.81-21.07,31.7-4.71,11.47-7.31,24.11-7.31,37.42s2.6,25.95,7.31,37.42c4.89,11.89,12.09,22.65,21.07,31.7,8.97,9.05,19.64,16.32,31.43,21.25,11.38,4.75,23.91,7.38,37.1,7.38s25.72-2.62,37.09-7.38c11.79-4.92,22.46-12.2,31.43-21.25,8.98-9.05,16.18-19.81,21.07-31.7Z" class="cls-6"/><path data-cppathid="10002" d="M236.96,51.85c-12.76-12.87-28.05-23.26-45.1-30.38-16.39-6.84-34.31-10.63-53.04-10.63-38.33,0-73.04,15.68-98.15,41.01-12.75,12.86-23.06,28.3-30.12,45.5C3.75,113.88,0,131.96,0,150.85s3.75,36.97,10.54,53.51c7.06,17.2,17.37,32.63,30.12,45.5h.04c12.77,12.88,28.06,23.28,45.07,30.38,16.39,6.84,34.31,10.63,53.05,10.63s36.65-3.78,53.04-10.63c17.01-7.1,32.3-17.5,45.07-30.38h.04c12.76-12.87,23.06-28.3,30.12-45.5,6.79-16.54,10.54-34.61,10.54-53.51s-3.75-36.97-10.54-53.51c-7.06-17.2-17.37-32.63-30.12-45.5ZM247.77,196.35c-5.95,14.48-14.71,27.57-25.6,38.59-10.88,10.97-23.86,19.81-38.25,25.82-13.84,5.78-29.08,8.98-45.1,8.98s-31.27-3.2-45.11-8.98c-14.39-6.01-27.37-14.85-38.23-25.84-10.91-11-19.68-24.09-25.62-38.56-5.73-13.97-8.9-29.33-8.9-45.5s3.17-31.54,8.9-45.5c5.94-14.48,14.71-27.56,25.62-38.56,21.32-21.51,50.79-34.82,83.34-34.82,16.03,0,31.27,3.2,45.11,8.98,14.35,6,27.33,14.84,38.23,25.84,10.9,11,19.67,24.09,25.62,38.57,5.73,13.97,8.9,29.33,8.9,45.5s-3.17,31.54-8.9,45.5Z" class="cls-6"/><path data-cppathid="10003" d="M138.81,21.4c-35.44,0-67.53,14.49-90.75,37.91-23.22,23.42-37.59,55.79-37.59,91.53s14.37,68.11,37.59,91.54c23.22,23.42,55.31,37.91,90.75,37.91s67.53-14.49,90.75-37.91c23.22-23.42,37.59-55.79,37.59-91.54s-14.37-68.11-37.59-91.53c-23.22-23.42-55.31-37.91-90.75-37.91ZM214.74,227.44c-19.43,19.59-46.28,31.72-75.93,31.72s-56.5-12.13-75.93-31.72c-19.43-19.6-31.45-46.68-31.45-76.59s12.02-56.99,31.45-76.59c19.43-19.6,46.28-31.72,75.93-31.72s56.5,12.13,75.93,31.72c19.43,19.6,31.45,46.68,31.45,76.59s-12.02,56.99-31.45,76.59Z" class="cls-6"/><path data-cppathid="10004" d="M207.33,70.86c-8.92-9-19.59-16.26-31.42-21.21-11.38-4.75-23.91-7.38-37.1-7.38s-25.72,2.62-37.1,7.38c-11.84,4.94-22.5,12.2-31.43,21.21l-.04.04c-8.93,9-16.13,19.76-21.03,31.7-4.71,11.47-7.31,24.11-7.31,37.42s2.6,25.94,7.31,37.42c4.9,11.93,12.1,22.7,21.03,31.7h.04c8.97,9.05,19.64,16.32,31.43,21.25,11.38,4.75,23.91,7.38,37.1,7.38s25.72-2.62,37.09-7.38c11.79-4.92,22.46-12.2,31.43-21.25,8.97-9.05,16.18-19.81,21.07-31.7,4.71-11.47,7.32-24.11,7.32-37.42s-2.6-25.94-7.32-37.42c-4.88-11.89-12.09-22.65-21.07-31.7v-.04Z" class="cls-7"/><path data-cppathid="10005" d="M183.85,30.17c-13.93-5.82-29.14-9.03-45.03-9.03s-31.12,3.21-45.03,9.03c-14.42,6.03-27.4,14.85-38.26,25.79l-.04.04c-10.85,10.95-19.6,24.04-25.57,38.59-5.77,14.04-8.95,29.39-8.95,45.42s3.19,31.38,8.95,45.42c5.98,14.55,14.73,27.66,25.57,38.63,10.82,10.91,23.82,19.74,38.3,25.79,13.93,5.82,29.14,9.03,45.03,9.03s31.11-3.21,45.03-9.03c14.49-6.05,27.49-14.88,38.3-25.79,10.82-10.91,19.57-24.02,25.57-38.63,5.77-14.04,8.95-29.39,8.95-45.42s-3.18-31.38-8.95-45.42c-6-14.61-14.75-27.72-25.59-38.61-10.86-10.95-23.85-19.78-38.28-25.81ZM235.71,140.02c0,13.3-2.6,25.94-7.32,37.42-4.88,11.89-12.09,22.65-21.07,31.7-8.97,9.05-19.64,16.33-31.43,21.25-11.37,4.75-23.9,7.38-37.09,7.38s-25.72-2.62-37.1-7.38c-11.79-4.93-22.46-12.2-31.43-21.25h-.04c-8.93-9-16.13-19.76-21.03-31.7-4.71-11.48-7.31-24.12-7.31-37.42s2.6-25.94,7.31-37.42c4.9-11.94,12.1-22.7,21.03-31.7l.04-.04c8.92-9,19.59-16.26,31.43-21.21,11.37-4.75,23.9-7.38,37.1-7.38s25.72,2.62,37.1,7.38c11.83,4.94,22.5,12.2,31.42,21.21v.04c8.97,9.05,16.18,19.81,21.07,31.7,4.71,11.48,7.32,24.12,7.32,37.42Z" class="cls-7"/><path data-cppathid="10006" d="M191.86,10.63C175.47,3.78,157.54,0,138.81,0s-36.66,3.78-53.05,10.63c-16.99,7.09-32.28,17.49-45.06,30.38l-.04.04c-12.78,12.9-23.09,28.32-30.12,45.46C3.75,103.04,0,121.12,0,140.02s3.75,36.97,10.54,53.51c7.04,17.14,17.35,32.57,30.12,45.49,12.75,12.86,28.06,23.26,45.1,30.38,16.39,6.85,34.32,10.63,53.05,10.63s36.66-3.78,53.04-10.63c17.05-7.12,32.35-17.52,45.1-30.38,12.76-12.87,23.06-28.3,30.12-45.5,6.79-16.53,10.54-34.61,10.54-53.51,0-38.66-15.54-73.67-40.68-98.99-12.79-12.9-28.09-23.3-45.08-30.4ZM247.77,185.52c-5.95,14.48-14.71,27.56-25.62,38.56-10.9,11-23.88,19.84-38.23,25.84-13.84,5.78-29.08,8.98-45.11,8.98s-31.27-3.19-45.11-8.98c-14.35-6-27.33-14.84-38.23-25.84h-.04c-10.86-10.95-19.62-24.04-25.58-38.56-5.73-13.97-8.9-29.33-8.9-45.5s3.17-31.54,8.9-45.5c5.96-14.53,14.72-27.61,25.58-38.56l.04-.04c10.86-10.95,23.83-19.79,38.23-25.8,13.84-5.78,29.08-8.98,45.11-8.98s31.27,3.2,45.11,8.98c14.39,6.01,27.37,14.84,38.23,25.8v.04c21.32,21.51,34.52,51.24,34.52,84.07,0,16.17-3.17,31.54-8.9,45.5Z" class="cls-7"/><path data-cppathid="10007" d="M138.81,10.57c-35.44,0-67.53,14.49-90.75,37.91-23.22,23.42-37.59,55.79-37.59,91.54s14.37,68.11,37.59,91.53c23.22,23.42,55.31,37.91,90.75,37.91s67.53-14.49,90.75-37.91c23.22-23.42,37.59-55.79,37.59-91.53s-14.37-68.11-37.59-91.54c-23.22-23.42-55.31-37.91-90.75-37.91ZM214.74,216.61c-19.43,19.59-46.28,31.72-75.93,31.72s-56.5-12.13-75.93-31.72c-19.43-19.6-31.45-46.68-31.45-76.59s12.02-56.99,31.45-76.59c19.43-19.6,46.28-31.72,75.93-31.72s56.5,12.13,75.93,31.72c19.43,19.6,31.45,46.68,31.45,76.59s-12.02,56.99-31.45,76.59Z" class="cls-2"/><path data-cppathid="10008" d="M138.81,21.13c-65.09,0-117.86,53.22-117.86,118.88s52.77,118.88,117.86,118.88,117.86-53.22,117.86-118.88S203.9,21.13,138.81,21.13Z" class="cls-5"/><path data-cppathid="10009" d="M138.81,27.56c-29.96,0-57.09,12.25-76.72,32.06-19.63,19.81-31.78,47.17-31.78,77.39s12.15,57.58,31.78,77.38c19.63,19.8,46.76,32.06,76.72,32.06s57.08-12.25,76.72-32.06c19.63-19.8,31.78-47.17,31.78-77.38s-12.15-57.58-31.78-77.39c-19.63-19.8-46.76-32.06-76.72-32.06ZM213.68,212.52c-19.15,19.32-45.63,31.28-74.87,31.28s-55.71-11.96-74.87-31.28c-19.15-19.32-31.01-46.02-31.01-75.52s11.85-56.19,31.01-75.52c19.16-19.32,45.63-31.28,74.87-31.28s55.71,11.96,74.87,31.28c19.15,19.32,31.01,46.03,31.01,75.52s-11.85,56.2-31.01,75.52Z" class="cls-4"/><path data-cppathid="10010" d="M138.81,28.89c-59.2,0-107.19,48.41-107.19,108.12s47.99,108.12,107.19,108.12,107.18-48.41,107.18-108.12S198.01,28.89,138.81,28.89Z" class="cls-3"/><path data-cppathid="10011" d="M138.81,239.86c-58.1,0-105.4-46.64-107.12-104.82-.03,1.09-.05,2.19-.05,3.29,0,59.7,47.98,108.1,107.17,108.1s107.17-48.4,107.17-108.1c0-1.1-.02-2.19-.05-3.28-1.72,58.18-49.02,104.82-107.12,104.82Z" class="cls-4"/></g><g><g><path data-cppathid="10012" d="M75.76,99.05v82.77h126.1v-82.77h-126.1ZM92.7,178.48h-12.36v-8.08h12.36v8.08ZM92.7,167.09h-12.36v-8.08h12.36v8.08ZM92.7,155.7h-12.36v-8.08h12.36v8.08ZM92.7,144.31h-12.36v-8.08h12.36v8.08ZM92.7,132.92h-12.36v-8.08h12.36v8.08ZM92.7,121.53h-12.36v-8.08h12.36v8.08ZM92.7,110.14h-12.36v-8.08h12.36v8.08ZM198.11,178.65h-12.36v-8.08h12.36v8.08ZM198.11,167.26h-12.36v-8.08h12.36v8.08ZM198.11,155.86h-12.36v-8.08h12.36v8.08ZM198.11,144.47h-12.36v-8.08h12.36v8.08ZM198.11,133.08h-12.36v-8.08h12.36v8.08ZM198.11,121.69h-12.36v-8.08h12.36v8.08ZM198.11,110.3h-12.36v-8.08h12.36v8.08Z" class="cls-11"/><path data-cppathid="10013" d="M105.76,104.04h66.1c5.21,0,9.45,4.23,9.45,9.45v53.88c0,5.21-4.23,9.45-9.45,9.45h-66.1c-5.21,0-9.45-4.23-9.45-9.45v-53.88c0-5.21,4.23-9.45,9.45-9.45Z" class="cls-1"/><path data-cppathid="10014" d="M178.17,110.64c-1.15,18.03-4.62,36.15-20.2,47.48-12.55,9.13-27.29,11.33-42.29,8.48-5.74-1.09-12.43-3.09-17.27-6.76v6.21c0,4.94,4.04,8.98,8.98,8.98h62.84c4.94,0,8.98-4.04,8.98-8.98v-51.22c0-1.51-.38-2.93-1.04-4.18Z" class="cls-10"/></g><path data-cppathid="10015" d="M160.77,140.43c0,12.13-9.83,21.96-21.96,21.96s-21.96-9.83-21.96-21.96,9.83-21.96,21.96-21.96,21.96,9.83,21.96,21.96Z" class="cls-8"/><path data-cppathid="10016" d="M133.72,155.05c-1.71,1.3-3.1.61-3.1-1.53v-26.18c0-2.14,1.39-2.83,3.1-1.53l16.08,12.26c1.7,1.3,1.71,3.43,0,4.73l-16.08,12.26Z" class="cls-1"/></g></g></g></g></svg>