<?xml version="1.0" encoding="UTF-8"?>
<svg xmlns="http://www.w3.org/2000/svg" onmouseup="{ if(window.parent.document.onmouseup) window.parent.document.onmouseup(arguments[0]);}" viewBox="0 0 118.64 97.54" id="Layer_2"><defs><style>
      .cls-1 {
        opacity: .2;
      }

      .cls-1, .cls-2, .cls-3, .cls-4 {
        fill: #fff;
      }

      .cls-5 {
        fill: #f1e7ce;
      }

      .cls-6 {
        opacity: .05;
      }

      .cls-7 {
        fill: #e52a17;
      }

      .cls-8 {
        fill: #d8e6e9;
      }

      .cls-9 {
        fill: #894a29;
      }

      .cls-2 {
        opacity: .25;
      }

      .cls-3 {
        opacity: .3;
      }

      .cls-10 {
        fill: #cdbe9f;
        opacity: .5;
      }

      .cls-4, .cls-11 {
        opacity: .1;
      }

      .cls-12 {
        fill: #b46f45;
      }

      .cls-13 {
        fill: #bbd5d6;
      }
    </style></defs><g data-name="Layer_1" id="Layer_1-2"><g><polygon data-cppathid="10000" points="0 33.5 94.76 45.76 118.64 27.52 27.07 14.7 0 33.5" class="cls-12"/><path data-cppathid="10001" d="M94.77,45.76v51.75l-.02.02C54.47,92.34,39.55,90.41,0,85.3v-51.8c33.56,4.33-1.09-.11,36.58,4.72v.02l58.16,7.51h.02Z" class="cls-8"/><polygon data-cppathid="10002" points="118.64 27.52 118.62 79.32 94.77 97.51 94.77 45.76 118.64 27.52" class="cls-13"/><polygon data-cppathid="10003" points="94.75 45.75 94.75 56.95 118.62 38.72 118.64 27.52 94.75 45.75" class="cls-9"/><polygon data-cppathid="10004" points="0 33.5 0 44.69 94.75 56.95 94.75 45.75 0 33.5" class="cls-9"/><polygon data-cppathid="10005" points="94.75 72.74 94.75 83.94 118.62 65.7 118.64 54.51 94.75 72.74" class="cls-9"/><polygon data-cppathid="10006" points="94.75 45.75 94.75 56.95 118.62 38.72 118.64 27.52 94.75 45.75" class="cls-11"/><polygon data-cppathid="10007" points="94.75 72.74 94.75 83.94 118.62 65.7 118.64 54.51 94.75 72.74" class="cls-11"/><polygon data-cppathid="10008" points="0 60.49 0 71.68 94.75 83.94 94.75 72.74 0 60.49" class="cls-9"/><polygon data-cppathid="10009" points="21.51 36.29 21.51 88.07 12.27 86.89 12.27 35.08 21.51 36.29" class="cls-3"/><polygon data-cppathid="10010" points="36.59 38.22 36.59 90.03 27.34 88.84 27.34 37.04 36.59 38.22" class="cls-3"/><g><path data-cppathid="10011" d="M95.24,22.16c5.86,6.47-21.07,6.91-22.53,2.31-.05-.14-.06-.28-.06-.41,0-.71.29-1.37.77-1.89-.48-.54-.77-1.2-.77-1.91s.29-1.35.77-1.89c-.48-.53-.77-1.19-.77-1.89,0-1.78,1.77-3.21,3.96-3.21,0-1.67,1.57-3.03,3.56-3.2h0c0-4.26,7.93-4.25,7.93-.01,2.18,0,3.95,1.44,3.95,3.21,3.25,0,5.1,2.99,3.19,5.1.48.54,1,2.67,0,3.8Z" class="cls-7"/><path data-cppathid="10012" d="M92.3,13.27c-1.51,7.54-11.45,13.1-19.6,11.19-.05-.14-.06-.28-.06-.41,0-.71.29-1.37.77-1.89-.12-.14-.23-.28-.32-.43-.28-.45-.45-.95-.45-1.48,0-.7.29-1.35.77-1.89-.48-.53-.77-1.19-.77-1.89,0-1.78,1.77-3.21,3.96-3.21,0-1.67,1.57-3.03,3.56-3.2h0c0-1.78,1.77-3.22,3.96-3.22s3.96,1.44,3.96,3.21c2.11,0,3.95,1.38,3.95,3.21.09,0,.18,0,.26.01Z" class="cls-4"/><path data-cppathid="10013" d="M89.77,10.35c-1.79,5.85-8.74,11.13-16.68,11.38-.28-.45-.45-.95-.45-1.48,0-.7.29-1.35.77-1.89-.48-.53-.77-1.19-.77-1.89,0-1.78,1.77-3.21,3.96-3.21,0-1.67,1.57-3.03,3.56-3.2h0c0-1.78,1.77-3.22,3.96-3.22s3.96,1.44,3.96,3.21c.6,0,1.17.11,1.67.3Z" class="cls-4"/><path data-cppathid="10014" d="M84.25,6.84c2.1.05,3.79,1.44,3.84,3.15-.6-.31-1.32-.49-2.09-.49,0-1.1-.69-2.08-1.75-2.66Z" class="cls-6"/><path data-cppathid="10015" d="M88.22,10.05c2.09.05,3.78,1.43,3.82,3.13-.61-.3-1.32-.48-2.09-.48,0-1.1-.69-2.08-1.74-2.66Z" class="cls-6"/><path data-cppathid="10016" d="M96,20.25c0,.7-.29,1.37-.77,1.91.48.53.77,1.18.77,1.89,0,3.65-14.51,4.41-20.66,2.32,6.83,1.37,18.57.4,18.57-2.87,0-.71-.29-1.37-.77-1.89.48-.54.77-1.2.77-1.9s-.29-1.35-.77-1.89c.48-.53.77-1.19.77-1.89,0-1.1-.68-2.07-1.7-2.66,2.12.08,3.79,1.48,3.79,3.21,0,.7-.29,1.37-.77,1.89.48.54.77,1.19.77,1.89Z" class="cls-6"/><path data-cppathid="10017" d="M82.42,7.87c.29-.21.61-.39.99-.44.38-.05.81.09.95.38.15.32-.1.68-.43.88-.33.2-.74.3-1.1.47-.45.21-.82.54-1.04.92-.52.88-1.02-.27-.84-.77.19-.53.99-1.1,1.48-1.45Z" class="cls-1"/><path data-cppathid="10018" d="M78.82,11.21c.16-.1.33-.18.53-.21.2-.02.42.04.51.18.09.14.04.32-.04.47-.28.56-.79,1.04-1.44,1.33-.69.32-.93-.15-.69-.62.24-.47.63-.85,1.13-1.15Z" class="cls-1"/><path data-cppathid="10019" d="M73.76,15.77c.37-.68,1.09-1.22,1.95-1.45.09-.03.19-.05.28-.03.17.03.27.19.27.33,0,.14-.1.28-.19.4-.58.77-1.37,1.49-1.51,2.39-.02.15-.03.3-.1.44-.11.21-.4.35-.65.19-.17-.11-.17-.32-.21-.48-.15-.61-.15-1.21.16-1.79Z" class="cls-1"/></g><g><path data-cppathid="10020" d="M97.76,28.16s3.05-1.97,3.35-4.14c1.51-3.4-1.88-8.49-5.94-6.37-3.36,1.76-9.59,3.8-14.66,4.29-10.29,1-11.44,2.03-11.44,2.03-6.05,2.21-3.03,5.99-3.03,5.99,7.77.33,26.62,2.82,31.72-1.8Z" class="cls-5"/><path data-cppathid="10021" d="M101.11,24.02c-.31,2.17-3.35,4.14-3.35,4.14-2.83,2.56-11.21,2.85-15.45,2.83-1.15,0-2.29-.05-3.43-.17-6.99-.72-12.83-.86-12.83-.86-3.52-.96-3.74,1.78-3.74,1.78.26.61,1.98,5.58,3.05,5.93,12.09,3.91,27.2,3,34.69.73,3.64-1.1,5.76-6.66,5.76-6.66,2.54-5.13-4.69-7.72-4.69-7.72Z" class="cls-5"/><path data-cppathid="10022" d="M101.11,24.02c-.14,1.71-1.93,3.51-3.18,4.41l.04-.03c-5.84,5.25-23.76,2.4-31.93,1.56,11.21-.52,32.72,3.25,35.07-5.94Z" class="cls-10"/><path data-cppathid="10023" d="M95.82,39.38c-8.29,1.55-20.79,1.38-30.47-1.72-1.06-.34-2.79-5.31-3.05-5.92,0,0,.22-2.74,3.74-1.78,10,.42,22.67,2.38,29.96-.73,2.58,2.58,3.81,4.37-.18,10.14Z" class="cls-2"/><path data-cppathid="10024" d="M90.78,35.74s-.69,1.8-1.96,3.64c-5.24.94-12.12,1.64-22.34-1.37-.36-.11-.74-.23-1.12-.35-1.06-.34-2.79-5.31-3.05-5.92,0,0,.22-2.74,3.74-1.78,0,0,5.84.15,12.83.86,1.15.12,2.29.16,3.43.17,2.07.01,5.11-.05,8.03-.41,1.02,1.32,1.51,3.05.45,5.16Z" class="cls-2"/><path data-cppathid="10025" d="M96,29.23c-7.18,3.05-22.14,1.25-29.96.73,0,0-3.02-3.78,3.03-6,0,0,1.15-1.02,11.44-2.02,3.42-.35,6.92-1.27,10.14-2.39.18.36.37.71.59,1.05,2.47,3.74,1.12,5.33,4.75,8.63Z" class="cls-2"/><path data-cppathid="10026" d="M90.33,30.57c-8.27,1.03-11.47-.03-24.29-.62,0,0-3.02-3.78,3.03-6,0,0,1.15-1.02,11.44-2.02,1.4-.15,2.79-.35,4.15-.68,1.99,3.43.92,5.02,4.62,8.22.37.33.74.69,1.05,1.09Z" class="cls-2"/><path data-cppathid="10027" d="M73.83,24.58c17.47-.97,22.65-8.32,22.98-3.71.09,1.26-.07,2.55-.59,3.69-2.41,5.38-6.32,1.83-25.85,4.27-.82.1-3.72.63-3.55-.8.38-3.12,4.96-3.34,7.01-3.46Z" class="cls-2"/><path data-cppathid="10028" d="M95.07,31.49c-5.65,1.66-11.68,2.02-17.49,1.06-3.7-.62-10.98-2.69-11.68.38-1.52,6.65,29.08,5.97,34.5,2.01,1.91-1.39,3.56-5.54,3.44-6.95-.07-.81-.75-2.13-1.57-1.31-1.14,1.14-1.45,3.13-7.2,4.82Z" class="cls-2"/></g><g><path data-cppathid="10029" d="M49.82,15.32c5.86,6.47-21.07,6.91-22.53,2.31-.05-.14-.06-.28-.06-.41,0-.71.29-1.37.77-1.89-.48-.54-.77-1.2-.77-1.9s.29-1.35.77-1.89c-.48-.53-.77-1.19-.77-1.89,0-1.78,1.77-3.21,3.96-3.21,0-1.67,1.57-3.03,3.56-3.2h0c0-1.78,1.77-3.22,3.96-3.22s3.96,1.44,3.96,3.21c2.18,0,3.95,1.44,3.95,3.21.09,0,.18,0,.26.01,3.12.15,4.77,3.05,2.93,5.09,1.05,1.19,1,2.67,0,3.8Z" class="cls-7"/><path data-cppathid="10030" d="M46.89,6.43c-1.51,7.54-11.45,13.1-19.6,11.19-.17-.5-.04-1.48.71-2.31-.47-.52-.77-1.21-.77-1.9s.29-1.35.77-1.89c-.48-.53-.77-1.19-.77-1.89,0-1.78,1.77-3.21,3.96-3.21,0-1.67,1.57-3.03,3.56-3.2h0c0-1.78,1.77-3.22,3.96-3.22s3.96,1.44,3.96,3.21c2.11,0,3.95,1.38,3.95,3.21.09,0,.18,0,.26.01Z" class="cls-4"/><path data-cppathid="10031" d="M44.35,3.51c-.75,2.46-2.44,4.93-4.95,6.97-3.44,2.79-7.71,4.29-11.73,4.41-.28-.45-.45-.95-.45-1.48,0-.7.29-1.35.77-1.89-.48-.53-.77-1.19-.77-1.89,0-1.78,1.77-3.21,3.96-3.21,0-1.67,1.57-3.03,3.56-3.2h0c0-1.78,1.77-3.22,3.96-3.22s3.96,1.44,3.96,3.21c.6,0,1.17.11,1.67.3Z" class="cls-4"/><path data-cppathid="10032" d="M38.84,0c2.1.05,3.79,1.44,3.84,3.15-.6-.31-1.32-.49-2.09-.49,0-1.1-.69-2.08-1.75-2.66Z" class="cls-6"/><path data-cppathid="10033" d="M42.8,3.21c2.09.05,3.78,1.43,3.82,3.13-.61-.3-1.32-.48-2.09-.48,0-1.1-.69-2.08-1.74-2.66Z" class="cls-6"/><path data-cppathid="10034" d="M49.82,15.32c.48.53.77,1.18.77,1.89,0,3.65-14.51,4.41-20.66,2.32,7.08,1.42,22.45.38,17.8-4.76,1-1.13,1.05-2.61,0-3.8,1.31-1.45.91-3.49-.94-4.55,3.18.11,4.88,3.05,3.03,5.1,1.05,1.19,1,2.67,0,3.8Z" class="cls-6"/><path data-cppathid="10035" d="M37,1.03c.29-.21.61-.39.99-.44.38-.05.81.09.95.38.15.32-.1.68-.43.88-.33.2-.74.3-1.1.47-.45.21-.82.54-1.04.92-.52.88-1.02-.27-.84-.77.19-.53.99-1.1,1.48-1.45Z" class="cls-1"/><path data-cppathid="10036" d="M33.41,4.36c.16-.1.33-.18.53-.21.2-.02.42.04.51.18.09.14.04.32-.04.47-.28.56-.79,1.04-1.44,1.33-.69.32-.93-.15-.69-.62.24-.47.63-.85,1.13-1.15Z" class="cls-1"/><path data-cppathid="10037" d="M28.34,8.92c.37-.68,1.09-1.22,1.95-1.45.09-.03.19-.05.28-.03.17.03.27.19.27.33,0,.14-.1.28-.19.4-.58.77-1.37,1.49-1.51,2.39-.02.15-.03.3-.1.44-.11.21-.4.35-.65.19-.17-.11-.17-.32-.21-.48-.15-.61-.15-1.21.16-1.79Z" class="cls-1"/></g><g><path data-cppathid="10038" d="M52.34,21.31s3.05-1.97,3.35-4.14c1.51-3.4-1.88-8.49-5.94-6.37-3.36,1.76-9.59,3.8-14.66,4.29-10.29,1-11.44,2.03-11.44,2.03-6.05,2.21-3.03,5.99-3.03,5.99,7.77.32,26.62,2.82,31.72-1.8Z" class="cls-5"/><path data-cppathid="10039" d="M55.7,17.17c-.31,2.17-3.35,4.14-3.35,4.14-2.83,2.56-11.21,2.85-15.45,2.83-1.15,0-2.29-.05-3.43-.17-6.99-.72-12.83-.86-12.83-.86-3.52-.96-3.74,1.78-3.74,1.78.26.61,1.98,5.58,3.05,5.93,12.09,3.91,27.2,3,34.69.73,3.64-1.1,5.76-6.66,5.76-6.66,2.54-5.13-4.69-7.72-4.69-7.72Z" class="cls-5"/><path data-cppathid="10040" d="M55.7,17.17c-.14,1.71-1.93,3.51-3.18,4.41l.04-.03c-5.84,5.25-23.76,2.4-31.93,1.56,9.73-.45,32.69,3.37,35.07-5.94Z" class="cls-10"/><path data-cppathid="10041" d="M52.37,28.89s-.69,1.8-1.96,3.64c-8.29,1.55-20.8,1.38-30.47-1.72-1.06-.34-2.79-5.31-3.05-5.92,0,0,.22-2.74,3.74-1.78,0,0,5.84.15,12.83.86,1.15.12,2.29.16,3.43.17,2.07.01,5.11-.05,8.03-.41,2.1-.27,4.13-.69,5.67-1.34.08.08.18.17.28.25,1.62,1.39,2.88,3.48,1.5,6.25Z" class="cls-2"/><path data-cppathid="10042" d="M45.37,28.89s-.69,1.8-1.96,3.64c-5.24.94-12.12,1.64-22.34-1.37-.36-.11-.74-.23-1.12-.35-1.06-.34-2.79-5.31-3.05-5.92,0,0,.22-2.74,3.74-1.78,0,0,5.84.15,12.83.86,1.15.12,2.29.16,3.43.17,2.07.01,5.11-.05,8.03-.41,1.02,1.32,1.51,3.05.45,5.16Z" class="cls-2"/><path data-cppathid="10043" d="M50.59,22.39c-7.39,3.14-20.57,1.09-29.96.73,0,0-3.02-3.78,3.03-6,0,0,1.15-1.02,11.44-2.02,2.79-.29,6.09-.98,10.14-2.39.18.36.37.71.59,1.05,2.47,3.74,1.12,5.33,4.75,8.63Z" class="cls-2"/><path data-cppathid="10044" d="M44.92,23.73c-2.91.36-5.96.42-8.03.41-1.15-.01-2.29-.05-3.43-.17-6.99-.71-12.83-.86-12.83-.86,0,0-3.02-3.78,3.03-6,0,0,1.15-1.02,11.44-2.02,1.4-.15,2.79-.35,4.15-.68,2,3.43.92,5.02,4.62,8.22.37.33.74.69,1.05,1.09Z" class="cls-2"/><path data-cppathid="10045" d="M28.42,17.74c17.47-.97,22.65-8.32,22.98-3.71.23,3.19-1.21,5.48-3.12,6.39-2.62,1.25-8.63-.25-23.31,1.58-.82.1-3.72.63-3.55-.8.38-3.12,4.96-3.34,7.01-3.46Z" class="cls-2"/><path data-cppathid="10046" d="M49.66,24.65c-12.71,3.73-20.56-.25-26.12-.19-.62,0-1.26.06-1.83.3-5.66,2.43,6.2,10,29.86,4.65,3.45-.78,4.57-1.62,6.23-5.6,1.44-3.43-.11-4.8-.94-3.97-1.14,1.14-1.45,3.13-7.2,4.82Z" class="cls-2"/></g></g></g></svg>