<?xml version="1.0" encoding="UTF-8"?>
<svg xmlns="http://www.w3.org/2000/svg" onmouseup="{ if(window.parent.document.onmouseup) window.parent.document.onmouseup(arguments[0]);}" viewBox="0 0 92.88 118.64" id="Layer_2"><defs><style>
      .cls-1 {
        opacity: .2;
      }

      .cls-1, .cls-2, .cls-3, .cls-4 {
        fill: #fff;
      }

      .cls-5 {
        fill: #f1e7ce;
      }

      .cls-6 {
        opacity: .05;
      }

      .cls-7 {
        fill: #e52a17;
      }

      .cls-2 {
        opacity: .25;
      }

      .cls-8 {
        fill: #8c91f5;
      }

      .cls-9 {
        fill: #cdbe9f;
        opacity: .5;
      }

      .cls-10 {
        fill: #7469f3;
      }

      .cls-3, .cls-11 {
        opacity: .1;
      }

      .cls-4 {
        opacity: .15;
      }

      .cls-12 {
        fill: #b46f45;
      }
    </style></defs><g data-name="Layer_1" id="Layer_1-2"><g><path data-cppathid="10000" d="M91.2,61.98l-13.3,48.4c-1.33,4.88-5.76,8.25-10.82,8.25H26.5c-5.09,0-9.49-3.42-10.82-8.25L2.39,61.98l5.57,5.4,5.54-5.4,5.57,5.4,5.57-5.4,5.54,5.4,5.57-5.4,5.57,5.4,5.54-5.4,5.57,5.4,5.52-5.35,5.49,5.35,5.54-5.4,5.57,5.4,5.57-5.4,5.49,5.35.05.05,5.57-5.4Z" class="cls-8"/><path data-cppathid="10001" d="M91.2,61.98l-13.3,48.4c-1.33,4.87-5.75,8.25-10.8,8.25H26.51c-3.52,0-6.68-1.61-8.75-4.2,1.92,1.48,4.33,2.37,6.9,2.37h40.57c5.07,0,9.49-3.39,10.82-8.25l11.95-43.48,3.18-3.09Z" class="cls-11"/><path data-cppathid="10002" d="M19.06,67.38c2.95,10.06,7.29,29.67,8.9,40.76-3.16-10.74-7.39-30.37-8.9-40.76Z" class="cls-10"/><path data-cppathid="10003" d="M7.95,67.38c3.5,10.03,8.9,29.63,11.11,40.76-3.74-10.7-9.03-30.34-11.11-40.76Z" class="cls-10"/><path data-cppathid="10004" d="M85.58,67.33c-1.97,10.42-7.07,30.07-10.71,40.81,2.1-11.13,7.3-30.75,10.71-40.81Z" class="cls-10"/><path data-cppathid="10005" d="M74.52,67.38c-.47,10.31-2.73,29.93-4.82,40.76.5-11.01,2.87-30.62,4.82-40.76Z" class="cls-10"/><path data-cppathid="10006" d="M63.42,67.38c.48,10.24.03,29.86-1.05,40.76-.52-10.93.04-30.55,1.05-40.76Z" class="cls-10"/><path data-cppathid="10007" d="M52.4,67.38c.98,10.2,1.51,29.82.98,40.76-1.06-10.89-1.47-30.51-.98-40.76Z" class="cls-10"/><path data-cppathid="10008" d="M41.3,67.38c1.54,10.16,3.13,29.77,3.19,40.76-1.65-10.85-3.13-30.47-3.19-40.76Z" class="cls-10"/><path data-cppathid="10009" d="M30.17,67.38c2.25,10.11,5.22,29.72,6.06,40.76-2.41-10.8-5.27-30.42-6.06-40.76Z" class="cls-10"/><path data-cppathid="10010" d="M85.58,67.33c-11.87,23.38-34.29,43.37-58.06,51.3-6.56,0-10.54-3.53-11.84-8.25L2.39,61.98l5.57,5.4,5.54-5.4,5.57,5.4,5.57-5.4,5.54,5.4,5.57-5.4,5.57,5.4,5.54-5.4,5.57,5.4,5.52-5.35,5.49,5.35,5.54-5.4,5.57,5.4,5.57-5.4,5.49,5.35Z" class="cls-4"/><ellipse data-cppathid="10011" ry="22.2" rx="46.44" cy="57.22" cx="46.44" class="cls-12"/><path data-cppathid="10012" d="M92.88,57.21c0,12.27-20.8,22.2-46.44,22.2-19.48,0-36.17-5.74-43.05-13.86,7.92,6.81,23.15,11.42,40.61,11.42,25.64,0,46.44-9.94,46.44-22.2,0-2.92-1.18-5.74-3.35-8.29,3.7,3.18,5.79,6.85,5.79,10.73Z" class="cls-11"/><path data-cppathid="10013" d="M81,45.33c0,12.27-20.8,22.2-46.44,22.2-13.47,0-25.61-2.74-34.08-7.12-.31-1.04-.48-2.11-.48-3.2,0-.35.02-.7.06-1.05,1.15-11.75,21.48-21.15,46.38-21.15,10.27,0,19.74,1.59,27.42,4.29,2.41.85,4.64,1.79,6.66,2.85.31,1.04.48,2.11.48,3.18Z" class="cls-3"/><path data-cppathid="10014" d="M73.86,39.3c-4.76,11.18-25.46,19.59-50.23,19.59-8.51,0-16.52-.98-23.57-2.74,1.15-11.75,21.48-21.15,46.38-21.15,10.27,0,19.74,1.59,27.42,4.29Z" class="cls-3"/><g><path data-cppathid="10015" d="M92.12,57.09c-.81,1.07-1.85,1.95-3.14,2.45-2.78,1.09-6.54-.26-7.27-3.16-.21-.83-.19-1.74-.64-2.47-.97-1.5-3.4-1.12-4.68.12-1.31,1.21-1.95,2.97-3.11,4.35-1.14,1.36-3.28,2.26-4.68,1.16-1.43-1.09-1.14-3.42-2.35-4.75-1.24-1.36-3.61-1-4.92.29-1.31,1.28-1.78,3.19-2.04,4.99-.26,1.81-.4,3.68-1.21,5.35-1.14,2.31-3.66,3.88-6.25,3.88s-5.11-1.57-6.25-3.9c-1.19-2.42-.88-5.3-1.5-7.94-.64-2.64-3.09-5.35-5.66-4.49-1.55.52-2.42,2.16-2.92,3.71-.5,1.57-.78,3.26-1.76,4.56-1.78,2.38-5.78,2.57-7.77.38-2.12-2.31-2.57-11.46-7.58-9.63-4.54,1.64-3.23,8.8-7.08,11.32-2.89,1.91-7.15.09-8.86-2.86-.48-2.83.02-6.05,1.16-9.67,26.63-13,58.55-19.16,87.39.55.74,1.45,1.26,3.49,1.16,5.78Z" class="cls-6"/><path data-cppathid="10016" d="M92.29,51.07c-.69,2.81-2.38,5.52-5.04,6.56-2.66,1.07-6.28-.24-6.99-3.02-.19-.78-.17-1.66-.59-2.35-.93-1.45-3.26-1.09-4.49.1-1.26,1.16-1.88,2.85-3,4.16-1.09,1.31-3.14,2.19-4.49,1.12-1.35-1.05-1.07-3.28-2.23-4.54-1.19-1.31-3.47-.95-4.71.26-1.26,1.24-1.71,3.04-1.97,4.8-.26,1.74-.38,3.52-1.16,5.11-1.09,2.21-3.52,3.73-5.99,3.73-2.5-.02-4.9-1.52-5.99-3.76-.38-.81-.62-1.66-.76-2.52-.29-1.69-.31-3.42-.69-5.09-.59-2.52-2.95-5.14-5.4-4.3-1.5.5-2.35,2.07-2.83,3.57-.48,1.5-.74,3.11-1.69,4.35-1.69,2.28-5.52,2.47-7.44.38-2.02-2.23-2.45-10.98-7.25-9.25-4.35,1.57-3.11,8.44-6.8,10.86-2.57,1.69-6.23.33-8.08-2.12-1.83-2.45-2.33-5.63-2.66-8.68-.33-2.9-.57-5.85,0-8.72.59-2.85,2.14-5.66,4.66-7.13,1.31-.76,3-1.33,3.4-2.8.21-.86-.12-1.76-.07-2.66.12-2.28,2.52-3.71,4.71-4.33,3.97-1.14,8.27-1.05,12.2.26-.05-3.45,2.33-6.59,5.32-8.32,3-1.71,6.51-2.26,9.94-2.54,4.37-.36,8.87-.36,13.05.97,1.33.43,2.69,1.02,3.66,2.02.97,1.02,1.52,2.54,1.07,3.87.33-.02.69-.02,1.02-.02,3.54-.05,7.2.36,10.1,2.31,3.21,2.16,5.04,6.75,3.02,10.03,4.92-1.35,10.51.07,14.15,3.64,3.66,3.57,5.25,9.11,4.04,14.05Z" class="cls-5"/><path data-cppathid="10017" d="M26.92,25.06c4.17,5.78,13.58,6.18,20.27,6.62-7.32,1.43-17.73-.08-20.27-6.62Z" class="cls-9"/><path data-cppathid="10018" d="M59.96,21.08c-3.13,5.44-12.44,6.76-19.19,5.21,6.43-.35,14.45-.65,19.19-5.21Z" class="cls-9"/><path data-cppathid="10019" d="M74.09,33.38c-3.98,4.78-11.86,7.98-17.83,9.76-5.83,1.66-12.39,2.83-20.21,3.14,3.64-.67,13.46-2.26,19.87-4.28,3.27-.87,6.44-2.05,9.52-3.4,3.06-1.38,6.1-2.94,8.64-5.22Z" class="cls-9"/><path data-cppathid="10020" d="M9.6,32.69c11.36,7.07,25.77,7.55,39.01,6.67-18.18,3.68-32.25-.96-39.01-6.67Z" class="cls-9"/><path data-cppathid="10021" d="M50.37,19.1c0,1.18-2.75,2.15-6.13,2.15s-6.13-.96-6.13-2.15,2.75-2.15,6.13-2.15,6.13.96,6.13,2.15Z" class="cls-9"/><path data-cppathid="10022" d="M36.71,36.59c1.31.09,2.53-.02,3.81-.25,1.18-.21,2.44-.27,3.43-1.04.42-.33.72-.86.64-1.39-2.34-.9-4.95-.47-7.45-.63-3.2-.2-6.32-1.42-8.82-3.44-1.9-1.54-3.53-3.57-5.87-4.3-1.37-.43-2.87-.35-4.27-.02-1.4.34-2.73.92-4.05,1.5-1,.44-2.15,1.08-2.24,2.17-.05.64.31,1.25.79,1.67.49.41,1.09.66,1.69.89,7.13,2.76,14.71,4.27,22.33,4.83Z" class="cls-1"/><path data-cppathid="10023" d="M30.79,34.16c-7.03-1.43-16.22-5.16-16.12-5.83.04-.32.67-.38.92-.5.72-.34,2.02-1.26,3.63-1.06.92.12,1.75.61,2.55,1.09,8.37,5.06,9.41,5.34,9.03,6.3Z" class="cls-1"/><path data-cppathid="10024" d="M71.3,31.78c.59-.46,1.17-.99,1.43-1.68.31-.83.1-1.78-.33-2.55-.44-.77-1.09-1.39-1.73-2.01-.77-.74-1.56-1.48-2.51-1.96-.96-.47-2.12-.64-3.08-.18-.81.39-1.35,1.15-1.92,1.84-2.67,3.26-6.49,5.57-10.62,6.42-.8.17-1.64.29-2.34.72-.7.43-1.22,1.28-.97,2.07.3.97,1.5,1.28,2.51,1.4,6.61.78,14.14.18,19.58-4.07Z" class="cls-1"/><path data-cppathid="10025" d="M65.21,26.24c.32-.42.64-.87,1.12-1.08.65-.28,1.42-.04,2.03.33.87.52,1.62,1.34,1.74,2.34.12.95-.37,1.91-1.07,2.57-.7.66-1.59,1.07-2.49,1.43-4.03,1.63-8.88,2.76-13.25,2.34-.95-.09-1.42-.85-.32-1.34.56-.24,1.32.03,1.91-.05,1.87-.25,3.82-1.18,5.41-2.15,1.89-1.14,3.57-2.63,4.9-4.39Z" class="cls-1"/><path data-cppathid="10026" d="M38.26,21.03c-.71-.26-1.49-.61-1.78-1.31-.34-.82.07-1.95-.61-2.52-.3-.25-.72-.29-1.1-.2-.38.09-.71.29-1.05.49-1.01.6-2.03,1.23-2.77,2.14-.74.91-1.15,2.18-.73,3.28.35.91,1.2,1.55,2.11,1.87s1.9.37,2.87.4c3.37.12,6.75.13,10.13.15,1.2,0,2.43,0,3.56-.38.42-.14.9-.45.86-.9-.04-.5-.65-.69-1.14-.77-1.74-.27-3.49-.48-5.23-.75-1.78-.27-3.4-1.07-5.12-1.5Z" class="cls-1"/><path data-cppathid="10027" d="M32.55,19.51c-.5.48-.85,1.18-.76,1.87.08.61.51,1.13,1.02,1.47.51.34,1.12.51,1.71.65,3.17.76,6.48.7,9.74.51-2.39-.6-4.78-1.21-7.17-1.81-.57-.14-1.15-.29-1.63-.62-.48-.33-.86-.88-.81-1.46.03-.36.21-.69.21-1.05,0-1.4-1.92.07-2.32.45Z" class="cls-1"/><path data-cppathid="10028" d="M56.48,16.8c.45.21.91.42,1.3.73.39.31.7.75.76,1.24.07.53-.17,1.07-.52,1.48-.35.41-.8.72-1.24,1.02-1.86,1.26-3.83,2.56-6.07,2.8-.1-.79.23-1.56.65-2.24.42-.67.93-1.29,1.25-2.02.32-.73.42-1.61,0-2.28-.54-.88-1.7-1.09-2.72-1.22-2.01-.25-4.02-.5-6.03-.75-.33-.04-.76-.22-.68-.54.06-.25.39-.31.65-.32,2.1-.04,4.34-.33,6.42-.05,2.16.29,4.3,1.17,6.24,2.14Z" class="cls-1"/><path data-cppathid="10029" d="M55.94,17.24c.53.22,1.12.51,1.28,1.07.14.48-.12.99-.47,1.34-.35.35-.8.59-1.19.9-.49.39-.87.89-1.32,1.33-.45.44-.98.83-1.6.9.08-.78.54-1.47.94-2.14.4-.68.75-1.46.58-2.23-.21-.92-1.11-1.51-1.98-1.86-.87-.35-1.83-.59-2.53-1.22,0,0,.66-.2.74-.21.24-.03.45-.03.68.04.51.17,1.02.45,1.52.66,1.12.47,2.24.95,3.36,1.42Z" class="cls-1"/><path data-cppathid="10030" d="M35.27,46.15c1.16-.59,1.27-2.31-1.46-2.4-15.84-.48-23.91-7.08-26.49-7.06-.73,0-1.94.5-2.08,1.34-.15.95,1.19,1.4,1.88,1.8,5.59,3.25,12.07,5.5,18.99,6.31,1.49.18,7.82.68,9.16,0Z" class="cls-1"/><path data-cppathid="10031" d="M6.53,38.15c.19-.13.55-.27.8-.27.7,0,1.45.38,2.23.79,13.86,7.13,24.59,5.81,25.34,6.52-11.47.53-22.35-2.79-28.38-7.04Z" class="cls-1"/><path data-cppathid="10032" d="M4.24,42.24c-.42.51-.5,1.21-.54,1.86-.93,14.31,6.84,19.27,6.08,13.78-.53-3.88-1.37-7.84-.56-11.67.13-.61.3-1.23.22-1.85-.24-1.8-3.77-3.83-5.2-2.13Z" class="cls-1"/><path data-cppathid="10033" d="M8.55,57.02c-2.12-11.42-.6-7.83-.67-11.72-.04-2.1-1.7-2.9-2.74-2.11-.61.46-.35,1.33-.31,2.01.73,12.7,4.23,14.59,3.72,11.83Z" class="cls-1"/><path data-cppathid="10034" d="M85.47,43.04c2.43-1.43,2.62-4.09.64-5.72-.9-.74-2.08-1.09-3.25-1.17-2.23-.16-4.43.57-6.42,1.59-1.99,1.02-3.81,2.32-5.74,3.44-9.45,5.45-17.26,4.03-18.49,5.72-2.36,3.26,17.17-.09,21.11-.84,2-.38,10.4-1.99,12.15-3.02Z" class="cls-1"/><path data-cppathid="10035" d="M80.66,42.81c5.51-1.56,4.44-4.79.93-4.42-3.41.37-6.51,2.25-10.44,4.36-.55.3-1.74.67-2.13,1.16-1.63,2,4.09.68,6.96.06.79-.17,1.57-.35,2.35-.55.7-.17,1.62-.62,2.33-.62Z" class="cls-1"/><path data-cppathid="10036" d="M27.4,56.27c.52,1.64,1.07,3.18,3.05,3.3,1.33.08,3.06-1,1.01-3.23-.96-1.04-1.8-2.2-2.5-3.44-.69-1.22-1.04-2.64-1.78-3.82-1.51-2.42-2.48.95-1.88,2.37.69,1.63,1.54,3.12,2.09,4.82Z" class="cls-1"/><path data-cppathid="10037" d="M29.32,57.78c-.59-.71-.43-1.48-2.15-5.1-.78-1.64-.95-1.81-.83-2.68.26.47.47,1,.7,1.56,2.17,5.38,5.73,6.83,3.53,6.83,0,0-.81-.09-1.25-.61Z" class="cls-1"/><path data-cppathid="10038" d="M51.89,65.34c1.99-.05,3.07-1.68,1.26-3.95-3.06-3.84-3.37-3.42-3.86-7.59-.35-3.01-4.1-3.79-3.33.83.77,4.64,1.54,10.82,5.93,10.71Z" class="cls-1"/><path data-cppathid="10039" d="M49.12,62.34c-1.02-1.69-2.35-8.89-2.04-9.62l.33-.11c.83.19.67,1.99.87,3.16.73,4.22,7.16,8.29,3.57,8.37,0,0-1.64.02-2.74-1.81Z" class="cls-1"/><path data-cppathid="10040" d="M67.6,54.58c-1.04-3.21-1.5-4.31-.42-4.32,1.67-.02,5.04,2.99,4.33,4.61-.63,1.42-2.94,2.7-3.91-.29Z" class="cls-1"/><path data-cppathid="10041" d="M69.36,55.2c-.06,0-.11-.01-.16-.04-.21-.13-.39-.7-.47-.94-.27-.84-.52-1.69-.76-2.54.45.25.9.65,1.34,1.07,1.2,1.15,1.15,1.55,1.11,1.64-.18.41-.71.81-1.06.81Z" class="cls-1"/><path data-cppathid="10042" d="M80.98,50.18c-.27.02-.64.02-.56.38.05.23.26.2.39.33.2.21,1.96,3.23,2.11,3.48,3.9,6.58,10.77-5.41,7.06-10.02-2.67,3.6-1.83,6.09-3.46,7.04-1.87,1.09-3.72-1.34-5.55-1.22Z" class="cls-1"/><path data-cppathid="10043" d="M82.95,52.09c5.59,2.9,5.82-2.97,6.85-5.13.29,2.13-1.11,7.69-3.98,8.06-1.37.19-1.65-.87-2.87-2.93Z" class="cls-1"/><path data-cppathid="10044" d="M62.31,30.46c0,12.53-6.89,23.61-17.45,30.26-.29-1.69-.31-3.42-.69-5.09-.59-2.52-2.95-5.14-5.4-4.3-1.5.5-2.35,2.07-2.83,3.57-.48,1.5-.74,3.11-1.69,4.35-1.69,2.28-5.52,2.47-7.44.38-2.02-2.23-2.45-10.98-7.25-9.25-4.35,1.57-3.11,8.44-6.8,10.86-2.57,1.69-6.23.33-8.08-2.12-1.83-2.45-2.33-5.63-2.66-8.68-.33-2.9-.57-5.85,0-8.72.59-2.85,2.14-5.66,4.66-7.13,1.31-.76,3-1.33,3.4-2.8.21-.86-.12-1.76-.07-2.66.12-2.28,2.52-3.71,4.71-4.33,3.97-1.14,8.27-1.05,12.2.26-.05-3.45,2.33-6.59,5.32-8.32,3-1.71,6.51-2.26,9.94-2.54,4.37-.36,8.87-.36,13.05.97,1.33.43,2.69,1.02,3.66,2.02.97,1.02,1.52,2.54,1.07,3.87.33-.02.69-.02,1.02-.02.88,3,1.33,6.16,1.33,9.41Z" class="cls-2"/></g><g><path data-cppathid="10045" d="M56.14,19.91c6.36,8.4-22.91,9-24.5,3-.05-.18-.07-.36-.07-.54,0-.93.32-1.78.84-2.46-.52-.7-.84-1.56-.84-2.48s.32-1.76.84-2.46c-.52-.68-.84-1.55-.84-2.46,0-2.31,1.92-4.17,4.31-4.17,0-2.17,1.7-3.94,3.87-4.16v-.02c0-5.53,8.62-5.51,8.62,0,2.37,0,4.29,1.87,4.29,4.17,3.56,0,5.54,3.9,3.47,6.63,1.14,1.54,1.09,3.47,0,4.94Z" class="cls-7"/><path data-cppathid="10046" d="M52.95,8.36c-1.63,9.71-12.36,17.06-21.31,14.55-.05-.18-.07-.36-.07-.54,0-.93.32-1.78.84-2.46-.13-.18-.25-.36-.35-.55-.3-.59-.48-1.24-.48-1.92,0-.91.32-1.76.84-2.46-.52-.68-.84-1.55-.84-2.46,0-2.31,1.92-4.17,4.31-4.17,0-2.17,1.7-3.94,3.87-4.16v-.02c0-2.3,1.92-4.17,4.31-4.17s4.31,1.87,4.31,4.17c.65,0,1.27.15,1.82.39,1.47.67,2.47,2.12,2.47,3.78.1,0,.2,0,.28.02Z" class="cls-3"/><path data-cppathid="10047" d="M50.19,4.56c-2.03,7.92-9.81,14.49-18.14,14.8-.3-.59-.48-1.24-.48-1.92,0-.91.32-1.76.84-2.46-.52-.68-.84-1.55-.84-2.46,0-2.31,1.92-4.17,4.31-4.17,0-2.17,1.7-3.94,3.87-4.16v-.02c0-2.3,1.92-4.17,4.31-4.17s4.31,1.87,4.31,4.17c.65,0,1.27.15,1.82.39Z" class="cls-3"/><path data-cppathid="10048" d="M44.19,0c2.29.07,4.13,1.87,4.18,4.09-.65-.41-1.44-.64-2.27-.64,0-1.43-.75-2.71-1.9-3.45Z" class="cls-6"/><path data-cppathid="10049" d="M48.5,4.17c2.27.06,4.11,1.86,4.16,4.07-.67-.39-1.44-.62-2.27-.62,0-1.43-.75-2.7-1.89-3.45Z" class="cls-6"/><path data-cppathid="10050" d="M56.97,17.44c0,.91-.32,1.78-.84,2.48.52.68.84,1.53.84,2.46,0,4.74-15.78,5.74-22.46,3.01,7.43,1.78,20.19.52,20.19-3.73,0-.93-.32-1.78-.84-2.46.52-.7.84-1.56.84-2.48s-.32-1.76-.84-2.46c.52-.68.84-1.55.84-2.46,0-1.43-.73-2.69-1.85-3.45,2.3.1,4.13,1.92,4.13,4.17,0,.91-.32,1.78-.84,2.46.52.7.84,1.55.84,2.46Z" class="cls-6"/><path data-cppathid="10051" d="M44.3,1.26c.53,1.33-1.98,1.28-2.8,2.95-.56,1.15-1.11-.35-.91-1,.37-1.2,3.1-3.49,3.71-1.96Z" class="cls-1"/><path data-cppathid="10052" d="M39.42,5.64c.3.55-.73,1.86-1.6,2.34-.75.41-1.01-.2-.75-.81.44-1.03,1.91-2.35,2.35-1.53Z" class="cls-1"/><path data-cppathid="10053" d="M35.21,9.67c1.15.25-1.33,2.26-1.56,4.06-.14,1.04-.8,1.36-1.04.2-.59-2.8,1.83-4.43,2.61-4.26Z" class="cls-1"/></g></g></g></svg>