<?xml version="1.0" encoding="UTF-8"?>
<svg xmlns="http://www.w3.org/2000/svg" onmouseup="{ if(window.parent.document.onmouseup) window.parent.document.onmouseup(arguments[0]);}" viewBox="0 0 120.74 107.83" id="Layer_2"><defs><style>
      .cls-1 {
        opacity: .2;
      }

      .cls-1, .cls-2, .cls-3 {
        fill: #fff;
      }

      .cls-4 {
        fill: #fed85b;
      }

      .cls-5 {
        fill: #e52a17;
      }

      .cls-6 {
        fill: #f6da77;
      }

      .cls-2, .cls-7 {
        opacity: .1;
      }

      .cls-3 {
        opacity: .15;
      }

      .cls-8 {
        fill: #b46f45;
      }

      .cls-9 {
        fill: #8fc902;
      }
    </style></defs><g data-name="Layer_1" id="Layer_1-2"><g><path data-cppathid="10000" d="M115.89,36.64c-.37,12.41-1.04,26.32-2.03,42.07-.12,1.85-.25,3.76-.37,5.68-.49,7.51-6.45,15.6-15.35,18.12-23.97,6.92-50.67,7.09-74.79.52-5.14-1.29-9.19-3.38-12.68-7.69-4.61-5.77-4.44-9.46-4.92-16.49-.99-15.82-1.68-29.81-2.03-42.19-.02-.69.69-1.38,1.73-1.63.99-.27,2.03-.05,2.4.54,1.9-.4,3.86-.84,5.83-1.31.25-.07.49-.1.74-.1.3,0,.59.05.82.15.15.05.25.1.35.17.1.07.2.15.27.25,1.36,1.68,2.77,3.34,4.23,5.02.37.44,1.16.62,1.93.52.15-.05.3-.07.44-.12.42-.12.82-.25,1.24-.37,1.24-.4,2.45-.82,3.68-1.24.91-.3,1.9-.15,2.4.35.32.3.64.59.96.87,1.28,1.19,2.57,2.37,3.93,3.56.59.49,1.68.62,2.59.25,1.78-.74,3.53-1.51,5.34-2.32.82-.37,1.85-.3,2.52.17,1.73,1.29,3.51,2.52,5.34,3.76.54.4,1.33.49,2.03.32.22-.05.44-.12.64-.22,1.83-.99,3.66-2.03,5.46-3.04.74-.45,1.83-.45,2.57,0,1.83,1.01,3.63,2.05,5.49,3.04.82.42,1.95.4,2.67-.1.89-.59,1.78-1.24,2.64-1.85.89-.62,1.75-1.24,2.62-1.85.17-.15.4-.25.64-.32.22-.07.47-.1.74-.1.4,0,.79.07,1.16.25,1.73.77,3.46,1.53,5.21,2.27.89.37,2,.25,2.6-.27,1.68-1.46,3.29-2.92,4.87-4.4.52-.49,1.53-.64,2.4-.35.91.32,1.8.62,2.69.91.74.22,1.48.47,2.22.69.15.05.3.07.44.12.77.1,1.56-.07,1.95-.52,1.46-1.68,2.84-3.34,4.23-5.02l.25-.25c.1-.07.22-.12.37-.17.22-.1.52-.15.82-.15.22,0,.47.02.72.1,1.95.47,3.88.89,5.78,1.29.02,0,.05.02.07.02.37-.59,1.38-.82,2.4-.54,1.01.25,1.75.94,1.73,1.61Z" class="cls-6"/><path data-cppathid="10001" d="M111.69,35.56c-1.95,7.49-5.71,15.52-10.97,23.36-5.19,7.76-11.86,15.3-19.67,21.9-3.63,3.04-7.49,5.88-11.59,8.45-13.35,8.4-29.07,13.84-46.1,13.77h-.1c-17.55-5.27-17.04-17.44-17.5-24.17-.99-15.82-1.68-29.81-2.03-42.19-.02-.69.69-1.38,1.73-1.63.99-.27,2.03-.05,2.4.54,1.9-.4,3.86-.84,5.83-1.31.25-.07.49-.1.74-.1.3,0,.57.05.82.15.15.05.25.1.35.17.1.05.2.15.27.22v.02c1.36,1.68,2.77,3.34,4.23,5.02.37.44,1.16.62,1.93.52.15-.02.3-.05.44-.1.4-.15.82-.27,1.24-.4,1.21-.42,2.47-.82,3.68-1.24.91-.3,1.9-.15,2.4.35.32.3.64.59.96.87,1.28,1.19,2.6,2.37,3.93,3.56.59.49,1.68.62,2.59.25,1.78-.74,3.53-1.51,5.34-2.32.82-.37,1.85-.3,2.52.17,1.73,1.29,3.51,2.52,5.34,3.76.54.4,1.33.49,2.03.32.22-.05.44-.12.64-.22,1.83-.99,3.66-2.03,5.46-3.04.74-.45,1.83-.45,2.57,0,1.83,1.01,3.63,2.05,5.49,3.04.82.42,1.95.4,2.67-.1.89-.59,1.78-1.24,2.64-1.85.89-.62,1.75-1.26,2.62-1.88.17-.12.4-.22.64-.3.22-.07.47-.1.74-.1.4,0,.79.1,1.16.25,1.73.79,3.49,1.53,5.21,2.27.89.37,2,.25,2.6-.27,1.68-1.46,3.29-2.92,4.87-4.4.52-.49,1.53-.64,2.4-.35.91.32,1.8.62,2.69.91.77.25,1.48.47,2.22.72.15.05.3.07.44.1.77.1,1.56-.07,1.95-.52,1.46-1.68,2.84-3.34,4.23-5.02v-.02c.07-.07.15-.17.25-.22.1-.07.22-.12.37-.17.22-.1.52-.15.82-.15.22,0,.47.02.72.1,1.95.47,3.88.89,5.78,1.29Z" class="cls-1"/><path data-cppathid="10002" d="M94.91,39.46c-6.15,10.75-15.92,21.75-27.98,30.65-18.21,13.52-47.55,24.02-60.38,16.98-.9-3.7-2.49-38.71-2.82-50.42-.02-.69.69-1.38,1.73-1.63.99-.27,2.03-.05,2.4.54,1.9-.4,3.86-.84,5.83-1.31.25-.07.49-.1.74-.1.3,0,.57.05.82.15.15.05.25.1.35.17.1.05.2.15.27.22v.02c1.36,1.68,2.77,3.34,4.23,5.02.37.44,1.16.62,1.93.52.15-.02.3-.05.44-.1.4-.15.82-.27,1.24-.4,1.21-.42,2.47-.82,3.68-1.24.91-.3,1.9-.15,2.4.35.32.3.64.59.96.87,1.28,1.19,2.6,2.37,3.93,3.56.59.49,1.68.62,2.59.25,1.78-.74,3.53-1.51,5.34-2.32.82-.37,1.85-.3,2.52.17,1.73,1.29,3.51,2.52,5.34,3.76.54.4,1.33.49,2.03.32.22-.05.44-.12.64-.22,1.83-.99,3.66-2.03,5.46-3.04.74-.45,1.83-.45,2.57,0,1.83,1.01,3.63,2.05,5.49,3.04.82.42,1.95.4,2.67-.1.89-.59,1.78-1.24,2.64-1.85.89-.62,1.75-1.26,2.62-1.88.17-.12.4-.22.64-.3.22-.07.47-.1.74-.1.4,0,.79.1,1.16.25,1.73.79,3.49,1.53,5.21,2.27.89.37,2,.25,2.6-.27,1.68-1.46,3.29-2.92,4.87-4.4.52-.49,1.53-.64,2.4-.35.91.32,1.8.62,2.69.91Z" class="cls-1"/><path data-cppathid="10003" d="M6.94,76.95c.94-.12,1.68-.47,2.32-.96-.79,1.36-1.88,2.5-3.51,2.87-.05-.64-.07-1.26-.12-1.9.37.05.82.07,1.31,0Z" class="cls-7"/><path data-cppathid="10004" d="M64.68,57.75c1.53,7.39,2.89,14.85,3.81,22.37-.44-3.34-.96-6.67-1.56-10.01-.64-3.68-1.36-7.32-2.1-10.95-.84-3.98-2.17-8.18-5.73-9.99-2.97-1.53-6.72-.74-9.44,1.19-2.74,1.93-4.62,4.84-6.18,7.79-1.46,2.72-3.14,5.91-6.53,5.83-1.83-.07-3.48-1.19-4.55-2.72-3.04-4.45-1.43-10.13-4.47-14.63-1.09-1.63-2.92-2.77-4.87-2.69-.82.02-1.53.22-2.15.57.87-.89,1.93-1.46,3.29-1.51,1.9-.07,3.66,1.04,4.72,2.62,2.94,4.35,1.38,9.86,4.35,14.19,1.01,1.48,2.62,2.57,4.4,2.62,3.29.07,4.92-3.02,6.33-5.64,1.51-2.87,3.34-5.68,5.98-7.56,2.64-1.85,6.28-2.62,9.17-1.14,3.44,1.75,4.72,5.81,5.54,9.66Z" class="cls-7"/><path data-cppathid="10005" d="M96.54,49.4c.17.17.35.37.44.59-1.93-1.21-4.75-.62-6.52.94-4.4,3.95-5.34,12.38-6.72,17.82-.99,4-1.88,8.03-2.69,12.06-.57,2.62-1.09,5.22-1.58,7.83-.67,3.29-1.58,6.65-2,9.96-.3,2.45-.3,5.34-3.41,5.93-3.78.74-4.23-2.13-4.23-4.77.42,1.46,1.46,2.45,3.81,1.98,3.02-.57,3.02-3.36,3.31-5.73.4-3.21,1.29-6.48,1.93-9.66,1.26-6.45,2.57-12.9,4.15-19.28,1.33-5.29,2.25-13.45,6.52-17.28,1.93-1.71,5.17-2.25,6.99-.4Z" class="cls-7"/><path data-cppathid="10006" d="M114.28,71.64c-.12,2.32-.27,4.67-.42,7.07-.42.64-.96,1.16-1.68,1.48-1.73.77-3.83-.1-5.02-1.53-.42-.49-.74-1.01-1.04-1.58,1.19,1.11,2.97,1.73,4.47,1.06,1.53-.67,2.27-2.42,2.84-4,.3-.82.59-1.66.84-2.5Z" class="cls-7"/><path data-cppathid="10007" d="M120.63,41.64c-.62,6.63-5.09,34.35-10.03,36.51-1.68.74-3.71-.1-4.87-1.48-1.19-1.41-1.73-3.21-2.22-4.97-1.78-6.3-3.58-12.61-5.36-18.91-.35-1.21-.72-2.5-1.61-3.39-1.83-1.85-5.07-1.31-6.99.4-4.28,3.83-5.19,11.99-6.52,17.28-7.87,31.73-5.03,33.85-9.39,34.68-3.93.77-4.15-2.5-4.1-5.19.32-11.49-2.51-27.55-4.84-38.8-.82-3.86-2.1-7.91-5.54-9.66-2.89-1.48-6.53-.72-9.17,1.14-6.47,4.59-6.58,13.33-12.31,13.2-1.78-.05-3.39-1.14-4.4-2.62-2.97-4.33-1.41-9.84-4.35-14.19-1.06-1.58-2.82-2.69-4.72-2.62-5.33.18-5.94,6.81-11.74,26.79-.82,2.89-1.95,6.67-5.51,7.17-4.47.62-3.88-4.99-4.28-7.98C-.77,42.53-.67,38.29,1.75,32.59c2.52-5.96,7.49-10.78,13.94-12.93,16.27-5.44,69.01-10.05,90.76-1.24,9.64,3.94,15.11,13.65,14.19,23.21Z" class="cls-8"/><path data-cppathid="10008" d="M119.15,31.3c-9.39,5.71-32.67,9.71-59.89,9.71-25.14,0-46.91-3.44-57.51-8.43.91-2.2,2.18-4.23,3.71-6.01,2.67-3.14,6.15-5.56,10.23-6.92,7.61-2.55,15.97-3.63,23.9-4.4,10.38-1.01,20.81-1.63,31.24-1.78,9-.15,18.04.07,26.79,2.15,2.99.72,5.96,1.63,8.82,2.79,2,.82,3.83,1.88,5.49,3.19,3.24,2.52,5.73,5.88,7.22,9.69Z" class="cls-2"/><path data-cppathid="10009" d="M4.2,70.42c.76,5.14,3.86,5.34,3.8,2.77-.1-4.3-.48-8.09-2.14-28.76-.14-1.71-.49-4.58-2.63-4.95-1.91-.33-1,4.19-.97,5.25.28,8.62.69,17.2,1.94,25.69Z" class="cls-2"/><path data-cppathid="10010" d="M35.6,59.75c1.4,1.29,3.43.36,3.32-1.18-.11-1.43-2.04-1.82-2.3-6.24-.07-1.19.66-7.06-1.46-6.8-2.54.31-1.67,4.78-1.52,6.28.17,1.81.63,6.7,1.97,7.94Z" class="cls-2"/><path data-cppathid="10011" d="M68.43,71.01c1.67,9.36,1.5,26.06,3.07,28.43.7,1.06,2.25,1.04,2.41-1.37,1-14.9-5.29-29.49-4.85-44.42.03-1.01.08-2.09-.42-2.97-.53-.92-2.07-1.55-2.62-.39-.59,1.24-.39,3.35-.36,4.68.08,3.45.8,6.84,1.54,10.2.43,1.94.88,3.88,1.22,5.83Z" class="cls-2"/><path data-cppathid="10012" d="M107.33,72.25c.08.89.17,1.83.67,2.57,1.1,1.62,3.88,1.26,2.55-2.54-2.41-6.84-2.3-14.55-5.84-20.89-.72-1.28-4.09-4.06-2.83-.93.93,2.31,1.8,4.64,2.53,7.02,1.47,4.81,2.45,9.76,2.93,14.77Z" class="cls-2"/><g><path data-cppathid="10013" d="M74.65,8.97c-.2-.34-.11-.79.22-1.03.15-.1,3.61-2.53,8.25,1.35.33.28.38.78.1,1.11-.28.33-.77.38-1.11.1-3.71-3.1-6.29-1.3-6.32-1.28-.35.25-.84.18-1.1-.18-.02-.02-.03-.05-.04-.07Z" class="cls-9"/><g><path data-cppathid="10014" d="M80.29,12.59c-.81-2.26-3.36-5.63-4.82-5.1-.85.31-1.26,1.01-1.29,1.99-.04,1.28.59,2.4,1.63,3.23,1,.8,2.43,2.33,3.31,4.93.35,1.04,2-2.79,1.18-5.05Z" class="cls-9"/><path data-cppathid="10015" d="M74.34,2.28c1.55,1.84,3.19,5.72,2,6.73-.69.59-1.5.59-2.37.12-1.13-.61-1.78-1.71-1.98-3.03-.19-1.27-.8-3.27-2.61-5.33-.72-.82,3.41-.33,4.96,1.5Z" class="cls-9"/></g><path data-cppathid="10016" d="M74.27,24.77c-1.05.6-2.36,1.16-3.84,1.65-7.42,2.48-19.02,3.12-22.13-2.27-.82-1.42-.97-3.13-.66-5.01.15-.78.36-1.57.64-2.4.14-.38.3-.81.47-1.2.18-.44.38-.85.57-1.26,0,0,.03-.01.01-.04.32-.65.71-1.31,1.1-1.96.41-.67.84-1.31,1.3-1.95.43-.65.88-1.24,1.34-1.84.02-.01.05-.03.06-.07.24-.34.51-.62.76-.94.24-.27.49-.58.75-.83,1.03-1.16,2.09-2.2,3.15-3.08,1.04-.9,2.04-1.65,2.99-2.19,1.17-.68,2.3-1.09,3.4-1.26.01.02.02-.01.02-.01,1.09-.19,2.12-.13,3.13.12.31.08.67.18.97.3.5.18.95.38,1.41.65.2.12.4.23.58.37.32.21.62.44.92.67.31.25.6.52.89.79,1.16,1.09,2.21,2.45,3.19,3.98l.29.5s.05.04.04.07c.1.11.18.26.26.38l.13.22c.14.25.27.47.39.74.22.37.43.75.6,1.15.31.59.55,1.18.78,1.75.03.05.02.09.05.14.7,1.79,1.09,3.56,1.1,5.19,0,3.06-1.35,5.73-4.64,7.63Z" class="cls-5"/><path data-cppathid="10017" d="M63.73,5.34c-.47.27-1.66.44-1.94-.04-.28-.48.46-1.43.93-1.7.47-.27.86.03,1.14.51.28.48.34.97-.13,1.24Z" class="cls-4"/><path data-cppathid="10018" d="M60.65,11.94c-.47.27-1.66.44-1.94-.04-.28-.48.46-1.43.93-1.7.47-.27.86.03,1.14.51.28.48.34.97-.13,1.24Z" class="cls-4"/><path data-cppathid="10019" d="M57.57,18.54c-.47.27-1.66.44-1.94-.04-.28-.48.46-1.43.93-1.7s.86.03,1.14.51c.28.48.34.97-.13,1.24Z" class="cls-4"/><path data-cppathid="10020" d="M54.48,25.13c-.47.27-1.66.44-1.94-.05-.28-.48.46-1.43.93-1.7.47-.27.86.03,1.14.51.28.48.34.97-.13,1.24Z" class="cls-4"/><path data-cppathid="10021" d="M69.75,4.37c-.47.27-1.66.44-1.94-.04-.28-.48.46-1.43.93-1.7.47-.27.86.03,1.14.51.28.48.34.97-.13,1.24Z" class="cls-4"/><path data-cppathid="10022" d="M66.81,11.22c-.47.27-1.66.44-1.94-.04-.28-.48.46-1.43.93-1.7.47-.27.86.02,1.14.51.28.48.34.96-.13,1.24Z" class="cls-4"/><path data-cppathid="10023" d="M63.73,17.81c-.47.27-1.66.44-1.94-.04-.28-.48.46-1.43.93-1.7.47-.27.86.03,1.14.51.28.48.34.96-.13,1.24Z" class="cls-4"/><path data-cppathid="10024" d="M60.65,24.41c-.47.27-1.66.44-1.94-.04-.28-.48.46-1.43.93-1.7.47-.27.86.02,1.14.51.28.48.34.96-.13,1.24Z" class="cls-4"/><path data-cppathid="10025" d="M51.32,19.65c-.47.27-1.66.44-1.94-.04-.28-.48.46-1.43.93-1.7.47-.27.86.03,1.14.51.28.48.34.96-.13,1.24Z" class="cls-4"/><path data-cppathid="10026" d="M54.55,12.31c-.47.27-1.66.44-1.94-.04-.28-.48.46-1.43.93-1.7.47-.27.86.02,1.14.51.28.48.34.96-.13,1.24Z" class="cls-4"/><path data-cppathid="10027" d="M58.19,6.98c-.47.27-1.66.44-1.94-.04s.46-1.43.93-1.7c.47-.27.86.03,1.14.51.28.48.34.97-.13,1.24Z" class="cls-4"/><path data-cppathid="10028" d="M67.28,23.78c-.47.27-1.66.44-1.94-.04-.28-.48.46-1.43.93-1.7.47-.27.86.02,1.14.51.28.48.34.97-.13,1.24Z" class="cls-4"/><path data-cppathid="10029" d="M70.51,16.44c-.47.27-1.66.44-1.94-.04-.28-.48.46-1.43.93-1.7.47-.27.86.02,1.14.51.28.48.34.96-.13,1.24Z" class="cls-4"/><path data-cppathid="10030" d="M76.64,17.83c-.47.27-1.66.44-1.94-.04-.28-.48.46-1.43.93-1.7.47-.27.86.03,1.14.51.28.48.34.97-.13,1.24Z" class="cls-4"/><path data-cppathid="10031" d="M73.75,11.29c-.47.27-1.66.44-1.94-.04-.28-.48.46-1.43.93-1.7.47-.27.86.03,1.14.51.28.48.34.96-.13,1.24Z" class="cls-4"/><path data-cppathid="10032" d="M73.37,22.59c-.47.27-1.66.44-1.94-.04-.28-.48.46-1.43.93-1.7.47-.27.86.03,1.14.51.28.48.34.96-.13,1.24Z" class="cls-4"/><path data-cppathid="10033" d="M70.75,16.19c-.36.18-.74.33-1.15.49-1.17.51-2.41.96-3.68,1.35-.42.14-.85.26-1.28.37-4.85,1.4-9.6,1.81-13.63,1.34-.56-.04-1.1-.13-1.67-.24-.59-.09-1.16-.23-1.71-.38.15-.78.36-1.57.64-2.4.14-.38.3-.81.47-1.2.18-.44.38-.85.57-1.26,0,0,.03-.01.01-.04.32-.65.71-1.31,1.1-1.96.41-.67.84-1.31,1.3-1.95.43-.65.88-1.24,1.34-1.84.02-.01.05-.03.06-.07.25-.31.53-.64.8-.93h.02c.23-.31.44-.57.69-.84,1.04-1.13,2.1-2.18,3.15-3.08,1.06-.88,2.08-1.63,3.01-2.17,1.17-.68,2.3-1.09,3.38-1.29.01.02.02-.01.02-.01,1.07-.15,2.12-.13,3.13.12.31.08.67.18.97.3.5.18.95.38,1.41.65.2.12.4.23.58.37.32.21.62.44.92.67.31.25.6.52.89.79,1.16,1.09,2.21,2.45,3.19,3.98.1.17.21.31.31.48l.4.7c.14.25.27.47.39.74.22.37.43.75.6,1.15.31.59.55,1.18.78,1.75.03.05.02.09.05.14-.51.39-1.04.8-1.6,1.15-1.65,1.12-3.47,2.17-5.47,3.09Z" class="cls-3"/><path data-cppathid="10034" d="M74.22,9l-.22.13c-.22.13-.45.26-.69.36-.38.26-.8.46-1.21.67-1.95.99-4.07,1.88-6.34,2.62-1.34.44-2.68.78-4.02,1.05-4.5.97-8.82,1.09-12.42.44,0,0,.03-.01.01-.04.32-.65.71-1.31,1.1-1.96.41-.67.84-1.31,1.3-1.95.43-.65.88-1.24,1.34-1.84.02-.01.05-.03.06-.07.25-.31.53-.64.8-.93h.02c.23-.31.44-.57.69-.84,1.04-1.13,2.1-2.18,3.15-3.08,1.06-.88,2.08-1.63,3.01-2.17,1.17-.68,2.3-1.09,3.38-1.29.01.02.02-.01.02-.01,1.07-.15,2.12-.13,3.13.12.31.08.67.18.97.3.5.18.95.38,1.41.65.2.12.4.23.58.37.32.21.62.44.92.67.31.25.6.52.89.79,1.16,1.09,2.21,2.45,3.19,3.98.1.17.21.31.31.48l.27.47c-.41.27-.87.57-1.32.83-.09.08-.21.15-.34.23Z" class="cls-3"/></g><path data-cppathid="10035" d="M70.54,26.98c-7.73,2.59-19.83,3.25-23.08-2.37-.86-1.48-1.02-3.26-.69-5.22.15-.82.37-1.64.67-2.5.15-.4.31-.84.49-1.25.19-.46.39-.88.59-1.31,0,0,.03-.02.01-.04.34-.68.74-1.36,1.14-2.05.43-.7.87-1.37,1.36-2.03.44-.67.92-1.29,1.39-1.91.03-.02.05-.03.06-.07.33-.47.77-.86,1.27-1.14.63-.34,1.44-1.15,1.78-1.45.76-.72,1.68-1.42,2.73-1.4,1.04,0,2.1,1.11,1.67,2.05-.31.66-1.2,1.04-1.2,1.77.02.64.8,1.03,1.43.98.63-.05,1.23-.4,1.85-.51.63-.12,1.42.05,1.63.66.22.5-.11,1.07-.53,1.42-.41.37-.89.62-1.29,1.02-.56.6-.64,1.48-.36,2.26.21.61.62,1.13,1.24,1.37.52.18,1.11.19,1.65.33.57.15,1.1.58,1.1,1.13-.03.61-.6,1.01-.85,1.53-.06.14-.12.28-.11.41-.07.66.34,1.37.94,1.68.72.41,1.63.31,2.41-.04.63-.29,1.17-.74,1.83-.98.64-.27,1.49-.24,1.94.3.51.64.2,1.62-.3,2.25-.49.66-1.18,1.2-1.46,1.98-.35,1.07.14,2.1.67,3.15Z" class="cls-8"/><path data-cppathid="10036" d="M70.54,26.98c-7.73,2.59-19.83,3.25-23.08-2.37-.86-1.48-1.02-3.26-.69-5.22.35-1.88.97-3.41,1.76-5.07,0,0,.03-.02.01-.04,1.01-2.05,2.51-4.18,3.9-5.99.03-.02.05-.03.06-.07.72-1.02.83-.58,3.05-2.59,3.1-2.91,4.92-.49,4.4.65-.31.66-1.2,1.04-1.2,1.77.02.64.8,1.03,1.43.98.63-.05,1.23-.4,1.85-.51,1.54-.29,2.31,1.07,1.09,2.08-.64.59-2.37,1.24-1.65,3.27.58,1.68,1.9,1.43,2.89,1.7,2.41.65.11,2.44.14,3.07-.14,1.32,1.36,2.52,3.34,1.64.63-.29,1.17-.74,1.83-.98,1.74-.72,2.99.84,1.65,2.55-1.29,1.76-2.41,1.95-.78,5.14Z" class="cls-2"/><path data-cppathid="10037" d="M22.2,21.55c5.61-1,24.24-1.8,28.77-8.41,3.86-5.63,10.33,2.06,1.77,6.49-22.04,11.4-31.7,4.87-40.86,9.24-.94.45-4.45,2.55-4.9.66-.59-2.51,8.49-6.77,15.22-7.97Z" class="cls-2"/><path data-cppathid="10038" d="M102.88,31.4c2.01-.35,4.14-.76,5.66-2.13,3.01-2.72,1.17-7.44-3.31-5.94-3.77,1.26-4.46,4.91-20.63,6.89-45.38,5.55-62.48-3.97-63.11.5-.33,2.38,4.16,2.4,5.71,2.71,24.74,4.92,50.69,2.29,75.69-2.02Z" class="cls-2"/></g></g></svg>