<?xml version="1.0" encoding="UTF-8"?>
<svg xmlns="http://www.w3.org/2000/svg" onmouseup="{ if(window.parent.document.onmouseup) window.parent.document.onmouseup(arguments[0]);}" viewBox="0 0 1040 585" xmlns:xlink="http://www.w3.org/1999/xlink"><defs><style>
      .cls-1 {
        fill: #f95948;
      }

      .cls-2 {
        fill: #5bbf6e;
      }

      .cls-3 {
        fill: #5a5a5a;
      }

      .cls-4 {
        fill: #c14a71;
      }

      .cls-5 {
        fill: #898989;
      }

      .cls-6 {
        fill: #a497a5;
      }

      .cls-7 {
        fill: #ea4134;
      }

      .cls-8 {
        fill: #1a6922;
      }

      .cls-9, .cls-10, .cls-11, .cls-12 {
        fill: #fff;
      }

      .cls-13 {
        fill: #005e8d;
      }

      .cls-14 {
        fill: #f5e6c2;
      }

      .cls-15 {
        fill: #cdcdcd;
      }

      .cls-16 {
        fill: #fdb136;
      }

      .cls-17 {
        fill: #15541a;
      }

      .cls-10 {
        opacity: .5;
      }

      .cls-18 {
        fill: #449774;
      }

      .cls-19 {
        fill: #6b4343;
      }

      .cls-20 {
        fill: none;
      }

      .cls-21 {
        fill: #bda69f;
      }

      .cls-22 {
        fill: #ff9048;
      }

      .cls-23 {
        fill: #5da380;
      }

      .cls-24 {
        fill: #a67c52;
      }

      .cls-24, .cls-11 {
        opacity: .3;
      }

      .cls-25 {
        fill: #d98b6a;
      }

      .cls-26 {
        clip-path: url(#clippath-1);
      }

      .cls-27 {
        fill: #70b054;
      }

      .cls-28 {
        fill: #bf6b26;
      }

      .cls-29 {
        fill: #e3e3e3;
      }

      .cls-30 {
        fill: #b36340;
      }

      .cls-31 {
        isolation: isolate;
      }

      .cls-32 {
        fill: #c7904f;
      }

      .cls-33 {
        fill: #ed5252;
      }

      .cls-34 {
        fill: #9f733f;
      }

      .cls-35 {
        fill: #f9a428;
      }

      .cls-36 {
        fill: #7cb9e6;
      }

      .cls-37 {
        fill: #7c6863;
      }

      .cls-38 {
        fill: #95aea8;
      }

      .cls-39 {
        fill: #6fba97;
      }

      .cls-12 {
        mix-blend-mode: soft-light;
        opacity: .4;
      }

      .cls-40 {
        fill: #db6d5c;
      }

      .cls-41 {
        fill: #e0ae7c;
      }

      .cls-42 {
        fill: #ffba61;
      }

      .cls-43 {
        fill: #fdffef;
      }

      .cls-44 {
        fill: #ccc;
      }

      .cls-45 {
        fill: #f5f5f5;
      }

      .cls-46 {
        fill: #4ba859;
      }

      .cls-47 {
        fill: #4a403d;
      }

      .cls-48 {
        fill: #f5e2dc;
      }

      .cls-49 {
        fill: #eae5ea;
      }

      .cls-50 {
        fill: #cfc5cf;
      }

      .cls-51 {
        fill: #d44747;
      }

      .cls-52 {
        fill: #556e68;
      }

      .cls-53 {
        clip-path: url(#clippath);
      }

      .cls-54 {
        fill: #ffcaba;
      }

      .cls-55 {
        fill: #f7f7f7;
      }

      .cls-56 {
        fill: #fcecde;
      }

      .cls-57 {
        fill: #8b6437;
      }

      .cls-58 {
        fill: #12802f;
      }
    </style><clipPath id="clippath"><rect data-cppathid="10000" height="585" width="1040" class="cls-20"/></clipPath><clipPath id="clippath-1"><rect data-cppathid="10001" height="1000" width="1748" y="-336" x="-356" class="cls-20"/></clipPath></defs><g class="cls-31"><g id="Layer_2"><g data-name="Layer_1" id="Layer_1-2"><g class="cls-53"><g class="cls-26"><g id="Background_2"><g><g id="Backrgound_2"><rect data-cppathid="10002" height="397" width="1748" y="-329" x="-361" class="cls-43"/><g id="Meja"><g><path data-cppathid="10003" d="M-355,89v317.08c0,3.27,3.57,5.92,7.97,5.92H830.03c4.4,0,7.97-2.65,7.97-5.92V89H-355Z" class="cls-14"/><g><g><rect data-cppathid="10004" ry="5.92" rx="5.92" height="84" width="228" y="112" x="-26" class="cls-4"/><path data-cppathid="10005" d="M121,136.52v-7.04c0-1.37-1.41-2.48-3.15-2.48h-58.7c-1.74,0-3.15,1.11-3.15,2.48v7.04c0,1.37,1.41,2.48,3.15,2.48h58.7c1.74,0,3.15-1.11,3.15-2.48Z" class="cls-55"/></g><g><rect data-cppathid="10006" ry="5.92" rx="5.92" height="84" width="228" y="209" x="-26" class="cls-4"/><path data-cppathid="10007" d="M121,233.52v-7.04c0-1.37-1.41-2.48-3.15-2.48h-58.7c-1.74,0-3.15,1.11-3.15,2.48v7.04c0,1.37,1.41,2.48,3.15,2.48h58.7c1.74,0,3.15-1.11,3.15-2.48Z" class="cls-55"/></g><g><rect data-cppathid="10008" ry="5.92" rx="5.92" height="84" width="228" y="306" x="-26" class="cls-4"/><path data-cppathid="10009" d="M121,330.52v-7.04c0-1.37-1.41-2.48-3.15-2.48h-58.7c-1.74,0-3.15,1.11-3.15,2.48v7.04c0,1.37,1.41,2.48,3.15,2.48h58.7c1.74,0,3.15-1.11,3.15-2.48Z" class="cls-55"/></g></g><path data-cppathid="10010" d="M847,71.62c0-2-3.52-3.62-7.86-3.62H-362.14c-4.34,0-7.86,1.62-7.86,3.62v20.76c0,2,3.52,3.62,7.86,3.62H839.14c4.34,0,7.86-1.62,7.86-3.62v-20.76Z" class="cls-4"/><g><g><rect data-cppathid="10011" ry="5.92" rx="5.92" height="279" width="144" y="111" x="214" class="cls-4"/><rect data-cppathid="10012" ry="2.62" rx="2.62" height="54" width="13" y="152" x="333" class="cls-55"/></g><g><rect data-cppathid="10013" ry="5.92" rx="5.92" height="279" width="144" y="111" x="371" class="cls-4"/><rect data-cppathid="10014" ry="2.62" rx="2.62" height="54" width="13" y="152" x="384" class="cls-55"/></g></g></g><g><path data-cppathid="10015" d="M819.36,58h-259.72c-1.46,0-2.64,1.18-2.64,2.64v7.36h265v-7.36c0-1.46-1.18-2.64-2.64-2.64Z" class="cls-3"/><rect data-cppathid="10016" height="316" width="296" y="96" x="542" class="cls-15"/><g><g><rect data-cppathid="10017" ry="6.11" rx="6.11" height="211" width="270" y="181" x="555" class="cls-5"/><rect data-cppathid="10018" ry="6.11" rx="6.11" height="55" width="270" y="113" x="555" class="cls-5"/></g><g><g><circle data-cppathid="10019" transform="translate(-7.1 246.75) rotate(-22.5)" r="10.93" cy="141.23" cx="616.7" class="cls-3"/><circle data-cppathid="10020" transform="translate(312.02 676.7) rotate(-76.72)" r="10.93" cy="141.23" cx="583.53" class="cls-3"/><circle data-cppathid="10021" transform="translate(363.11 741.26) rotate(-76.72)" r="10.93" cy="141.23" cx="649.87" class="cls-3"/></g><rect data-cppathid="10022" ry="6.11" rx="6.11" height="22" width="69" y="130" x="738" class="cls-3"/></g><path data-cppathid="10023" d="M803.01,214h-6.3c-5.27,0-10.29,2.08-14.17,5.65-10.6,9.76-48.02,16.97-92.55,16.97s-81.94-7.21-92.54-16.96c-3.88-3.57-8.9-5.65-14.17-5.65h-6.3c-2.2,0-3.99,1.78-3.99,3.99v142.03c0,2.2,1.78,3.99,3.99,3.99h226.03c2.2,0,3.99-1.78,3.99-3.99v-142.03c0-2.2-1.78-3.99-3.99-3.99Z" class="cls-3"/><rect data-cppathid="10024" ry="2.64" rx="2.64" height="9" width="127" y="209" x="626" class="cls-3"/></g><g><g><path data-cppathid="10025" d="M603.52,43h-19.12c-1.88,0-3.4,1.79-3.4,4,0,.18.01.36.03.54-.02.18-.03.37-.03.56v8.5c0,2.57,1.76,4.89,4.28,5.39,3.57.71,6.72-1.79,6.72-4.97v-6.01h11.52c1.88,0,3.4-1.79,3.4-4s-1.52-4-3.4-4Z" class="cls-3"/><path data-cppathid="10026" d="M644.48,43h19.12c1.88,0,3.4,1.79,3.4,4,0,.18-.01.36-.03.54.02.18.03.37.03.56v8.5c0,2.57-1.76,4.89-4.28,5.39-3.57.71-6.72-1.79-6.72-4.97v-6.01h-11.52c-1.88,0-3.4-1.79-3.4-4s1.52-4,3.4-4Z" class="cls-3"/></g><g><path data-cppathid="10027" d="M735.52,43h-19.12c-1.88,0-3.4,1.79-3.4,4,0,.18.01.36.03.54-.02.18-.03.37-.03.56v8.5c0,2.57,1.76,4.89,4.28,5.39,3.57.71,6.72-1.79,6.72-4.97v-6.01h11.52c1.88,0,3.4-1.79,3.4-4s-1.52-4-3.4-4Z" class="cls-3"/><path data-cppathid="10028" d="M776.48,43h19.12c1.88,0,3.4,1.79,3.4,4,0,.18-.01.36-.03.54.02.18.03.37.03.56v8.5c0,2.57-1.76,4.89-4.28,5.39-3.57.71-6.72-1.79-6.72-4.97v-6.01h-11.52c-1.88,0-3.4-1.79-3.4-4s1.52-4,3.4-4Z" class="cls-3"/></g></g></g></g><g id="Kulkas"><rect data-cppathid="10029" height="746" width="349" y="-329" x="836" class="cls-45"/><rect data-cppathid="10030" height="748" width="16" y="-331" x="1022" class="cls-29"/><path data-cppathid="10031" d="M1005.42-146h2.16c1.89,0,3.42,1.44,3.42,3.21V178.79c0,1.77-1.53,3.21-3.42,3.21h-2.16c-1.89,0-3.42-1.44-3.42-3.21V-142.79c0-1.77,1.53-3.21,3.42-3.21Z" class="cls-44"/></g></g><rect data-cppathid="10032" height="237" width="1748" y="417" x="-356" class="cls-3"/><rect data-cppathid="10033" height="118" width="1760" y="333" x="-359" class="cls-32"/><rect data-cppathid="10034" height="30" width="1760" y="451" x="-359" class="cls-57"/><rect data-cppathid="10035" height="175" width="1760" y="479" x="-359" class="cls-34"/><g id="Oven"><rect data-cppathid="10036" height="84" width="132" y="-17" x="67" class="cls-36"/><g><rect data-cppathid="10037" height="66" width="87" y="-7" x="77" class="cls-13"/><polygon data-cppathid="10038" points="136.09 -7 77 52.08 77 7.5 91.5 -7 136.09 -7" class="cls-12"/><polygon data-cppathid="10039" points="164 4.6 164 24.92 129.92 59 109.6 59 164 4.6" class="cls-12"/><polygon data-cppathid="10040" points="164 34.1 164 45.47 150.47 59 139.1 59 164 34.1" class="cls-12"/></g><rect data-cppathid="10041" height="6" width="20" y="50" x="173" class="cls-9"/><rect data-cppathid="10042" height="27" width="20" y="19" x="173" class="cls-13"/><path data-cppathid="10043" d="M182.6,12.69c-4.47,0-8.1-3.63-8.1-8.1s3.63-8.1,8.1-8.1,8.1,3.63,8.1,8.1-3.63,8.1-8.1,8.1ZM182.6.42c-2.3,0-4.17,1.87-4.17,4.17s1.87,4.17,4.17,4.17,4.17-1.87,4.17-4.17-1.87-4.17-4.17-4.17Z" class="cls-9"/></g><g id="Tanaman_Hias"><g><polygon data-cppathid="10044" points="29.26 53 22 53 23 52.33 23 51.23 24 22.36 23 22.21 23 5.42 27.15 35.14 28.23 44.21 28.59 47.18 29.05 51.05 29.26 53" class="cls-17"/><polygon data-cppathid="10045" points="34.61 7.58 34.38 9.38 32.77 22.08 31.75 30.04 31.62 31.08 31.62 31.08 30.35 41.09 29.05 51.3 28.84 53 22.42 53 22.72 51.9 22.83 51.48 24.69 44.55 25.93 39.91 27.15 35.38 28.48 30.42 29.43 26.86 30.33 23.51 31.03 20.9 34.42 8.28 34.61 7.58" class="cls-17"/><polygon data-cppathid="10046" points="20.95 53 14.86 53 13.03 34.07 11.32 16.47 10.88 11.91 13.02 20.64 15.16 29.37 19.63 47.6 20.95 53" class="cls-17"/><path data-cppathid="10047" d="M48.32-5.3c-1.18,5.07.49,6.71-.33,13.91-.82,7.2-3.6,12.43-7.93,20.94-2.46,4.83-3,8.6-3.06,12.22h0c-.42.21-.44.4-.47.6-.02.15-.04.29.47.44h0c-.83,2.4-1.17,4.76-2.1,7.36-.03.07-.05.14-.08.22-.17.5-.33,1.01-.47,1.53-.08.28-.15.57-.22,1.1h-3.18c.05-.92.1-1.61.17-2.33,0,0,0-.01,0-.02.08-.87.24-1.73.46-2.6.44-1.74,1.13-3.54,1.94-5.58.16-.4.32-.8.48-1.21.75-1.86,1.57-3.92,2.37-6.28,1.41-4.12,2.77-9.17,3.66-15.74,2.34-17.37,9.64-30,9.89-30.42-.05.11-.53,1.13-1.63,5.88Z" class="cls-58"/><path data-cppathid="10048" d="M39.16,6.88c-2.45,4.42-2.13,12.27-1.8,18.12.11,2.04-.53,4.08-1.46,6.11-.67,1.47-1.5,2.93-2.29,4.39-.32.59-.65,1.19-.95,1.78-.37.72-.72,1.45-1.01,2.17-.41.98-.73,1.95-.91,2.93-.03.15-.05.32-.07.49-.21,1.72-.03,4.25.33,6.98.05.35.1.71.15,1.06.1.69.21,1.39.33,2.09h-2.76c-.06-1.77-.11-3.65-.12-5.58-.01-2.12.01-4.31.1-6.51.07-1.8.29-3.7.64-5.68.42-2.41,1.02-4.93,1.73-7.49.17-.6.34-1.2.52-1.81.38-1.28.78-2.57,1.19-3.86.3-.94.61-1.88.93-2.81.61-1.83,1.25-3.64,1.87-5.42,1.96-5.61,3.83-10.8,4.79-14.82,2.5-10.47.94-21.27.94-21.27,0,0,1.64,4.58,3.93,11.29,2.29,6.71-3.6,13.42-6.05,17.83Z" class="cls-58"/><path data-cppathid="10049" d="M37.36-13.64c-.04.2-1.79,8.72-.65,12.76.67,2.4-.36,8.54-1.14,14.49-.55,4.17-.97,8.24-.59,10.87.3,2.07.63,4.26.93,6.4.19,1.4.37,2.78.51,4.11.27,2.59.39,4.96.6,6.79h0c-.41.22-.44.41-.47.6-.02.13-.04.28.47.44h0c-.74,2.11-.62,6.1-.5,10.19h-2.12c0-.52-.01-.81-.02-1.1-.04-1.74-.09-3.54-.14-5.29-.06-1.9-.12-3.74-.19-5.35-.08-2-.18-3.66-.27-4.68-.04-.46-.1-.9-.15-1.32-.58-4.23-1.69-6.77-.5-12.43.23-1.09.42-2.39.59-3.82.35-2.99.56-6.53.69-9.88.01-.37.03-.73.04-1.1.13-3.73.16-7.12.16-9.09,0-4.69,2.71-12.4,2.78-12.59Z" class="cls-17"/><path data-cppathid="10050" d="M31.79,33.88c0,1.59-.06,3.5-.15,5.58-.1,2.15-.24,4.48-.39,6.79-.08,1.22-.17,2.43-.26,3.61-.08,1.09-.16,2.14-.24,3.15h-3.37c.08-.73.16-1.5.24-2.31.2-1.93.41-4.05.62-6.24.32-3.46.63-7.12.86-10.55.17-2.52.29-4.93.34-7.04.05-2.17.03-4.04-.09-5.42-.2-2.15-.39-4.42-.57-6.7-.56-7.28-.89-14.67-.19-18.66.92-5.24.88-10.8.88-10.8,0,0,1.69,9,1.27,15.54-.41,6.54-2.48,3.56-.52,11.57.77,3.16.44,5.96.82,8.5.25,1.66.42,3.3.54,5.04.09,1.29.15,2.64.18,4.1.02.65.03,1.32.03,2.02,0,.59,0,1.19,0,1.82Z" class="cls-17"/><path data-cppathid="10051" d="M35.21,53h-2.79c-.25-1.46-.53-3.05-.82-4.71-.12-.67-.24-1.36-.36-2.05-.19-1.11-.39-2.23-.59-3.37-.1-.59-.21-1.18-.31-1.78-.34-1.97-.69-3.95-1.02-5.86-.08-.45-.16-.89-.23-1.34-.21-1.2-.42-2.36-.61-3.48-.93-5.28-1.68-9.44-1.92-10.61-.82-3.93-2.62-15.71-4.58-24.21-1.96-8.51-.49-33.21,0-26.18,0,0-.21-1.24.49,4.74.7,5.99,3.6,7.69,3.27,14.89-.33,7.2-.16,11.62,1.8,19.63.3,1.24.73,3.36,1.23,6.06.47,2.5,1,5.5,1.56,8.76.24,1.37.48,2.79.73,4.24.19,1.1.37,2.21.56,3.34h0c.05.33.11.65.16.98.29,1.74.58,3.49.87,5.23.3,1.84.6,3.66.89,5.43.23,1.42.46,2.81.67,4.14.21,1.31.42,2.57.61,3.76.13.83.26,1.62.38,2.38Z" class="cls-58"/><path data-cppathid="10052" d="M24.85,53h-3.71c-.59-6.64-1.2-14.72-1.14-18.77h0c0-.07,0-.13,0-.19.04-1.83,0-3.36-.16-4.73-.26-2.33-.8-4.24-1.69-6.48-.69-1.76-1.6-3.72-2.73-6.25-1.15-2.55-1.78-5.3-2.23-7.98-.9-5.35-1.04-10.44-3.01-13.16-.38-.53-.74-1.09-1.09-1.7-.9-1.57-1.69-3.41-2.4-5.46h0c-1.16-3.34-2.1-7.24-2.89-11.48-1.47-7.85.98-7.04.98-7.04,0,0,1.8,4.58,2.62,8.02.21.89.51,2.3.91,3.97.59,2.49,1.39,5.55,2.42,8.3.93,2.49,2.06,4.73,3.38,6.05.86.86,1.65,1.86,2.37,3,2.26,3.55,3.89,8.41,5.33,14.47.11.45.21.91.32,1.37.36,1.62.7,4.27,1.01,7.52.01.14.03.28.04.42.56,6.14,1.02,14.29,1.34,21.67.13,3.01.24,5.89.33,8.45Z" class="cls-17"/><path data-cppathid="10053" d="M20.02,29.31c-.01,1.14-.03,2.34-.05,3.59-.07,4.7-.21,9.99-.34,14.7-.06,1.92-.11,3.75-.16,5.4h-1.94c-.13-.58-.26-1.19-.4-1.81-.46-6.92-1.15-15.86-1.97-21.82-.24-1.78-.5-3.3-.77-4.42-.31-1.29-.78-2.75-1.37-4.31-.5-1.33-1.08-2.73-1.7-4.16C8.14,9.12,3.87.89,3.51-2.67c-.33-3.27,1.52-3.68,3.36-9.07h0c.56-1.64,1.12-3.75,1.62-6.53.4-2.27.77-4.99,1.06-8.29,0,0,1.92,12.91,1.36,16.59-.05.33-.12.59-.22.76-.36.61-.9,1.66-1.42,2.94-1.14,2.83-2.13,6.74-.55,9.33.87,1.44,2.71,3.26,4.64,5.54,1.16,1.36,2.36,2.89,3.41,4.6,1.79,2.91,3.17,6.35,3.24,10.39.03,1.58.02,3.53,0,5.72Z" class="cls-58"/><path data-cppathid="10054" d="M17.25,53h-2.55C10.27,36.06-.93.28-.93.28,3.77,2.33,9.06,18.8,13.03,34.07c1.63,6.27,3.04,12.33,4.1,17.11.04.62.08,1.23.12,1.81Z" class="cls-27"/><path data-cppathid="10055" d="M25.54,53.24l-5.08-.52c0-.14-.01-.28-.01-.43,0-.23-.02-.46-.02-.69-.18-5.22-.43-11.75-.72-17.83,0,0,0,0,0,0-.02-.45-.04-.9-.07-1.35-.18-3.77-.39-7.32-.6-10.19-.15-2-.3-3.67-.45-4.87-.16-1.21-.18-2.88-.1-4.86.15-3.86.67-8.91,1.33-14.05,1.09-8.55,2.55-17.37,3.25-21.48-.46,5.8-.07,20.74.56,36.42.12,3.04.25,6.1.39,9.13,0,.09,0,.18.01.28.27,6.04.56,11.93.82,17.22.21,4.07.4,7.78.57,10.9.04.82.09,1.6.13,2.33Z" class="cls-27"/><polygon data-cppathid="10056" points="25.92 53 21.92 53 21.87 52.64 18.05 32.52 18.03 32.42 15.81 20.72 22.14 40.94 24.07 47.1 24.7 49.12 25.52 51.76 25.92 53" class="cls-8"/></g><g><path data-cppathid="10057" d="M43.23,57.46c-.03.16-.06.32-.09.48-.29,1.39-.79,2.72-1.59,3.95-.09.14-.19.29-.29.43-.03.05-.07.1-.11.14-.08.11-.17.23-.26.34-.85,1.06-1.94,2.02-3.32,2.85-.15.09-.3.18-.46.26-.41.22-.84.44-1.3.64-.13.06-.27.12-.4.17-.23.09-.46.18-.7.27-.14.05-.27.1-.41.15-2.26.78-5.04,1.3-8.41,1.49-.14,0-.28.02-.43.02-.44.02-.88.04-1.34.04h0s0,0-.01,0c0,0,0,0-.01,0h0c-.61-.01-1.2-.04-1.77-.07-.14,0-.28-.02-.43-.03-.32-.02-.64-.05-.95-.07-.19-.02-.38-.03-.56-.05-2.24-.23-4.19-.62-5.87-1.14-.19-.06-.37-.12-.55-.18-.17-.06-.34-.12-.5-.18-.14-.05-.27-.1-.41-.16-.9-.36-1.71-.76-2.45-1.2-.17-.1-.34-.21-.5-.32-1.29-.85-2.3-1.82-3.07-2.89-.11-.16-.23-.32-.33-.48-.34-.52-.63-1.06-.87-1.61-.11-.26-.22-.52-.31-.79-.52-1.48-.74-3.05-.75-4.63,0-.27,0-.53.01-.8.05-1.19.2-2.39.44-3.55.03-.13.05-.26.08-.39.16-.76.35-1.5.57-2.22.04-.15.09-.3.13-.44.66-2.13,1.49-4.05,2.2-5.53.06-.12.12-.24.18-.36.15-.3.29-.59.43-.84.07-.14.15-.28.21-.41.47-.88.79-1.39.79-1.39h28.59s.57.92,1.34,2.44c.06.12.12.23.18.36.02.05.05.1.07.15.06.12.12.24.17.36.91,1.91,1.96,4.49,2.62,7.3.04.15.07.31.11.46,0,.01,0,.02,0,.03.03.13.06.26.08.39.46,2.29.64,4.69.25,6.97Z" class="cls-41"/><g><path data-cppathid="10058" d="M11.42,40.21c-.63-.58-1.47-.49-2.28-.21-.03.01-.07,0-.11,0-.07.13-.14.26-.21.41.01,0,.02,0,.03,0,1.9-.11,3.7,1.18,4.15,3.03.66,2.68-1.36,5.08-3.93,5.08-1.21,0-2.31-.54-3.05-1.38-.05.15-.09.29-.13.44.81.83,1.94,1.34,3.18,1.34,3.82,0,6.54-4.83,2.35-8.71Z" class="cls-56"/><path data-cppathid="10059" d="M19.58,48.09c-2.46,0-4.46,2-4.46,4.46s2,4.46,4.46,4.46,4.46-2,4.46-4.46-2-4.46-4.46-4.46ZM19.58,56.61c-2.24,0-4.06-1.82-4.06-4.06s1.82-4.06,4.06-4.06,4.06,1.82,4.06,4.06-1.82,4.06-4.06,4.06Z" class="cls-56"/><path data-cppathid="10060" d="M24.56,39h-.43c.32.78.41,1.68.17,2.62-.36,1.41-1.51,2.53-2.92,2.87-2.67.64-5.06-1.38-5.06-3.94,0-.55.11-1.07.31-1.55h-.43c-.26.71-.35,1.5-.21,2.33.3,1.75,1.68,3.2,3.42,3.57,2.88.61,5.43-1.58,5.43-4.35,0-.54-.1-1.06-.28-1.55Z" class="cls-56"/><path data-cppathid="10061" d="M8.43,52.31c-1.5,0-2.82.74-3.63,1.87-.01.27-.02.53-.01.8.66-1.34,2.05-2.27,3.64-2.27,2.24,0,4.06,1.82,4.06,4.06s-1.82,4.06-4.06,4.06c-1.13,0-2.16-.47-2.9-1.22.09.27.2.53.31.79.73.52,1.62.83,2.59.83,2.46,0,4.46-2,4.46-4.46s-2-4.46-4.46-4.46Z" class="cls-56"/><path data-cppathid="10062" d="M17.99,60.83c-2.46,0-4.46,2-4.46,4.46,0,.7.16,1.36.45,1.94.18.06.37.12.55.18-.38-.62-.6-1.35-.6-2.12,0-2.24,1.82-4.06,4.06-4.06s4.06,1.82,4.06,4.06c0,1.34-.65,2.53-1.65,3.27.19.02.37.04.56.05.91-.82,1.49-2,1.49-3.32,0-2.46-2-4.46-4.46-4.46Z" class="cls-56"/><path data-cppathid="10063" d="M31.04,43.31c-2.46,0-4.46,2-4.46,4.46s2,4.46,4.46,4.46,4.46-2,4.46-4.46-2-4.46-4.46-4.46ZM31.04,51.83c-2.24,0-4.06-1.82-4.06-4.06s1.82-4.06,4.06-4.06,4.06,1.82,4.06,4.06-1.82,4.06-4.06,4.06Z" class="cls-56"/><path data-cppathid="10064" d="M40,41.95c-.66.47-1.47.75-2.35.75-2.12,0-3.86-1.63-4.04-3.7h-.4c.19,2.29,2.11,4.09,4.44,4.09.93,0,1.8-.29,2.52-.78-.06-.12-.12-.25-.17-.36Z" class="cls-56"/><path data-cppathid="10065" d="M28.89,55.73c-2.46,0-4.46,2-4.46,4.46s2,4.46,4.46,4.46,4.46-2,4.46-4.46-2-4.46-4.46-4.46ZM28.89,64.25c-2.24,0-4.06-1.82-4.06-4.06s1.82-4.06,4.06-4.06,4.06,1.82,4.06,4.06-1.82,4.06-4.06,4.06Z" class="cls-56"/><path data-cppathid="10066" d="M39.88,62.34c-2.46,0-4.46,2-4.46,4.45.14-.06.27-.11.4-.17.09-2.16,1.88-3.88,4.06-3.88.35,0,.69.05,1.02.13.09-.11.18-.23.26-.34-.41-.12-.84-.19-1.28-.19Z" class="cls-56"/><path data-cppathid="10067" d="M41.39,57.96c-2.24,0-4.06-1.82-4.06-4.06s1.82-4.06,4.06-4.06c.53,0,1.04.1,1.5.29-.03-.15-.07-.31-.11-.46-.44-.15-.91-.22-1.4-.22-2.46,0-4.46,2-4.46,4.46s2,4.46,4.46,4.46c.62,0,1.21-.13,1.75-.36.03-.16.06-.32.09-.48-.55.28-1.18.44-1.84.44Z" class="cls-56"/></g><path data-cppathid="10068" d="M43.23,57.52c-.03.16-.06.32-.09.48-.29,1.39-.79,2.72-1.59,3.95-.09.14-.19.29-.29.43-.03.05-.07.1-.11.14-.08.11-.17.23-.26.34-.85,1.06-1.94,2.02-3.32,2.85-.15.09-.3.18-.46.26-.41.22-.84.44-1.3.64-.13.06-.27.12-.4.17-.23.09-.46.18-.7.27-.14.05-.27.1-.41.15-2.26.78-5.04,1.3-8.41,1.49-.14,0-.28.02-.43.02-.44.02-.88.04-1.34.04h0s0,0-.01,0c0,0,0,0-.01,0h0c-.61-.01-1.2-.04-1.77-.07-.14,0-.28-.02-.43-.03-.32-.02-.64-.05-.95-.07-.19-.02-.38-.03-.56-.05-2.24-.23-4.19-.62-5.87-1.14-.19-.06-.37-.12-.55-.18-.17-.06-.34-.12-.5-.18-.14-.05-.27-.1-.41-.16-.9-.36-1.71-.76-2.45-1.2-.17-.1-.34-.21-.5-.32-1.29-.85-2.3-1.82-3.07-2.89,32.68,12.57,31.37-23.43,31.37-23.43,0,0,.57.92,1.34,2.44.06.12.12.23.18.36.02.05.05.1.07.15.06.12.12.24.17.36.91,1.91,1.96,4.49,2.62,7.3.04.15.07.31.11.46,0,.01,0,.02,0,.03.03.13.06.26.08.39.46,2.29.64,4.69.25,6.97Z" class="cls-24"/><ellipse data-cppathid="10069" transform="translate(-37.52 54.97) rotate(-80.87)" ry="3.26" rx="8.59" cy="49.5" cx="13.5" class="cls-11"/></g></g><g id="Ketel"><path data-cppathid="10070" d="M621.9.35c-1.14-2.01-.6-4.82,1.22-6.26,1.81-1.44,4.67-1.33,6.37.25,1.7,1.57,2.02,4.41.73,6.33-2.72-.42-5.51-.42-8.31-.32Z" class="cls-47"/><path data-cppathid="10071" d="M652.52,29.52c4.75-6.19,8.19-13.33,9.77-20.96,1.58-7.64.3-16.23-5-21.95-5.39-5.81-13.78-7.67-21.68-8.35-7.94-.68-15.96-.96-23.86.1-.65.09-1.18.59-1.28,1.24-.24,1.47-.13,3.19-.1,4.14.02.59.23,1.18.65,1.59.87.84,2.03.82,3.13.79,8.38-.17,17.16-.67,25.4.86,3.59.67,7.03,2.21,9.9,4.47,3.16,2.49,4.85,7,5.09,11.02.24,4.02-.99,8.04-3.06,11.49-.97,1.62-2.14,3.17-2.62,5-1.04,4.02-.91,10.21.15,13.19.46-.5,1.66-.25,3.49-2.64Z" class="cls-47"/><path data-cppathid="10072" d="M654.02,38.18c-.06,1.37-.13,2.78-.64,4.06-.52,1.27-1.57,2.42-2.94,2.65-.16.03-34.99-.23-48.22-.23-2.71,0-4.04-3.46-4.13-5.14-.24-4.3-.13-8.26.69-12.07.14-.65.3-1.3.48-1.94.06-.21,0-.42-.14-.57-.58-.6-1.16-1.2-1.74-1.81-2.95-3.08-5.85-6.24-8.75-9.23-.61-.62-1.25-1.34-1.25-2.21s.63-1.57,1.22-2.19l6.21-6.51c.43-.46,1.14-.52,1.64-.13l6.66,5.06,1.78,1.36c.15.12.37.07.47-.09.34-.55.72-1.08,1.13-1.59,2.48-3.07,6.21-5.46,9.85-6.7,4.36-1.48,8.83-1.9,13.39-1.27,6.15.85,12.28,3.24,16.65,7.6.36.36.71.73,1.05,1.12.38.44.75.9,1.09,1.37,2.74,3.72,4.31,8.25,5.04,12.83.83,5.16.67,10.42.45,15.64Z" class="cls-42"/><path data-cppathid="10073" d="M648.52,9.71c-.15.06-.31.09-.47.08-14.26.62-28.53.56-42.79.44-.12,0-.23-.02-.33-.04-.12.24-.23.49-.34.73-1.23,2.73-2.78,7.85-4.29,11.67-.81,2.05-1.02,2.69-1.02,2.69,0,0-1.32-1.55-1.9-2.16.29-.95.59-1.91.91-2.85,1.37-4.21,2.91-8.36,4.82-12.35l1.78,1.36c.15.12.37.07.47-.09.34-.55.72-1.08,1.13-1.59.6.02,1.21.05,1.71.02,3.52.02,7.04.03,10.56.07,9.22.07,18.42-.12,27.63-.46.36.36.71.73,1.05,1.12.38.44.75.9,1.09,1.37Z" class="cls-28"/></g><g id="Panci"><path data-cppathid="10074" d="M719,36.74V2h78v34.74c0,4.01-3.25,7.26-7.26,7.26h-63.49c-4.01,0-7.26-3.25-7.26-7.26Z" class="cls-40"/><path data-cppathid="10075" d="M707,11.78v-2.55c0-1.23,1-2.22,2.22-2.22h9.78v7h-9.78c-1.23,0-2.22-1-2.22-2.22Z" class="cls-37"/><path data-cppathid="10076" d="M809,11.78v-2.55c0-1.23-1-2.22-2.22-2.22h-9.78v7h9.78c1.23,0,2.22-1,2.22-2.22Z" class="cls-37"/><path data-cppathid="10077" d="M712.49.96h0c0-5.08,33.21-13.96,40.55-13.96h11.01c7.34,0,39.88,9.27,39.88,13.96h0c0,1.13-.91,2.04-2.04,2.04h-87.35c-1.13,0-2.04-.91-2.04-2.04Z" class="cls-21"/></g><g><rect data-cppathid="10078" ry="2.47" rx="2.47" height="44" width="34" y="23" x="499" class="cls-38"/><rect data-cppathid="10079" ry="1.19" rx="1.19" height="6" width="36" y="17" x="498" class="cls-52"/><rect data-cppathid="10080" ry="6.31" rx="6.31" height="30" width="13" y="30" x="510" class="cls-47"/><rect data-cppathid="10081" ry="4.25" rx="4.25" height="25" width="9" y="33" x="512" class="cls-48"/></g><g><rect data-cppathid="10082" ry="2.47" rx="2.47" height="36" width="30" y="31" x="463" class="cls-54"/><rect data-cppathid="10083" ry="1.19" rx="1.19" height="6" width="31" y="25" x="463" class="cls-40"/><rect data-cppathid="10084" ry="5.79" rx="5.79" height="23" width="12" y="37" x="472" class="cls-47"/><rect data-cppathid="10085" ry="3.73" rx="3.73" height="18" width="8" y="40" x="474" class="cls-48"/></g><g><rect data-cppathid="10086" ry="2.71" rx="2.71" height="21" width="29" y="46" x="429" class="cls-42"/><rect data-cppathid="10087" height="3" width="22" y="43" x="433" class="cls-30"/><rect data-cppathid="10088" ry="1.21" rx="1.21" height="3" width="27" y="40" x="430" class="cls-25"/><rect data-cppathid="10089" height="3" width="3" y="37" x="442" class="cls-30"/><path data-cppathid="10090" d="M441.14,34h5.72c.63,0,1.14.51,1.14,1.14v.72c0,.63-.51,1.14-1.14,1.14h-5.72c-.63,0-1.14-.51-1.14-1.14v-.72c0-.63.51-1.14,1.14-1.14Z" class="cls-25"/><rect data-cppathid="10091" ry="5" rx="5" height="10" width="17" y="52" x="435" class="cls-48"/></g><g><rect data-cppathid="10092" ry="2.89" rx="2.89" height="34" width="32" y="33" x="390" class="cls-47"/><rect data-cppathid="10093" height="4" width="23" y="30" x="395" class="cls-30"/><rect data-cppathid="10094" ry="1.21" rx="1.21" height="3" width="27" y="27" x="393" class="cls-25"/><rect data-cppathid="10095" height="3" width="3" y="24" x="405" class="cls-30"/><path data-cppathid="10096" d="M403.14,21h5.72c.63,0,1.14.51,1.14,1.14v.72c0,.63-.51,1.14-1.14,1.14h-5.72c-.63,0-1.14-.51-1.14-1.14v-.72c0-.63.51-1.14,1.14-1.14Z" class="cls-25"/><rect data-cppathid="10097" ry="5" rx="5" height="10" width="17" y="40" x="398" class="cls-48"/></g></g><g><g id="bowl"><path data-cppathid="10098" d="M373.72,39.01c0,.58-.03,1.16-.08,1.73-1.27,14.91-18.92,26.72-40.5,26.72-2.47,0-4.88-.16-7.22-.46-18.96-2.37-33.35-14.01-33.35-27.99,0-.44.01-.87.04-1.29.03-.34.05-.7.09-1.04.26-.67.92-1.32,1.91-1.93.05-.04.11-.07.17-.11,4.74-2.82,16.59-4.93,31.14-5.46,2.33-.11,4.75-.15,7.2-.15,21.29,0,38.75,3.36,40.44,7.64.04.34.07.7.09,1.04.03.42.04.86.04,1.29Z" class="cls-6"/><path data-cppathid="10099" d="M374,39.01h0c0,1.18-.61,2.27-1.62,2.86-4.54,2.68-13.68,4.25-13.72,4.58-1.04,7.6-13.48,18.18-32.45,20.55-1.81-.22-3.56-.54-5.28-.92-3.32-.75-6.45-1.79-9.34-3.09-11.27-5.05-18.73-13.9-18.73-23.98,0-.44.01-.87.04-1.29.03-.34.05-.7.09-1.04.24-.59.9-1.24,1.91-1.93.05-.04.11-.07.17-.11,4.74-2.82,16.59-4.93,31.14-5.46,2.33-.11,4.75-.15,7.2-.15,21.29,0,38.75,3.36,40.44,7.64.04.34.07.7.09,1.04.03.42.04.86.04,1.29Z" class="cls-50"/><path data-cppathid="10100" d="M320.65,66.08c-3.32-.75-6.45-1.79-9.34-3.09-10.3-10.78-11.67-25.6-11.67-25.6l7.18-3.32c-2.16,18.2,5.12,27.41,13.84,32.01Z" class="cls-49"/><path data-cppathid="10101" d="M372.79,38.67c0,.13-.01.25-.04.36-.26,1.23-1.83,2.37-4.42,3.39-6.6,2.61-19.87,4.38-35.18,4.38-9.8,0-18.76-.73-25.68-1.94-8.1-1.41-13.39-3.48-13.9-5.83-.03-.11-.04-.22-.04-.36,0-.22.04-.45.13-.66,1.65-4.17,18.7-7.45,39.49-7.45s37.86,3.28,39.51,7.45c.09.21.13.44.13.66Z" class="cls-19"/><path data-cppathid="10102" d="M368.33,42.41c-6.6,2.61-19.87,4.38-35.18,4.38-9.8,0-18.76-.73-25.68-1.94,4.29-2.16,10.33-4.67,14.83-4.38,7.74.5,3.94.54,13.8,0,9.84-.55,10.26-.5,16.96,0,4.76.36,12.58.11,15.28,1.94Z" class="cls-18"/></g><path data-cppathid="10103" d="M341.33,36.01s-3.81-21.07-10.45-18.8c-6.64,2.27-5.51,6.86-5.51,6.86,0,0-8.74-6.36-9.03.4-.29,6.76,9.64,9.74,9.64,9.74,0,0-22.02-4.23-14.11-.26s12.34,10.94,29.47,2.06Z" class="cls-39"/><g><path data-cppathid="10104" d="M317.92,42.5s-3.81-21.07-10.45-18.8c-6.64,2.27-5.51,6.86-5.51,6.86,0,0-8.74-6.36-9.03.4-.29,6.76,9.64,9.75,9.64,9.75,0,0-22.02-4.23-14.11-.26,7.9,3.96,12.34,10.94,29.47,2.06Z" class="cls-39"/><path data-cppathid="10105" d="M313.84,42.51c-2.74-.3-4.83-1.77-6.81-3.46-.5-1.9.04-4.59.15-6.28.14-2.1.36-4.18.61-6.27.07-.57-.82-.56-.89,0-.32,2.67-.57,5.34-.71,8.03-.06,1.12-.25,2.41-.18,3.63-.45-.4-.9-.79-1.35-1.18-.52-.45-1.04-.89-1.56-1.34.22-.1.38-.35.24-.62-.41-.76-.81-1.52-1.22-2.28-.27-.51-1.04-.06-.77.45.24.45.48.91.73,1.36-.1,0-.2-.02-.3-.03-1.63-1.4-3.26-2.79-4.89-4.19-.43-.37-1.06.26-.63.63,1.34,1.14,2.67,2.29,4.01,3.43-1.4-.09-2.79-.09-4.19,0-.57.04-.57.93,0,.89,1.79-.12,3.56-.08,5.34.09,1.52,1.3,3.04,2.6,4.56,3.91.09.07.17.14.26.22.11.37.24.72.45,1.04.21.33.63.22.78-.03,1.88,1.48,3.8,2.61,6.38,2.89.57.06.56-.83,0-.89Z" class="cls-23"/><path data-cppathid="10106" d="M306.08,42.61c-3.67-.08-7.29-.51-10.88-1.31-.56-.12-.8.73-.24.86,3.67.81,7.36,1.26,11.12,1.34.57.01.57-.88,0-.89Z" class="cls-23"/></g><path data-cppathid="10107" d="M316.25,34.05s-8.77-.6-8.94.36c-.17.96,1.07,4.92,1.49,5.67s3.87,4.09,3.87,4.09c0,0,4.63-3.05,4.63-5.15s-1.05-4.96-1.05-4.96Z" class="cls-33"/><path data-cppathid="10108" d="M360.42,35.11s-8.77-.6-8.94.36c-.17.96,1.07,4.92,1.49,5.67.41.74,3.87,4.09,3.87,4.09,0,0,4.63-3.05,4.63-5.15s-1.05-4.96-1.05-4.96Z" class="cls-33"/><path data-cppathid="10109" d="M337.11,36.58s-8.77-.6-8.94.36c-.17.96,1.07,4.92,1.49,5.67s3.87,4.09,3.87,4.09c0,0,4.63-3.05,4.63-5.15s-1.05-4.96-1.05-4.96Z" class="cls-51"/><path data-cppathid="10110" d="M336.09,40.47s4.01,14.04,13.15,10.01c9.14-4.03-.41-8.63,3.81-10.01,4.22-1.38,10.77-6.17,5.73-12.28-5.04-6.1-14.18,2.41-16.34,3.66-2.16,1.25-6.36,8.61-6.36,8.61Z" class="cls-39"/><path data-cppathid="10111" d="M334.98,34.88c-1.35-1.05-2.99-1.66-4.69-1.74-4.69-.22-14.04-.23-16.12,3.77-2.65,5.12-1.34,3.23-4.03,5.59-2.68,2.35-9.36,9.92-.6,10.89,8.76.97,11.84-1.83,15.9-3.32,4.06-1.49,7.7.62,7.7-3.28,0-3.9,6.79-5.24,7.13-6.58.23-.88-3.03-3.58-5.29-5.33Z" class="cls-2"/><path data-cppathid="10112" d="M357,43.27c0-2.65,1.85-4.93,4.44-5.51,2.37-.53,5.26-.87,7.47-.18,4.54,1.42,6.77,3.37,4.54,4.91-2.23,1.55-3.54,3.4-3.54,3.4,0,0-4.39-2.05-8.63-1.49-6.19.82-4.71.82-4.28.04v-1.17Z" class="cls-2"/><path data-cppathid="10113" d="M359.84,42.77c-.52-.88-1.56-1.06-2.43-.64-.9.43-1.84.53-2.82.46-.96-.07-1.78.87-1.78,1.78,0,1.02.82,1.7,1.78,1.78,1.62.12,3.17-.24,4.62-.94.86-.42,1.09-1.65.64-2.43Z" class="cls-22"/><path data-cppathid="10114" d="M331.23,36.18c-.47.18-.92.38-1.38.57-.02,0-.03-.02-.05-.02-2.46-.56-4.94-.83-7.46-.81-.57,0-.57.89,0,.89,2.05-.01,4.07.18,6.08.55-2.22.99-4.38,2.1-6.46,3.34-2.98-.43-5.85.03-8.54,1.42-.51.26-.06,1.03.45.77,2.16-1.11,4.49-1.6,6.87-1.43-2.31,1.46-4.54,3.06-6.65,4.83-.44.37.19.99.63.63,2.26-1.89,4.65-3.59,7.14-5.12-1.37,2.02-2.2,4.26-2.52,6.7-.07.57.81.56.89,0,.34-2.54.43-3.54,1.97-5.58.15-.2.97-1.7.82-1.82,1.57-.91,3.19-1.75,4.84-2.52-1.09,1.68-1.66,3.61-1.61,5.67.01.57.9.57.89,0-.05-2.32.7-4.47,2.23-6.23.05-.05.08-.11.1-.17.66-.28,1.33-.56,2-.82.53-.2.3-1.06-.24-.86Z" class="cls-46"/><path data-cppathid="10115" d="M335.68,39.32c-1.3.27-2.57.05-3.69-.6-.05-.69-.11-1.38-.16-2.07-.04-.57-.93-.57-.89,0,.21,2.59.41,5.16.62,7.75.05.57.93.57.89,0l-.37-4.64c1.19.55,2.52.7,3.84.42.56-.12.32-.97-.24-.86Z" class="cls-46"/><path data-cppathid="10116" d="M310.46,42.7c-1.17-1.64-2.64-3-4.45-3.92-.85-.44-1.93-.22-2.43.64-.46.79-.22,1.99.64,2.43,1.25.64,2.36,1.5,3.18,2.65.56.78,1.55,1.15,2.43.64.77-.45,1.2-1.65.64-2.43Z" class="cls-22"/><path data-cppathid="10117" d="M345.07,40.58c-.23-1.01-1.18-1.47-2.13-1.33-2.11.29-4.23.27-6.34.03-.95-.11-1.8.82-1.83,1.72-.03,1.03.77,1.72,1.72,1.83,2.42.28,4.84.21,7.25-.12.95-.13,1.54-1.25,1.33-2.13Z" class="cls-22"/></g><g><g><path data-cppathid="10118" d="M281.12,52.64c.52-1.11.66-2.39.46-3.6-.46-2.76-2.35-4.35-5.35-4.6-.35-.03-1.43-.05-1.57-.52-.31-1.04-.37-1.79-.89-2.93h-22.35c-3.09,7.34,1.71,12.85,4.85,26h12.65c1.11-4.67,2.01-7.16,3.12-10.33.38-.93,2.36-.4,3.44-.4.29,0,.58-.02.86-.06,2.08-.29,3.85-1.59,4.78-3.57ZM278.35,51.93c-.59.78-1.45,1.29-2.42,1.43-.17.02-.34.04-.51.04-.81,0-1.57-.27-2.18-.73.72-2.18,1.25-4.12,1.42-5.99.11-.02.22-.04.34-.06.24-.03.48-.05.71-.05,1.45,0,3.09.69,3.36,2.65.14.97-.11,1.94-.7,2.73Z" class="cls-1"/><path data-cppathid="10119" d="M276.16,44.57c-.35-.03-1.42-.05-1.56-.51-.3-1.03-.37-1.78-.89-2.91,0,0-4.92,15.78-18.33,22.3.32,1.12.63,2.3.93,3.55h12.58c1.11-4.64,2-7.12,3.1-10.27.38-.92,2.34-.4,3.42-.4.29,0,.57-.02.86-.06,2.06-.29,3.82-1.57,4.74-3.54.52-1.11.66-2.39.46-3.6-.46-2.73-2.34-4.31-5.32-4.56ZM278.35,51.93c-.59.78-1.45,1.29-2.42,1.43-.17.02-.34.04-.51.04-.81,0-1.57-.27-2.18-.73.72-2.18,1.25-4.12,1.42-5.99.11-.02.22-.04.34-.06.24-.03.48-.05.71-.05,1.45,0,3.09.69,3.36,2.65.14.97-.11,1.94-.7,2.73Z" class="cls-7"/></g><g><path data-cppathid="10120" d="M266.69,39.3c-.56.18-1.19.16-1.81-.01-.15-.05-.31-.1-.46-.17-.15-.07-.3-.15-.44-.23-.29-.17-.55-.39-.79-.64-.48-.49-.84-1.09-1.09-1.71-.07-.16-.12-.31-.17-.47-.05-.15-.1-.29-.14-.44-.09-.3-.16-.61-.22-.93-.06-.32-.09-.65-.11-.99-.01-.34,0-.68.03-1.03.06-.69.24-1.35.43-1.95.2-.6.44-1.14.67-1.66.12-.26.23-.51.35-.75.12-.25.24-.49.35-.73l.7-1.4c.2-.39.36-.8.51-1.21.29-.83.47-1.71.55-2.65.08-.94.05-1.93-.06-2.97-.06-.52-.13-1.05-.22-1.59-.1-.54-.21-1.09-.34-1.66.5.32.93.72,1.33,1.16.4.44.76.91,1.08,1.42.63,1.02,1.1,2.17,1.34,3.41.24,1.24.23,2.56-.04,3.84-.14.64-.34,1.27-.59,1.87l-.09.21-.09.19c-.06.13-.12.26-.18.39-.12.26-.24.51-.37.76-.5,1-1.06,1.94-1.48,2.76-.42.83-.68,1.51-.8,2.42-.03.23-.05.46-.06.7,0,.12-.01.25-.01.37,0,.11,0,.22,0,.33.01.44.07.87.21,1.28.07.21.16.41.27.6.06.1.12.19.19.29.07.1.15.19.23.28.34.36.78.67,1.31.9Z" class="cls-10"/><path data-cppathid="10121" d="M262.52,39.3c-.46-.07-.91-.2-1.34-.39-.43-.19-.85-.42-1.24-.71-.39-.29-.76-.64-1.06-1.05-.16-.21-.29-.43-.42-.66-.12-.24-.22-.49-.3-.73-.16-.5-.24-1.04-.24-1.56,0-.26.01-.52.05-.78.04-.25.08-.5.14-.75.24-.97.62-1.84,1.05-2.66.42-.82.9-1.59,1.41-2.34l.19-.28c.06-.09.11-.18.17-.27.11-.18.22-.36.32-.55.2-.37.4-.74.56-1.13.16-.38.31-.78.4-1.18.11-.4.16-.82.18-1.24.05-.84-.14-1.73-.27-2.62.1.2.2.4.3.61.1.2.19.41.28.62.17.42.32.87.4,1.34.17.94.09,1.93-.15,2.85-.12.46-.27.91-.44,1.35-.09.22-.18.43-.28.65l-.15.32-.13.31c-.35.82-.72,1.62-1.08,2.4-.35.79-.68,1.56-.9,2.32-.23.76-.33,1.47-.23,2.2.03.19.06.36.11.54.05.17.11.35.19.53.08.17.17.35.27.52.1.17.22.34.34.51.5.66,1.13,1.28,1.85,1.85Z" class="cls-10"/></g></g><g><g><path data-cppathid="10122" d="M214.27,48.72c-.2,1.17-.06,2.4.44,3.48.89,1.9,2.6,3.14,4.59,3.42.27.04.55.06.83.06,1.05,0,2.94-.51,3.31.39,1.06,3.04,1.93,5.44,3,9.93h12.17c3.01-12.65,7.64-17.94,4.66-25h-21.49c-.5,1.09-.56,1.81-.86,2.81-.13.45-1.17.47-1.51.5-2.88.24-4.7,1.77-5.14,4.41ZM216.57,49.73c.26-1.89,1.86-2.57,3.26-2.57.23,0,.46.02.69.05.11.02.22.04.33.06.16,1.82.68,3.7,1.37,5.81-.6.45-1.33.71-2.12.71-.17,0-.33-.01-.5-.03-.94-.13-1.78-.62-2.35-1.38-.57-.76-.82-1.7-.68-2.64Z" class="cls-16"/><path data-cppathid="10123" d="M243.27,41c-2.01,5.39-7.31,16.5-17.98,20.57.38,1.27.76,2.7,1.18,4.43h12.17c3.01-12.65,7.64-17.94,4.66-25h-.02Z" class="cls-35"/></g><g><path data-cppathid="10124" d="M229.06,40.12c.54.17,1.16.16,1.75-.01.15-.04.3-.1.44-.16.15-.06.29-.14.43-.23.28-.17.54-.38.77-.62.47-.48.81-1.06,1.05-1.66.07-.15.11-.3.17-.45.05-.15.1-.28.14-.43.09-.29.16-.59.21-.9.05-.31.09-.63.11-.96.01-.33,0-.66-.03-1-.06-.67-.23-1.31-.42-1.89-.2-.58-.42-1.11-.65-1.61-.11-.25-.23-.49-.34-.73-.11-.24-.23-.47-.34-.7l-.67-1.36c-.19-.38-.35-.77-.49-1.18-.28-.81-.46-1.66-.53-2.57-.08-.91-.05-1.88.05-2.88.05-.5.12-1.02.22-1.54.09-.52.2-1.05.33-1.61-.49.31-.91.7-1.29,1.12-.39.42-.74.88-1.04,1.38-.61.99-1.07,2.11-1.3,3.31-.23,1.2-.23,2.49.04,3.73.13.62.33,1.23.58,1.81l.09.2.08.19c.06.13.11.25.17.37.12.25.24.49.36.74.49.97,1.03,1.88,1.43,2.68.41.8.66,1.47.77,2.35.03.22.05.45.06.68,0,.12.01.24.01.35,0,.11,0,.22,0,.32-.01.43-.07.84-.2,1.24-.07.2-.15.39-.26.59-.06.1-.12.19-.19.28-.07.09-.14.18-.22.27-.33.35-.75.65-1.27.88Z" class="cls-10"/><path data-cppathid="10125" d="M233.1,40.12c.44-.06.88-.2,1.3-.38.42-.18.83-.41,1.21-.69.38-.28.73-.62,1.03-1.02.15-.2.29-.42.4-.64.12-.23.21-.47.29-.71.15-.49.24-1.01.23-1.52,0-.25-.01-.51-.05-.76-.04-.25-.08-.49-.14-.72-.23-.94-.6-1.78-1.02-2.58-.41-.8-.88-1.54-1.37-2.27l-.19-.27c-.06-.09-.11-.18-.17-.26-.11-.18-.22-.35-.32-.53-.2-.36-.39-.72-.55-1.09-.16-.37-.3-.75-.39-1.14-.1-.39-.16-.79-.18-1.2-.04-.82.13-1.67.26-2.54-.1.2-.19.39-.29.59-.1.2-.19.4-.27.6-.17.41-.31.85-.38,1.3-.17.91-.09,1.87.14,2.76.12.45.26.89.43,1.31.08.21.18.42.27.63l.14.31.13.3c.34.79.7,1.57,1.04,2.33.34.76.66,1.52.88,2.25.22.74.32,1.43.22,2.14-.02.18-.05.35-.11.52-.05.17-.11.34-.18.51-.08.17-.16.34-.26.5-.1.16-.21.33-.33.49-.48.64-1.1,1.24-1.79,1.8Z" class="cls-10"/></g></g></g></g></g></g></g></g></svg>