<?xml version="1.0" encoding="UTF-8"?>
<svg xmlns="http://www.w3.org/2000/svg" onmouseup="{ if(window.parent.document.onmouseup) window.parent.document.onmouseup(arguments[0]);}" viewBox="0 0 2263.11 2216.52" xmlns:xlink="http://www.w3.org/1999/xlink"><defs><style>
      .cls-1 {
        fill: url(#linear-gradient-2);
      }

      .cls-2 {
        fill: url(#linear-gradient-10);
      }

      .cls-3 {
        fill: url(#linear-gradient-12);
      }

      .cls-4 {
        fill: #fff;
      }

      .cls-5 {
        fill: url(#linear-gradient-4);
      }

      .cls-6, .cls-7 {
        opacity: .2;
      }

      .cls-6, .cls-7, .cls-8, .cls-9, .cls-10, .cls-11 {
        mix-blend-mode: multiply;
      }

      .cls-6, .cls-8 {
        fill: #f2d9ac;
      }

      .cls-12 {
        opacity: .8;
      }

      .cls-13 {
        fill: url(#linear-gradient-3);
      }

      .cls-14 {
        fill: url(#linear-gradient-5);
      }

      .cls-15 {
        isolation: isolate;
      }

      .cls-16 {
        fill: #e3a448;
      }

      .cls-17 {
        fill: url(#linear-gradient-8);
      }

      .cls-18 {
        fill: #f2c787;
      }

      .cls-8 {
        opacity: .7;
      }

      .cls-19 {
        fill: url(#linear-gradient-7);
      }

      .cls-20 {
        fill: url(#linear-gradient-9);
      }

      .cls-21 {
        fill: url(#linear-gradient-11);
      }

      .cls-22 {
        fill: url(#linear-gradient-6);
      }

      .cls-9 {
        fill: #e89933;
        opacity: .6;
      }

      .cls-23 {
        fill: #e6b375;
      }

      .cls-10 {
        fill: #f09618;
        opacity: .4;
      }

      .cls-24 {
        fill: url(#linear-gradient);
      }

      .cls-11 {
        opacity: .3;
      }
    </style><linearGradient gradientUnits="userSpaceOnUse" gradientTransform="translate(31.52 -151.61) rotate(1.82)" y2="1149.1" x2="1615.61" y1="1415.88" x1="120.25" id="linear-gradient"><stop stop-color="#ffb615" offset="0"/><stop stop-color="#f5aa20" offset=".29"/><stop stop-color="#e89933" offset=".61"/></linearGradient><linearGradient gradientUnits="userSpaceOnUse" y2="1383.73" x2="1218.3" y1="469.99" x1="996.04" id="linear-gradient-2"><stop stop-color="#fcf1de" offset=".39"/><stop stop-color="#fcedd2" offset=".54"/><stop stop-color="#fce3b2" offset=".82"/><stop stop-color="#fcdb9a" offset="1"/></linearGradient><linearGradient gradientUnits="userSpaceOnUse" y2="711.13" x2="413.25" y1="1600.8" x1="1912.15" id="linear-gradient-3"><stop stop-color="#d9711a" offset="0"/><stop stop-color="#e58e2b" offset=".3"/><stop stop-color="#eea029" offset=".66"/><stop stop-color="#f5ad28" offset="1"/></linearGradient><linearGradient gradientUnits="userSpaceOnUse" y2="1630.14" x2="2071.03" y1="869.57" x1="397.77" id="linear-gradient-4"><stop stop-color="#ffe46e" offset="0"/><stop stop-color="#fbd862" offset=".52"/><stop stop-color="#f8c953" offset="1"/></linearGradient><linearGradient gradientUnits="userSpaceOnUse" gradientTransform="translate(9629.03 1505.02) rotate(-162.2) scale(1 -1)" y2="1745.88" x2="8338.09" y1="1573.58" x1="8229.85" id="linear-gradient-5"><stop stop-color="#ffd891" offset="0"/><stop stop-color="#e3a448" offset="1"/></linearGradient><linearGradient xlink:href="#linear-gradient-5" gradientTransform="translate(31.52 -151.61) rotate(1.82)" y2="622.82" x2="481.52" y1="455.31" x1="389.1" id="linear-gradient-6"/><linearGradient xlink:href="#linear-gradient-5" gradientTransform="translate(31.52 -151.61) rotate(1.82)" y2="835.3" x2="1087.58" y1="572.16" x1="1019.43" id="linear-gradient-7"/><linearGradient xlink:href="#linear-gradient-5" gradientTransform="translate(398.9 -1289.37) rotate(16.3)" y2="1393.55" x2="754.08" y1="1262.36" x1="595.38" id="linear-gradient-8"/><linearGradient xlink:href="#linear-gradient-5" gradientTransform="translate(1049.16 3865.37) rotate(-49.54)" y2="-2266.75" x2="2462.31" y1="-2427.83" x1="2384.14" id="linear-gradient-9"/><linearGradient xlink:href="#linear-gradient-5" gradientTransform="translate(1232.57 -2540.14) rotate(33.88)" y2="2412.1" x2="1414.19" y1="2243.9" x1="1457.32" id="linear-gradient-10"/><linearGradient xlink:href="#linear-gradient-5" gradientTransform="translate(2222.49 4818.89) rotate(-67.98)" y2="-3034.91" x2="3649.54" y1="-3179.5" x1="3593.74" id="linear-gradient-11"/><linearGradient xlink:href="#linear-gradient-5" gradientTransform="translate(31.52 -151.61) rotate(1.82)" y2="503.09" x2="1004.3" y1="372.22" x1="953.78" id="linear-gradient-12"/></defs><g class="cls-15"><g id="Layer_2"><g data-name="Layer_1" id="Layer_1-2"><g><g><path data-cppathid="10000" d="M1406.94,2216.52S379.5,1594.81,132.13,1399.11c0,0-257.17-773.62,14.93-1060.81C419.17,51.1,758.18,22.72,851.7,35.09c93.53,12.36,685.8,289.47,1321.93,812.15l-766.7,1369.28Z" class="cls-24"/><path data-cppathid="10001" d="M1207.73,1160.57c-32.05-66.86-64.1-133.71-96.14-200.57-.3-.62-.64-1.14-1-1.64-3.14-11.95-6.96-23.52-11.39-34.43-39.04-96.38-122.66-170.5-210.56-222.2-104.2-61.29-221.77-84.91-341.27-102.03-123.44-17.69-269.95-19.78-382.45,42.04C20.48,721.11,8.87,890.33,59.77,1029.77c102.15,25.02,47.99-97.78,83.46-114.05,52.87-24.24,118.74,26.17,142.75,70.77,23.27,43.22,27.59,94.13,26.55,142.37-.45,21.11,1.15,47.26-3.16,67.73-5.49,26.08-26.98,48.87-31.1,74.13-6.98,42.78,32.53,86.75,72.72,93.74,41.82,7.27,100.25-14.98,111.67-58.39,12.29-46.73-35.07-147.67,26.08-174.1,62.81-27.14,90.38,59.37,115.42,94.81,37.96,53.73,98.82,79.78,165.86,83.45,63.96,3.49,140.02-36.32,193.16,16.64,82.1,81.82-44.19,178.46,11.28,263.95,20.02,30.86,59.84,49.16,96.29,41.54,60.64-12.68,50.25-58.83,59.95-105.28,4.1-19.64,14.52-38.85,31.82-49.02,82.78-48.66,73.85,137.18,72.85,177.81-2.12,85.73-10.47,181.48,49.65,251.27,33.49,38.88,85.19,61.35,136.46,59.32,4.88.16-66.3-398.3-75.19-431.94-34.37-130.03-80.53-252.9-138.56-373.96Z" class="cls-9"/><path data-cppathid="10002" d="M27.5,1021.94c1.44,3.39,3.9,5.99,6.12,8.33,22.78,23.98,50.03,3.36,55.93-23.97,5.72-26.49,1.42-56.54,2.38-83.47,1.86-52.08,12.35-137.54,83.99-95.55,58.29,34.17,94.5,83.69,111.85,134.36,26.44,77.21,9.04,156.12-27.04,217.34-21.62,36.68-29.57,83.43-2.79,119.7,26.12,35.39,84.53,53.2,120.32,21.56,77.24-68.29-12.03-182.38,22.73-261.16,21.61-48.97,65.99-46.75,108.91-32.53,60.82,20.14,84.05,94.38,111.62,145.25,34.58,63.82,73.13,80.37,146.28,90.64,94.89,13.32,119.84-27.19,164.79-12.49,27.69,9.05,47.79,35.59,52.76,64.3,6.41,37.01-9.62,73.93-26.84,107.31-17.22,33.38-36.51,67.65-37.24,105.2-.84,43.58,37.61,82.75,79.49,90.18,31.81,5.65,67.93-10.16,80.23-40.04,14.54-35.33-5.89-74.2-13.28-111.69-3.93-19.93-3.99-41.14,3.59-59.99,17.88-44.45,77.6-52.47,109.42-18,26.75,28.97,31.91,86.71,36.63,123.76,9.65,75.73-2.67,156.09,10.84,230.68,12.51,69.08,52.33,145.58,134.75,126.38l835.01-998.59s-180.68-212.3-578.33-458.27C1221.99,165.21,993.14,24.06,817.85,3.19,642.56-17.68,337.87,60.98,126.71,325.87,46.82,426.1-19.22,635.56,5.12,921.88c2.12,24.89,14.14,80.6,22.38,100.07Z" class="cls-1"/><path data-cppathid="10003" d="M1619.63,411.18c-93.26-57.69-177.13-109.53-253.3-155.48,53.65,110.56,64.46,270.51,54.03,390.13-13.64,156.44-131.38,296.22-259.75,380.82-107.74,71-237.67,118.37-367.98,113.82-69.21-2.42-135.64.17-198.31-23.52,9.59,18.98,18.17,38.18,27.21,54.87,34.58,63.82,73.13,80.37,146.28,90.64,94.89,13.32,119.84-27.18,164.79-12.49,27.69,9.06,47.79,35.59,52.76,64.3,6.41,37.01-9.62,73.93-26.84,107.31-17.22,33.38-36.51,67.65-37.24,105.2-.84,43.58,37.61,82.75,79.49,90.18,31.81,5.65,67.93-10.16,80.23-40.04,14.54-35.33-5.89-74.21-13.28-111.69-3.93-19.93-3.99-41.14,3.59-59.99,17.88-44.45,77.6-52.47,109.42-18.01,26.75,28.97,31.91,86.71,36.63,123.76,9.65,75.73-2.67,156.09,10.84,230.68,12.51,69.08,52.33,145.58,134.75,126.38l835.01-998.59s-180.68-212.3-578.33-458.27Z" class="cls-6"/><path data-cppathid="10004" d="M1362.52,1282.83c-109.93,180.08-28.91,431.43-76.73,472.68-19.17,16.54-39.48,8.51-55.8-4.88,14.25,66.53,54.09,135.78,132.96,117.41l140.53-168.06c-33.83-246.18-83.57-511.17-140.96-417.16Z" class="cls-8"/><path data-cppathid="10005" d="M1619.63,411.18C1221.99,165.21,993.14,24.06,817.85,3.19c-37.73-4.49-81.95,10.59-129.41,15.05,188.34,55.45,763.74,210.94,1336.98,838.2,43.78,47.9-263.93,457.66-234.79,500.14l407.32-487.12s-180.68-212.3-578.33-458.27Z" class="cls-6"/><path data-cppathid="10006" d="M1180.73,1387.23c.92.99,1.75,2.1,2.62,3.16-22.32-47.34-88.78-64.84-128.41-11.32-48.78,65.89,15.76,141.03-45.76,174.09-30.05,16.15-68.67,7.37-87.76-22.59,1.38,42.04,38.7,79.17,79.35,86.38,31.81,5.65,67.93-10.16,80.23-40.04,14.54-35.33-5.89-74.21-13.28-111.69-3.93-19.93-3.99-41.14,3.59-59.99,17.88-44.45,77.6-52.47,109.42-18.01Z" class="cls-8"/><path data-cppathid="10007" d="M646.84,1211.53c29.05,37.93,64.96,43.06,120.96,50.92,94.89,13.32,119.84-27.18,164.79-12.49,25.25,8.26,44.15,31.06,51.06,56.78-5.05-93.54-37.73-116.86-169.42-79.67-76.22,21.53-127.6,6.18-167.4-15.54Z" class="cls-8"/><path data-cppathid="10008" d="M378.27,1320.25c77.24-68.29-12.03-182.38,22.73-261.16,15.42-34.95,42.46-43.76,72.27-40.81-22.65-17.86-57.15-12.67-82.33,7.3-69.18,54.87,11.32,194.52-65.02,243.02-29.88,18.98-59.73,10.43-84.41-13,1.52,15.09,6.63,29.8,16.44,43.09,26.12,35.39,84.53,53.2,120.32,21.56Z" class="cls-8"/><path data-cppathid="10009" d="M1406.94,2216.52s-71.21-419.15-79.83-738.75c-8.63-319.6,193.26-613.73,444.58-690.27,251.32-76.54,435.54,37.32,473.73,165.33,57.82,193.76-44.56,810.99-44.56,810.99,0,0-221.73,179.73-793.92,452.7Z" class="cls-13"/><path data-cppathid="10010" d="M1454.28,2118.27s-56.13-387.29-56.94-690.35c-.82-303.06,253.99-532.58,389.93-580.87,160.55-57.03,352.74,7.59,397.59,130.92,44.84,123.34-28.56,751.59-28.56,751.59,0,0-469.49,305.53-702.02,388.7Z" class="cls-5"/><path data-cppathid="10011" d="M1608.75,1675.3c-16.83-5.21-34.54,7.41-35.1,25.02-.18,5.68,1.53,11.24,4.67,15.94,1.9,3.75,4.75,7,8.53,9.38,3.69,2.3,7.73,3.53,12.09,3.7,4.37.11,8.47-.86,12.31-2.92.7-.5,1.41-.99,2.13-1.5,4.1-2.14,7.66-5.16,10.29-9.33,9.34-14.82,1.8-35.1-14.92-40.28Z" class="cls-10"/><path data-cppathid="10012" d="M1769.84,1043.9c-16.83-5.21-34.54,7.41-35.1,25.02-.18,5.68,1.53,11.24,4.67,15.94,1.9,3.75,4.75,7,8.53,9.38,3.69,2.3,7.73,3.53,12.09,3.7,4.37.11,8.47-.86,12.31-2.92.7-.5,1.41-.99,2.13-1.5,4.1-2.14,7.66-5.16,10.29-9.33,9.34-14.82,1.8-35.1-14.92-40.28Z" class="cls-10"/><path data-cppathid="10013" d="M1564.11,1803.33c-11.86-.38-22.07,9.21-22.45,21.08-.38,11.85,9.2,22.05,21.06,22.43,11.86.38,22.07-9.2,22.45-21.05.38-11.87-9.21-22.09-21.07-22.46Z" class="cls-10"/><path data-cppathid="10014" d="M2079.28,1364.24c-11.86-.38-22.07,9.21-22.45,21.08-.38,11.85,9.2,22.05,21.06,22.43,11.86.38,22.07-9.2,22.45-21.05.38-11.87-9.21-22.09-21.07-22.46Z" class="cls-10"/><path data-cppathid="10015" d="M1836.39,971.56c-11.86-.38-22.07,9.21-22.45,21.08-.38,11.85,9.2,22.05,21.06,22.43,11.86.38,22.07-9.2,22.45-21.05.38-11.87-9.21-22.09-21.07-22.46Z" class="cls-10"/><path data-cppathid="10016" d="M1494.07,1701.31c-21.74-.69-22.82,33.03-1.07,33.72,21.74.69,22.81-33.03,1.07-33.72Z" class="cls-10"/><path data-cppathid="10017" d="M1493.05,1493.55c-21.74-.69-22.82,33.03-1.07,33.72,21.74.69,22.81-33.03,1.07-33.72Z" class="cls-10"/><path data-cppathid="10018" d="M1983.62,1648.26c-21.74-.69-22.82,33.03-1.07,33.72,21.74.69,22.81-33.03,1.07-33.72Z" class="cls-10"/><path data-cppathid="10019" d="M2088,1481.97c-21.74-.69-22.82,33.03-1.07,33.72,21.74.69,22.81-33.03,1.07-33.72Z" class="cls-10"/><path data-cppathid="10020" d="M1991.42,1402.67c-21.74-.69-22.82,33.03-1.07,33.72,21.74.69,22.81-33.03,1.07-33.72Z" class="cls-10"/><path data-cppathid="10021" d="M1863.1,1063.19c-21.74-.69-22.82,33.03-1.07,33.72,21.74.69,22.81-33.03,1.07-33.72Z" class="cls-10"/><path data-cppathid="10022" d="M2097.66,998.22c-21.74-.69-22.82,33.03-1.07,33.72,21.74.69,22.81-33.03,1.07-33.72Z" class="cls-10"/><g class="cls-12"><path data-cppathid="10023" d="M644.69,71.1c-136.08,6.76-274.27,86.3-373.41,175.72C116.81,386.14,53.79,566.69,45.8,786.02c30.09,8.37,61.72-14.78,73.79-43.58,12.08-28.8,9.55-61.37,6.53-92.45-3.02-31.08-6.16-63.47,4.85-92.69,19.17-50.86,74.39-77,125.16-96.39,50.77-19.39,106.66-40.76,132.49-88.58,20.33-37.63,16.99-82.94,22.19-125.39,13.24-108.29,138.08-145.03,233.05-149.74,16.67-.83,17.64-26.93.83-26.1Z" class="cls-4"/></g></g><path data-cppathid="10024" d="M936.48,4.71c-22.4-12.78-103.36,20.12-124.8,55.38,45.57,9.74,83.5,36.41,109.29,72.63,29.64,1.19,55.21-2.7,62.09-10.43,20.07-22.58-14.26-99.13-46.57-117.58Z" class="cls-16"/><path data-cppathid="10025" d="M1213.66,577.98c40.99-23.46,87.83-36.48,134.93-34.98,3.74.12,7.43.36,11.11.64,1.25-43.64-11.16-100.58-26.03-112.05-25.28-19.5-178.42,63.83-173.16,109.03,1.48,12.74,24.05,26.45,53.15,37.36Z" class="cls-14"/><path data-cppathid="10026" d="M377.68,418.03c32.73-39.83,80.75-67.76,131.72-75.17-23.78-59.97-89.68-107.03-110.78-94.39-26.25,15.72-55.78,139.91-34.54,160.76,2.8,2.75,7.54,5.79,13.59,8.81Z" class="cls-22"/><path data-cppathid="10027" d="M807.71,612.01c-13.91-.44-27.62,11.36-27.43,25.74.19,14.43,10.84,26.96,25.74,27.43,13.91.44,27.62-11.36,27.43-25.74-.19-14.43-10.84-26.96-25.74-27.43Z" class="cls-16"/><path data-cppathid="10028" d="M833.4,125.57c-13.91-.44-27.62,11.36-27.43,25.74.19,14.43,10.84,26.96,25.74,27.43,13.91.44,27.62-11.36,27.43-25.74-.19-14.43-10.84-26.96-25.74-27.43Z" class="cls-23"/><path data-cppathid="10029" d="M1265.26,307.93c-13.8-.44-27.41,11.28-27.22,25.54.19,14.31,10.75,26.75,25.54,27.22,13.8.44,27.41-11.28,27.22-25.54-.19-14.31-10.75-26.75-25.54-27.22Z" class="cls-23"/><path data-cppathid="10030" d="M1316.9,590.01c-13.8-.44-27.41,11.28-27.22,25.54.19,14.31,10.75,26.75,25.54,27.22,13.8.44,27.41-11.28,27.22-25.54-.19-14.31-10.75-26.75-25.54-27.22Z" class="cls-16"/><path data-cppathid="10031" d="M629.09,446.66c-17.46-.55-34.67,14.26-34.43,32.31.23,18.11,13.6,33.84,32.31,34.43,17.46.55,34.67-14.26,34.43-32.31-.24-18.11-13.6-33.84-32.31-34.43Z" class="cls-23"/><path data-cppathid="10032" d="M528.02,186.09c-14.95-.48-29.7,12.22-29.5,27.68.2,15.51,11.65,28.99,27.68,29.5,14.96.48,29.7-12.22,29.5-27.68-.2-15.51-11.65-28.99-27.68-29.5Z" class="cls-23"/><g><path data-cppathid="10033" d="M1074.21,582.47c-.65-50.42,21.73-96.57,56.4-130.9-3.22-16.21-9.12-28.58-18.42-33.38-30.66-15.81-151.75,62.75-158.51,113.84-5.77,43.62,73.75,80.93,123.01,80.56-1.5-9.87-2.34-19.93-2.48-30.12Z" class="cls-19"/><g class="cls-11"><path data-cppathid="10034" d="M1074.21,582.47c-.19-14.36,1.55-28.35,4.85-41.84-25.87,19.52-57.98,30.92-90.3,29.89-7.1-.23-14.01-.99-20.72-2.2,24.38,26.14,74,44.51,108.65,44.26-1.5-9.87-2.34-19.92-2.47-30.11Z" class="cls-18"/></g></g><g><path data-cppathid="10035" d="M721.82,133.97c-3.21-45.69-17.39-93.13-46.97-97.17-44.68-6.1-107.49,134.53-96.1,156.42,5.45,10.47,37.24,21.99,68.54,27.67,13.37-36.42,40.76-67.19,74.52-86.92Z" class="cls-17"/><g class="cls-11"><path data-cppathid="10036" d="M721.81,133.98c-2.45-34.84-11.28-70.7-28.45-87.55,16.45,63.48-33.16,144.51-114.02,124.92-2.21,10.07-2.64,17.95-.59,21.88,5.45,10.47,37.24,21.99,68.54,27.67,13.36-36.41,40.75-67.18,74.52-86.92Z" class="cls-18"/></g></g><g><path data-cppathid="10037" d="M848.21,576.79c33.37-25.7,63.71-58.87,61.35-74.95-5.29-36.04-126.03-110.61-160.44-91.8-21.92,11.98-26.32,46.18-22.03,83.05,51.06,11.32,93.23,42.14,121.11,83.69Z" class="cls-20"/><g class="cls-11"><path data-cppathid="10038" d="M814.19,537.71c12.92,11.49,24.34,24.63,34.03,39.07,33.36-25.7,63.71-58.87,61.35-74.94-3.17-21.56-47.62-56.78-90.2-77.68,19.15,33.25,21.99,75.01-5.17,113.55Z" class="cls-18"/></g></g><path data-cppathid="10039" d="M1047.29,266.82c34.3-24.16,73.21-33.69,111.1-30.92-11.94-39.58-37.7-83.86-57.55-83.39-31.87.75-94.11,111.04-77.66,133.52.22.3.52.6.79.89,7.13-7.39,14.9-14.17,23.33-20.1Z" class="cls-2"/><path data-cppathid="10040" d="M605.47,353.79c45.78-23.41,94.85-26.98,139.85-15.03-1.59-39.81-13.51-89.65-31.72-103.58-28.69-21.94-153.03,61.42-144.45,97.97,2.04,8.7,11.9,17.89,25.89,26.47,3.42-2.04,6.88-4.01,10.44-5.83Z" class="cls-21"/><g><path data-cppathid="10041" d="M943.74,371.99c-26.81-10.7-32.8-141.79-5.23-159.98,28.37-18.71,138.05,60.86,128.38,92.09-9.67,31.23-99.99,77.13-123.15,67.89Z" class="cls-3"/><g class="cls-7"><path data-cppathid="10042" d="M1042.25,260.29c-15.33,37.65-55.78,64.54-96.68,63.24-7.91-.25-15.49-1.44-22.7-3.39,3.46,26.16,10.65,47.77,20.87,51.85,23.16,9.24,113.48-36.66,123.15-67.89,3.35-10.83-7.66-27.47-24.64-43.81Z" class="cls-18"/></g></g></g></g></g></g></svg>