<?xml version="1.0" encoding="UTF-8"?>
<svg xmlns="http://www.w3.org/2000/svg" onmouseup="{ if(window.parent.document.onmouseup) window.parent.document.onmouseup(arguments[0]);}" viewBox="0 0 2263.23 2182.51" id="Layer_2"><defs><style>
      .cls-1 {
        opacity: .6;
      }

      .cls-2 {
        fill: #f4a95e;
      }

      .cls-3, .cls-4 {
        fill: #cc843c;
      }

      .cls-5 {
        fill: #e8a862;
      }

      .cls-6 {
        fill: #b06244;
      }

      .cls-7, .cls-8, .cls-9 {
        fill: #b14b03;
      }

      .cls-7, .cls-4 {
        opacity: .4;
      }

      .cls-10 {
        fill: #a65a28;
      }

      .cls-11 {
        fill: #c16c3a;
      }

      .cls-12, .cls-8, .cls-13 {
        opacity: .5;
      }

      .cls-12, .cls-14 {
        fill: #929238;
      }

      .cls-15 {
        fill: #cf8f52;
      }

      .cls-16 {
        fill: #b6520e;
      }

      .cls-17 {
        fill: #eba366;
      }

      .cls-18 {
        fill: #c9691a;
      }

      .cls-9 {
        opacity: .3;
      }

      .cls-19 {
        opacity: .2;
      }

      .cls-20 {
        fill: #f0c984;
      }

      .cls-21 {
        fill: #ee9b39;
      }

      .cls-22 {
        fill: #9d470d;
      }

      .cls-23 {
        fill: #cb7e2c;
      }

      .cls-24 {
        fill: #b6b14d;
      }

      .cls-25 {
        opacity: .7;
      }
    </style></defs><g data-name="Layer_1" id="Layer_1-2"><g><polygon data-cppathid="10000" points="1430.75 1645.43 1075.08 1645.43 656.7 333.56 1689.26 375.16 1430.75 1645.43" class="cls-15"/><polygon data-cppathid="10001" points="1428.29 1645.4 1072.63 1645.4 654.24 333.53 1686.8 375.13 1428.29 1645.4" class="cls-9"/><path data-cppathid="10002" d="M1120.48,1129.15c4.14,351.12,8.27,702.24,12.41,1053.36-142.84-15.72-490.07-66.21-784.75-246.63-231.46-141.71-290.38-284.71-311.43-315.69C12.17,1584.1-.55,1541.81.04,1498.73l13.1-962.37c62.23,54.23,130.33,108.63,204.72,161.94,317.17,227.29,638.59,355.74,902.62,430.85Z" class="cls-5"/><g class="cls-19"><path data-cppathid="10003" d="M13.12,531.9c25.47,243.06,37.27,439.64,43.35,575.71,8.83,197.45,6.98,298.26,69.83,418.97,58.65,112.65,142.17,182.19,251.08,258.51,154.63,108.35,401.91,259.41,755.48,392.97-142.84-15.72-490.07-66.21-784.75-246.63-231.46-141.71-290.38-284.71-311.43-315.69C12.15,1579.64-.57,1537.35.02,1494.28l13.1-962.37Z" class="cls-3"/></g><path data-cppathid="10004" d="M1983.89,858.01l23.7,1106.1c45.73-27.13,108.78-71.75,167.5-141.14,18.33-21.66,33.97-43.06,47.31-63.51,27-41.39,41.03-89.33,40.83-138.13-1.42-350.77-2.84-701.54-4.26-1052.3l-275.08,288.98Z" class="cls-5"/><g class="cls-19"><path data-cppathid="10005" d="M2176.22,1548.83c3.34-24.49,4.59-42.18,5.3-52.29,9.13-129.65,27.6-388,67.06-933.45,1.42,350.77,2.84,701.54,4.26,1052.3.2,48.8-13.83,96.74-40.83,138.13-13.34,20.45-28.98,41.85-47.31,63.51-58.72,69.39-121.77,114.01-167.5,141.14,70.39-89.75,154.09-226.54,179.02-409.35Z" class="cls-3"/></g><path data-cppathid="10006" d="M1989.95,912.4c5.88,350.57,11.76,701.14,17.65,1051.72-230.05-106.48-460.1-212.95-690.15-319.43-6.2-295.16-12.41-590.32-18.61-885.48,230.37,51.06,460.74,102.12,691.11,153.19Z" class="cls-24"/><g class="cls-25"><path data-cppathid="10007" d="M1298.84,759.21c228.37,56.06,456.74,112.12,685.11,168.19,7.88,345.57,15.76,691.14,23.65,1036.72-23.93-254.85-47.86-509.7-71.79-764.55-9.14-97.31-69.65-182.29-158.61-222.76-159.45-72.53-318.9-145.06-478.36-217.6Z" class="cls-12"/></g><g class="cls-13"><path data-cppathid="10008" d="M1463.31,1238.22c3.65,19.27,70.21,349.19,289.1,442.06,50.51,21.43,84.69,19.87,134.46,58.76,77.15,60.29,107.38,151.87,120.74,222.11-230.05-106.48-460.1-212.95-690.15-319.43-6.2-295.16-12.41-590.32-18.61-885.48,31.41,24.78,76.3,66.28,111.11,128.51,69.22,123.76,23.38,195.12,53.36,353.46Z" class="cls-14"/></g><g class="cls-13"><path data-cppathid="10009" d="M1433.72,1596.41c61.26,67.75,117.2,31.96,265.94,104,150.13,72.71,246.38,183.39,303.48,263.71-228.73-106.57-457.46-213.14-686.19-319.72l-18-879c9.93,20.9,24.52,53.28,39.42,93.95,0,0,25.36,67.64,40.38,136.83,66.72,307.52-53.42,480.35,54.97,600.22Z" class="cls-14"/></g><path data-cppathid="10010" d="M8.49,591.33c15.08,239.15,478.41,473.67,1111.99,539.31,26.88-105.98,53.76-211.96,80.65-317.94-143.63-10.55-231.68-97.84-224.88-163.43,6.65-64.19,105.64-122.12,195.41-111.43,64.41,7.67,140.71,52.86,151.99,124.8,7.15,45.63-14.81,83.15-24.81,98.06,227.46,77.75,454.93,155.5,682.39,233.25,262.2-187.25,279.6-340.01,277.61-402.62C2248.45,264.13,1632.52,4.68,1133.67,7.45,606.73,10.38-9.45,306.81,8.49,591.33Z" class="cls-20"/><path data-cppathid="10011" d="M8.49,583.9c15.08,239.15,478.41,473.67,1111.99,539.31,26.88-105.98,53.76-211.96,80.65-317.94-143.63-10.55-231.68-97.84-224.88-163.43,6.65-64.19,105.64-122.12,195.41-111.43,64.41,7.67,140.71,52.86,151.99,124.8,7.15,45.63-14.81,83.15-24.81,98.06,227.46,77.75,454.93,155.5,682.39,233.25,262.2-187.25,279.6-340.01,277.61-402.62C2248.45,256.7,1632.52-2.75,1133.67.02,606.73,2.95-9.45,299.39,8.49,583.9Z" class="cls-4"/><path data-cppathid="10012" d="M8.49,589.84c15.08,239.15,478.41,473.67,1111.99,539.31,26.88-105.98,53.76-211.96,80.65-317.94-143.63-10.55-231.68-97.84-224.88-163.43,6.65-64.19,105.64-122.12,195.41-111.43,64.41,7.67,140.71,52.86,151.99,124.8,7.15,45.63-14.81,83.15-24.81,98.06,227.46,77.75,454.93,155.5,682.39,233.25,262.2-187.25,279.6-340.01,277.61-402.62C2248.45,262.64,1632.52,3.19,1133.67,5.96,606.73,8.89-9.45,305.33,8.49,589.84Z" class="cls-4"/><path data-cppathid="10013" d="M8.49,583.9c15.08,239.15,478.41,473.67,1111.99,539.31,26.82-103.94,53.64-207.87,80.47-311.81-27.19-.89-105.81-7.09-168.67-67.2-21.07-20.15-60.67-57.61-56.03-102.36,6.65-64.19,105.64-122.12,195.41-111.43,60.73,7.23,139.23,49.95,151.99,124.8,8.29,48.66-14.95,89.14-24.7,104.18,227.43,75.71,454.85,151.42,682.28,227.13,262.2-187.25,279.6-340.01,277.61-402.62C2248.45,256.7,1632.52-2.75,1133.67.02,606.73,2.95-9.45,299.39,8.49,583.9Z" class="cls-4"/><path data-cppathid="10014" d="M1132.89,2182.51c27.48-172.09,54.95-344.19,82.43-516.28-4.73-285.01-9.46-570.01-14.19-855.02-26.88,105.98-53.76,211.96-80.65,317.94,4.14,351.12,8.27,702.24,12.41,1053.36Z" class="cls-24"/><g class="cls-13"><path data-cppathid="10015" d="M1177.6,915.69c7.78-34.43,15.57-68.86,23.35-103.29,4.67,284.67,9.33,569.33,14,854-26.36,172.04-52.73,344.08-79.09,516.11-1.01-85.44-2.01-170.89-3.02-256.33,15.1-94.55,30.19-189.11,45.29-283.66,6.95-43.54,10.08-87.6,9.35-131.68-3.29-198.39-6.59-396.77-9.88-595.16Z" class="cls-14"/></g><path data-cppathid="10016" d="M8.49,589.84c15.08,239.15,478.41,473.67,1111.99,539.31,7.35-29.47,14.69-58.93,22.04-88.4-588.29-83.08-976.61-259.82-987.99-457.6-12.7-220.59,447.5-398.42,478.4-410.05,644.25-242.52,1490.05,86.39,1516.9,404.11,7.03,83.17-38.54,207.19-294.17,374.4,41.86,13.62,83.71,27.24,125.57,40.86,262.2-187.25,279.6-340.01,277.61-402.62C2248.45,262.64,1632.52,3.19,1133.67,5.96,606.73,8.89-9.45,305.33,8.49,589.84Z" class="cls-4"/><path data-cppathid="10017" d="M8.49,585.39c8.52,135.12,163.56,234.43,324.06,334.72,315.35,197.04,632.66,212.93,787.69,209.79,9.41-44.57,18.82-89.14,28.23-133.71-65.95-10.54-922.8-153.08-935.99-429.37-9.79-204.96,450.35-365.88,470.97-372.91,615.09-209.69,1402.68,106.88,1420.33,398.17,4.54,74.94-39.58,186.31-279.31,332.8,52.26,21.05,104.51,42.09,156.77,63.14,262.2-187.25,279.6-340.01,277.61-402.62C2248.45,258.18,1632.52-1.27,1133.67,1.51,606.73,4.44-9.45,300.87,8.49,585.39Z" class="cls-4"/><path data-cppathid="10018" d="M8.49,591.33c8.43,133.66,160.41,231.72,324.06,334.72,314.07,197.68,629.44,219.28,787.69,218.7,11.89-62.4,23.77-124.8,35.66-187.2-108.96-16.46-889.41-139.25-903.31-381.82-8.99-157.05,306.99-299.96,496.22-353.6,559.55-158.61,1243.11,114.07,1261.36,378.85,4.82,69.94-34.32,175.06-255.54,314.97,75.53,26,151.07,52,226.6,78,262.2-187.25,279.6-340.01,277.61-402.62C2248.45,264.13,1632.52,4.68,1133.67,7.45,606.73,10.38-9.45,306.81,8.49,591.33Z" class="cls-4"/><path data-cppathid="10019" d="M8.49,591.33c15.08,239.15,478.41,473.67,1111.99,539.31C496.96,1056.37,48.02,818.1,38.65,583.16,27.78,310.61,608.47,42.16,1093.49,28.99c500.24-13.58,1117.27,238.47,1135.07,567.54,3.65,67.48-13.9,212.19-247.34,397.42,262.2-187.25,279.6-340.01,277.61-402.62C2248.45,264.13,1632.52,4.68,1133.67,7.45,606.73,10.38-9.45,306.81,8.49,591.33Z" class="cls-7"/><path data-cppathid="10020" d="M1120.48,1130.64c-.58,11.64-1.15,23.28-1.73,34.91-233.39-7.57-420.39-44.92-549.71-78.74-222.62-58.23-309.77-108.97-366.97-153.03-96.38-74.24-155.64-159.03-190.17-218.4-.99-47.54-1.98-95.08-2.97-142.63,8.51,32.26,24.25,79.21,54.97,129.26,77.28,125.92,197.16,186.39,325.37,237.71,276.76,110.79,556.3,164.53,731.21,190.91Z" class="cls-9"/><path data-cppathid="10021" d="M1120.24,1129.9c-.69,5.53-224.53,2.09-503.65-74.28-298.4-81.65-429.15-183.49-466.51-213.94-63.3-51.59-108.85-102.24-138.17-138.17-.99-47.54-1.98-95.08-2.97-142.63,16.09,36.2,42.94,88.56,86.17,144.11,99.2,127.49,220.22,189.05,294.17,222.86,350.4,160.21,731.87,194.8,730.96,202.06Z" class="cls-9"/><g><circle data-cppathid="10022" r="14.86" cy="1473.09" cx="1897.26" class="cls-12"/><circle data-cppathid="10023" r="7.43" cy="1636.52" cx="1958.17" class="cls-12"/><circle data-cppathid="10024" transform="translate(-160.47 263.25) rotate(-9.22)" r="7.43" cy="1126.93" cx="1552.58" class="cls-12"/><circle data-cppathid="10025" r="7.43" cy="1355.72" cx="1874.97" class="cls-12"/><circle data-cppathid="10026" r="7.43" cy="1083.84" cx="1573.38" class="cls-12"/><circle data-cppathid="10027" r="7.43" cy="1389.89" cx="1748.69" class="cls-12"/><circle data-cppathid="10028" r="7.43" cy="985.78" cx="1710.06" class="cls-12"/><circle data-cppathid="10029" r="7.43" cy="1170.01" cx="1882.4" class="cls-12"/><circle data-cppathid="10030" r="7.43" cy="1000.64" cx="1928.46" class="cls-12"/><circle data-cppathid="10031" r="7.43" cy="895.16" cx="1573.38" class="cls-12"/><circle data-cppathid="10032" r="7.43" cy="1195.27" cx="1756.12" class="cls-12"/><path data-cppathid="10033" d="M1631.32,1359.44c0,2.05,1.66,3.71,3.71,3.71s3.71-1.66,3.71-3.71-1.66-3.71-3.71-3.71-3.71,1.66-3.71,3.71Z" class="cls-12"/><path data-cppathid="10034" d="M1598.63,1138.07c0,2.05,1.66,3.71,3.71,3.71s3.71-1.66,3.71-3.71-1.66-3.71-3.71-3.71-3.71,1.66-3.71,3.71Z" class="cls-12"/><path data-cppathid="10035" d="M1928.46,1264.35c0,2.05,1.66,3.71,3.71,3.71s3.71-1.66,3.71-3.71-1.66-3.71-3.71-3.71-3.71,1.66-3.71,3.71Z" class="cls-12"/><path data-cppathid="10036" d="M1733.83,1518.41c0,2.05,1.66,3.71,3.71,3.71s3.71-1.66,3.71-3.71-1.66-3.71-3.71-3.71-3.71,1.66-3.71,3.71Z" class="cls-12"/></g><g><path data-cppathid="10037" d="M1487.7,1299.2c.28-6.5-4.75-12-11.25-12.28s-12,4.75-12.28,11.25c-.28,6.5,4.75,12,11.25,12.28,6.5.28,12-4.75,12.28-11.25Z" class="cls-12"/><path data-cppathid="10038" d="M1439.23,1167.39c.14-3.25-2.38-6-5.63-6.14s-6,2.38-6.14,5.63c-.14,3.25,2.38,6,5.63,6.14,3.25.14,6-2.38,6.14-5.63Z" class="cls-12"/><path data-cppathid="10039" d="M1742.83,1585.07c.14-3.25-2.38-6-5.63-6.14s-6,2.38-6.14,5.63c-.14,3.25,2.38,6,5.63,6.14,3.25.14,6-2.38,6.14-5.63Z" class="cls-12"/><path data-cppathid="10040" d="M1495.4,1392.68c.14-3.25-2.38-6-5.63-6.14-3.25-.14-6,2.38-6.14,5.63-.14,3.25,2.38,6,5.63,6.14,3.25.14,6-2.38,6.14-5.63Z" class="cls-12"/><path data-cppathid="10041" d="M1724.86,1618.48c.14-3.25-2.38-6-5.63-6.14-3.25-.14-6,2.38-6.14,5.63-.14,3.25,2.38,6,5.63,6.14,3.25.14,6-2.38,6.14-5.63Z" class="cls-12"/><path data-cppathid="10042" d="M1596.61,1369.99c.14-3.25-2.38-6-5.63-6.14-3.25-.14-6,2.38-6.14,5.63-.14,3.25,2.38,6,5.63,6.14,3.25.14,6-2.38,6.14-5.63Z" class="cls-12"/><path data-cppathid="10043" d="M1613.21,1691.41c.14-3.25-2.38-6-5.63-6.14s-6,2.38-6.14,5.63c-.14,3.25,2.38,6,5.63,6.14,3.25.14,6-2.38,6.14-5.63Z" class="cls-12"/><path data-cppathid="10044" d="M1483.08,1539.52c.14-3.25-2.38-6-5.63-6.14-3.25-.14-6,2.38-6.14,5.63-.14,3.25,2.38,6,5.63,6.14,3.25.14,6-2.38,6.14-5.63Z" class="cls-12"/><path data-cppathid="10045" d="M1440.74,1672.08c.14-3.25-2.38-6-5.63-6.14-3.25-.14-6,2.38-6.14,5.63-.14,3.25,2.38,6,5.63,6.14,3.25.14,6-2.38,6.14-5.63Z" class="cls-12"/><path data-cppathid="10046" d="M1718.33,1767.93c.14-3.25-2.38-6-5.63-6.14-3.25-.14-6,2.38-6.14,5.63-.14,3.25,2.38,6,5.63,6.14,3.25.14,6-2.38,6.14-5.63Z" class="cls-12"/><path data-cppathid="10047" d="M1583.98,1523.89c.14-3.25-2.38-6-5.63-6.14-3.25-.14-6,2.38-6.14,5.63-.14,3.25,2.38,6,5.63,6.14,3.25.14,6-2.38,6.14-5.63Z" class="cls-12"/><path data-cppathid="10048" d="M1682.63,1397.92c.07-1.62-1.19-3-2.81-3.07-1.62-.07-3,1.19-3.07,2.81s1.19,3,2.81,3.07c1.62.07,3-1.19,3.07-2.81Z" class="cls-12"/><path data-cppathid="10049" d="M1700.85,1574.39c.07-1.62-1.19-3-2.81-3.07-1.62-.07-3,1.19-3.07,2.81-.07,1.62,1.19,3,2.81,3.07s3-1.19,3.07-2.81Z" class="cls-12"/><path data-cppathid="10050" d="M1443.99,1462.94c.07-1.62-1.19-3-2.81-3.07-1.62-.07-3,1.19-3.07,2.81s1.19,3,2.81,3.07c1.62.07,3-1.19,3.07-2.81Z" class="cls-12"/><path data-cppathid="10051" d="M1606.94,1268.46c.07-1.62-1.19-3-2.81-3.07-1.62-.07-3,1.19-3.07,2.81-.07,1.62,1.19,3,2.81,3.07,1.62.07,3-1.19,3.07-2.81Z" class="cls-12"/></g><path data-cppathid="10052" d="M1161.7,1311.2c.28-6.5-4.75-12-11.25-12.28s-12,4.75-12.28,11.25,4.75,12,11.25,12.28c6.5.28,12-4.75,12.28-11.25Z" class="cls-12"/><path data-cppathid="10053" d="M1166.23,1232.39c.14-3.25-2.38-6-5.63-6.14s-6,2.38-6.14,5.63c-.14,3.25,2.38,6,5.63,6.14,3.25.14,6-2.38,6.14-5.63Z" class="cls-12"/><path data-cppathid="10054" d="M1155.83,1362.07c.14-3.25-2.38-6-5.63-6.14s-6,2.38-6.14,5.63c-.14,3.25,2.38,6,5.63,6.14,3.25.14,6-2.38,6.14-5.63Z" class="cls-12"/><path data-cppathid="10055" d="M1182.4,1481.68c.14-3.25-2.38-6-5.63-6.14-3.25-.14-6,2.38-6.14,5.63-.14,3.25,2.38,6,5.63,6.14,3.25.14,6-2.38,6.14-5.63Z" class="cls-12"/><path data-cppathid="10056" d="M1165.86,1552.48c.14-3.25-2.38-6-5.63-6.14-3.25-.14-6,2.38-6.14,5.63-.14,3.25,2.38,6,5.63,6.14,3.25.14,6-2.38,6.14-5.63Z" class="cls-12"/><path data-cppathid="10057" d="M1176.61,1820.99c.14-3.25-2.38-6-5.63-6.14-3.25-.14-6,2.38-6.14,5.63-.14,3.25,2.38,6,5.63,6.14,3.25.14,6-2.38,6.14-5.63Z" class="cls-12"/><path data-cppathid="10058" d="M1171.21,1054.41c.14-3.25-2.38-6-5.63-6.14s-6,2.38-6.14,5.63c-.14,3.25,2.38,6,5.63,6.14,3.25.14,6-2.38,6.14-5.63Z" class="cls-12"/><path data-cppathid="10059" d="M1167.98,1645.89c.14-3.25-2.38-6-5.63-6.14-3.25-.14-6,2.38-6.14,5.63-.14,3.25,2.38,6,5.63,6.14,3.25.14,6-2.38,6.14-5.63Z" class="cls-12"/><g class="cls-1"><g><circle data-cppathid="10060" r="16.34" cy="1282.92" cx="1041.49" class="cls-9"/><circle data-cppathid="10061" r="10.53" cy="1278.77" cx="1041.77" class="cls-9"/></g><g><circle data-cppathid="10062" r="16.34" cy="1825.2" cx="900.35" class="cls-9"/><circle data-cppathid="10063" r="10.53" cy="1821.05" cx="900.63" class="cls-9"/></g><g><circle data-cppathid="10064" transform="translate(-319.33 225.91) rotate(-13.28)" r="12.63" cy="1484.24" cx="810.47" class="cls-9"/><circle data-cppathid="10065" r="8.13" cy="1481.03" cx="810.68" class="cls-9"/></g><g><circle data-cppathid="10066" transform="translate(-375.23 197.48) rotate(-13.28)" r="12.63" cy="1710.06" cx="660.41" class="cls-9"/><circle data-cppathid="10067" transform="translate(-374.48 197.44) rotate(-13.28)" r="8.13" cy="1706.85" cx="660.63" class="cls-9"/></g><g><circle data-cppathid="10068" transform="translate(-344.78 286.65) rotate(-13.28)" r="12.63" cy="1623.89" cx="1058.58" class="cls-9"/><circle data-cppathid="10069" transform="translate(-835.88 1223.37) rotate(-45)" r="8.13" cy="1620.68" cx="1058.79" class="cls-9"/></g><g><circle data-cppathid="10070" r="12.63" cy="2001.26" cx="1025.9" class="cls-9"/><circle data-cppathid="10071" r="8.13" cy="1998.05" cx="1026.11" class="cls-9"/></g><g><circle data-cppathid="10072" transform="translate(-815.9 594.6) rotate(-45)" r="12.63" cy="1282.18" cx="309.79" class="cls-9"/><circle data-cppathid="10073" transform="translate(-813.57 593.81) rotate(-45)" r="8.13" cy="1278.97" cx="310" class="cls-9"/></g><g><circle data-cppathid="10074" transform="translate(-1131.77 892.82) rotate(-45)" r="12.63" cy="1812.58" cx="511.84" class="cls-9"/><circle data-cppathid="10075" r="8.13" cy="1809.36" cx="512.06" class="cls-9"/></g><g><circle data-cppathid="10076" r="16.34" cy="1438.92" cx="453.16" class="cls-9"/><circle data-cppathid="10077" r="10.53" cy="1434.77" cx="453.43" class="cls-9"/></g><g><circle data-cppathid="10078" transform="translate(-442.31 214.11) rotate(-13.28)" r="16.34" cy="2006.46" cx="698.3" class="cls-9"/><circle data-cppathid="10079" r="10.53" cy="2002.3" cx="698.58" class="cls-9"/></g><g><circle data-cppathid="10080" r="16.34" cy="1040.75" cx="213.96" class="cls-9"/><circle data-cppathid="10081" transform="translate(-163.28 47.7) rotate(-9.22)" r="10.53" cy="1036.6" cx="214.24" class="cls-9"/></g><g><circle data-cppathid="10082" r="16.34" cy="1545.89" cx="101.05" class="cls-9"/><circle data-cppathid="10083" r="10.53" cy="1541.74" cx="101.32" class="cls-9"/></g><g><circle data-cppathid="10084" r="5.94" cy="1438.92" cx="946.41" class="cls-9"/><path data-cppathid="10085" d="M942.68,1437.41c0,2.11,1.71,3.83,3.83,3.83s3.83-1.71,3.83-3.83-1.71-3.83-3.83-3.83-3.83,1.71-3.83,3.83Z" class="cls-9"/></g><g><path data-cppathid="10086" d="M254.07,1703.38c0,3.28,2.66,5.94,5.94,5.94s5.94-2.66,5.94-5.94-2.66-5.94-5.94-5.94-5.94,2.66-5.94,5.94Z" class="cls-9"/><path data-cppathid="10087" d="M256.29,1701.87c0,2.11,1.71,3.83,3.83,3.83s3.83-1.71,3.83-3.83-1.71-3.83-3.83-3.83-3.83,1.71-3.83,3.83Z" class="cls-9"/></g><g><circle data-cppathid="10088" r="5.94" cy="1441.89" cx="656.7" class="cls-9"/><circle data-cppathid="10089" r="3.83" cy="1440.38" cx="656.8" class="cls-9"/></g><g><circle data-cppathid="10090" r="5.94" cy="1260.64" cx="745.84" class="cls-9"/><path data-cppathid="10091" d="M742.11,1259.13c0,2.11,1.71,3.83,3.83,3.83s3.83-1.71,3.83-3.83-1.71-3.83-3.83-3.83-3.83,1.71-3.83,3.83Z" class="cls-9"/></g><g><circle data-cppathid="10092" r="5.94" cy="1161.1" cx="469.5" class="cls-9"/><path data-cppathid="10093" d="M465.77,1159.59c0,2.11,1.71,3.83,3.83,3.83s3.83-1.71,3.83-3.83-1.71-3.83-3.83-3.83-3.83,1.71-3.83,3.83Z" class="cls-9"/></g><g><circle data-cppathid="10094" r="5.94" cy="1666.23" cx="720.58" class="cls-9"/><path data-cppathid="10095" d="M716.86,1664.72c0,2.11,1.71,3.83,3.83,3.83s3.83-1.71,3.83-3.83-1.71-3.83-3.83-3.83-3.83,1.71-3.83,3.83Z" class="cls-9"/></g><g><circle data-cppathid="10096" r="5.94" cy="1636.52" cx="656.7" class="cls-9"/><path data-cppathid="10097" d="M652.97,1635.01c0,2.11,1.71,3.83,3.83,3.83s3.83-1.71,3.83-3.83-1.71-3.83-3.83-3.83-3.83,1.71-3.83,3.83Z" class="cls-9"/></g></g><g class="cls-13"><g><ellipse data-cppathid="10098" ry="16.34" rx="9.29" cy="903.95" cx="2205.73" class="cls-9"/><path data-cppathid="10099" d="M2199.9,899.79c0,5.81,2.68,10.53,5.99,10.53s5.99-4.71,5.99-10.53-2.68-10.53-5.99-10.53-5.99,4.71-5.99,10.53Z" class="cls-9"/></g><g><ellipse data-cppathid="10100" ry="16.34" rx="9.29" cy="1446.23" cx="2125.46" class="cls-9"/><path data-cppathid="10101" d="M2119.63,1442.07c0,5.81,2.68,10.53,5.99,10.53s5.99-4.71,5.99-10.53-2.68-10.53-5.99-10.53-5.99,4.71-5.99,10.53Z" class="cls-9"/></g><g><ellipse data-cppathid="10102" ry="12.63" rx="7.18" cy="1105.26" cx="2074.34" class="cls-9"/><ellipse data-cppathid="10103" ry="8.13" rx="4.63" cy="1102.05" cx="2074.46" class="cls-9"/></g><g><ellipse data-cppathid="10104" ry="12.63" rx="7.18" cy="1244.92" cx="2215.44" class="cls-9"/><ellipse data-cppathid="10105" ry="8.13" rx="4.63" cy="1241.7" cx="2215.57" class="cls-9"/></g><g><ellipse data-cppathid="10106" ry="12.63" rx="7.18" cy="1622.28" cx="2196.86" class="cls-9"/><ellipse data-cppathid="10107" ry="8.13" rx="4.63" cy="1619.07" cx="2196.98" class="cls-9"/></g><g><path data-cppathid="10108" d="M2001.26,1627.48c0,9.03,4.16,16.34,9.29,16.34s9.29-7.32,9.29-16.34-4.16-16.34-9.29-16.34-9.29,7.32-9.29,16.34Z" class="cls-9"/><path data-cppathid="10109" d="M2004.72,1623.33c0,5.81,2.68,10.53,5.99,10.53,3.31,0,5.99-4.71,5.99-10.53s-2.68-10.53-5.99-10.53-5.99,4.71-5.99,10.53Z" class="cls-9"/></g><g><ellipse data-cppathid="10110" ry="5.94" rx="3.38" cy="1059.95" cx="2151.65" class="cls-9"/><path data-cppathid="10111" d="M2149.53,1058.44c0,2.11.97,3.83,2.18,3.83s2.18-1.71,2.18-3.83-.97-3.83-2.18-3.83-2.18,1.71-2.18,3.83Z" class="cls-9"/></g></g><path data-cppathid="10112" d="M1251.95,1644.4c-6.27-280.45-12.53-560.9-18.8-841.36-52.06-24.8-70.43-73.15-56.46-99.54,10.76-20.32,41.25-28.96,65.37-23.77,32.35,6.96,57.35,39.69,56.89,79.67,12.89-20.23,33.81-60.11,24.83-103.44-19.38-93.5-168.81-158.85-267.43-108.46-38.51,19.68-83.24,64.19-81.71,115.88,2.11,71.74,93.03,148.42,228.8,148.57,4.84,277.83,9.67,555.65,14.51,833.48,11.33-.34,22.67-.69,34-1.03Z" class="cls-8"/><g><path data-cppathid="10113" d="M1908.5,763.77l15.61,17.65c19.65-17.38,41.31-31.88,64.4-43.11,23.09-11.23,47.24-19.38,71.76-24.22l-4.56-23.12c-26.51,5.23-52.59,14.03-77.5,26.15-25.01,12.16-48.46,27.86-69.71,46.65Z" class="cls-6"/><path data-cppathid="10114" d="M1823.41,378.56l-6.43,22.67c25.23,7.16,49.14,17.56,71.05,30.94,21.92,13.38,41.81,29.3,59.13,47.33l17-16.32c-18.72-19.49-40.2-36.69-63.85-51.12-23.74-14.49-49.61-25.75-76.9-33.49Z" class="cls-6"/><path data-cppathid="10115" d="M1603.88,620.42l.43,24.28c27.02-.48,53.71,2.65,79.32,9.29,25.61,6.65,49.99,16.41,72.45,29.02l11.89-21.17c-24.28-13.63-50.6-24.18-78.24-31.35-27.74-7.2-56.62-10.59-85.85-10.07Z" class="cls-6"/><g><path data-cppathid="10116" d="M1737.31,733.78c30.38-3.22,60.75-2.35,90.25,2.59,31.83,5.33,54.51,14.03,76.45,22.45,2.85,1.09,5.68,2.18,8.51,3.25,47.77,18.07,99.31,33.26,153.2,45.14l3.86-17.49c-53.05-11.69-103.76-26.63-150.72-44.4-2.81-1.06-5.61-2.14-8.43-3.22-16.91-6.49-34.25-13.14-55.84-18.44-9.84-2.42-17.22-3.75-24.06-4.95-18.49-3.24-49.48-7.52-93.06-8.55-.05,7.88-.1,15.75-.15,23.63Z" class="cls-18"/><path data-cppathid="10117" d="M1739.26,727.82c30.38-3.22,60.75-2.35,90.25,2.59,31.83,5.33,54.51,14.03,76.45,22.45,2.85,1.09,5.68,2.18,8.51,3.25,47.77,18.07,99.31,33.26,153.2,45.14l3.86-17.49c-53.05-11.69-103.76-26.63-150.72-44.4-2.81-1.06-5.61-2.14-8.43-3.22-22.76-8.73-46.3-17.76-79.9-23.39-31.1-5.21-63.1-6.13-95.1-2.74l1.89,17.81Z" class="cls-2"/></g><g><path data-cppathid="10118" d="M2044.21,639.39l22.09-8.2c-11.63-31.33-27.16-59.62-46.17-84.06-6.76-8.69-12.75-15.38-18.04-21.28-10.16-11.34-17.5-19.54-23.89-34.93-5.52-13.28-6.25-21.91-7.18-32.83-.68-8.04-1.46-17.15-4.27-29.04-7.21-30.47-23.4-59.6-48.13-86.61l-17.38,15.91c21.98,24,36.3,49.61,42.57,76.11,2.41,10.19,3.08,18.03,3.72,25.61.97,11.41,1.97,23.2,8.9,39.88,7.93,19.09,17.28,29.53,28.1,41.61,5.03,5.62,10.73,11.98,16.99,20.02,17.53,22.55,31.89,48.72,42.68,77.8Z" class="cls-10"/><path data-cppathid="10119" d="M2050.4,636.82c7.67-2.57,15.34-5.14,23.01-7.7-24.39-53.64-39.21-76.56-48.5-87.2-6.11-7.01-11.83-14.36-18.04-21.28-10.16-11.34-17.5-19.54-23.89-34.93-5.52-13.28-6.25-21.91-7.18-32.83-.68-8.04-1.46-17.15-4.27-29.04-7.21-30.47-23.4-59.6-48.13-86.6l-17.38,15.91c21.98,24,36.3,49.61,42.57,76.11,2.41,10.19,3.08,18.03,3.72,25.61.97,11.41,1.97,23.2,8.9,39.88,7.93,19.09,17.28,29.53,28.1,41.61,5.84,6.52,11.24,13.42,16.99,20.02,9.6,11.02,23.81,32.89,44.09,80.44Z" class="cls-17"/></g><g><path data-cppathid="10120" d="M1772.77,646.74l22.77-8.45c-11.98-32.29-27.99-61.43-47.58-86.63-6.96-8.96-13.14-15.85-18.59-21.93-10.47-11.69-18.04-20.14-24.62-36-5.69-13.69-6.44-22.58-7.4-33.83-.7-8.28-1.5-17.67-4.4-29.92-7.43-31.4-24.11-61.42-49.6-89.25l-17.91,16.4c22.65,24.73,37.41,51.12,43.87,78.44,2.49,10.51,3.17,18.58,3.83,26.39,1,11.76,2.03,23.91,9.17,41.09,8.17,19.67,17.81,30.43,28.96,42.88,5.18,5.79,11.06,12.34,17.5,20.63,18.06,23.23,32.86,50.21,43.98,80.17Z" class="cls-10"/><path data-cppathid="10121" d="M1779.14,644.09c7.9-2.65,15.8-5.29,23.71-7.94-25.14-55.28-40.41-78.89-49.98-89.86-6.3-7.22-12.19-14.79-18.59-21.93-10.47-11.69-18.04-20.14-24.62-36-5.69-13.69-6.44-22.58-7.4-33.83-.7-8.28-1.5-17.67-4.4-29.92-7.43-31.4-24.11-61.42-49.6-89.25l-17.91,16.4c22.65,24.73,37.41,51.12,43.87,78.44,2.49,10.5,3.17,18.58,3.83,26.39,1,11.76,2.03,23.91,9.17,41.09,8.17,19.67,17.81,30.43,28.96,42.88,6.02,6.72,11.58,13.83,17.5,20.63,9.89,11.36,24.54,33.9,45.44,82.89Z" class="cls-17"/></g><g><path data-cppathid="10122" d="M1930.97,351.1l17.71-16.62c-23.57-25.11-49.63-45.76-77.46-61.38-9.89-5.55-18.26-9.51-25.64-13-14.19-6.71-24.43-11.56-36.66-23.62-10.55-10.41-14.7-18.31-19.94-28.31-3.86-7.36-8.24-15.7-15.66-25.87-19.03-26.06-46.05-47.26-80.33-63.02l-10.14,22.06c30.47,14.01,54.31,32.6,70.87,55.27,6.37,8.72,10.13,15.89,13.77,22.83,5.48,10.45,11.15,21.25,24.39,34.32,15.16,14.96,28.22,21.14,43.33,28.29,7.02,3.32,14.98,7.09,24.14,12.23,25.66,14.41,49.77,33.53,71.64,56.83Z" class="cls-10"/><path data-cppathid="10123" d="M1935.82,346.19c6.26-5.5,12.51-11.01,18.77-16.51-44.61-41.2-67.85-57.04-80.92-63.43-8.61-4.21-16.98-8.9-25.64-13-14.19-6.71-24.43-11.56-36.66-23.62-10.55-10.41-14.7-18.31-19.94-28.31-3.86-7.36-8.24-15.7-15.66-25.87-19.03-26.06-46.05-47.26-80.33-63.02l-10.14,22.06c30.47,14.01,54.31,32.6,70.87,55.27,6.37,8.72,10.13,15.89,13.77,22.83,5.48,10.45,11.15,21.25,24.39,34.32,15.16,14.96,28.22,21.14,43.33,28.29,8.15,3.86,16.04,8.26,24.14,12.23,13.53,6.63,35.76,21.72,74.04,58.77Z" class="cls-17"/></g><g><path data-cppathid="10124" d="M1160.88,161.45l2.76,24.12c34.22-3.92,66.34-12.49,95.49-25.49,10.36-4.62,18.53-8.97,25.74-12.8,13.85-7.37,23.86-12.7,40.84-15.3,14.65-2.25,23.46-.86,34.62.9,8.21,1.3,17.52,2.77,30.11,2.88,32.26.29,65.41-8.73,98.51-26.82l-11.64-21.31c-29.43,16.08-58.58,24.11-86.65,23.85-10.79-.1-18.8-1.36-26.54-2.58-11.65-1.84-23.7-3.74-42.09-.92-21.06,3.23-33.8,10.02-48.56,17.87-6.86,3.65-14.63,7.79-24.22,12.06-26.88,11.99-56.61,19.91-88.36,23.54Z" class="cls-10"/><path data-cppathid="10125" d="M1161.93,168.28c.68,8.31,1.36,16.61,2.04,24.92,59.69-11.19,86.27-20.38,99.2-27.05,8.52-4.39,17.28-8.3,25.74-12.8,13.85-7.37,23.86-12.7,40.84-15.3,14.65-2.25,23.46-.86,34.62.9,8.21,1.3,17.52,2.77,30.11,2.88,32.26.29,65.41-8.73,98.51-26.82l-11.64-21.31c-29.43,16.08-58.58,24.11-86.65,23.85-10.79-.1-18.8-1.36-26.54-2.58-11.65-1.84-23.7-3.74-42.09-.92-21.06,3.23-33.8,10.02-48.56,17.87-7.96,4.24-16.2,7.94-24.22,12.06-13.39,6.89-38.78,15.72-91.35,24.31Z" class="cls-17"/></g><g><path data-cppathid="10126" d="M1924.38,872.9l22.09-8.2c-11.63-31.33-27.16-59.62-46.17-84.06-6.76-8.69-12.75-15.38-18.04-21.28-10.16-11.34-17.5-19.54-23.89-34.93-5.52-13.28-6.25-21.91-7.18-32.83-.68-8.04-1.46-17.15-4.27-29.04-7.21-30.47-23.4-59.6-48.13-86.6l-17.38,15.91c21.98,24,36.3,49.61,42.57,76.11,2.41,10.19,3.08,18.03,3.72,25.61.97,11.41,1.97,23.2,8.9,39.88,7.93,19.09,17.28,29.53,28.1,41.61,5.03,5.62,10.73,11.98,16.99,20.02,17.53,22.55,31.89,48.72,42.68,77.8Z" class="cls-10"/><path data-cppathid="10127" d="M1930.56,870.33c7.67-2.57,15.34-5.14,23.01-7.7-24.39-53.64-39.21-76.56-48.5-87.2-6.11-7.01-11.83-14.36-18.04-21.28-10.16-11.34-17.5-19.54-23.89-34.93-5.52-13.28-6.25-21.91-7.18-32.83-.68-8.04-1.46-17.15-4.27-29.04-7.21-30.47-23.4-59.6-48.13-86.61l-17.38,15.91c21.98,24,36.3,49.61,42.57,76.11,2.41,10.19,3.08,18.03,3.72,25.61.97,11.41,1.97,23.2,8.9,39.88,7.93,19.09,17.28,29.53,28.1,41.61,5.84,6.52,11.24,13.42,16.99,20.02,9.6,11.02,23.81,32.89,44.09,80.44Z" class="cls-17"/></g><g><path data-cppathid="10128" d="M1856.45,563.33c7-7.23,14-14.47,21-21.7-23.08-24.16-33.88-46.43-39.2-60.26-8.99-23.37-14.26-53.6-16.51-66.52-.7-4.04-1.16-6.94-1.3-7.84-3.23-20.19-15.06-58.68-49.89-137.16-2.02,2.97-4.04,5.94-6.06,8.92,14.46,44.81,25.47,89.28,32.71,132.17.43,2.57.86,5.14,1.28,7.73,3.47,21.13,7.06,42.98,17.73,71.07,9.88,25.99,23.41,50.76,40.23,73.6Z" class="cls-22"/><path data-cppathid="10129" d="M1859.02,555.49l18.97-13.97c-15.55-21.12-28.06-44-37.18-67.99-9.83-25.88-13.23-46.54-16.51-66.52-.43-2.63-.86-5.23-1.3-7.84-7.43-44.01-18.71-89.6-33.52-135.48l-22.43,7.24c14.46,44.81,25.47,89.28,32.71,132.17.43,2.57.86,5.14,1.28,7.73,3.47,21.13,7.06,42.98,17.73,71.07,9.88,25.99,23.41,50.76,40.23,73.6Z" class="cls-23"/></g><g><path data-cppathid="10130" d="M2076.98,497.92c2.31-9.8,4.62-19.59,6.94-29.39-32.19-8.95-52.87-22.56-64.52-31.72-19.68-15.48-39.67-38.76-48.22-48.71-2.67-3.11-4.55-5.37-5.13-6.07-13.1-15.7-42.96-42.71-113.04-92.33-.21,3.59-.43,7.17-.64,10.76,35.35,31.1,67.56,63.68,95.73,96.83,1.69,1.98,3.37,3.98,5.06,5.99,13.79,16.38,28.05,33.32,51.6,51.99,21.79,17.28,46.09,31.63,72.22,42.65Z" class="cls-22"/><path data-cppathid="10131" d="M2075.18,489.87l9.15-21.71c-24.17-10.19-46.62-23.45-66.73-39.4-21.69-17.21-35.18-33.22-48.22-48.71-1.71-2.04-3.42-4.06-5.13-6.07-28.91-34.01-61.92-67.41-98.12-99.26l-15.57,17.69c35.35,31.1,67.56,63.68,95.73,96.83,1.69,1.98,3.37,3.98,5.06,5.99,13.79,16.38,28.05,33.32,51.6,51.99,21.79,17.28,46.09,31.63,72.22,42.65Z" class="cls-23"/></g><g><path data-cppathid="10132" d="M2003.22,481.94c-6.42,7.75-12.85,15.5-19.27,23.25,24.86,22.32,37.34,43.7,43.71,57.08,10.76,22.61,18.33,52.35,21.57,65.06,1.01,3.98,1.69,6.83,1.9,7.72,4.77,19.88,19.52,57.35,60.27,132.93,1.79-3.12,3.57-6.24,5.36-9.36-17.86-43.56-32.24-87.06-42.76-129.27-.63-2.53-1.25-5.06-1.87-7.61-5.08-20.8-10.34-42.31-23.14-69.5-11.84-25.16-27.24-48.81-45.76-70.29Z" class="cls-22"/><path data-cppathid="10133" d="M2001.26,489.96l-17.85,15.39c17.13,19.86,31.36,41.71,42.29,64.94,11.79,25.05,16.76,45.39,21.57,65.06.63,2.58,1.26,5.15,1.9,7.72,10.79,43.31,25.53,87.9,43.82,132.51l21.8-8.94c-17.86-43.56-32.24-87.06-42.76-129.27-.63-2.53-1.25-5.06-1.87-7.61-5.08-20.8-10.34-42.31-23.14-69.5-11.84-25.16-27.24-48.81-45.76-70.29Z" class="cls-23"/></g><g><path data-cppathid="10134" d="M1786.47,552.11c1.33,9.98,2.65,19.96,3.98,29.93,33.27-3.09,57.44,2.27,71.58,6.68,23.9,7.46,50.87,22.1,62.4,28.36,3.61,1.96,6.16,3.4,6.95,3.85,17.83,10.01,55.35,24.62,138.5,46.05-1.08-3.43-2.15-6.86-3.23-10.29-44.1-16.48-85.8-35.46-123.92-56.41-2.28-1.25-4.56-2.52-6.86-3.8-18.72-10.4-38.07-21.15-66.73-30.22-26.51-8.39-54.33-13.16-82.67-14.15Z" class="cls-22"/><path data-cppathid="10135" d="M1791.02,558.99l-.83,23.55c26.21.92,51.91,5.32,76.39,13.07,26.39,8.36,44.7,18.53,62.4,28.36,2.33,1.29,4.64,2.58,6.95,3.85,39.12,21.5,81.86,40.96,127.02,57.83l8.25-22.07c-44.1-16.48-85.8-35.46-123.92-56.41-2.28-1.25-4.56-2.52-6.86-3.8-18.72-10.4-38.07-21.15-66.73-30.22-26.51-8.39-54.33-13.16-82.67-14.15Z" class="cls-23"/></g><g><path data-cppathid="10136" d="M2056.53,640.76c4.89-9.42,9.78-18.84,14.67-28.26-34.32-12.48-57-24.52-71.68-33.5-3.44-2.1-9.44-5.78-20.38-12.52-18-11.09-27.92-17.2-42.36-25.06-23.64-12.86-48.35-24.35-73.44-34.14-2.17,4.66-4.34,9.31-6.5,13.97,41.29,17.37,63.3,31.26,75.86,40.95,3.56,2.75,15.94,12.56,34.08,24.34,9.46,6.15,16.72,10.28,20.44,12.56,22.79,13.94,46.11,27.96,69.31,41.66Z" class="cls-16"/><path data-cppathid="10137" d="M2059.1,632.92l11.98-20.29c-23.1-13.65-46.32-27.6-69-41.48-7.93-4.85-14.58-8.95-20.38-12.52-18-11.09-27.92-17.2-42.36-25.06-23.64-12.86-48.35-24.35-73.44-34.14l-8.57,21.95c24.17,9.43,47.97,20.5,70.74,32.89,13.88,7.55,23.6,13.54,41.26,24.42,5.82,3.58,12.49,7.69,20.44,12.56,22.79,13.94,46.11,27.96,69.31,41.66Z" class="cls-10"/></g><g><path data-cppathid="10138" d="M1930.36,672.82c5.64-10.07,11.28-20.15,16.93-30.22-69.01-41.96-98.14-63.07-109.88-74.18-.32-.3-2.6-2.43-5.72-5.36-15.61-14.66-31.74-29.82-57.31-45.63-23.65-14.63-49.45-26.05-76.7-33.95l-6.56,22.63c25.19,7.3,49.04,17.86,70.87,31.36,23.55,14.56,38.81,28.9,53.56,42.76,1.94,1.82,3.87,3.63,5.8,5.43,32.67,30.42,69.35,59.74,109.01,87.16Z" class="cls-11"/><path data-cppathid="10139" d="M1934.03,661.62l13.4-19.38c-38.73-26.77-74.51-55.37-106.35-85.02-1.91-1.77-3.81-3.56-5.72-5.36-15.61-14.66-31.74-29.82-57.31-45.63-23.65-14.63-49.45-26.05-76.7-33.95l-6.56,22.63c25.19,7.3,49.04,17.86,70.87,31.36,23.55,14.56,38.81,28.9,53.56,42.76,1.94,1.82,3.87,3.63,5.8,5.43,32.67,30.42,69.35,59.74,109.01,87.16Z" class="cls-21"/></g><g><path data-cppathid="10140" d="M1894.11,939.46c5.81-10.38,11.63-20.76,17.44-31.14-71.12-43.24-101.13-65-113.23-76.44-.33-.31-2.68-2.5-5.89-5.52-16.08-15.11-32.71-30.73-59.05-47.02-24.37-15.07-50.96-26.84-79.04-34.98l-6.76,23.32c25.96,7.53,50.53,18.4,73.03,32.32,24.27,15.01,39.99,29.78,55.2,44.07,2,1.88,3.98,3.74,5.97,5.6,33.67,31.35,71.46,61.56,112.34,89.81Z" class="cls-11"/><path data-cppathid="10141" d="M1897.89,927.92l13.81-19.98c-39.91-27.59-76.78-57.06-109.6-87.61-1.96-1.83-3.92-3.67-5.89-5.52-16.08-15.11-32.71-30.73-59.05-47.02-24.37-15.07-50.96-26.84-79.04-34.98l-6.76,23.32c25.96,7.53,50.53,18.4,73.03,32.32,24.27,15.01,39.99,29.78,55.2,44.07,2,1.88,3.98,3.74,5.97,5.6,33.67,31.35,71.46,61.56,112.34,89.81Z" class="cls-21"/></g><path data-cppathid="10142" d="M289.94,581.74l-23.13,4.52c-5.03-25.74-13.42-50.43-24.93-73.38-11.51-22.96-25.73-44.1-42.25-62.85l17.68-15.58c17.87,20.27,33.22,43.11,45.64,67.87,12.46,24.86,21.54,51.58,26.99,79.42Z" class="cls-6"/><path data-cppathid="10143" d="M591.68,327.62l-8.68,21.91c-24.39-9.66-49.69-15.93-75.22-18.63-25.54-2.71-51.01-2.16-75.72,1.63l-3.57-23.29c26.71-4.1,54.22-4.69,81.77-1.77,27.65,2.93,55.05,9.71,81.42,20.16Z" class="cls-6"/><path data-cppathid="10144" d="M618.95,653.11l-15.1,19.02c-21.17-16.81-44.26-30.55-68.63-40.84-24.38-10.29-49.67-17.36-75.17-21l3.43-24.04c27.57,3.94,54.88,11.56,81.18,22.67,26.4,11.15,51.39,26.02,74.28,44.19Z" class="cls-6"/><g><path data-cppathid="10145" d="M444.1,662c-22.17-21.03-46.81-38.8-73.23-52.81-28.51-15.12-51.81-22-74.34-28.65-2.92-.86-5.83-1.72-8.73-2.59-48.91-14.69-99.07-33.96-149.08-57.3l7.57-16.23c49.23,22.97,98.57,41.93,146.66,56.37,2.87.86,5.76,1.71,8.65,2.57,17.37,5.13,35.19,10.39,55.54,19.3,9.29,4.07,15.95,7.49,22.12,10.7,16.65,8.67,43.85,24.11,79.09,49.78-4.75,6.28-9.5,12.57-14.25,18.85Z" class="cls-18"/><path data-cppathid="10146" d="M446.17,656.08c-22.17-21.03-46.81-38.8-73.23-52.81-28.51-15.12-51.81-22-74.34-28.65-2.92-.86-5.83-1.72-8.73-2.59-48.91-14.69-99.07-33.96-149.08-57.3l7.57-16.23c49.23,22.97,98.57,41.93,146.66,56.37,2.87.86,5.76,1.71,8.65,2.57,23.38,6.9,47.56,14.04,77.66,30,27.86,14.77,53.83,33.49,77.17,55.64l-12.33,13Z" class="cls-2"/></g><g><path data-cppathid="10147" d="M257.79,400.48l-12.56-19.94c28.28-17.81,57.81-30.82,87.76-38.68,10.65-2.79,19.47-4.46,27.26-5.93,14.96-2.83,25.78-4.87,40.21-13.21,12.46-7.19,18.28-13.6,25.66-21.7,5.43-5.97,11.58-12.73,21.04-20.46,24.24-19.81,54.81-33.1,90.86-39.51l4.12,23.2c-32.04,5.69-58.98,17.32-80.08,34.55-8.11,6.63-13.4,12.44-18.52,18.07-7.7,8.47-15.67,17.22-31.31,26.25-17.9,10.34-31.67,12.94-47.61,15.96-7.41,1.4-15.8,2.99-25.66,5.57-27.62,7.24-54.94,19.3-81.18,35.82Z" class="cls-10"/><path data-cppathid="10148" d="M254.45,394.68c-4.53-6.7-9.05-13.4-13.58-20.1,51.98-27.76,77.68-36.95,91.52-39.75,9.11-1.85,18.12-4.21,27.26-5.93,14.96-2.83,25.78-4.87,40.21-13.21,12.46-7.19,18.28-13.6,25.66-21.7,5.43-5.97,11.58-12.73,21.04-20.46,24.24-19.81,54.81-33.1,90.86-39.51l4.12,23.2c-32.04,5.69-58.98,17.32-80.08,34.55-8.11,6.63-13.4,12.44-18.52,18.07-7.7,8.47-15.67,17.22-31.31,26.25-17.9,10.34-31.67,12.94-47.61,15.96-8.6,1.63-17.08,3.83-25.66,5.57-14.32,2.91-38.9,11.64-83.91,37.06Z" class="cls-17"/></g><g><path data-cppathid="10149" d="M468.86,571.34l-12.94-20.55c29.14-18.35,59.57-31.76,90.44-39.86,10.98-2.88,20.07-4.6,28.09-6.11,15.42-2.92,26.56-5.02,41.43-13.61,12.84-7.41,18.84-14.01,26.44-22.37,5.59-6.15,11.93-13.12,21.68-21.08,24.98-20.41,56.49-34.11,93.63-40.71l4.25,23.91c-33.02,5.87-60.78,17.85-82.52,35.61-8.36,6.83-13.81,12.82-19.09,18.62-7.94,8.73-16.15,17.75-32.26,27.05-18.45,10.65-32.64,13.34-49.06,16.44-7.63,1.44-16.28,3.08-26.44,5.74-28.47,7.47-56.61,19.89-83.66,36.92Z" class="cls-10"/><path data-cppathid="10150" d="M465.41,565.36c-4.67-6.91-9.33-13.81-14-20.72,53.57-28.61,80.05-38.08,94.31-40.97,9.39-1.9,18.67-4.33,28.09-6.11,15.42-2.92,26.56-5.02,41.43-13.61,12.84-7.41,18.84-14.01,26.44-22.37,5.59-6.15,11.93-13.12,21.68-21.08,24.98-20.41,56.49-34.11,93.63-40.71l4.25,23.91c-33.02,5.87-60.78,17.85-82.52,35.61-8.36,6.83-13.81,12.82-19.09,18.62-7.94,8.73-16.15,17.75-32.26,27.05-18.45,10.65-32.64,13.34-49.06,16.44-8.86,1.68-17.6,3.94-26.44,5.74-14.76,3-40.09,12-86.47,38.19Z" class="cls-17"/></g><g><path data-cppathid="10151" d="M210.99,658.74l-12.56-19.94c28.28-17.81,57.81-30.82,87.76-38.68,10.65-2.79,19.47-4.46,27.26-5.93,14.96-2.83,25.77-4.87,40.21-13.21,12.46-7.19,18.28-13.6,25.66-21.7,5.43-5.97,11.58-12.73,21.04-20.46,24.24-19.81,54.81-33.1,90.86-39.51l4.12,23.2c-32.04,5.69-58.98,17.32-80.08,34.55-8.11,6.63-13.4,12.44-18.52,18.07-7.7,8.47-15.67,17.22-31.31,26.25-17.9,10.34-31.67,12.94-47.61,15.96-7.41,1.4-15.8,2.99-25.66,5.57-27.62,7.24-54.94,19.3-81.18,35.82Z" class="cls-10"/><path data-cppathid="10152" d="M207.64,652.94c-4.53-6.7-9.05-13.4-13.58-20.1,51.98-27.76,77.68-36.95,91.52-39.75,9.11-1.85,18.12-4.21,27.26-5.93,14.96-2.83,25.78-4.87,40.21-13.21,12.46-7.19,18.28-13.6,25.66-21.7,5.43-5.97,11.58-12.73,21.04-20.46,24.24-19.81,54.81-33.1,90.86-39.51l4.12,23.2c-32.04,5.69-58.98,17.32-80.08,34.55-8.11,6.63-13.4,12.44-18.52,18.07-7.7,8.47-15.67,17.22-31.31,26.25-17.9,10.34-31.67,12.94-47.61,15.96-8.6,1.63-17.08,3.83-25.66,5.57-14.32,2.91-38.9,11.64-83.91,37.06Z" class="cls-17"/></g><g><path data-cppathid="10153" d="M453.12,454.23c-1.16-10-2.32-20-3.48-30,33.01-5.15,55.13-16.27,67.76-24.02,21.35-13.09,43.91-33.89,53.55-42.78,3.02-2.78,5.14-4.81,5.8-5.43,14.84-14.07,47.63-37.43,123-78.58-.2,3.59-.41,7.18-.61,10.76-38.72,26.79-74.49,55.4-106.32,85.06-1.91,1.78-3.81,3.56-5.72,5.36-15.6,14.67-31.73,29.83-57.29,45.65-23.64,14.63-49.45,26.07-76.69,33.98Z" class="cls-22"/><path data-cppathid="10154" d="M455.85,446.45l-6.57-22.63c25.19-7.31,49.03-17.87,70.86-31.38,23.54-14.57,38.8-28.91,53.55-42.78,1.94-1.82,3.86-3.63,5.8-5.43,32.66-30.43,69.33-59.76,108.98-87.2l13.41,19.38c-38.72,26.79-74.49,55.4-106.32,85.06-1.91,1.78-3.81,3.56-5.72,5.36-15.6,14.67-31.73,29.83-57.29,45.65-23.64,14.63-49.45,26.07-76.69,33.98Z" class="cls-23"/></g><g><path data-cppathid="10155" d="M317.78,268.23c4.12-9.18,8.24-18.37,12.36-27.55,31,12.46,55.69,14.22,70.51,14.03,25.04-.32,55.06-6.66,67.9-9.36,4.01-.85,6.88-1.5,7.76-1.7,19.95-4.5,60.07-7.8,145.88-4.59-2.01,2.98-4.02,5.96-6.03,8.94-46.97,3.2-92.35,9.49-134.87,18.68-2.55.55-5.09,1.11-7.66,1.68-20.91,4.62-42.53,9.4-72.58,9.91-27.8.48-55.82-2.9-83.27-10.04Z" class="cls-22"/><path data-cppathid="10156" d="M324.11,262.94l5.93-22.81c25.39,6.6,51.27,9.73,76.94,9.29,27.68-.47,48.13-4.99,67.9-9.36,2.6-.57,5.18-1.14,7.76-1.7,43.63-9.43,90.14-15.88,138.25-19.16l1.6,23.51c-46.97,3.2-92.35,9.49-134.87,18.68-2.55.55-5.09,1.11-7.66,1.68-20.91,4.62-42.53,9.4-72.58,9.91-27.8.48-55.82-2.9-83.27-10.04Z" class="cls-23"/></g><g><path data-cppathid="10157" d="M386.06,300.39c.39,10.06.78,20.12,1.17,30.17-33.31,2.61-56.22,11.99-69.41,18.75-22.29,11.41-46.38,30.42-56.67,38.55-3.22,2.54-5.49,4.4-6.2,4.97-15.87,12.89-50.36,33.67-128.66,68.91.48-3.56.96-7.12,1.43-10.69,40.66-23.73,78.53-49.52,112.54-76.65,2.04-1.62,4.07-3.26,6.11-4.91,16.68-13.43,33.93-27.31,60.62-41.12,24.7-12.78,51.3-22.19,79.07-27.99Z" class="cls-22"/><path data-cppathid="10158" d="M382.74,307.94l4.82,23.07c-25.68,5.36-50.26,14.06-73.06,25.85-24.59,12.72-40.9,25.85-56.67,38.55-2.07,1.67-4.13,3.33-6.2,4.97-34.9,27.83-73.71,54.27-115.35,78.57l-11.88-20.35c40.66-23.73,78.53-49.52,112.54-76.65,2.04-1.62,4.07-3.26,6.11-4.91,16.68-13.43,33.93-27.31,60.62-41.12,24.7-12.78,51.3-22.19,79.07-27.99Z" class="cls-23"/></g><g><path data-cppathid="10159" d="M990.74,334.56c.39,10.06.78,20.12,1.17,30.17-33.31,2.61-56.22,11.99-69.41,18.75-22.29,11.41-46.38,30.42-56.67,38.55-3.22,2.54-5.49,4.4-6.2,4.97-15.87,12.89-50.36,33.67-128.66,68.91.48-3.56.96-7.12,1.43-10.69,40.66-23.73,78.53-49.52,112.54-76.65,2.04-1.62,4.07-3.26,6.11-4.91,16.68-13.43,33.93-27.31,60.62-41.12,24.7-12.78,51.3-22.19,79.07-27.99Z" class="cls-22"/><path data-cppathid="10160" d="M987.42,342.12l4.82,23.07c-25.68,5.36-50.26,14.06-73.06,25.85-24.59,12.72-40.9,25.85-56.67,38.55-2.07,1.67-4.13,3.33-6.2,4.97-34.9,27.83-73.71,54.27-115.35,78.57l-11.88-20.35c40.66-23.73,78.53-49.52,112.54-76.65,2.04-1.62,4.07-3.26,6.11-4.91,16.68-13.43,33.93-27.31,60.62-41.12,24.7-12.78,51.3-22.19,79.07-27.99Z" class="cls-23"/></g><g><path data-cppathid="10161" d="M515.51,487.87c-7.12,7.12-14.24,14.23-21.36,21.35-24.53-22.68-46.98-33.12-60.9-38.21-23.51-8.61-53.83-13.38-66.78-15.42-4.05-.64-6.96-1.04-7.86-1.17-20.24-2.9-58.91-14.1-137.96-47.64,2.94-2.07,5.88-4.14,8.82-6.2,45.04,13.73,89.68,24,132.69,30.54,2.57.39,5.16.77,7.75,1.15,21.18,3.12,43.09,6.35,71.35,16.57,26.15,9.45,51.13,22.58,74.25,39.02Z" class="cls-22"/><path data-cppathid="10162" d="M507.71,490.57l-13.66,19.2c-21.37-15.21-44.45-27.34-68.59-36.06-26.04-9.41-46.75-12.46-66.78-15.42-2.63-.39-5.25-.77-7.86-1.17-44.13-6.71-89.89-17.24-136.01-31.3l6.87-22.54c45.04,13.73,89.68,24,132.69,30.54,2.57.39,5.16.77,7.75,1.16,21.18,3.12,43.09,6.35,71.35,16.57,26.15,9.45,51.13,22.58,74.25,39.02Z" class="cls-23"/></g><g><path data-cppathid="10163" d="M247.18,394.08c1.85-10.45,3.69-20.91,5.54-31.36,34.84,10.95,60.16,15.19,77.28,16.98,4.01.42,11.01,1.15,23.79,2.45,21.04,2.14,32.62,3.32,48.86,5.86,26.59,4.16,53.19,10.06,79.06,17.53-1.11,5.01-2.22,10.03-3.33,15.04-43.35-11.31-69.26-13.66-85.12-13.6-4.5.02-20.29.28-41.86-1.39-11.25-.87-19.52-2-23.87-2.46-26.57-2.79-53.6-5.83-80.36-9.06Z" class="cls-16"/><path data-cppathid="10164" d="M249.91,386.3l2.82-23.4c26.64,3.21,53.55,6.24,80,9.01,9.24.97,17.02,1.76,23.79,2.45,21.04,2.14,32.62,3.32,48.86,5.86,26.59,4.16,53.19,10.06,79.06,17.53l-6.54,22.64c-24.92-7.2-50.55-12.88-76.17-16.89-15.61-2.44-26.98-3.6-47.6-5.69-6.8-.69-14.59-1.48-23.87-2.46-26.57-2.79-53.6-5.83-80.36-9.06Z" class="cls-10"/></g><g><path data-cppathid="10165" d="M327.87,496.24c1.64-11.43,3.29-22.86,4.93-34.29,80.31,8.64,116.27,9.58,132.34,7.9.44-.05,3.54-.35,7.8-.78,21.3-2.15,43.33-4.38,73.24-1.39,27.67,2.76,55.1,9.38,81.54,19.67l-8.55,21.96c-24.44-9.52-49.79-15.63-75.33-18.18-27.55-2.75-48.38-.65-68.53,1.39-2.65.27-5.28.53-7.9.79-44.43,4.29-91.38,5.28-139.54,2.93Z" class="cls-11"/><path data-cppathid="10166" d="M331.77,485.12l1.15-23.54c47.02,2.29,92.82,1.33,136.13-2.85,2.59-.25,5.19-.51,7.8-.78,21.3-2.15,43.33-4.38,73.24-1.39,27.67,2.76,55.1,9.38,81.54,19.67l-8.55,21.96c-24.44-9.52-49.79-15.63-75.33-18.18-27.55-2.75-48.38-.65-68.53,1.39-2.65.27-5.28.53-7.9.79-44.43,4.29-91.38,5.28-139.54,2.93Z" class="cls-21"/></g><g><path data-cppathid="10167" d="M194.56,729.98c1.69-11.78,3.39-23.55,5.08-35.33,82.75,8.9,119.81,9.87,136.38,8.14.45-.05,3.65-.36,8.04-.8,21.95-2.22,44.66-4.52,75.47-1.44,28.51,2.85,56.78,9.67,84.02,20.27l-8.81,22.63c-25.19-9.81-51.31-16.11-77.63-18.74-28.39-2.84-49.86-.67-70.62,1.43-2.73.28-5.44.55-8.15.81-45.79,4.42-94.17,5.44-143.79,3.02Z" class="cls-11"/><path data-cppathid="10168" d="M198.58,718.53l1.18-24.25c48.46,2.36,95.65,1.37,140.28-2.94,2.67-.26,5.35-.53,8.04-.8,21.95-2.22,44.66-4.52,75.47-1.44,28.51,2.85,56.78,9.67,84.02,20.27l-8.81,22.63c-25.19-9.81-51.31-16.11-77.63-18.74-28.39-2.84-49.86-.67-70.62,1.43-2.73.28-5.44.55-8.15.81-45.79,4.42-94.17,5.44-143.79,3.02Z" class="cls-21"/></g><path data-cppathid="10169" d="M200.8,715.46l-23.13,4.52c-5.03-25.74-13.42-50.43-24.93-73.38-11.51-22.96-25.73-44.1-42.25-62.85l17.68-15.58c17.87,20.27,33.22,43.11,45.64,67.87,12.46,24.86,21.54,51.58,26.99,79.42Z" class="cls-6"/><path data-cppathid="10170" d="M317.47,268.39l6.97,22.51c-25.05,7.76-48.7,18.74-70.29,32.63-21.59,13.9-41.1,30.3-57.97,48.74l-17.38-15.91c18.24-19.93,39.31-37.65,62.6-52.64,23.38-15.05,48.98-26.94,76.07-35.33Z" class="cls-6"/><path data-cppathid="10171" d="M1300.36,90.89l-8.55,21.96c-24.44-9.51-49.79-15.63-75.33-18.18-25.55-2.55-51.02-1.85-75.71,2.09l-3.71-23.27c26.69-4.26,54.19-5.02,81.76-2.26,27.67,2.76,55.1,9.38,81.54,19.67Z" class="cls-6"/><path data-cppathid="10172" d="M1689.61,128.03l-8.55,21.96c-24.44-9.51-49.79-15.63-75.33-18.18-25.55-2.55-51.02-1.85-75.71,2.09l-3.71-23.27c26.69-4.26,54.19-5.02,81.76-2.26,27.67,2.76,55.1,9.38,81.54,19.67Z" class="cls-6"/><path data-cppathid="10173" d="M1884.24,212.72l-8.55,21.96c-24.44-9.51-49.79-15.63-75.33-18.18-25.55-2.55-51.02-1.85-75.71,2.09l-3.71-23.27c26.69-4.26,54.19-5.02,81.76-2.26,27.67,2.76,55.1,9.38,81.54,19.67Z" class="cls-6"/><path data-cppathid="10174" d="M2121.36,697.69l-22.04-8.33c9.28-24.53,15.15-49.94,17.46-75.5,2.31-25.58,1.36-51.04-2.82-75.68l23.23-3.94c4.51,26.64,5.54,54.14,3.05,81.74-2.5,27.7-8.85,55.19-18.88,81.72Z" class="cls-6"/><path data-cppathid="10175" d="M1921.2,365.38l10.7-20.99c23.37,11.91,47.97,20.53,73.14,25.63,25.17,5.1,50.58,6.94,75.54,5.5l1.36,23.52c-26.98,1.57-54.42-.43-81.58-5.93-27.26-5.52-53.89-14.85-79.16-27.73Z" class="cls-6"/><path data-cppathid="10176" d="M705.12,954.7l-15.1,19.02c-21.17-16.81-44.26-30.55-68.63-40.84-24.38-10.29-49.67-17.36-75.17-21l3.43-24.04c27.57,3.94,54.88,11.56,81.18,22.67,26.4,11.15,51.39,26.02,74.28,44.19Z" class="cls-6"/><g><path data-cppathid="10177" d="M909.12,714c-22.17-21.03-46.81-38.8-73.23-52.81-28.51-15.12-51.81-22-74.34-28.65-2.92-.86-5.83-1.72-8.73-2.59-48.91-14.69-99.07-33.96-149.08-57.3l7.57-16.23c49.23,22.97,98.57,41.93,146.66,56.37,2.87.86,5.76,1.71,8.65,2.57,17.37,5.13,35.19,10.39,55.54,19.3,9.29,4.07,15.95,7.49,22.12,10.7,16.65,8.67,43.85,24.11,79.09,49.78-4.75,6.28-9.5,12.57-14.25,18.85Z" class="cls-18"/><path data-cppathid="10178" d="M911.19,708.08c-22.17-21.03-46.81-38.8-73.23-52.81-28.51-15.12-51.81-22-74.34-28.65-2.92-.86-5.83-1.72-8.73-2.59-48.91-14.69-99.07-33.96-149.08-57.3l7.57-16.23c49.23,22.97,98.57,41.93,146.66,56.37,2.87.86,5.76,1.71,8.65,2.57,23.38,6.9,47.56,14.04,77.66,30,27.86,14.77,53.83,33.49,77.17,55.64l-12.33,13Z" class="cls-2"/></g><g><path data-cppathid="10179" d="M390.02,274.2l-12.56-19.94c28.28-17.81,57.81-30.82,87.76-38.68,10.65-2.79,19.47-4.46,27.26-5.93,14.96-2.83,25.78-4.87,40.21-13.21,12.46-7.19,18.28-13.6,25.66-21.7,5.43-5.97,11.58-12.73,21.04-20.46,24.24-19.81,54.81-33.1,90.86-39.51l4.12,23.2c-32.04,5.69-58.98,17.32-80.08,34.55-8.11,6.63-13.4,12.44-18.52,18.07-7.7,8.47-15.67,17.22-31.31,26.25-17.9,10.34-31.67,12.94-47.61,15.96-7.41,1.4-15.8,2.99-25.66,5.57-27.62,7.24-54.94,19.3-81.18,35.82Z" class="cls-10"/><path data-cppathid="10180" d="M386.67,268.4c-4.53-6.7-9.05-13.4-13.58-20.1,51.98-27.76,77.68-36.95,91.52-39.75,9.11-1.85,18.12-4.21,27.26-5.93,14.96-2.83,25.78-4.87,40.21-13.21,12.46-7.19,18.28-13.6,25.66-21.7,5.43-5.97,11.58-12.73,21.04-20.46,24.24-19.81,54.81-33.1,90.86-39.51l4.12,23.2c-32.04,5.69-58.98,17.32-80.08,34.55-8.11,6.63-13.4,12.44-18.52,18.07-7.7,8.47-15.67,17.22-31.31,26.25-17.9,10.34-31.67,12.94-47.61,15.96-8.6,1.63-17.08,3.83-25.66,5.57-14.32,2.91-38.9,11.64-83.91,37.06Z" class="cls-17"/></g><g><path data-cppathid="10181" d="M559.48,806.08l-12.94-20.55c29.14-18.35,59.57-31.76,90.44-39.86,10.98-2.88,20.07-4.6,28.09-6.11,15.42-2.92,26.56-5.02,41.43-13.61,12.84-7.41,18.84-14.01,26.44-22.37,5.59-6.15,11.93-13.12,21.68-21.08,24.98-20.41,56.49-34.11,93.63-40.71l4.25,23.91c-33.02,5.87-60.78,17.85-82.52,35.61-8.36,6.83-13.81,12.82-19.09,18.62-7.94,8.73-16.15,17.75-32.26,27.05-18.45,10.65-32.64,13.34-49.06,16.44-7.63,1.44-16.28,3.08-26.44,5.74-28.47,7.47-56.61,19.89-83.66,36.92Z" class="cls-10"/><path data-cppathid="10182" d="M556.03,800.1c-4.67-6.91-9.33-13.81-14-20.72,53.57-28.61,80.05-38.08,94.31-40.97,9.39-1.9,18.67-4.33,28.09-6.11,15.42-2.92,26.56-5.02,41.43-13.61,12.84-7.41,18.84-14.01,26.44-22.37,5.59-6.15,11.93-13.12,21.68-21.08,24.98-20.41,56.49-34.11,93.63-40.71l4.25,23.91c-33.02,5.87-60.78,17.85-82.52,35.61-8.36,6.83-13.81,12.82-19.09,18.62-7.94,8.73-16.15,17.75-32.26,27.05-18.45,10.65-32.64,13.34-49.06,16.44-8.86,1.68-17.6,3.94-26.44,5.74-14.76,3-40.09,12-86.47,38.19Z" class="cls-17"/></g><g><path data-cppathid="10183" d="M806.75,626.06l-12.56-19.94c28.28-17.81,57.81-30.82,87.76-38.68,10.65-2.79,19.47-4.46,27.26-5.93,14.96-2.83,25.78-4.87,40.21-13.21,12.46-7.19,18.28-13.6,25.66-21.7,5.43-5.97,11.58-12.73,21.04-20.46,24.24-19.81,54.81-33.1,90.86-39.51l4.12,23.2c-32.04,5.69-58.98,17.32-80.08,34.55-8.11,6.63-13.4,12.44-18.52,18.07-7.7,8.47-15.67,17.22-31.31,26.25-17.9,10.34-31.67,12.94-47.61,15.96-7.41,1.4-15.8,2.99-25.66,5.57-27.62,7.24-54.94,19.3-81.18,35.82Z" class="cls-10"/><path data-cppathid="10184" d="M803.41,620.26c-4.53-6.7-9.05-13.4-13.58-20.1,51.98-27.76,77.68-36.95,91.52-39.75,9.11-1.85,18.12-4.21,27.26-5.93,14.96-2.83,25.77-4.87,40.21-13.21,12.46-7.19,18.28-13.6,25.66-21.7,5.43-5.97,11.58-12.73,21.04-20.46,24.24-19.81,54.81-33.1,90.86-39.51l4.12,23.2c-32.04,5.69-58.98,17.32-80.08,34.55-8.11,6.63-13.4,12.44-18.52,18.07-7.7,8.47-15.67,17.22-31.31,26.25-17.9,10.34-31.67,12.94-47.61,15.96-8.6,1.63-17.08,3.83-25.66,5.57-14.32,2.91-38.9,11.64-83.91,37.06Z" class="cls-17"/></g><g><path data-cppathid="10185" d="M924.09,1052.97c-1.16-10-2.32-20-3.48-30,33.01-5.15,55.13-16.27,67.76-24.02,21.35-13.09,43.91-33.89,53.55-42.78,3.02-2.78,5.14-4.81,5.8-5.43,14.84-14.07,47.63-37.43,123-78.58-.2,3.59-.41,7.18-.61,10.76-38.72,26.79-74.49,55.4-106.32,85.06-1.91,1.78-3.81,3.56-5.72,5.36-15.6,14.67-31.73,29.83-57.29,45.65-23.64,14.63-49.45,26.07-76.69,33.98Z" class="cls-22"/><path data-cppathid="10186" d="M926.82,1045.19l-6.57-22.63c25.19-7.31,49.03-17.87,70.86-31.38,23.54-14.57,38.8-28.91,53.55-42.78,1.94-1.82,3.86-3.63,5.8-5.43,32.66-30.43,69.33-59.76,108.98-87.2l13.41,19.38c-38.72,26.79-74.49,55.4-106.32,85.06-1.91,1.78-3.81,3.56-5.72,5.36-15.6,14.67-31.73,29.83-57.29,45.65-23.65,14.63-49.45,26.07-76.69,33.98Z" class="cls-23"/></g><g><path data-cppathid="10187" d="M285.1,825.37c4.12-9.18,8.24-18.37,12.36-27.55,31,12.46,55.69,14.22,70.51,14.03,25.04-.32,55.06-6.66,67.9-9.36,4.01-.85,6.88-1.5,7.76-1.7,19.95-4.5,60.07-7.8,145.88-4.59-2.01,2.98-4.02,5.96-6.03,8.94-46.97,3.2-92.35,9.49-134.87,18.68-2.55.55-5.09,1.11-7.66,1.68-20.91,4.62-42.53,9.4-72.58,9.91-27.8.48-55.82-2.9-83.27-10.04Z" class="cls-22"/><path data-cppathid="10188" d="M291.42,820.08l5.93-22.81c25.39,6.6,51.27,9.73,76.94,9.29,27.68-.48,48.13-4.99,67.9-9.36,2.6-.57,5.18-1.14,7.76-1.7,43.63-9.43,90.14-15.88,138.25-19.16l1.6,23.51c-46.97,3.2-92.35,9.49-134.87,18.68-2.55.55-5.09,1.11-7.66,1.68-20.91,4.62-42.53,9.4-72.58,9.91-27.8.48-55.82-2.9-83.27-10.04Z" class="cls-23"/></g><g><path data-cppathid="10189" d="M699.61,892.23c4.12-9.18,8.24-18.37,12.36-27.55,31,12.46,55.69,14.22,70.51,14.03,25.04-.32,55.06-6.66,67.9-9.36,4.01-.85,6.88-1.5,7.76-1.7,19.95-4.5,60.07-7.8,145.88-4.59-2.01,2.98-4.02,5.96-6.03,8.94-46.97,3.2-92.35,9.49-134.87,18.68-2.55.55-5.09,1.11-7.66,1.68-20.91,4.62-42.53,9.4-72.58,9.91-27.8.48-55.82-2.9-83.27-10.04Z" class="cls-22"/><path data-cppathid="10190" d="M705.93,886.93l5.93-22.81c25.39,6.6,51.27,9.73,76.94,9.29,27.68-.48,48.13-4.99,67.9-9.36,2.6-.57,5.18-1.14,7.76-1.7,43.63-9.43,90.14-15.88,138.25-19.16l1.6,23.51c-46.97,3.2-92.35,9.49-134.87,18.68-2.55.55-5.09,1.11-7.66,1.68-20.91,4.62-42.53,9.4-72.58,9.91-27.8.48-55.82-2.9-83.27-10.04Z" class="cls-23"/></g><g><path data-cppathid="10191" d="M724.72,996.81c5.45-8.46,10.89-16.93,16.34-25.39,28.79,16.96,52.94,22.4,67.62,24.43,24.8,3.43,55.44,1.66,68.53.9,4.1-.24,7.02-.46,7.93-.52,20.4-1.46,60.56,1.28,144.93,17.29-2.43,2.64-4.87,5.29-7.3,7.93-46.92-3.86-92.73-4.44-136.15-1.71-2.6.16-5.2.34-7.82.52-21.36,1.44-43.46,2.93-73.25-1.06-27.56-3.69-54.76-11.22-80.83-22.39Z" class="cls-22"/><path data-cppathid="10192" d="M731.76,992.52l9.28-21.66c24.11,10.33,49.24,17.29,74.68,20.69,27.44,3.67,48.33,2.26,68.53.9,2.65-.18,5.29-.36,7.93-.52,44.55-2.8,91.5-2.21,139.56,1.74l-1.93,23.49c-46.92-3.86-92.73-4.44-136.15-1.71-2.6.16-5.2.34-7.82.52-21.36,1.44-43.46,2.93-73.25-1.06-27.56-3.69-54.76-11.22-80.83-22.39Z" class="cls-23"/></g><g><path data-cppathid="10193" d="M1828.68,667.36c.39,10.06.78,20.12,1.17,30.17-33.31,2.61-56.22,11.99-69.41,18.75-22.29,11.41-46.38,30.42-56.67,38.55-3.22,2.54-5.49,4.4-6.2,4.97-15.87,12.89-50.36,33.67-128.66,68.91.48-3.56.96-7.12,1.43-10.69,40.66-23.73,78.53-49.52,112.54-76.65,2.04-1.62,4.07-3.26,6.11-4.91,16.68-13.43,33.93-27.31,60.62-41.12,24.7-12.78,51.3-22.19,79.07-27.99Z" class="cls-22"/><path data-cppathid="10194" d="M1825.36,674.91l4.82,23.07c-25.68,5.36-50.26,14.06-73.06,25.85-24.59,12.72-40.9,25.85-56.67,38.55-2.07,1.67-4.13,3.33-6.2,4.97-34.9,27.83-73.71,54.27-115.35,78.57l-11.88-20.35c40.66-23.73,78.53-49.52,112.54-76.65,2.04-1.62,4.07-3.26,6.11-4.91,16.68-13.43,33.93-27.31,60.62-41.12,24.7-12.78,51.3-22.19,79.07-27.99Z" class="cls-23"/></g><g><path data-cppathid="10195" d="M1088.81,1088.27c-9.68-2.76-19.36-5.52-29.04-8.29,7.89-32.46,6.11-57.16,3.8-71.79-3.9-24.73-14.47-53.54-18.98-65.86-1.41-3.85-2.47-6.59-2.8-7.44-7.31-19.1-16.32-58.34-25.42-143.72,3.24,1.56,6.47,3.13,9.71,4.69,9.89,46.03,22.61,90.04,37.8,130.81.91,2.44,1.83,4.88,2.76,7.34,7.57,20.03,15.39,40.74,20.2,70.41,4.45,27.45,5.12,55.66,1.98,83.85Z" class="cls-22"/><path data-cppathid="10196" d="M1082.67,1082.77l-23.42-2.61c2.9-26.07,2.29-52.14-1.82-77.47-4.43-27.33-11.83-46.92-18.98-65.86-.94-2.49-1.87-4.96-2.8-7.44-15.58-41.83-28.62-86.94-38.75-134.08l23.04-4.95c9.89,46.03,22.61,90.04,37.8,130.81.91,2.44,1.83,4.88,2.76,7.34,7.57,20.03,15.39,40.74,20.2,70.41,4.45,27.45,5.12,55.66,1.98,83.85Z" class="cls-23"/></g><g><path data-cppathid="10197" d="M1189.82,270.68c.39,10.06.78,20.12,1.17,30.17-33.31,2.61-56.22,11.99-69.41,18.75-22.29,11.41-46.38,30.42-56.67,38.55-3.22,2.54-5.49,4.4-6.2,4.97-15.87,12.89-50.36,33.67-128.66,68.91.48-3.56.96-7.12,1.43-10.69,40.66-23.73,78.53-49.52,112.54-76.65,2.04-1.62,4.07-3.26,6.11-4.91,16.68-13.43,33.93-27.31,60.62-41.12,24.7-12.78,51.3-22.19,79.07-27.99Z" class="cls-22"/><path data-cppathid="10198" d="M1186.51,278.23l4.82,23.07c-25.68,5.36-50.26,14.06-73.06,25.85-24.59,12.72-40.9,25.85-56.67,38.55-2.07,1.67-4.13,3.33-6.2,4.97-34.9,27.83-73.71,54.27-115.35,78.57l-11.88-20.35c40.66-23.73,78.53-49.52,112.54-76.65,2.04-1.62,4.07-3.26,6.11-4.91,16.68-13.43,33.93-27.31,60.62-41.12,24.7-12.78,51.3-22.19,79.07-27.99Z" class="cls-23"/></g><g><path data-cppathid="10199" d="M718.86,576.73c.39,10.06.78,20.12,1.17,30.17-33.31,2.61-56.22,11.99-69.41,18.75-22.29,11.41-46.38,30.42-56.67,38.55-3.22,2.54-5.49,4.4-6.2,4.97-15.87,12.89-50.36,33.67-128.66,68.91.48-3.56.96-7.12,1.43-10.69,40.66-23.73,78.53-49.52,112.54-76.65,2.04-1.62,4.07-3.26,6.11-4.91,16.68-13.43,33.93-27.31,60.62-41.12,24.7-12.78,51.3-22.19,79.07-27.99Z" class="cls-22"/><path data-cppathid="10200" d="M715.54,584.28l4.82,23.07c-25.68,5.36-50.26,14.06-73.06,25.85-24.59,12.72-40.9,25.85-56.67,38.55-2.07,1.67-4.13,3.33-6.2,4.97-34.9,27.83-73.71,54.27-115.35,78.57l-11.88-20.35c40.66-23.73,78.53-49.52,112.54-76.65,2.04-1.62,4.07-3.26,6.11-4.91,16.68-13.43,33.93-27.31,60.62-41.12,24.7-12.78,51.3-22.19,79.07-27.99Z" class="cls-23"/></g><g><path data-cppathid="10201" d="M1617.71,557.42c.39,10.06.78,20.12,1.17,30.17-33.31,2.61-56.22,11.99-69.41,18.75-22.29,11.41-46.38,30.42-56.67,38.55-3.22,2.54-5.49,4.4-6.2,4.97-15.87,12.89-50.36,33.67-128.66,68.91.48-3.56.96-7.12,1.43-10.69,40.66-23.73,78.53-49.52,112.54-76.65,2.04-1.62,4.07-3.26,6.11-4.91,16.68-13.43,33.93-27.31,60.62-41.12,24.7-12.78,51.3-22.19,79.07-27.99Z" class="cls-22"/><path data-cppathid="10202" d="M1614.39,564.97l4.82,23.07c-25.68,5.36-50.26,14.06-73.06,25.85-24.59,12.72-40.9,25.85-56.67,38.55-2.07,1.67-4.13,3.33-6.2,4.97-34.9,27.83-73.71,54.27-115.35,78.57l-11.88-20.35c40.66-23.73,78.53-49.52,112.54-76.65,2.04-1.62,4.07-3.26,6.11-4.91,16.68-13.43,33.93-27.31,60.62-41.12,24.7-12.78,51.3-22.19,79.07-27.99Z" class="cls-23"/></g><g><path data-cppathid="10203" d="M854.06,318.22c.39,10.06.78,20.12,1.17,30.17-33.31,2.61-56.22,11.99-69.41,18.75-22.29,11.41-46.38,30.42-56.67,38.55-3.22,2.54-5.49,4.4-6.2,4.97-15.87,12.89-50.36,33.67-128.66,68.91.48-3.56.96-7.12,1.43-10.69,40.66-23.73,78.53-49.52,112.54-76.65,2.04-1.62,4.07-3.26,6.11-4.91,16.68-13.43,33.93-27.31,60.62-41.12,24.7-12.78,51.3-22.19,79.07-27.99Z" class="cls-22"/><path data-cppathid="10204" d="M850.74,325.77l4.82,23.07c-25.68,5.36-50.26,14.06-73.06,25.85-24.59,12.72-40.9,25.85-56.67,38.55-2.07,1.67-4.13,3.33-6.2,4.97-34.9,27.83-73.71,54.27-115.35,78.57l-11.88-20.35c40.66-23.73,78.53-49.52,112.54-76.65,2.04-1.62,4.07-3.26,6.11-4.91,16.68-13.43,33.93-27.31,60.62-41.12,24.7-12.78,51.3-22.19,79.07-27.99Z" class="cls-23"/></g><g><path data-cppathid="10205" d="M492.67,574.68c-7.7,6.48-15.41,12.96-23.11,19.44-22.5-24.7-43.97-37.03-57.39-43.3-22.69-10.6-52.48-17.95-65.21-21.1-3.98-.98-6.85-1.64-7.73-1.84-19.92-4.62-57.49-19.1-133.36-59.31,3.11-1.81,6.21-3.62,9.32-5.42,43.69,17.54,87.29,31.61,129.58,41.83,2.53.61,5.07,1.21,7.62,1.82,20.84,4.93,42.38,10.03,69.67,22.63,25.24,11.66,49,26.89,70.62,45.26Z" class="cls-22"/><path data-cppathid="10206" d="M484.67,576.7l-15.26,17.96c-19.99-16.98-41.94-31.05-65.24-41.82-25.13-11.61-45.51-16.43-65.21-21.1-2.59-.61-5.16-1.22-7.73-1.84-43.39-10.48-88.08-24.9-132.82-42.86l8.78-21.87c43.69,17.54,87.29,31.61,129.58,41.83,2.53.61,5.07,1.21,7.62,1.82,20.84,4.93,42.38,10.03,69.67,22.63,25.24,11.66,49,26.89,70.62,45.26Z" class="cls-23"/></g><g><path data-cppathid="10207" d="M509.01,813.88c-7.7,6.48-15.41,12.96-23.11,19.44-22.5-24.7-43.97-37.03-57.39-43.3-22.69-10.6-52.48-17.95-65.21-21.1-3.98-.98-6.85-1.64-7.73-1.84-19.92-4.62-57.49-19.1-133.36-59.31,3.11-1.81,6.21-3.62,9.32-5.42,43.69,17.54,87.29,31.61,129.58,41.83,2.53.61,5.07,1.21,7.62,1.82,20.84,4.93,42.38,10.03,69.67,22.63,25.24,11.66,49,26.89,70.62,45.26Z" class="cls-22"/><path data-cppathid="10208" d="M501.02,815.89l-15.26,17.96c-19.99-16.98-41.94-31.05-65.24-41.82-25.13-11.61-45.51-16.43-65.21-21.1-2.59-.61-5.16-1.22-7.73-1.84-43.39-10.48-88.08-24.9-132.82-42.86l8.78-21.87c43.69,17.54,87.29,31.61,129.58,41.83,2.53.61,5.07,1.21,7.62,1.82,20.84,4.93,42.38,10.03,69.67,22.63,25.24,11.66,49,26.89,70.62,45.26Z" class="cls-23"/></g><g><path data-cppathid="10209" d="M704.82,836.8c-3.65,9.38-7.3,18.76-10.95,28.14-31.59-10.87-56.34-11.39-71.13-10.45-24.99,1.59-54.66,9.43-67.34,12.79-3.97,1.05-6.79,1.85-7.66,2.09-19.69,5.5-59.6,10.83-145.46,11.97,1.86-3.08,3.71-6.15,5.57-9.23,46.75-5.58,91.75-14.15,133.75-25.49,2.51-.68,5.03-1.37,7.56-2.07,20.65-5.67,42-11.54,71.98-13.58,27.74-1.88,55.9.07,83.68,5.81Z" class="cls-22"/><path data-cppathid="10210" d="M698.77,842.41l-4.77,23.08c-25.69-5.31-51.7-7.12-77.31-5.38-27.62,1.88-47.81,7.42-67.34,12.79-2.57.7-5.11,1.41-7.66,2.09-43.1,11.63-89.22,20.42-137.1,26.14l-2.79-23.4c46.75-5.58,91.75-14.15,133.75-25.49,2.51-.68,5.03-1.37,7.56-2.07,20.65-5.67,42-11.54,71.98-13.58,27.74-1.88,55.9.07,83.68,5.81Z" class="cls-23"/></g><g><path data-cppathid="10211" d="M1131.22,838.29c-3.65,9.38-7.3,18.76-10.95,28.14-31.59-10.87-56.34-11.39-71.13-10.45-24.99,1.59-54.66,9.43-67.34,12.79-3.97,1.05-6.79,1.85-7.66,2.09-19.69,5.5-59.6,10.83-145.46,11.97,1.86-3.08,3.71-6.15,5.57-9.23,46.75-5.58,91.75-14.15,133.75-25.49,2.51-.68,5.03-1.37,7.56-2.07,20.65-5.67,42-11.54,71.98-13.58,27.74-1.88,55.9.07,83.68,5.81Z" class="cls-22"/><path data-cppathid="10212" d="M1125.17,843.89l-4.77,23.08c-25.69-5.31-51.7-7.12-77.31-5.38-27.62,1.88-47.81,7.42-67.34,12.79-2.57.7-5.11,1.41-7.66,2.09-43.1,11.63-89.22,20.42-137.1,26.14l-2.79-23.4c46.75-5.58,91.75-14.15,133.75-25.49,2.51-.68,5.03-1.37,7.56-2.07,20.65-5.67,42-11.54,71.98-13.58,27.74-1.88,55.9.07,83.68,5.81Z" class="cls-23"/></g><g><path data-cppathid="10213" d="M1726.35,845.93c-7.12,7.12-14.24,14.23-21.36,21.35-24.53-22.68-46.98-33.12-60.9-38.21-23.51-8.61-53.83-13.38-66.78-15.42-4.05-.64-6.96-1.04-7.86-1.17-20.24-2.9-58.91-14.1-137.96-47.64,2.94-2.07,5.88-4.14,8.82-6.2,45.04,13.73,89.68,24,132.69,30.54,2.57.39,5.16.77,7.75,1.15,21.18,3.12,43.09,6.35,71.35,16.57,26.15,9.45,51.13,22.58,74.25,39.02Z" class="cls-22"/><path data-cppathid="10214" d="M1718.56,848.62l-13.66,19.2c-21.37-15.21-44.45-27.34-68.59-36.06-26.04-9.41-46.75-12.46-66.78-15.42-2.63-.39-5.25-.77-7.86-1.17-44.13-6.71-89.89-17.24-136.01-31.3l6.87-22.54c45.04,13.73,89.68,24,132.69,30.54,2.57.39,5.16.77,7.75,1.15,21.18,3.12,43.09,6.35,71.35,16.57,26.15,9.45,51.13,22.58,74.25,39.02Z" class="cls-23"/></g><g><path data-cppathid="10215" d="M782.04,810.08c1.85-10.45,3.69-20.91,5.54-31.36,34.84,10.95,60.16,15.19,77.28,16.98,4.01.42,11.01,1.15,23.79,2.45,21.04,2.14,32.62,3.32,48.86,5.86,26.59,4.16,53.2,10.06,79.06,17.53-1.11,5.01-2.22,10.03-3.33,15.04-43.35-11.31-69.26-13.66-85.12-13.6-4.5.02-20.29.28-41.86-1.39-11.25-.87-19.52-2-23.86-2.46-26.57-2.79-53.6-5.83-80.36-9.06Z" class="cls-16"/><path data-cppathid="10216" d="M784.76,802.29l2.82-23.4c26.64,3.21,53.55,6.24,80,9.01,9.24.97,17.02,1.76,23.79,2.45,21.04,2.14,32.62,3.32,48.86,5.86,26.59,4.16,53.19,10.06,79.07,17.53l-6.54,22.64c-24.92-7.2-50.55-12.88-76.17-16.89-15.61-2.44-26.98-3.6-47.6-5.69-6.8-.69-14.59-1.48-23.86-2.46-26.57-2.79-53.6-5.83-80.36-9.06Z" class="cls-10"/></g><g><path data-cppathid="10217" d="M723.07,941.95c1.64-11.43,3.29-22.86,4.93-34.29,80.31,8.64,116.27,9.58,132.34,7.9.44-.05,3.54-.35,7.8-.78,21.3-2.15,43.33-4.38,73.24-1.39,27.67,2.76,55.1,9.38,81.54,19.67l-8.55,21.96c-24.44-9.52-49.79-15.63-75.33-18.18-27.55-2.75-48.38-.65-68.53,1.39-2.65.27-5.28.53-7.9.79-44.43,4.29-91.38,5.28-139.54,2.93Z" class="cls-11"/><path data-cppathid="10218" d="M726.96,930.83l1.15-23.54c47.02,2.29,92.82,1.33,136.13-2.85,2.59-.25,5.19-.51,7.8-.78,21.3-2.15,43.33-4.38,73.24-1.39,27.67,2.76,55.1,9.38,81.54,19.67l-8.55,21.96c-24.44-9.52-49.79-15.63-75.33-18.18-27.55-2.75-48.38-.65-68.53,1.39-2.65.27-5.28.53-7.9.79-44.43,4.29-91.38,5.28-139.54,2.93Z" class="cls-21"/></g><g><path data-cppathid="10219" d="M496.16,856.27c1.69-11.78,3.39-23.55,5.08-35.33,82.75,8.9,119.81,9.87,136.38,8.14.45-.05,3.65-.36,8.04-.8,21.95-2.22,44.66-4.52,75.47-1.44,28.51,2.85,56.78,9.67,84.02,20.27l-8.81,22.63c-25.19-9.81-51.31-16.11-77.63-18.74-28.39-2.84-49.86-.67-70.62,1.43-2.73.28-5.44.55-8.15.81-45.79,4.42-94.17,5.44-143.79,3.02Z" class="cls-11"/><path data-cppathid="10220" d="M500.17,844.81l1.18-24.25c48.46,2.36,95.65,1.37,140.28-2.94,2.67-.26,5.35-.53,8.04-.8,21.95-2.22,44.66-4.52,75.47-1.44,28.51,2.85,56.78,9.67,84.02,20.27l-8.81,22.63c-25.19-9.81-51.31-16.11-77.63-18.74-28.39-2.84-49.86-.67-70.62,1.43-2.73.28-5.44.55-8.15.81-45.79,4.42-94.17,5.44-143.79,3.02Z" class="cls-21"/></g><path data-cppathid="10221" d="M727.48,346.51l-22.99-5.19c5.78-25.59,8.06-51.56,6.79-77.2-1.27-25.65-5.75-50.73-13.31-74.56l22.46-7.13c8.17,25.76,13.02,52.85,14.39,80.52,1.38,27.77-1.09,55.89-7.34,83.56Z" class="cls-6"/><path data-cppathid="10222" d="M1106.08,235.68l-16.78,16.55c-18.42-18.67-39.05-34.62-61.32-47.39-22.28-12.77-45.81-22.55-69.95-29.04l6.13-22.75c26.09,7.02,51.51,17.58,75.54,31.36,24.12,13.83,46.45,31.09,66.37,51.28Z" class="cls-6"/><path data-cppathid="10223" d="M999.76,544.51l-21.49,11.31c-12.59-23.92-28.18-45.8-46.33-65.05-18.16-19.25-38.45-35.92-60.31-49.53l12.84-20.61c23.64,14.72,45.56,32.72,65.14,53.49,19.66,20.85,36.53,44.53,50.15,70.4Z" class="cls-6"/><g><path data-cppathid="10224" d="M836.17,482.12c-11.8-28.18-27.18-54.38-45.71-77.86-19.99-25.33-38.54-41.03-56.47-56.2-2.33-1.97-4.64-3.93-6.94-5.89-38.84-33.17-76.96-71.04-113.31-112.56l13.48-11.8c35.78,40.87,73.28,78.13,111.46,110.74,2.28,1.95,4.58,3.89,6.88,5.84,13.83,11.7,28.01,23.7,43.04,40.07,6.86,7.47,11.58,13.29,15.92,18.71,11.74,14.65,30.4,39.75,52.29,77.45-6.88,3.84-13.76,7.67-20.64,11.51Z" class="cls-18"/><path data-cppathid="10225" d="M840.45,477.55c-11.8-28.18-27.18-54.38-45.71-77.86-20-25.33-38.54-41.03-56.47-56.2-2.33-1.97-4.64-3.93-6.94-5.89-38.84-33.17-76.96-71.04-113.31-112.56l13.48-11.8c35.78,40.87,73.28,78.13,111.46,110.74,2.28,1.95,4.58,3.89,6.88,5.84,18.61,15.75,37.85,32.03,58.96,58.78,19.54,24.76,35.75,52.36,48.18,82.04l-16.52,6.92Z" class="cls-2"/></g><g><path data-cppathid="10226" d="M771.17,167.68l-3.45-23.31c33.06-4.89,65.33-4.89,95.91,0,10.87,1.74,19.62,3.77,27.34,5.56,14.83,3.45,25.55,5.94,42.12,4.13,14.3-1.56,22.21-5.07,32.23-9.51,7.37-3.27,15.73-6.98,27.51-10.23,30.17-8.35,63.51-8.18,99.08.5l-5.58,22.89c-31.62-7.71-60.96-7.94-87.21-.68-10.1,2.79-17.28,5.98-24.24,9.06-10.47,4.64-21.29,9.44-39.23,11.4-20.55,2.24-34.2-.93-50-4.6-7.34-1.71-15.66-3.64-25.73-5.25-28.2-4.51-58.05-4.5-88.73.04Z" class="cls-10"/><path data-cppathid="10227" d="M770.45,161.02c-1.44-7.96-2.88-15.92-4.32-23.87,58.76-4.44,85.98-2.48,99.78.54,9.08,1.99,18.28,3.46,27.34,5.56,14.83,3.45,25.55,5.94,42.12,4.13,14.3-1.56,22.21-5.07,32.23-9.51,7.37-3.27,15.73-6.98,27.51-10.23,30.17-8.35,63.51-8.18,99.08.5l-5.58,22.89c-31.62-7.71-60.96-7.94-87.21-.68-10.1,2.79-17.28,5.98-24.24,9.06-10.47,4.64-21.29,9.44-39.23,11.4-20.55,2.24-34.2-.93-50-4.6-8.53-1.98-17.18-3.39-25.73-5.25-14.28-3.11-40.29-5.04-91.73.07Z" class="cls-17"/></g><g><path data-cppathid="10228" d="M895.39,409.15l-3.55-24.02c34.07-5.04,67.32-5.04,98.83,0,11.2,1.79,20.22,3.89,28.17,5.73,15.29,3.55,26.33,6.12,43.4,4.26,14.74-1.61,22.89-5.22,33.22-9.8,7.6-3.37,16.21-7.19,28.34-10.55,31.09-8.6,65.45-8.43,102.1.51l-5.76,23.59c-32.58-7.95-62.82-8.18-89.87-.7-10.4,2.88-17.81,6.16-24.98,9.34-10.78,4.78-21.94,9.73-40.43,11.74-21.18,2.31-35.24-.96-51.53-4.74-7.57-1.76-16.14-3.75-26.51-5.41-29.06-4.65-59.82-4.64-91.44.04Z" class="cls-10"/><path data-cppathid="10229" d="M894.65,402.29c-1.48-8.2-2.97-16.4-4.45-24.6,60.55-4.58,88.6-2.56,102.82.55,9.36,2.05,18.84,3.57,28.17,5.73,15.29,3.55,26.33,6.12,43.4,4.26,14.74-1.61,22.89-5.22,33.22-9.8,7.6-3.37,16.21-7.19,28.34-10.55,31.09-8.6,65.45-8.43,102.1.51l-5.76,23.59c-32.58-7.95-62.82-8.18-89.87-.7-10.4,2.88-17.81,6.16-24.98,9.34-10.78,4.78-21.94,9.73-40.43,11.74-21.18,2.31-35.24-.96-51.53-4.74-8.79-2.04-17.7-3.49-26.51-5.41-14.72-3.21-41.52-5.19-94.53.07Z" class="cls-17"/></g><g><path data-cppathid="10230" d="M624.17,385.13l-3.45-23.31c33.06-4.89,65.33-4.89,95.91,0,10.87,1.74,19.62,3.77,27.34,5.56,14.83,3.45,25.55,5.94,42.12,4.13,14.3-1.56,22.21-5.07,32.23-9.51,7.37-3.27,15.73-6.98,27.51-10.23,30.17-8.35,63.51-8.18,99.08.5l-5.58,22.89c-31.62-7.71-60.96-7.94-87.21-.68-10.1,2.79-17.28,5.98-24.24,9.06-10.47,4.64-21.29,9.44-39.23,11.4-20.55,2.24-34.2-.93-50-4.6-7.34-1.71-15.66-3.64-25.73-5.25-28.2-4.51-58.05-4.5-88.73.04Z" class="cls-10"/><path data-cppathid="10231" d="M623.45,378.47c-1.44-7.96-2.88-15.92-4.32-23.87,58.76-4.44,85.98-2.48,99.78.54,9.08,1.99,18.28,3.46,27.34,5.56,14.83,3.45,25.55,5.94,42.12,4.13,14.3-1.56,22.21-5.07,32.23-9.51,7.37-3.27,15.73-6.98,27.51-10.23,30.17-8.35,63.51-8.18,99.08.5l-5.58,22.89c-31.62-7.71-60.96-7.94-87.21-.68-10.1,2.79-17.28,5.98-24.24,9.06-10.47,4.64-21.29,9.44-39.23,11.4-20.55,2.24-34.2-.93-50-4.6-8.53-1.98-17.18-3.39-25.73-5.25-14.28-3.11-40.29-5.04-91.73.07Z" class="cls-17"/></g><g><path data-cppathid="10232" d="M928.22,295.65c2.97-9.62,5.94-19.23,8.92-28.85,32.28,8.6,57.01,7.35,71.69,5.35,24.81-3.36,53.85-13.3,66.26-17.55,3.88-1.33,6.64-2.33,7.5-2.63,19.25-6.89,58.68-15.05,144.24-22.3-1.63,3.2-3.27,6.4-4.9,9.6-46.24,8.89-90.51,20.65-131.6,34.95-2.46.86-4.92,1.72-7.39,2.6-20.19,7.13-41.07,14.5-70.83,18.67-27.54,3.85-55.76,3.91-83.88.16Z" class="cls-22"/><path data-cppathid="10233" d="M933.86,289.63l3.11-23.36c26,3.47,52.07,3.42,77.5-.14,27.42-3.84,47.16-10.81,66.26-17.55,2.51-.89,5-1.77,7.5-2.63,42.16-14.67,87.54-26.73,134.89-35.83l4.45,23.14c-46.24,8.89-90.51,20.65-131.6,34.95-2.46.86-4.92,1.72-7.39,2.6-20.19,7.13-41.07,14.5-70.83,18.67-27.54,3.85-55.76,3.91-83.88.16Z" class="cls-23"/></g><g><path data-cppathid="10234" d="M2159.4,504.77c-9.78,2.37-19.57,4.73-29.35,7.1-9.13-32.14-22.86-52.74-32.08-64.34-15.59-19.6-38.98-39.46-48.98-47.95-3.13-2.66-5.4-4.52-6.1-5.09-15.77-13.02-42.95-42.72-92.95-112.53,3.59-.23,7.17-.47,10.76-.7,31.3,35.18,64.05,67.2,97.36,95.19,1.99,1.68,4,3.34,6.02,5.02,16.46,13.7,33.47,27.87,52.28,51.31,17.4,21.69,31.89,45.91,43.05,71.99Z" class="cls-22"/><path data-cppathid="10235" d="M2151.34,503.01l-21.66,9.27c-10.32-24.11-23.7-46.49-39.77-66.51-17.33-21.6-33.42-34.99-48.98-47.95-2.04-1.7-4.08-3.39-6.1-5.09-34.17-28.72-67.75-61.54-99.8-97.57l17.61-15.66c31.3,35.18,64.05,67.2,97.36,95.19,1.99,1.68,4,3.34,6.02,5.02,16.46,13.7,33.47,27.87,52.28,51.31,17.4,21.69,31.89,45.91,43.05,71.99Z" class="cls-23"/></g><g><path data-cppathid="10236" d="M1279.87,264.09c-9.78,2.37-19.57,4.73-29.35,7.1-9.13-32.14-22.86-52.74-32.08-64.34-15.59-19.6-38.98-39.46-48.98-47.95-3.13-2.66-5.4-4.52-6.1-5.09-15.77-13.02-42.95-42.72-92.95-112.53,3.59-.23,7.17-.47,10.76-.7,31.3,35.18,64.05,67.2,97.36,95.19,1.99,1.68,4,3.34,6.02,5.02,16.46,13.7,33.47,27.87,52.28,51.31,17.4,21.69,31.89,45.91,43.05,71.99Z" class="cls-22"/><path data-cppathid="10237" d="M1271.81,262.33l-21.66,9.27c-10.32-24.11-23.7-46.49-39.77-66.51-17.33-21.6-33.42-34.99-48.98-47.95-2.04-1.7-4.08-3.39-6.1-5.09-34.17-28.72-67.75-61.54-99.8-97.57l17.61-15.66c31.3,35.18,64.05,67.2,97.36,95.19,1.99,1.68,4,3.34,6.02,5.02,16.46,13.7,33.47,27.87,52.28,51.31,17.4,21.69,31.89,45.91,43.05,71.99Z" class="cls-23"/></g><g><path data-cppathid="10238" d="M1381.36,612.1c2.97-9.62,5.94-19.23,8.92-28.85,32.28,8.6,57.01,7.35,71.69,5.35,24.81-3.36,53.85-13.3,66.26-17.55,3.88-1.33,6.64-2.33,7.5-2.63,19.25-6.89,58.68-15.05,144.24-22.3-1.63,3.2-3.27,6.4-4.9,9.6-46.24,8.89-90.51,20.65-131.6,34.95-2.46.86-4.92,1.72-7.39,2.6-20.19,7.13-41.07,14.5-70.83,18.67-27.54,3.85-55.76,3.91-83.88.16Z" class="cls-22"/><path data-cppathid="10239" d="M1387,606.08l3.11-23.36c26,3.47,52.07,3.42,77.5-.14,27.42-3.84,47.16-10.81,66.26-17.55,2.51-.89,5-1.77,7.5-2.63,42.16-14.67,87.54-26.73,134.89-35.83l4.45,23.14c-46.24,8.89-90.51,20.65-131.6,34.95-2.46.86-4.92,1.72-7.39,2.6-20.19,7.13-41.07,14.5-70.83,18.67-27.54,3.85-55.76,3.91-83.88.16Z" class="cls-23"/></g><g><path data-cppathid="10240" d="M1090.16,487.3c2.97-9.62,5.94-19.23,8.92-28.85,32.28,8.6,57.01,7.35,71.69,5.35,24.81-3.36,53.85-13.3,66.26-17.55,3.88-1.33,6.64-2.33,7.5-2.63,19.25-6.89,58.68-15.05,144.24-22.3-1.63,3.2-3.27,6.4-4.9,9.6-46.24,8.89-90.51,20.65-131.6,34.95-2.46.86-4.92,1.72-7.39,2.6-20.19,7.13-41.07,14.5-70.83,18.67-27.54,3.85-55.76,3.91-83.88.16Z" class="cls-22"/><path data-cppathid="10241" d="M1095.8,481.28l3.11-23.36c26,3.47,52.07,3.42,77.5-.14,27.42-3.84,47.16-10.81,66.26-17.55,2.51-.89,5-1.77,7.5-2.63,42.16-14.67,87.54-26.73,134.89-35.83l4.45,23.14c-46.24,8.89-90.51,20.65-131.6,34.95-2.46.86-4.92,1.72-7.39,2.6-20.19,7.13-41.07,14.5-70.83,18.67-27.54,3.85-55.76,3.91-83.88.16Z" class="cls-23"/></g><g><path data-cppathid="10242" d="M675.65,814.16c2.97-9.62,5.94-19.23,8.92-28.85,32.28,8.6,57.01,7.35,71.69,5.35,24.81-3.36,53.85-13.3,66.26-17.55,3.88-1.33,6.64-2.33,7.5-2.63,19.25-6.89,58.68-15.05,144.24-22.3-1.63,3.2-3.27,6.4-4.9,9.6-46.24,8.89-90.51,20.65-131.6,34.95-2.46.86-4.92,1.72-7.39,2.6-20.19,7.13-41.07,14.5-70.83,18.67-27.54,3.85-55.76,3.91-83.88.16Z" class="cls-22"/><path data-cppathid="10243" d="M681.29,808.14l3.11-23.36c26,3.47,52.07,3.42,77.5-.14,27.42-3.84,47.16-10.81,66.26-17.55,2.51-.89,5-1.77,7.5-2.63,42.16-14.67,87.54-26.73,134.89-35.83l4.45,23.14c-46.24,8.89-90.51,20.65-131.6,34.95-2.46.86-4.92,1.72-7.39,2.6-20.19,7.13-41.07,14.5-70.83,18.67-27.54,3.85-55.76,3.91-83.88.16Z" class="cls-23"/></g><g><path data-cppathid="10244" d="M879.4,70.86c7.47-6.74,14.95-13.48,22.42-20.23,23.34,23.9,45.23,35.48,58.86,41.28,23.04,9.8,53.07,16.12,65.91,18.82,4.01.84,6.9,1.4,7.79,1.57,20.07,3.93,58.11,17.09,135.34,54.64-3.04,1.91-6.08,3.83-9.12,5.74-44.28-16.01-88.33-28.56-130.95-37.3-2.55-.52-5.11-1.04-7.68-1.55-21-4.2-42.71-8.55-70.41-20.2-25.63-10.78-49.91-25.17-72.15-42.78Z" class="cls-22"/><path data-cppathid="10245" d="M887.33,68.57l14.63-18.48c20.57,16.28,42.99,29.58,66.66,39.53,25.52,10.73,46.05,14.84,65.91,18.82,2.61.52,5.2,1.04,7.79,1.57,43.73,8.96,88.89,21.82,134.23,38.22l-8.01,22.16c-44.28-16.01-88.33-28.56-130.95-37.3-2.55-.52-5.11-1.04-7.68-1.55-21-4.2-42.71-8.55-70.41-20.2-25.63-10.78-49.91-25.17-72.15-42.78Z" class="cls-23"/></g><g><path data-cppathid="10246" d="M928.91,127.83c-3.7,9.36-7.4,18.72-11.1,28.08-31.53-11.05-56.28-11.7-71.07-10.84-25,1.45-54.71,9.13-67.41,12.41-3.97,1.03-6.8,1.81-7.68,2.05-19.72,5.39-59.66,10.5-145.53,11.16,1.87-3.07,3.75-6.13,5.62-9.2,46.78-5.32,91.83-13.64,133.89-24.75,2.52-.66,5.04-1.34,7.57-2.02,20.68-5.56,42.06-11.31,72.06-13.18,27.75-1.73,55.89.38,83.64,6.28Z" class="cls-22"/><path data-cppathid="10247" d="M922.83,133.4l-4.9,23.05c-25.66-5.45-51.66-7.41-77.28-5.81-27.63,1.72-47.85,7.16-67.41,12.41-2.57.69-5.12,1.38-7.68,2.05-43.16,11.39-89.33,19.93-137.24,25.38l-2.66-23.41c46.78-5.32,91.83-13.64,133.89-24.75,2.52-.66,5.04-1.34,7.57-2.02,20.68-5.56,42.06-11.31,72.06-13.18,27.75-1.73,55.89.38,83.64,6.28Z" class="cls-23"/></g><g><path data-cppathid="10248" d="M971.74,351.59c-9.38,3.64-18.77,7.28-28.15,10.92-13.3-30.65-29.64-49.25-40.31-59.53-18.04-17.36-43.86-33.95-54.89-41.04-3.45-2.22-5.95-3.76-6.72-4.24-17.35-10.81-48.22-36.66-107.03-99.23,3.52-.71,7.05-1.41,10.57-2.12,35.68,30.72,72.38,58.13,109.1,81.47,2.2,1.4,4.41,2.79,6.63,4.18,18.12,11.4,36.86,23.19,58.61,43.94,20.12,19.2,37.68,41.29,52.2,65.66Z" class="cls-22"/><path data-cppathid="10249" d="M963.52,350.91l-20.24,12.06c-13.42-22.53-29.65-42.95-48.22-60.67-20.03-19.11-37.75-30.26-54.89-41.04-2.25-1.42-4.49-2.82-6.72-4.24-37.67-23.94-75.3-52.04-111.84-83.5l15.38-17.86c35.68,30.72,72.38,58.13,109.1,81.47,2.2,1.4,4.41,2.79,6.63,4.18,18.12,11.4,36.86,23.19,58.61,43.94,20.12,19.2,37.68,41.29,52.2,65.66Z" class="cls-23"/></g><g><path data-cppathid="10250" d="M1643.28,595.24c-9.38,3.64-18.77,7.28-28.15,10.92-13.3-30.65-29.64-49.25-40.31-59.53-18.04-17.36-43.86-33.95-54.89-41.04-3.45-2.22-5.95-3.76-6.72-4.24-17.35-10.81-48.22-36.66-107.03-99.23,3.52-.71,7.05-1.41,10.57-2.12,35.68,30.72,72.38,58.13,109.1,81.47,2.2,1.4,4.41,2.79,6.63,4.18,18.12,11.4,36.86,23.19,58.61,43.94,20.12,19.2,37.68,41.29,52.2,65.66Z" class="cls-22"/><path data-cppathid="10251" d="M1635.06,594.57l-20.24,12.06c-13.42-22.53-29.65-42.95-48.22-60.67-20.03-19.11-37.75-30.26-54.89-41.04-2.25-1.42-4.49-2.82-6.72-4.24-37.67-23.94-75.3-52.04-111.84-83.5l15.38-17.86c35.68,30.72,72.38,58.13,109.1,81.47,2.2,1.4,4.41,2.79,6.63,4.18,18.12,11.4,36.86,23.19,58.61,43.94,20.12,19.2,37.68,41.29,52.2,65.66Z" class="cls-23"/></g><g><path data-cppathid="10252" d="M764.04,157.54c5.9-8.82,11.81-17.64,17.71-26.46,27.46,24.07,48.93,38.16,63.87,46.71,3.5,2,9.61,5.49,20.78,11.84,18.39,10.44,28.51,16.19,42.35,25.07,22.66,14.53,44.62,30.66,65.28,47.93-3.04,4.14-6.07,8.28-9.11,12.42-35.1-27.83-57.87-40.44-72.41-46.78-4.12-1.8-18.68-7.93-37.74-18.15-9.94-5.33-17.06-9.7-20.85-11.87-23.19-13.26-46.7-26.96-69.88-40.7Z" class="cls-16"/><path data-cppathid="10253" d="M769.68,151.52l12.01-20.27c23.08,13.68,46.49,27.31,69.57,40.51,8.07,4.62,14.86,8.47,20.78,11.84,18.39,10.44,28.51,16.19,42.35,25.07,22.66,14.53,44.62,30.66,65.28,47.93l-15.12,18.08c-19.9-16.64-41.06-32.18-62.88-46.18-13.3-8.53-23.23-14.17-41.26-24.41-5.94-3.37-12.75-7.24-20.85-11.87-23.19-13.26-46.7-26.96-69.88-40.7Z" class="cls-10"/></g><g><path data-cppathid="10254" d="M796.67,283.56c6.11-9.79,12.23-19.59,18.34-29.38,70,40.29,102.52,55.66,117.91,60.61.42.14,3.38,1.11,7.45,2.43,20.36,6.62,41.42,13.47,67.58,28.27,24.2,13.69,46.64,30.81,66.68,50.89l-16.68,16.65c-18.53-18.57-39.26-34.39-61.6-47.02-24.1-13.63-44.01-20.1-63.27-26.37-2.53-.82-5.04-1.64-7.55-2.47-42.39-14-85.75-32.03-128.87-53.6Z" class="cls-11"/><path data-cppathid="10255" d="M804.72,274.96l10.54-21.07c42.11,21.06,84.4,38.66,125.71,52.3,2.47.82,4.95,1.62,7.45,2.43,20.36,6.62,41.42,13.47,67.58,28.27,24.2,13.69,46.64,30.81,66.68,50.89l-16.68,16.65c-18.53-18.57-39.26-34.39-61.6-47.02-24.1-13.63-44.01-20.1-63.27-26.37-2.53-.82-5.04-1.64-7.55-2.47-42.39-14-85.75-32.03-128.87-53.6Z" class="cls-21"/></g><g><path data-cppathid="10256" d="M153.37,775.33c6.11-9.79,12.23-19.59,18.34-29.38,70,40.29,102.52,55.66,117.91,60.61.42.13,3.38,1.11,7.45,2.43,20.36,6.62,41.42,13.47,67.58,28.27,24.2,13.69,46.64,30.81,66.68,50.89l-16.68,16.65c-18.53-18.57-39.26-34.39-61.6-47.02-24.1-13.63-44.01-20.1-63.27-26.37-2.53-.82-5.04-1.64-7.55-2.47-42.39-14-85.75-32.03-128.87-53.6Z" class="cls-11"/><path data-cppathid="10257" d="M161.42,766.73l10.54-21.07c42.11,21.06,84.4,38.66,125.71,52.3,2.47.82,4.95,1.62,7.45,2.43,20.36,6.62,41.42,13.47,67.58,28.27,24.2,13.69,46.64,30.81,66.68,50.89l-16.68,16.65c-18.53-18.57-39.26-34.39-61.6-47.02-24.1-13.63-44.01-20.1-63.27-26.37-2.53-.82-5.04-1.64-7.55-2.47-42.39-14-85.75-32.03-128.87-53.6Z" class="cls-21"/></g><g><path data-cppathid="10258" d="M580.41,443.69c6.3-10.09,12.6-20.19,18.9-30.28,72.13,41.52,105.65,57.36,121.51,62.46.43.14,3.48,1.14,7.68,2.51,20.98,6.82,42.68,13.88,69.64,29.13,24.94,14.11,48.06,31.75,68.71,52.44l-17.19,17.15c-19.09-19.13-40.45-35.44-63.48-48.46-24.83-14.05-45.35-20.72-65.2-27.17-2.61-.85-5.2-1.69-7.78-2.54-43.68-14.42-88.36-33.01-132.8-55.23Z" class="cls-11"/><path data-cppathid="10259" d="M588.7,434.82l10.86-21.72c43.39,21.7,86.98,39.83,129.55,53.89,2.55.84,5.1,1.67,7.68,2.51,20.98,6.82,42.68,13.88,69.64,29.13,24.94,14.11,48.06,31.75,68.71,52.44l-17.19,17.15c-19.09-19.13-40.45-35.44-63.48-48.46-24.83-14.05-45.35-20.72-65.2-27.17-2.61-.85-5.2-1.69-7.78-2.54-43.68-14.42-88.36-33.01-132.8-55.23Z" class="cls-21"/></g><g><path data-cppathid="10260" d="M918.16,714.17c2.3,11.68,4.59,23.35,6.89,35.03-81.04,18.97-116.34,30.3-131.4,37.42-.41.19-3.32,1.54-7.32,3.41-19.98,9.36-40.65,19.03-70.75,26.32-27.85,6.74-56.78,9.65-86,8.66l.83-24.27c27.02.92,53.75-1.77,79.46-7.99,27.73-6.71,47.27-15.86,66.17-24.71,2.48-1.16,4.95-2.32,7.42-3.46,41.75-19.31,87.07-36.27,134.7-50.4Z" class="cls-11"/><path data-cppathid="10261" d="M918.16,726.31l6.91,23.28c-46.51,13.8-90.73,30.34-131.42,49.16-2.44,1.13-4.87,2.27-7.32,3.41-19.98,9.35-40.65,19.03-70.75,26.32-27.85,6.74-56.78,9.65-86,8.66l.83-24.27c27.02.92,53.75-1.77,79.46-7.99,27.73-6.71,47.27-15.86,66.17-24.71,2.48-1.16,4.95-2.32,7.42-3.46,41.75-19.31,87.07-36.27,134.7-50.4Z" class="cls-21"/></g><g><path data-cppathid="10262" d="M745.82,506.17c2.3,11.68,4.59,23.35,6.89,35.03-81.04,18.97-116.34,30.3-131.4,37.42-.41.19-3.32,1.54-7.32,3.41-19.98,9.36-40.65,19.03-70.75,26.32-27.85,6.74-56.78,9.65-86,8.66l.83-24.27c27.02.92,53.75-1.77,79.46-7.99,27.73-6.71,47.27-15.86,66.17-24.71,2.48-1.16,4.95-2.32,7.42-3.46,41.75-19.31,87.07-36.27,134.7-50.4Z" class="cls-11"/><path data-cppathid="10263" d="M745.82,518.31l6.91,23.28c-46.51,13.8-90.73,30.34-131.42,49.16-2.44,1.13-4.87,2.27-7.32,3.41-19.98,9.36-40.65,19.03-70.75,26.32-27.85,6.74-56.78,9.65-86,8.66l.83-24.27c27.02.92,53.75-1.77,79.46-7.99,27.73-6.71,47.27-15.86,66.17-24.71,2.48-1.16,4.95-2.32,7.42-3.46,41.75-19.31,87.07-36.27,134.7-50.4Z" class="cls-21"/></g><path data-cppathid="10264" d="M1270.77,322.96l-20.5-11.62c12.93-22.82,22.63-47.02,28.83-71.93,6.2-24.92,9.17-50.23,8.83-75.22l23.56-.32c.37,27.02-2.83,54.35-9.52,81.24-6.72,26.99-17.21,53.18-31.2,77.86Z" class="cls-6"/><path data-cppathid="10265" d="M880.03,740.44l-20.5-11.62c12.93-22.82,22.63-47.02,28.83-71.93,6.2-24.92,9.17-50.23,8.83-75.22l23.56-.32c.37,27.02-2.83,54.35-9.52,81.24-6.72,26.99-17.21,53.18-31.2,77.86Z" class="cls-6"/><path data-cppathid="10266" d="M1665.25,326.41l-20.85,10.99c-12.23-23.2-27.36-44.44-44.98-63.1-17.63-18.67-37.33-34.84-58.55-48.04l12.45-20.01c22.95,14.27,44.22,31.73,63.24,51.87,19.09,20.22,35.47,43.2,48.7,68.29Z" class="cls-6"/><path data-cppathid="10267" d="M1474.12,591.28l-23.84,4.61c-5.13-26.54-13.72-52-25.52-75.67-11.81-23.68-26.41-45.5-43.4-64.86l18.25-16.02c18.37,20.93,34.14,44.5,46.88,70.05,12.79,25.64,22.09,53.2,27.63,81.9Z" class="cls-6"/><g><path data-cppathid="10268" d="M1335.57,484.23c-3.14-30.39-10.29-59.92-21.23-87.76-11.81-30.04-25.02-50.42-37.8-70.14-1.66-2.56-3.31-5.1-4.94-7.65-27.58-42.99-53.11-90.27-75.9-140.53l16.32-7.4c22.43,49.47,47.54,95.99,74.66,138.25,1.62,2.53,3.25,5.05,4.9,7.58,9.85,15.2,19.95,30.79,29.61,50.81,4.4,9.13,7.24,16.07,9.83,22.52,7,17.41,17.6,46.85,27.64,89.27l-23.09,5.04Z" class="cls-18"/><path data-cppathid="10269" d="M1341,481.08c-3.14-30.39-10.29-59.92-21.23-87.76-11.81-30.04-25.02-50.42-37.8-70.14-1.66-2.56-3.31-5.1-4.94-7.65-27.58-42.99-53.11-90.27-75.9-140.53l16.32-7.4c22.43,49.47,47.54,95.99,74.66,138.25,1.62,2.53,3.25,5.05,4.9,7.58,13.26,20.46,26.97,41.61,39.43,73.32,11.54,29.35,19.07,60.46,22.38,92.47l-17.82,1.84Z" class="cls-2"/></g><g><path data-cppathid="10270" d="M1539.12,809.59c-3.14-30.39-10.29-59.92-21.23-87.76-11.81-30.04-25.02-50.42-37.8-70.14-1.66-2.56-3.31-5.1-4.94-7.65-27.58-42.99-53.11-90.27-75.9-140.53l16.32-7.4c22.43,49.47,47.54,95.99,74.66,138.25,1.62,2.53,3.25,5.05,4.9,7.58,9.85,15.2,19.95,30.79,29.61,50.81,4.4,9.13,7.24,16.07,9.83,22.52,7,17.41,17.6,46.85,27.64,89.27-7.69,1.68-15.39,3.36-23.09,5.04Z" class="cls-18"/><path data-cppathid="10271" d="M1544.54,806.45c-3.14-30.39-10.29-59.92-21.23-87.76-11.81-30.04-25.02-50.42-37.8-70.14-1.66-2.56-3.31-5.1-4.94-7.65-27.58-42.99-53.11-90.27-75.9-140.53l16.32-7.4c22.43,49.47,47.54,95.99,74.66,138.25,1.62,2.53,3.25,5.05,4.9,7.58,13.26,20.46,26.97,41.61,39.43,73.32,11.54,29.35,19.07,60.46,22.38,92.47l-17.82,1.84Z" class="cls-2"/></g><g><path data-cppathid="10272" d="M1364.33,164.43l3.44-23.31c33.06,4.88,63.95,14.22,91.8,27.75,9.9,4.81,17.69,9.29,24.56,13.24,13.2,7.59,22.74,13.07,39.12,16.14,14.14,2.65,22.73,1.58,33.61.22,8-1,17.08-2.13,29.29-1.84,31.3.74,63.16,10.54,94.7,29.14l-11.97,20.3c-28.03-16.53-56.05-25.24-83.28-25.88-10.47-.25-18.28.72-25.82,1.66-11.36,1.41-23.11,2.88-40.85-.44-20.32-3.8-32.47-10.79-46.53-18.87-6.54-3.76-13.94-8.02-23.11-12.47-25.69-12.48-54.27-21.1-84.95-25.64Z" class="cls-10"/><path data-cppathid="10273" d="M1365.57,157.84c.92-8.03,1.85-16.07,2.77-24.1,57.53,12.75,83.02,22.5,95.35,29.38,8.12,4.53,16.5,8.6,24.56,13.24,13.2,7.59,22.74,13.07,39.12,16.14,14.14,2.65,22.73,1.58,33.61.22,8-1,17.08-2.13,29.29-1.84,31.3.74,63.16,10.54,94.7,29.14l-11.97,20.3c-28.03-16.53-56.05-25.24-83.28-25.88-10.47-.25-18.28.72-25.82,1.66-11.36,1.41-23.11,2.88-40.85-.44-20.32-3.8-32.47-10.79-46.53-18.87-7.59-4.36-15.46-8.21-23.11-12.47-12.77-7.11-37.11-16.48-87.83-26.47Z" class="cls-17"/></g><g><path data-cppathid="10274" d="M1413.38,431.51l3.55-24.02c34.07,5.03,65.9,14.65,94.6,28.6,10.21,4.96,18.23,9.57,25.31,13.64,13.6,7.82,23.43,13.47,40.32,16.63,14.57,2.73,23.42,1.62,34.63.23,8.25-1.03,17.6-2.19,30.18-1.89,32.25.76,65.09,10.87,97.58,30.03l-12.33,20.92c-28.89-17.03-57.76-26.01-85.82-26.67-10.79-.25-18.83.75-26.61,1.72-11.71,1.46-23.81,2.97-42.1-.46-20.94-3.92-33.46-11.12-47.95-19.45-6.73-3.87-14.37-8.26-23.81-12.85-26.47-12.86-55.92-21.75-87.54-26.42Z" class="cls-10"/><path data-cppathid="10275" d="M1414.65,424.72c.95-8.28,1.9-16.56,2.86-24.84,59.29,13.14,85.55,23.19,98.26,30.28,8.37,4.67,17,8.86,25.31,13.64,13.6,7.82,23.43,13.47,40.32,16.63,14.57,2.73,23.42,1.62,34.63.23,8.25-1.03,17.6-2.19,30.18-1.89,32.25.76,65.09,10.87,97.58,30.03l-12.33,20.92c-28.89-17.03-57.76-26.01-85.82-26.67-10.79-.25-18.83.75-26.61,1.72-11.71,1.46-23.81,2.97-42.1-.46-20.94-3.92-33.46-11.12-47.95-19.45-7.82-4.5-15.93-8.46-23.81-12.85-13.16-7.33-38.24-16.98-90.51-27.28Z" class="cls-17"/></g><g><path data-cppathid="10276" d="M1160.71,330.04l3.44-23.31c33.06,4.88,63.95,14.22,91.8,27.75,9.9,4.81,17.69,9.29,24.56,13.24,13.2,7.59,22.74,13.07,39.12,16.14,14.14,2.65,22.73,1.58,33.61.22,8-1,17.08-2.13,29.29-1.84,31.3.74,63.16,10.54,94.7,29.14l-11.97,20.3c-28.03-16.53-56.05-25.24-83.28-25.88-10.47-.25-18.28.72-25.82,1.66-11.36,1.41-23.11,2.88-40.85-.44-20.32-3.8-32.47-10.79-46.53-18.87-6.54-3.76-13.94-8.02-23.11-12.47-25.69-12.48-54.27-21.1-84.95-25.64Z" class="cls-10"/><path data-cppathid="10277" d="M1161.95,323.46c.92-8.03,1.85-16.07,2.77-24.1,57.53,12.75,83.02,22.5,95.35,29.38,8.12,4.53,16.5,8.6,24.56,13.24,13.2,7.59,22.74,13.07,39.12,16.14,14.14,2.65,22.73,1.58,33.61.22,8-1,17.08-2.13,29.29-1.84,31.3.74,63.16,10.54,94.7,29.14l-11.97,20.3c-28.03-16.53-56.05-25.24-83.28-25.88-10.47-.25-18.28.72-25.82,1.66-11.36,1.41-23.11,2.88-40.85-.44-20.32-3.8-32.47-10.79-46.53-18.87-7.59-4.36-15.46-8.21-23.11-12.47-12.77-7.11-37.11-16.48-87.83-26.47Z" class="cls-17"/></g><g><path data-cppathid="10278" d="M1359.8,552.9l3.44-23.31c33.06,4.88,63.95,14.22,91.8,27.75,9.9,4.81,17.69,9.29,24.56,13.24,13.2,7.59,22.74,13.07,39.12,16.14,14.14,2.65,22.73,1.58,33.61.22,8-1,17.08-2.13,29.29-1.84,31.3.74,63.16,10.54,94.7,29.14l-11.97,20.3c-28.03-16.53-56.05-25.24-83.28-25.88-10.47-.25-18.28.72-25.82,1.66-11.36,1.41-23.11,2.88-40.85-.44-20.32-3.8-32.47-10.79-46.53-18.87-6.54-3.76-13.94-8.02-23.11-12.47-25.69-12.48-54.27-21.1-84.95-25.64Z" class="cls-10"/><path data-cppathid="10279" d="M1361.03,546.31c.92-8.03,1.85-16.07,2.77-24.1,57.53,12.75,83.02,22.5,95.35,29.38,8.12,4.53,16.5,8.6,24.56,13.24,13.2,7.59,22.74,13.07,39.12,16.14,14.14,2.65,22.73,1.58,33.61.22,8-1,17.08-2.13,29.29-1.84,31.3.74,63.16,10.54,94.7,29.14l-11.97,20.3c-28.03-16.53-56.05-25.24-83.28-25.88-10.47-.25-18.28.72-25.82,1.66-11.36,1.41-23.11,2.88-40.85-.44-20.32-3.8-32.47-10.79-46.53-18.87-7.59-4.36-15.46-8.21-23.11-12.47-12.77-7.11-37.11-16.48-87.83-26.47Z" class="cls-17"/></g><g><path data-cppathid="10280" d="M1477.65,332.36c5.63-8.35,11.25-16.69,16.88-25.04,28.42,17.57,52.45,23.53,67.08,25.87,24.72,3.96,55.39,2.85,68.5,2.37,4.1-.15,7.03-.31,7.94-.35,20.42-1.03,60.52,2.58,144.52,20.39-2.49,2.59-4.98,5.18-7.47,7.77-46.83-4.86-92.61-6.42-136.08-4.62-2.6.11-5.21.23-7.83.35-21.39.98-43.51,2-73.21-2.63-27.48-4.28-54.51-12.39-80.34-24.11Z" class="cls-22"/><path data-cppathid="10281" d="M1484.78,328.22l9.74-21.46c23.88,10.84,48.86,18.34,74.22,22.29,27.36,4.26,48.27,3.3,68.5,2.37,2.66-.12,5.3-.24,7.94-.35,44.6-1.85,91.53-.26,139.49,4.73l-2.43,23.44c-46.83-4.86-92.61-6.42-136.08-4.62-2.6.11-5.21.23-7.83.35-21.39.98-43.51,2-73.21-2.63-27.48-4.28-54.51-12.39-80.34-24.11Z" class="cls-23"/></g><g><path data-cppathid="10282" d="M1495.95,103.06c9.1-4.29,18.21-8.58,27.31-12.88,15.43,29.63,33.03,47.05,44.4,56.55,19.22,16.05,46.14,30.78,57.64,37.08,3.6,1.97,6.2,3.33,7,3.76,18.07,9.57,50.68,33.18,113.74,91.46-3.47.95-6.93,1.91-10.4,2.86-37.75-28.14-76.29-52.9-114.56-73.59-2.29-1.24-4.59-2.47-6.91-3.71-18.88-10.1-38.4-20.54-61.56-39.71-21.42-17.73-40.49-38.53-56.69-61.82Z" class="cls-22"/><path data-cppathid="10283" d="M1504.2,103.16l19.35-13.45c14.98,21.53,32.6,40.75,52.37,57.12,21.33,17.66,39.79,27.53,57.64,37.08,2.35,1.25,4.68,2.5,7,3.76,39.26,21.23,78.77,46.61,117.43,75.43l-14.08,18.89c-37.75-28.14-76.29-52.9-114.56-73.59-2.29-1.24-4.59-2.47-6.91-3.71-18.88-10.1-38.4-20.54-61.56-39.71-21.42-17.73-40.49-38.53-56.69-61.82Z" class="cls-23"/></g><g><path data-cppathid="10284" d="M1526.86,171.91c-6.25,7.89-12.5,15.78-18.75,23.67-26.98-19.7-50.49-27.48-64.9-30.94-24.35-5.84-55.01-7.09-68.12-7.62-4.1-.17-7.03-.23-7.94-.26-20.44-.54-60.15-7.21-142.53-31.42,2.68-2.39,5.36-4.79,8.04-7.18,46.32,8.44,91.85,13.51,135.32,15.05,2.6.09,5.21.17,7.83.25,21.4.66,43.53,1.35,72.79,8.24,27.07,6.37,53.39,16.54,78.25,30.21Z" class="cls-22"/><path data-cppathid="10285" d="M1519.42,175.49l-11.36,20.65c-22.98-12.64-47.31-22.03-72.29-27.92-26.95-6.35-47.88-6.99-68.12-7.62-2.66-.08-5.3-.16-7.94-.26-44.61-1.58-91.28-6.77-138.71-15.42l4.23-23.18c46.32,8.44,91.85,13.51,135.33,15.05,2.6.09,5.21.17,7.83.25,21.4.66,43.53,1.35,72.79,8.24,27.07,6.37,53.39,16.54,78.25,30.21Z" class="cls-23"/></g><g><path data-cppathid="10286" d="M1605.6,524.02c-6.25,7.89-12.5,15.78-18.75,23.67-26.98-19.7-50.49-27.48-64.9-30.94-24.35-5.84-55.01-7.09-68.12-7.62-4.1-.17-7.03-.23-7.94-.26-20.44-.54-60.15-7.21-142.53-31.42,2.68-2.39,5.36-4.79,8.04-7.18,46.32,8.44,91.85,13.51,135.32,15.05,2.6.09,5.21.17,7.83.25,21.4.66,43.53,1.35,72.79,8.24,27.07,6.37,53.39,16.54,78.25,30.21Z" class="cls-22"/><path data-cppathid="10287" d="M1598.17,527.6l-11.36,20.65c-22.98-12.64-47.31-22.03-72.29-27.92-26.95-6.35-47.88-6.99-68.12-7.62-2.66-.08-5.3-.16-7.94-.26-44.61-1.58-91.28-6.77-138.71-15.42l4.23-23.18c46.32,8.44,91.85,13.51,135.33,15.05,2.6.09,5.21.17,7.83.25,21.4.66,43.53,1.35,72.79,8.24,27.07,6.37,53.39,16.54,78.25,30.21Z" class="cls-23"/></g><g><path data-cppathid="10288" d="M1503.12,398.5c-10.04.77-20.07,1.54-30.11,2.31-3.87-33.18-14.12-55.72-21.37-68.65-12.25-21.84-32.16-45.19-40.67-55.17-2.66-3.12-4.61-5.32-5.2-6-13.48-15.37-35.56-49.04-73.74-125.96,3.58.34,7.15.69,10.73,1.03,25.26,39.73,52.47,76.59,80.86,109.55,1.7,1.97,3.41,3.94,5.13,5.92,14.05,16.16,28.58,32.87,43.39,59.02,13.7,24.2,24.12,50.42,30.97,77.95Z" class="cls-22"/><path data-cppathid="10289" d="M1495.45,395.47l-22.87,5.69c-6.33-25.45-15.96-49.69-28.61-72.02-13.65-24.09-27.38-39.89-40.67-55.17-1.75-2.01-3.48-4-5.2-6-29.14-33.82-57.03-71.6-82.89-112.29l19.89-12.64c25.26,39.73,52.47,76.59,80.86,109.55,1.7,1.97,3.41,3.94,5.13,5.92,14.05,16.16,28.58,32.87,43.39,59.02,13.7,24.2,24.12,50.42,30.97,77.95Z" class="cls-23"/></g><g><path data-cppathid="10290" d="M1360.44,152.66c8.2-6.74,16.41-13.47,24.61-20.21,19.32,30.99,35.79,50.69,47.62,63.19,2.77,2.92,7.61,8.04,16.47,17.34,14.58,15.31,22.61,23.75,33.29,36.25,17.48,20.47,33.84,42.26,48.62,64.77-4.11,3.09-8.21,6.17-12.32,9.26-25.55-36.79-43.69-55.45-55.78-65.73-3.43-2.91-15.59-12.99-30.88-28.3-7.97-7.98-13.52-14.22-16.52-17.4-18.36-19.4-36.9-39.31-55.12-59.18Z" class="cls-16"/><path data-cppathid="10291" d="M1367.58,148.52l17.37-15.93c18.14,19.77,36.6,39.59,54.87,58.91,6.39,6.75,11.77,12.41,16.47,17.34,14.58,15.31,22.61,23.75,33.29,36.25,17.48,20.47,33.84,42.26,48.62,64.77l-19.7,12.93c-14.24-21.69-29.99-42.68-46.84-62.39-10.26-12.02-18.14-20.29-32.44-35.3-4.71-4.95-10.11-10.62-16.52-17.4-18.36-19.4-36.9-39.31-55.12-59.18Z" class="cls-10"/></g><g><path data-cppathid="10292" d="M1679.29,491.67c-1.72-10.47-3.43-20.95-5.15-31.42,36.5-1.18,61.8-5.56,78.55-9.54,3.92-.93,10.77-2.56,23.26-5.56,20.56-4.94,31.88-7.66,48.05-10.63,26.47-4.87,53.53-8.1,80.41-9.6.61,5.1,1.22,10.2,1.84,15.3-44.65,3.67-69.88,10.01-84.83,15.32-4.24,1.5-19.06,6.97-39.96,12.53-10.9,2.9-19.08,4.57-23.33,5.58-25.99,6.16-52.51,12.22-78.83,18.03Z" class="cls-16"/><path data-cppathid="10293" d="M1679.29,483.42l-5.08-23.01c26.2-5.78,52.6-11.82,78.48-17.95,9.05-2.14,16.64-3.97,23.26-5.56,20.56-4.94,31.88-7.66,48.05-10.63,26.47-4.87,53.53-8.1,80.41-9.6l1.32,23.53c-25.9,1.45-51.96,4.56-77.47,9.25-15.54,2.86-26.65,5.53-46.81,10.37-6.64,1.6-14.26,3.43-23.33,5.58-25.99,6.16-52.51,12.22-78.83,18.03Z" class="cls-10"/></g><g><path data-cppathid="10294" d="M712.1,672.92c-1.72-10.47-3.43-20.95-5.15-31.42,36.5-1.18,61.8-5.56,78.55-9.54,3.92-.93,10.77-2.56,23.26-5.56,20.56-4.94,31.88-7.66,48.05-10.63,26.47-4.87,53.53-8.1,80.41-9.6.61,5.1,1.22,10.2,1.84,15.3-44.65,3.67-69.88,10.01-84.83,15.32-4.24,1.5-19.06,6.97-39.96,12.53-10.9,2.9-19.08,4.57-23.33,5.58-25.99,6.16-52.51,12.22-78.83,18.03Z" class="cls-16"/><path data-cppathid="10295" d="M712.1,664.68l-5.08-23.01c26.2-5.78,52.6-11.82,78.48-17.95,9.05-2.14,16.64-3.97,23.26-5.56,20.56-4.94,31.88-7.66,48.05-10.63,26.47-4.87,53.53-8.1,80.41-9.6l1.32,23.53c-25.9,1.45-51.96,4.56-77.47,9.25-15.54,2.86-26.65,5.53-46.81,10.37-6.64,1.6-14.26,3.43-23.33,5.58-25.99,6.16-52.51,12.22-78.83,18.03Z" class="cls-10"/></g><g><path data-cppathid="10296" d="M1483.43,448.41c.78-10.59,1.55-21.17,2.33-31.76,35.77,7.36,61.39,9.01,78.6,9.05,4.03.01,11.07.03,23.92.02,21.14,0,32.79,0,49.2.87,26.88,1.44,53.94,4.61,80.44,9.43-.59,5.1-1.19,10.2-1.78,15.3-44.27-6.85-70.29-6.57-86.06-4.9-4.47.47-20.16,2.34-41.78,2.86-11.28.27-19.62-.01-23.99-.02-26.71-.08-53.92-.37-80.86-.86Z" class="cls-16"/><path data-cppathid="10297" d="M1485.36,440.39l.43-23.56c26.83.49,53.91.78,80.5.86,9.3.03,17.11.03,23.92.02,21.14,0,32.79,0,49.2.87,26.88,1.44,53.94,4.61,80.44,9.43l-4.21,23.19c-25.52-4.64-51.59-7.69-77.49-9.08-15.78-.85-27.2-.84-47.94-.84-6.83,0-14.67,0-23.99-.02-26.71-.08-53.92-.37-80.86-.86Z" class="cls-10"/></g><g><path data-cppathid="10298" d="M1378.79,722.83c.14-10.61.28-21.23.41-31.84,36.15,5.2,61.83,5.3,79.01,4.31,4.02-.23,11.05-.64,23.87-1.41,21.11-1.28,32.73-1.98,49.17-2.09,26.92-.18,54.12,1.36,80.86,4.57-.29,5.13-.57,10.26-.86,15.38-44.6-4.18-70.56-2.33-86.2.28-4.43.74-19.98,3.54-41.54,5.37-11.24.95-19.59,1.17-23.95,1.42-26.67,1.53-53.84,2.87-80.77,4Z" class="cls-16"/><path data-cppathid="10299" d="M1380.23,714.71l-.99-23.54c26.81-1.12,53.86-2.46,80.41-3.98,9.28-.53,17.08-1,23.87-1.41,21.11-1.28,32.73-1.98,49.17-2.09,26.92-.18,54.12,1.36,80.86,4.57l-2.81,23.4c-25.76-3.09-51.96-4.58-77.89-4.41-15.8.1-27.2.79-47.9,2.05-6.82.41-14.64.89-23.95,1.42-26.67,1.53-53.84,2.87-80.77,4Z" class="cls-10"/></g><g><path data-cppathid="10300" d="M1818.56,892.2c.14-10.61.28-21.23.41-31.84,36.15,5.2,61.83,5.3,79.01,4.31,4.02-.23,11.05-.64,23.87-1.41,21.11-1.28,32.73-1.98,49.17-2.09,26.92-.18,54.12,1.36,80.86,4.57-.29,5.13-.57,10.26-.86,15.38-44.6-4.18-70.56-2.33-86.2.28-4.43.74-19.98,3.54-41.54,5.37-11.24.95-19.59,1.17-23.95,1.42-26.67,1.53-53.84,2.87-80.77,4Z" class="cls-16"/><path data-cppathid="10301" d="M1820,884.08l-.99-23.54c26.81-1.12,53.86-2.46,80.41-3.98,9.28-.53,17.08-1,23.87-1.41,21.11-1.28,32.73-1.98,49.17-2.09,26.92-.18,54.12,1.36,80.86,4.57l-2.81,23.4c-25.76-3.09-51.96-4.58-77.89-4.41-15.8.1-27.2.79-47.9,2.05-6.82.41-14.64.89-23.95,1.42-26.67,1.53-53.84,2.87-80.77,4Z" class="cls-10"/></g><g><path data-cppathid="10302" d="M830.57,540.09c.14-10.61.28-21.23.41-31.84,36.15,5.2,61.83,5.3,79.01,4.31,4.02-.23,11.05-.64,23.87-1.41,21.11-1.28,32.73-1.98,49.17-2.09,26.92-.18,54.12,1.36,80.86,4.57-.29,5.13-.57,10.26-.86,15.38-44.6-4.18-70.56-2.33-86.2.28-4.43.74-19.98,3.54-41.54,5.37-11.24.95-19.59,1.17-23.95,1.42-26.67,1.53-53.84,2.87-80.77,4Z" class="cls-16"/><path data-cppathid="10303" d="M832.01,531.97l-.99-23.54c26.81-1.12,53.86-2.46,80.41-3.98,9.28-.53,17.08-1,23.87-1.41,21.11-1.28,32.73-1.98,49.17-2.09,26.92-.18,54.12,1.36,80.86,4.57l-2.81,23.4c-25.76-3.09-51.96-4.58-77.89-4.41-15.8.1-27.2.79-47.9,2.05-6.82.41-14.64.89-23.95,1.42-26.67,1.53-53.84,2.87-80.77,4Z" class="cls-10"/></g><g><path data-cppathid="10304" d="M618.12,299.4c.14-10.61.28-21.23.41-31.84,36.15,5.2,61.82,5.3,79.01,4.31,4.02-.23,11.05-.64,23.87-1.41,21.11-1.28,32.73-1.98,49.17-2.09,26.92-.18,54.12,1.36,80.86,4.57-.29,5.13-.57,10.26-.86,15.38-44.6-4.18-70.56-2.33-86.2.28-4.43.74-19.98,3.54-41.54,5.37-11.24.95-19.59,1.17-23.95,1.42-26.67,1.53-53.84,2.87-80.77,4Z" class="cls-16"/><path data-cppathid="10305" d="M619.55,291.28l-.99-23.54c26.81-1.12,53.86-2.46,80.41-3.98,9.28-.53,17.08-1,23.87-1.41,21.11-1.28,32.73-1.98,49.17-2.09,26.92-.18,54.12,1.36,80.86,4.57l-2.81,23.4c-25.76-3.09-51.96-4.58-77.89-4.41-15.8.1-27.2.79-47.9,2.05-6.82.41-14.64.89-23.95,1.42-26.67,1.53-53.84,2.87-80.77,4Z" class="cls-10"/></g><g><path data-cppathid="10306" d="M1187.14,294.95c.14-10.61.28-21.23.41-31.84,36.15,5.2,61.83,5.3,79.01,4.31,4.02-.23,11.05-.64,23.87-1.41,21.11-1.28,32.73-1.98,49.17-2.09,26.92-.18,54.12,1.36,80.86,4.57-.29,5.13-.57,10.26-.86,15.38-44.6-4.18-70.56-2.33-86.2.28-4.43.74-19.98,3.54-41.54,5.37-11.24.95-19.59,1.17-23.95,1.42-26.67,1.53-53.84,2.87-80.77,4Z" class="cls-16"/><path data-cppathid="10307" d="M1188.58,286.83l-.99-23.54c26.81-1.12,53.86-2.46,80.41-3.98,9.28-.53,17.08-1,23.87-1.41,21.11-1.28,32.73-1.98,49.17-2.09,26.92-.18,54.12,1.36,80.86,4.57l-2.81,23.4c-25.76-3.09-51.96-4.58-77.89-4.41-15.8.1-27.2.79-47.9,2.05-6.82.41-14.64.89-23.95,1.42-26.67,1.53-53.84,2.87-80.77,4Z" class="cls-10"/></g><g><path data-cppathid="10308" d="M1355.22,282.73c8.69-7.61,17.37-15.21,26.06-22.82,55.35,58.82,82.04,82.94,95.33,92.13.36.25,2.91,2.04,6.43,4.49,17.58,12.23,35.75,24.88,56.51,46.61,19.21,20.11,35.73,42.98,49.1,68l-20.78,11.11c-12.37-23.13-27.63-44.27-45.36-62.83-19.13-20.02-36.31-31.98-52.93-43.54-2.18-1.52-4.35-3.03-6.51-4.55-36.53-25.66-72.81-55.47-107.85-88.59Z" class="cls-11"/><path data-cppathid="10309" d="M1365.41,276.82l16.19-17.12c34.21,32.34,69.61,61.42,105.21,86.43,2.13,1.5,4.27,2.99,6.43,4.49,17.58,12.23,35.75,24.88,56.51,46.61,19.21,20.11,35.73,42.98,49.1,68l-20.78,11.11c-12.37-23.13-27.63-44.27-45.36-62.83-19.13-20.02-36.31-31.98-52.93-43.54-2.18-1.52-4.35-3.03-6.51-4.55-36.53-25.66-72.81-55.47-107.85-88.59Z" class="cls-21"/></g><g><path data-cppathid="10310" d="M1344.77,561.72c-9.35,7.37-18.69,14.73-28.04,22.1-53.82-63.49-80-89.73-93.2-99.89-.36-.28-2.89-2.26-6.37-4.96-17.44-13.52-35.47-27.51-55.67-50.98-18.7-21.72-34.48-46.14-46.91-72.6l21.98-10.33c11.49,24.47,26.07,47.04,43.33,67.08,18.61,21.62,35.66,34.85,52.15,47.63,2.17,1.68,4.32,3.35,6.46,5.03,36.22,28.36,71.98,60.97,106.27,96.92Z" class="cls-11"/><path data-cppathid="10311" d="M1333.96,567.25l-17.57,16.76c-33.48-35.11-68.36-66.92-103.66-94.56-2.11-1.65-4.24-3.3-6.37-4.96-17.44-13.52-35.47-27.51-55.67-50.98-18.7-21.72-34.48-46.14-46.91-72.6l21.98-10.33c11.49,24.47,26.07,47.04,43.33,67.08,18.61,21.62,35.66,34.85,52.15,47.63,2.17,1.68,4.32,3.35,6.46,5.03,36.22,28.36,71.98,60.97,106.27,96.92Z" class="cls-21"/></g></g><path data-cppathid="10312" d="M2258.62,585.26c7.15,2.12-7.52,225.7-159,344-53.53,41.8-115.61,63.8-120,57-5.53-8.57,84.69-56.72,162-153,101.4-126.29,111.68-249.58,117-248Z" class="cls-9"/><path data-cppathid="10313" d="M1987.95,989.4c-229.67-76.67-459.33-153.33-689-230,.26,7.72.53,15.44.8,23.15,230.07,79.95,460.14,159.9,690.2,239.85-.67-11-1.33-22-2-33Z" class="cls-23"/></g></g></svg>