<?xml version="1.0" encoding="UTF-8"?>
<svg xmlns="http://www.w3.org/2000/svg" onmouseup="{ if(window.parent.document.onmouseup) window.parent.document.onmouseup(arguments[0]);}" viewBox="0 0 89 69" id="Layer_2"><defs><style>
      .cls-1 {
        fill: #cce2d6;
      }

      .cls-1, .cls-2, .cls-3, .cls-4, .cls-5, .cls-6, .cls-7, .cls-8, .cls-9, .cls-10, .cls-11, .cls-12, .cls-13, .cls-14, .cls-15, .cls-16, .cls-17 {
        fill-rule: evenodd;
      }

      .cls-2 {
        fill: #bad9cb;
      }

      .cls-18, .cls-5 {
        fill: #fff;
      }

      .cls-3 {
        fill: #f7f2c4;
      }

      .cls-4 {
        fill: #abcfc3;
      }

      .cls-6 {
        fill: #99c0b4;
      }

      .cls-7 {
        fill: #fdb050;
      }

      .cls-8 {
        fill: #f1821f;
      }

      .cls-9 {
        fill: #ccddd4;
      }

      .cls-10 {
        fill: #faf8dd;
      }

      .cls-11 {
        fill: #bfdbce;
      }

      .cls-12 {
        fill: #f9902b;
      }

      .cls-13 {
        fill: #e77319;
      }

      .cls-14 {
        fill: #edf1ed;
      }

      .cls-15 {
        fill: #f6a63e;
      }

      .cls-16 {
        fill: #ef7f1f;
      }

      .cls-17 {
        fill: #d9e7df;
      }
    </style></defs><g data-name="Ñëîé_2" id="_Ñëîé_2"><g><g><path data-cppathid="10000" d="M82.4,59.19c-4.51,1.15-16.21,3.88-16.21,3.88l2.67-52.29s11.68-1.68,13.88-.42c.41.23,1.63.11,2.27,2.62,3.07,12.06,4.71,23.87,3.69,37.23-.31,4.01-1.72,7.82-6.3,8.98Z" class="cls-4"/><path data-cppathid="10001" d="M83.54,10.66c.5.26,1.09.82,1.47,2.32,3.07,12.06,4.71,23.87,3.69,37.23-.2,2.68-.91,5.27-2.71,7.04-7.04.12-14.24-1.68-14.67-2.17-.73-.83-.03-1.27-.03-1.27,0,0,1.81-1.56,7.34-10.85,4.36-7.32,5.02-24.16,4.91-32.31Z" class="cls-6"/><path data-cppathid="10002" d="M66.32,60.54l.29-5.58c12.08-.36,18.57-1.81,21.88-3.04-.33,1.92-1,3.7-2.25,5.06-4.11,1.52-9.52,2.08-12.73,2.72-2.13.42-4.84.68-7.19.84Z" class="cls-11"/><path data-cppathid="10003" d="M50.04,5.69l-10.24,3.57,29.05,1.52,6.37-3.74-1.91-5.14s-1.96-.64-4.98-.82c-7.15-.41-19.44-.52-19.99-.02-.78.71,1.69,4.63,1.69,4.63Z" class="cls-1"/><path data-cppathid="10004" d="M76.78,2.18c.11,0,1.59-.83-1.93-1.4C71.33.21,51.62-.03,50.21,0c-1.41.04-1.95,1.1-1.95,1.1,0,0,7.72-.21,14.26-.03,4.77.13,8.85.64,9.15.68.72.09,5.11.42,5.11.42Z" class="cls-17"/><path data-cppathid="10005" d="M35.66,15.57c-1.84,6.17-3.7,30.72-.94,37.3,1.47,3.49,4.09,5.24,5.03,5.39.94.16,21.89,5.87,26.44,4.77,4.54-1.1,5.13-7.95,5.13-7.95,0,0-.91-37.86-.91-38.8s-.14-3.78-1.55-5.5c-1.41-1.72-22.09-2.18-26.01-2.02-5.43.22-5.95,2.65-7.19,6.8Z" class="cls-1"/><path data-cppathid="10006" d="M34.51,52.31c.07.2.13.38.21.56,1.47,3.49,4.09,5.24,5.03,5.39.94.16,21.89,5.87,26.44,4.77,4.54-1.1,5.13-7.95,5.13-7.95,0,0,1.2-10.27.96-20.43-.11-4.74-.01-18.7-3.12-23.46-.19-.27-.3-.41-.3-.41,0,0-.6,4.18-1.76,8.42-2.28,8.3-8.47,14.87-14.52,20.76-5.95,5.79-12.42,10.47-18.06,12.35Z" class="cls-11"/><path data-cppathid="10007" d="M77.06,7.18c2.65,1.07,4.57,1.99,6.88,3.66l-15.08-.05c1.12-2.24,4.98-2.85,6.37-3.74-.35-.46-2.96-4.82-2.15-5.71,1.02-1.13,5-.94,5.34.87.16.82-1.36,4.97-1.36,4.97Z" class="cls-2"/><path data-cppathid="10008" d="M49.03,6.04l-9.23,3.22,16.59.87c9.32.49,10.81,0,12.46.65,1.04-1.69,3.77-2.3,5.71-3.35l.47-.28c-4.37-1.26-10.27-1.39-14.94-1.51-5.13-.13-8.92-.16-11.06.39h0Z" class="cls-17"/><path data-cppathid="10009" d="M75.86,1.63c-.78-.18-.99.48-.84,1.21.16.73.84,3.84.84,3.84l-.47.44,1.33-.08-.21-.47s1.1-5.2-.65-4.95Z" class="cls-4"/><path data-cppathid="10010" d="M40.36,11.04c-1.25.63-1.46.9,1.83,1.37,3.29.47,20.28,1.25,21.69.78,1.41-.47.99-.65.4-.77-.59-.12-23.08-1.39-23.08-1.39h-.84Z" class="cls-14"/><path data-cppathid="10011" d="M49.5,4.34l.54,1.35s6.8-.12,8.43-.08c1.62.04,12.08.59,13.59.89,1.52.29,2.97.66,2.97.66l.19-.11-.65-1.05-2.87-.22s-.05-.76-.6-1.39c-.55-.63-1.02.31-.97.6.05.29.05.47.05.47,0,0-4.91-.05-5.2-.29-.29-.24-.24-1.52-.86-1.73-.63-.21-.44,1.7-.44,1.7l-4.62-.26s-.1-.78-.65-1.33c-.55-.55-.26,1.18-.44,1.31-.18.13-3.21.16-3.74.16s-.5-.92-1.25-1.26c-.76-.34-.55,1.02-.76,1.15-.21.13-1.75-.65-2.09-.94-.34-.29-.91-.1-.63.37Z" class="cls-2"/><path data-cppathid="10012" d="M38.21,12.19c-1.13,1.04-3.98,15.84-3.62,28.6.36,12.76,1.8,8.31,1.8,8.31,0,0,0-5.88.51-15.49.47-8.75,1.4-17.53,1.88-19.12,1-3.35-.23-4.16-.57-2.3Z" class="cls-14"/><path data-cppathid="10013" d="M35.57,52.23c1.31,1.38,6.26,2.87,14.5,3.65,8.24.78,19.03.73,20.18-.1,1.15-.84-1.2,2.35-3.13,3.02-1.93.68-25.34.26-31.55-6.57Z" class="cls-4"/><path data-cppathid="10014" d="M51.23.23c-.37.34-.47.51,1.38.51,1.85,0,17.09.76,17.27.49.19-.27.37-.55-.07-.57-.43-.01-18.28-.65-18.59-.43Z" class="cls-5"/><path data-cppathid="10015" d="M49.82,6.25c-.16.03-5.7,2.05-5.93,2.7-.23.65,6.74-1.92,6.87-2.28.13-.37-.94-.42-.94-.42Z" class="cls-5"/><path data-cppathid="10016" d="M42.12,23.81c-1.47.48-1.67,1.88-1.67,1.88,0,0-.31,9.55-.31,10.03s-.13,1.95,1.17,2.86c1.3.91,18.89,2.86,20.57,2.73,1.69-.13,2.34-.56,2.73-1.21.39-.65.5-12.36.22-13.07s-1.34-1.26-1.65-1.43c-.3-.17-21.06-1.79-21.06-1.79Z" class="cls-12"/><path data-cppathid="10017" d="M45.61,27.81c.62.07.62-.83,0-.9-.55-.06-1.1-.12-1.64-.19-.27-.03-.49.15-.49.4v7.82c0,.57.96.68.96.11v-4.12c.32.04.66.07.98.11.62.07.62-.85,0-.92-.32-.04-.66-.07-.98-.11v-2.33c.39.04.78.09,1.17.13Z" class="cls-18"/><path data-cppathid="10018" d="M49.13,35.17c-.66-.07-.67-.08-1.33-.15v-7.13c0-.59-.92-.7-.92-.1v7.59c0,.26.2.48.46.51.82.09.97.11,1.79.2.59.07.59-.85,0-.92Z" class="cls-18"/><path data-cppathid="10019" d="M53.02,30.59c-.08-.64-.22-1.28-.54-1.88-.26-.5-.74-1.05-1.33-1.01-.5.04-.75.55-.93.96-.22.54-.3,1.17-.34,1.77-.07.88.03,1.82.11,2.71.04.54.11,1.08.22,1.6.08.37.18.79.39,1.14.03.1.09.19.22.25.58.35,1.1.26,1.47-.22.28-.39.38-.93.53-1.4.16-.57.22-1.22.26-1.82.05-.69.04-1.4-.04-2.09h0ZM51.48,28.63l-.18-.05.18.05h0ZM52,33.87c-.07.38-.19.76-.31,1.12-.05.14-.13.31-.22.39-.01.03-.04.04-.05.05h0s-.01,0-.03.01h-.01s0,.01,0,.01c-.01-.02-.03-.02-.04-.02-.19-.36-.26-.78-.32-1.2-.11-.61-.15-1.22-.19-1.83-.07-1.09-.12-2.17.17-3.19.07-.21.15-.39.27-.56.01-.01.04-.04.07-.06h.01c.4.26.58.96.67,1.37.3,1.27.22,2.67-.03,3.89Z" class="cls-18"/><path data-cppathid="10020" d="M53.73,28.56c-.07.7.01,1.43.03,2.14,0,.53-.03,1.05-.03,1.57,0,.64.04,1.3.13,1.94.08.58.22,1.17.53,1.67.54.87,1.64,1.17,2.25.4.4-.52.47-1.27.55-1.93.09-.78.12-1.57.11-2.37-.01-1.05-.08-2.09-.16-3.14-.05-.57-.96-.69-.9-.1.15,1.75.26,3.53.09,5.24-.05.56-.08,1.35-.47,1.75q-.07.07-.16.12c.08-.03-.04,0-.05,0h-.07s-.07-.03-.11-.05c.09.04-.01-.02-.04-.02-.04-.03-.08-.06-.12-.11.07.06-.08-.09-.11-.12-.03-.03-.11-.16-.15-.25-.12-.24-.18-.53-.24-.79-.12-.62-.16-1.24-.17-1.86-.01-.51.01-1.02.01-1.53.03-.72-.05-1.45-.04-2.17,0-.09.01-.2.03-.29.04-.57-.85-.66-.9-.1Z" class="cls-18"/><path data-cppathid="10021" d="M62.06,38.41s-.05-.02-.07-.03c-.03-.02-.05-.03-.05-.03-.07-.06-.13-.15-.16-.19-.15-.25-.26-.5-.34-.74-.22-.62-.34-1.24-.46-1.86-.16-.72-.39-1.59-.85-2.21.16-.1.3-.26.39-.47.27-.59.26-1.35.22-2.01-.03-.45-.05-.98-.34-1.39-.43-.6-1.15-.76-1.79-.8-.23-.01-.38.11-.43.27-.04.05-.07.14-.07.23v7.49c0,.58.93.69.93.1v-3.26c.86.41.98,1.93,1.16,2.7.13.64.3,1.25.55,1.86.2.48.54.99,1.05,1.18.58.2.84-.65.26-.86h0ZM59.54,29.81s.11.11.08.08c.15.22.16.46.18.73.05.46.05.95-.01,1.41-.03.17-.07.37-.2.5-.11.14-.34.08-.5.04-.01,0-.03,0-.04,0v-2.92c.11.01.22.04.32.08.07.02.11.05.18.09Z" class="cls-18"/></g><g><g><path data-cppathid="10022" d="M32.24,66.35s.02-.43.02.14-2.31,2.47-8.93,2.51c-6.62.04-9.07-1.88-9.07-2.51s.09-.32.25-.47c.53-.95.82-1.88-.25-2.99h18c-.51,1.07-.43,2.04,0,3.32h-.02Z" class="cls-8"/><path data-cppathid="10023" d="M14.7,65.61c.33-.68.46-1.36,0-2.12.27-.19.6-.37,1-.53h15.26c.44.18.81.38,1.09.6-.18.64-.16,1.26,0,1.98-1.34,1.03-4.8,2.24-8.73,2.24s-7.21-1.16-8.62-2.16Z" class="cls-13"/><path data-cppathid="10024" d="M46.42,42.93c0,.19,0,.39,0,.58,0,12.82-10.4,23.22-23.22,23.22S0,56.34,0,43.52c0-.19,0-.39,0-.58h46.42Z" class="cls-12"/><path data-cppathid="10025" d="M42.58,54.74c-.45.64-1.24,3.29-1.74,3.88-4.35,2.9-11.71,6.95-19.84,6.49-5.61-.32-10.72-2.9-14.68-5.69-1.4-1.49-2.61-3.16-3.58-4.98,6.14,2.98,15.16,4.69,21.88,4.75,10,.09,14.39-3.45,17.97-4.46Z" class="cls-8"/><path data-cppathid="10026" d="M5.73,42.93c.67,1.17-.04,7.13,3.41,11.84,3.45,4.71,6.51,5.8,8,6.12,1.49.31-.15-1.15-1.33-4.94-1.18-3.8-1.41-9.53-1.41-9.53l-8.68-3.49Z" class="cls-7"/><path data-cppathid="10027" d="M1.33,42.87h4.2c-.45,2.34-.7,6.16.59,9.49,1.88,4.86,7.92,10.51,7.92,10.51,0,0-4.39-1.49-8.94-7.22-3.03-3.82-3.7-9.18-3.77-12.78Z" class="cls-15"/><path data-cppathid="10028" d="M46.43,43.22c0,.1,0,.19,0,.29,0,12.29-9.55,22.35-21.63,23.16,10.85-1.85,18.84-11.75,21.63-23.45Z" class="cls-13"/><path data-cppathid="10029" d="M30.17,65.38c-2.81,1.21-5,1.35-6.96,1.35s-1.32-.03-1.97-.08c4.24-2.1,6.9-5.33,9.55-10.78,4.43-9.08,3.93-12.26,3.93-12.26,0,0,4.38-.02,5.02.34.63.36,3.39-1.01,3.39-1.01,0,0-2.41,14.69-12.96,22.45Z" class="cls-16"/><path data-cppathid="10030" d="M23.27,47.39c12.81,0,23.26-1.88,23.26-4.19s-10.45-4.19-23.26-4.19S.01,40.89.01,43.2s10.45,4.19,23.26,4.19Z" class="cls-17"/><path data-cppathid="10031" d="M23.27,46.63c11.89,0,21.6-1.54,21.6-3.44s-9.7-3.44-21.6-3.44-21.6,1.54-21.6,3.44,9.7,3.44,21.6,3.44Z" class="cls-11"/><path data-cppathid="10032" d="M41.32,41.31c2.24.54,3.54,1.19,3.54,1.89,0,.86-1.97,1.64-5.24,2.24.9-1.21,1.66-2.66,1.7-4.13Z" class="cls-4"/><path data-cppathid="10033" d="M32.57,40.1c1.29.1,2.51.22,3.64.35-.85,2.31-2.84,5.77-3.63,5.85-.86.07-1.75.12-2.67.17.95-1.53,2.14-3.77,2.66-6.37Z" class="cls-9"/><path data-cppathid="10034" d="M13.79,46.29c-.78-.07-2.88-.27-3.6-.35-.09-2.05.38-3.69,1.16-5.6,2.12-.22,4.5-.39,7.05-.48-2.48,1.88-3.97,4.43-4.62,6.44h0ZM8.94,45.77c-4.46-.63-7.27-1.55-7.27-2.57,0-1.08,3.15-2.05,8.07-2.68-.48,1.49-.75,3.46-.8,5.25Z" class="cls-4"/></g><path data-cppathid="10035" d="M5.02,45.04c.11,0,1.28.31,2.98.59,1.9.32,4.47.63,6.96.74,4.72.22,10.02.26,10.73.24.45,0,3.4-.08,6.05-.25,1.41-.09,2.8-.26,4.21-.33,2.12-.11,6.64-1.08,7.97-1.76,1.44-.73,1.03-1.13.88-1.34-.04-.06-.2-.5-.58-.8-.87-.68-2.43-1.52-3.01-1.93-.83-.59-2.24-.43-2.55-.75-.31-.31-1.06-3.14-2.44-3.77-1.38-.63-3.03-.16-4.09-.63-1.06-.47-2.79-2.16-3.77-2.6-.98-.43-1.22-.71-1.93-.51-.71.2-2.4-2.22-3.34-1.99-.94.24-1.85,3.09-2.99,2.85-1.14-.24-1.85-.83-3.14.04-1.3.87-1.85,2.56-3.03,2.6-1.18.04-2.16-.59-3.62.2-1.45.79-1.57,1.73-2.79,2.12-1.22.39-1.02,1.29-1.89,1.88-.86.59-2.5,2.16-2.91,2.32-.41.16-.32.3-.7.6-.38.3-.48.84-.29.93,0,0,.07.11.13.19.07.1.27.25.45.36.54.37,1.48.9,2.69.99Z" class="cls-5"/><path data-cppathid="10036" d="M5.02,45.04c.11,0,1.28.31,2.98.59,1.9.32,4.47.63,6.96.74,3.08.14,6.41.21,8.55.23-.26-.03-.55-.86-.76-1.11-.22-.25-.57-.23-1.1-.65-.53-.41-.67-1.22-1.51-.92-.85.3-2.18,1.22-3.4.83-1.22-.39-.45-1.2-1.76-1.05-1.31.15-1.51.58-2.61.58s-.78-.57-1.98-.95c-1.2-.39-1.22-.05-2.27.05-1.05.1-2.12-.39-2.08-.79.04-.39.79-.71.31-.9-.22-.09-.56-.06-.85-.04.57-.64,1.85-2.54,2.21-2.95.41-.47,1.37-.47,1.51-.57.14-.1,1.26-1.38,2.36-1.75,1.1-.37,2.47.12,3.32-.18.85-.3,2.44-2.48,2.91-2.6.47-.12,2.38.06,2.53-.08.16-.14.28-.47-.06-.37-.33.1-1.91-.3-2.95.06-1.04.35-1.49,1.89-2.85,2.56-1.36.67-.86.14-2.14.04-1.28-.1-1.83.35-2.3.63-.47.28-1.06,1.06-1.61,1.38-.55.31-1.08.53-1.43.81-.35.28-.73,1.14-.98,1.48-.15.2-.64.82-1.02,1.29v-.02c.21-.51,1.67-1.81-.4-.49-.01-.05-.17-.07-.42-.04-.63.54-1.23,1.05-1.45,1.14-.41.16-.32.3-.7.6-.38.3-.48.84-.29.93,0,0,.07.11.13.19.07.1.27.25.45.36.54.37,1.48.9,2.69.99h0ZM23.53,46.6h.01s0,0-.01,0h0Z" class="cls-10"/><path data-cppathid="10037" d="M23.1,46.6c1.35.02,2.32.02,2.59.02.45,0,3.4-.08,6.05-.25,1.41-.09,2.8-.26,4.21-.33,2.12-.11,6.64-1.08,7.97-1.76,1.44-.73,1.03-1.13.88-1.34-.04-.06-.2-.5-.58-.8-.87-.68-2.43-1.52-3.01-1.93-.83-.59-2.24-.43-2.55-.75-.31-.31-1.06-3.14-2.44-3.77-1.38-.63-3.03-.16-4.09-.63-1.06-.47-2.79-2.16-3.77-2.6-.98-.43-1.22-.71-1.93-.51-.57.16-1.71-.67-2.63-.88,1.07.67,2.74,1.55,3.28,2.06.83.79.81,2.3.41,2.89-.39.59-1.1,1.65-.12,1.97.98.31,2,1.17,1.57,1.9-.43.73-2.43.97-2.55,1.8-.12.83.67,1.93-.31,2.2-.98.28-2.55.71-3.14,1.14-.33.24-.21.95.16,1.57Z" class="cls-10"/><path data-cppathid="10038" d="M24.94,46.61c.37,0,.63,0,.75,0,.45,0,3.4-.08,6.05-.25,1.41-.09,2.8-.26,4.21-.33,2.08-.11,6.44-1.04,7.87-1.71.09-.46-.09-.87-.21-1.1-.35-.67-2.78-1.88-3.62-2.48-.84-.6-2.32-1.34-2.95-2.24-.63-.9-2.44-2.68-4.76-2.09,1.06.71,2.18,1.56,1.56,2.43-.62.87-1.44,2.07-1.64,2.68-.2.62-.98.28-1.77,1.1-.79.83-.9,2.4-1.73,2.48-.83.08-3.18.59-3.54.9-.32.28-.26.55-.24.61Z" class="cls-3"/><path data-cppathid="10039" d="M24.06,33.3c.77.04,1.53.26,1.63.98.1.73.49,1.1.16,1.5-.33.39-.14.83.18.49.31-.33.55-.92.33-1.48-.22-.55-.37-1.2-.73-1.44s-1.87-.49-1.57-.06Z" class="cls-10"/><path data-cppathid="10040" d="M8.62,41.07c.27-.43,1.06-1.5,2.2-1.26,1.14.24,1.12.63,1.73.69.61.06,1.49-1.16,2.22-1.57.73-.41,2.08,1.26,3.03,1.42.94.16,1.61-1.46,2.71-1.54,1.1-.08,1.87.15,2.32.55.44.41.94-.35,1.33-.35.39,0,1.14.48,1.18.77s-.45.19-.69,0c-.24-.2-.94-.33-1.38,0-.44.32-1.13-.5-1.62-.5s-1.26.02-1.73.39c-.47.37-1.26,1.14-2,1.2-.74.06-2.63-1.48-2.91-1.42-.28.06-1.63,1.75-2.28,1.57-.65-.18-1.67-.94-2.24-.85-.57.1-1.04.65-1.3.79-.26.14-.57.12-.57.12Z" class="cls-10"/></g></g></g></svg>