<?xml version="1.0" encoding="UTF-8"?>
<svg xmlns="http://www.w3.org/2000/svg" onmouseup="{ if(window.parent.document.onmouseup) window.parent.document.onmouseup(arguments[0]);}" viewBox="0 0 121.88 100.51" id="Layer_2"><defs><style>
      .cls-1 {
        fill: #d82a4f;
      }

      .cls-2 {
        fill: #ff4060;
      }

      .cls-3 {
        fill: #fff;
      }

      .cls-4 {
        fill: #a3aac1;
      }

      .cls-5 {
        fill: #b9c0d6;
      }

      .cls-6 {
        fill: #ff6c8c;
      }

      .cls-7 {
        fill: #d0dee2;
      }

      .cls-8 {
        fill: #e8f4f9;
      }
    </style></defs><g data-name="Ñëîé_2" id="_Ñëîé_2"><g><path data-cppathid="10000" d="M121.85,2.98c0,1.65-2.11,2.98-4.71,2.98s-4.71-1.34-4.71-2.98,2.11-2.98,4.71-2.98,4.71,1.33,4.71,2.98Z" class="cls-4"/><ellipse data-cppathid="10001" ry="2.01" rx="3.18" cy="2.01" cx="116.91" class="cls-5"/><path data-cppathid="10002" d="M35.86,86.44v9.31c0,1.77,5.12,3.32,12.72,4.14,3.64.4,7.86.62,12.35.62,13.85,0,25.08-2.13,25.08-4.76v-9.31h-50.15Z" class="cls-1"/><path data-cppathid="10003" d="M121.88,37.11c0,5.96-.93,11.73-2.66,17.16-1.09,3.44-2.5,6.75-4.2,9.9-1.04,1.89-2.14,3.72-3.39,5.46-2.16,3.1-4.61,5.99-7.32,8.63-11.04,10.79-26.4,17.48-43.39,17.48s-32.49-6.75-43.55-17.66c-2.86-2.79-5.42-5.88-7.65-9.2-1.19-1.76-2.28-3.58-3.25-5.48-1.69-3.22-3.08-6.61-4.12-10.15-1.54-5.13-2.35-10.55-2.35-16.16h121.88Z" class="cls-1"/><path data-cppathid="10004" d="M121.88,37.11c0,2.03-2.81,3.96-7.73,5.63-10.43,3.53-30.35,5.92-53.22,5.92-10.91,0-21.16-.54-30.01-1.51-8.16-.89-15.16-2.1-20.42-3.57-6.63-1.84-10.5-4.08-10.5-6.47,0-3.35,7.51-6.38,19.53-8.48,10.87-1.89,25.41-3.07,41.4-3.07,4.92,0,9.71.11,14.3.32,5.5.25,10.72.64,15.52,1.15,18.59,1.98,31.13,5.75,31.13,10.08Z" class="cls-6"/><path data-cppathid="10005" d="M119.23,54.27c-1.09,3.44-2.5,6.75-4.2,9.9-1.04,1.89-2.14,3.72-3.39,5.46-2.16,3.1-4.61,5.99-7.32,8.63-26.72,6.86-55.84,6.38-86.94-.18-2.86-2.79-5.42-5.88-7.65-9.2-1.19-1.76-2.28-3.58-3.25-5.48-1.69-3.22-3.08-6.61-4.12-10.15,34.26,15.02,89.42,10.93,116.88,1.01Z" class="cls-2"/><path data-cppathid="10006" d="M114.15,42.74c-10.43,3.53-30.35,5.92-53.22,5.92-10.91,0-21.16-.54-30.01-1.51-8.16-.89-15.16-2.1-20.42-3.57,0,0,.54-.33,1.51-.9,5.05-2.97,21.55-12.35,29.61-12.75,9.6-.48,16.43,3.42,22.13,3.25,4-.11,7.11-4.55,11.48-7.3,1.85-1.16,3.94-2.03,6.42-2.13,3.47-.14,6.29,1.29,9.1,3.28,1.22.87,2.42,1.84,3.68,2.82,2.79,2.21,5.84,4.54,9.68,6.1,4.88,1.99,8.08,4.65,10.04,6.79Z" class="cls-8"/><path data-cppathid="10007" d="M114.15,42.74c-10.43,3.53-30.35,5.92-53.22,5.92-10.91,0-21.16-.54-30.01-1.51-8.16-.89-15.16-2.1-20.42-3.57,0,0,.54-.33,1.51-.9,2.93.65,9.16,1.72,20.1,2.19,16.43.71,10.73,1.26,21.96,2.79,11.23,1.55,18.96-2.68,24.73-4.23,5.78-1.54,7.48,2.93,15.46.9,7.5-1.91-.57-8.01.17-14.48,2.79,2.21,5.84,4.54,9.68,6.1,4.88,1.99,8.08,4.65,10.04,6.79Z" class="cls-7"/><g><g><g><path data-cppathid="10008" d="M41.84,31.61c.26-.33.93-.27,1.1.15.14.36.33.62.69.8.24.12.38.39.32.69-.03.13-.02.25-.02.38-.01.41-.18.62-.57.71-.08.02-.16.02-.24.03-.62.11-.76-.3-.7-.72.02-.14.06-.28.1-.42.08-.33.07-.37-.23-.52-.27-.13-.49-.28-.57-.59-.04-.18-.01-.35.13-.52Z" class="cls-3"/><path data-cppathid="10009" d="M24.87,41.4c-.37-.31-.35-.67.07-.95.16-.11.28-.21.37-.4.14-.3.67-.44.97-.29.2.1.23.29.24.49,0,.21-.12.35-.29.46-.02.01-.08-.03-.13-.05-.05-.02-.1-.09-.1.04,0,.12-.02.25-.04.38-.06.44-.29.6-.72.51-.15-.03-.26-.11-.36-.19Z" class="cls-3"/><path data-cppathid="10010" d="M60.77,38.35c-.17.17-.33.42-.55.5-.3.11-.65.11-.98.1-.14,0-.27-.16-.25-.36.03-.18.09-.35.29-.39.19-.04.37-.06.42-.3.03-.13.24-.07.32-.18.06-.07.23-.18-.04-.18-.05,0-.05-.08,0-.11.05-.03.12-.05.18-.07.27-.07.54-.14.74.14.16.22.1.57-.13.85Z" class="cls-3"/><path data-cppathid="10011" d="M67.21,47.16c-.17.17-.33.42-.55.5-.3.11-.65.11-.98.1-.14,0-.27-.16-.25-.36.03-.18.09-.35.29-.39.19-.04.37-.06.42-.3.03-.13.24-.07.32-.18.06-.07.23-.18-.04-.18-.05,0-.05-.08,0-.11.05-.03.12-.05.18-.06.27-.07.54-.14.74.14.16.22.1.57-.13.85Z" class="cls-3"/><path data-cppathid="10012" d="M42.88,38.75c.11-.09.23-.2.21.07.02,0,.04,0,.05,0,.25-.18.52-.25.83-.18.08.02.13-.08.19-.12.2-.13.32-.07.38.14.04.15,0,.28-.03.42-.03.19-.2.16-.34.19-.1.02-.15.11-.21.18-.21.22-.48.3-.78.26-.43-.06-.58-.3-.41-.7.04-.09.09-.17.13-.25Z" class="cls-3"/><path data-cppathid="10013" d="M43.78,41.13c-.32-.25-.29-.72.07-.97.14-.1.31-.18.44-.1.2.12.46,0,.62.23.27.39.18.72-.28.88-.44.15-.62.14-.85-.04Z" class="cls-3"/><path data-cppathid="10014" d="M50.4,31.14c-.32-.25-.29-.72.07-.97.14-.1.31-.18.44-.1.2.12.46,0,.62.23.27.39.18.72-.28.88-.44.15-.62.14-.85-.04Z" class="cls-3"/><path data-cppathid="10015" d="M32.06,44.82c-.32-.25-.29-.72.07-.97.14-.1.31-.18.44-.1.2.12.46,0,.62.23.27.39.18.72-.28.88-.44.15-.62.14-.85-.04Z" class="cls-3"/><path data-cppathid="10016" d="M60.73,45.97c-.32-.25-.29-.72.07-.97.14-.1.31-.18.44-.1.2.12.46,0,.62.23.27.39.18.72-.28.88-.44.15-.62.14-.85-.04Z" class="cls-3"/><path data-cppathid="10017" d="M49.19,36.71c-.45.53-1.05.49-1.39.2-.15-.13-.23-.25-.12-.45.04-.07.05-.15.07-.22.07-.32.14-.37.39-.23.15.09.3.09.45.09.2,0,.37.06.53.18.19.14.2.26.06.44Z" class="cls-3"/><path data-cppathid="10018" d="M55.02,34.4c-.45.53-1.05.49-1.39.2-.15-.13-.23-.26-.12-.45.04-.07.05-.15.07-.22.07-.32.14-.37.39-.23.15.09.3.09.45.09.2,0,.37.06.53.18.19.14.2.26.06.44Z" class="cls-3"/><path data-cppathid="10019" d="M54.23,39.77c-.17.06-.15.22-.17.36-.04.25-.33.36-.49.12-.07-.1-.11-.12-.22-.09-.22.05-.4-.05-.46-.24-.07-.2-.04-.41.13-.57.3-.29.48-.31.85-.08.08.05.15.04.22.05.11.02.22,0,.27.15.04.12.03.16-.14.32Z" class="cls-3"/><path data-cppathid="10020" d="M49.99,38c-.23.28-.82.32-1.09.08-.24-.22-.21-.64.06-.9.12-.12.24-.21.39-.01.05.07.21.22.25-.04,0-.06.07-.07.11-.05.31.1.49.68.29.93Z" class="cls-3"/><path data-cppathid="10021" d="M31.71,32.47c.2-.25.49-.37.71-.28.26.11.41.36.4.65,0,.15-.03.24-.21.25-.15.01-.34.03-.21.28.02.05-.07.1-.14.1-.26,0-.52-.03-.69-.25-.14-.17-.06-.5.14-.75Z" class="cls-3"/><path data-cppathid="10022" d="M50.35,38.88c.09.05.17.28.28,0,.02-.04.13,0,.15.06.07.16.14.32.15.5,0,.06-.01.13-.04.19-.09.22-.39.32-.7.25-.34-.07-.58-.3-.58-.55,0-.27.21-.54.47-.6q.08-.02.26.14Z" class="cls-3"/><path data-cppathid="10023" d="M35.08,35.62c-.25.3-.53.32-.81.08-.12-.1-.23-.22-.27-.39-.05-.21-.1-.43.07-.59.17-.17.41-.19.63-.12.09.03.33.04.12.24.04.05.09.09.13.14.08.09.26.07.25.25-.01.15-.04.29-.13.38Z" class="cls-3"/><path data-cppathid="10024" d="M64.11,38.5c-.14.16-.31.19-.5.07-.12-.08-.22-.21-.34,0,0,0-.03,0-.04,0-.18-.15-.26-.35-.27-.59,0-.2.12-.34.28-.4.23-.08.47-.09.7.03.34.18.42.6.17.89Z" class="cls-3"/><path data-cppathid="10025" d="M36.1,31.05c.35.3.32.49-.1.67-.07.03-.15.08-.22.07-.26-.03-.5-.06-.65.23-.04.08-.17.07-.26,0-.08-.06-.16-.12-.15-.22,0-.14.11-.21.22-.21.2,0,.25-.08.29-.27.11-.58.42-.67.88-.28Z" class="cls-3"/><path data-cppathid="10026" d="M57.81,40.56c-.16-.18-.24-.38-.16-.62.08-.24.28-.34.53-.34.05,0,.1,0,.14,0,.22.03.47,0,.55.28.06.22-.17.63-.4.77-.22.13-.46.09-.65-.1Z" class="cls-3"/><path data-cppathid="10027" d="M53.03,44.73c-.16-.18-.24-.38-.16-.62.08-.24.28-.34.53-.34.05,0,.1,0,.14,0,.22.03.47,0,.55.28.06.22-.17.63-.4.77-.22.13-.46.09-.65-.1Z" class="cls-3"/><path data-cppathid="10028" d="M52.47,40.51c.23-.29.44-.34.7-.2.29.16.39.47.26.77-.07.17-.28.28-.51.27-.27,0-.44-.18-.57-.38-.11-.17.04-.33.12-.46Z" class="cls-3"/><path data-cppathid="10029" d="M37.3,31.5c.03.06.07.13.08.21.06.31,0,.62.1.93.05.14-.04.31-.25.34-.21.03-.29-.12-.31-.28-.02-.2-.02-.38-.26-.45-.01,0-.02-.02-.03-.04-.1-.14-.04-.28.2-.52.12-.13.26-.24.47-.19Z" class="cls-3"/><path data-cppathid="10030" d="M32.43,37.53c.18-.21.43-.31.62-.23.18.07.31.34.29.6,0,.13-.06.21-.17.26-.29.12-.56.03-.83-.06-.09-.03-.08-.12-.09-.2-.01-.16.1-.26.18-.37Z" class="cls-3"/><path data-cppathid="10031" d="M27.33,35.4s.06-.07.1-.1c.18-.15.51-.17.66-.05.12.1.18.53.09.68-.05.09-.15.13-.24.15-.26.06-.5-.03-.73-.15-.08-.05-.09-.12-.08-.21.01-.14.1-.23.19-.32Z" class="cls-3"/><path data-cppathid="10032" d="M52.01,42.13c.05-.05.11-.1.17-.15.13-.1.26-.19.43-.09.19.12.28.31.28.52,0,.17-.13.28-.28.35-.11.05-.21.06-.33.04-.18-.03-.35-.07-.44-.25-.09-.19.13-.27.16-.43Z" class="cls-3"/><path data-cppathid="10033" d="M66.14,41.56c-.31-.24-.29-.51.06-.7.04-.02.08-.04.13-.06.32-.13.46-.11.55.04.12.21.07.54-.11.69-.23.21-.38.22-.63.02Z" class="cls-3"/><path data-cppathid="10034" d="M39.67,41.69c.19-.24.5-.31.66-.18.17.14.22.46.11.65-.09.15-.71.3-.87.2-.1-.07-.14-.17-.09-.29.06-.14.13-.29.18-.38Z" class="cls-3"/><path data-cppathid="10035" d="M26.02,35.33c-.12.2-.28.14-.47.04-.17-.09-.39-.13-.41-.35-.03-.25.24-.27.38-.36.26-.17.42-.14.59.05.14.16.12.35-.09.61Z" class="cls-3"/><path data-cppathid="10036" d="M38.7,40.56c.1-.1.15-.16.21-.21.21-.17.38-.19.52-.08.14.11.23.41.17.57-.07.19-.27.28-.51.26-.12-.01-.22-.06-.31-.12-.21-.14-.22-.27-.08-.41Z" class="cls-3"/><path data-cppathid="10037" d="M64.65,41.65c-.23-.18-.21-.34.04-.47.1-.05.19-.11.29-.15.12-.05.25-.08.36-.01.23.14.11.33.05.51-.05.16-.07.37-.32.31-.15-.04-.31-.08-.42-.18Z" class="cls-3"/><path data-cppathid="10038" d="M29.68,38.99c-.09-.19-.2-.4-.15-.63.02-.12.11-.17.25-.15.23.02.41.17.62.24.11.04.11.21.05.29-.16.19-.39.27-.63.31-.04,0-.09-.03-.14-.06Z" class="cls-3"/><path data-cppathid="10039" d="M37.95,35.17c-.1-.1-.27-.18-.2-.34.08-.19.2-.36.42-.42.13-.04.23.03.25.15.03.17.05.34.03.51-.02.25-.19.32-.39.19-.04-.03-.07-.06-.11-.09Z" class="cls-3"/><path data-cppathid="10040" d="M45.04,32.76c-.13-.1-.19-.6-.1-.69.13-.12.31-.06.39.02.1.1.22.23.19.41-.02.09,0,.23-.1.25-.13.03-.27,0-.38,0Z" class="cls-3"/><path data-cppathid="10041" d="M49.85,35.21c.08-.11.16-.22.32-.17.1.03.15.1.18.2.05.15-.02.24-.13.32-.18.14-.45.2-.52.1-.07-.09-.01-.27.15-.46Z" class="cls-3"/><path data-cppathid="10042" d="M25.7,37.63c-.11.11-.26.12-.38.02-.11-.1-.13-.33-.04-.43.07-.08.29-.08.39,0,.12.1.14.3.03.42Z" class="cls-3"/><path data-cppathid="10043" d="M31.08,37.05c.15.11.19.3.09.41-.12.13-.27.09-.39.04-.13-.06-.16-.3-.07-.42.09-.12.25-.13.38-.03Z" class="cls-3"/><path data-cppathid="10044" d="M60.44,40.25c-.1.13-.23.11-.37.03-.14-.08-.19-.22-.14-.36.03-.1.34-.16.43-.1.12.09.17.31.08.44Z" class="cls-3"/><path data-cppathid="10045" d="M43.26,35.41c.13.1.16.31.06.43-.09.11-.31.12-.43.01-.13-.12-.04-.27-.01-.4.02-.1.29-.11.39-.03Z" class="cls-3"/><path data-cppathid="10046" d="M47.21,42.48c-.1.14-.31.18-.41.07-.11-.11-.14-.23-.03-.38.11-.16.22-.14.36-.05.15.1.18.23.08.36Z" class="cls-3"/><path data-cppathid="10047" d="M46.52,38c-.1-.11-.14-.24-.04-.38.06-.09.31-.13.38-.06.13.11.13.34,0,.46-.12.11-.23.06-.34-.02Z" class="cls-3"/><path data-cppathid="10048" d="M38.06,41.79c.12.1.14.31.03.43-.1.11-.23.12-.33,0-.09-.09-.16-.21-.07-.34.08-.11.3-.16.38-.1Z" class="cls-3"/><path data-cppathid="10049" d="M58.2,37.8c-.1.1-.22.11-.34.04-.13-.08-.16-.25-.07-.37.09-.13.21-.13.33-.05.13.08.16.27.07.39Z" class="cls-3"/><path data-cppathid="10050" d="M62.13,37.46c-.12-.09-.14-.21-.08-.34.05-.12.26-.16.38-.09.12.07.15.26.08.38-.07.12-.25.14-.38.05Z" class="cls-3"/><path data-cppathid="10051" d="M41.58,42.27c-.1.12-.26.13-.37.03-.12-.1-.1-.22-.01-.33.09-.11.27-.13.37-.04.09.08.1.23.01.34Z" class="cls-3"/><path data-cppathid="10052" d="M37.84,38.9c.13.12.11.26.02.38-.09.12-.23.09-.34,0-.12-.09-.12-.28-.03-.38.08-.09.25-.09.34,0Z" class="cls-3"/><path data-cppathid="10053" d="M46.55,38.8c.07.09.07.2-.01.26-.08.06-.2.12-.3.02-.06-.06-.04-.16.03-.21.08-.06.17-.16.29-.07Z" class="cls-3"/><path data-cppathid="10054" d="M30.95,42.08c.11.08.08.2.04.29-.04.1-.12.07-.19.01-.09-.07-.17-.16-.1-.27.05-.08.15-.1.24-.04Z" class="cls-3"/><path data-cppathid="10055" d="M36.82,35.66c.08.08.16.17.05.28-.06.05-.15.06-.22,0-.11-.08-.09-.21-.05-.3.03-.06.14-.04.21.02Z" class="cls-3"/><path data-cppathid="10056" d="M64.59,42.63c-.06.07-.12.1-.2.03-.09-.09-.07-.21-.01-.3.05-.08.14-.06.21,0,.1.07.1.17,0,.28Z" class="cls-3"/><path data-cppathid="10057" d="M46.41,40.25c-.09.05-.17.08-.24.01-.1-.1-.06-.2.03-.29.06-.06.15-.09.2-.02.08.09.05.21,0,.29Z" class="cls-3"/><path data-cppathid="10058" d="M23.8,41.17c-.1.09-.2.05-.26-.01-.08-.08-.06-.18.02-.25.05-.04.11-.08.17-.02.08.08.14.17.07.29Z" class="cls-3"/><path data-cppathid="10059" d="M43.1,40.29c-.09.07-.18.04-.26,0-.09-.05-.14-.13-.06-.23.05-.07.14-.09.21-.05.1.06.15.16.11.28Z" class="cls-3"/><path data-cppathid="10060" d="M42.1,40.4c-.08-.06-.03-.14,0-.2.07-.14.18-.09.27-.02.06.04.13.11.08.19-.09.14-.22.07-.34.03Z" class="cls-3"/><path data-cppathid="10061" d="M50.89,40.8c-.08.09-.3.11-.34.04-.05-.08,0-.15.05-.21.07-.08.16-.1.25-.03.06.05.08.13.04.2Z" class="cls-3"/><path data-cppathid="10062" d="M37.39,42.11c-.09.08-.18.05-.26,0-.08-.06-.13-.15-.04-.24.06-.07.15-.05.21,0,.07.06.14.14.09.25Z" class="cls-3"/><path data-cppathid="10063" d="M33.81,37.79c-.06.08-.12.1-.2.04-.09-.07-.08-.16-.01-.24.05-.06.1-.12.19-.05.09.08.06.16.02.24Z" class="cls-3"/><path data-cppathid="10064" d="M32.01,36.7c.06.05.08.11.04.17-.06.1-.15.1-.24.04-.06-.05-.14-.11-.06-.19.07-.07.17-.06.26-.02Z" class="cls-3"/><path data-cppathid="10065" d="M47.56,37.17c-.08.04-.17.06-.25-.02-.06-.06-.07-.14,0-.2.08-.09.17-.04.24.02.06.05.08.13.02.2Z" class="cls-3"/></g><g><path data-cppathid="10066" d="M49.71,42.19c-.11-.05-.25-.12-.39-.2-.27-.15-.38-.38-.31-.69.07-.34.33-.67.6-.64.33.04.64.21.81.49.11.18.21.33.4.44.29.17.34.54.15.83-.12.2-.43.25-.7.12-.09-.04-.18-.11-.27-.17-.09-.06-.18-.11-.3-.19Z" class="cls-3"/><path data-cppathid="10067" d="M22.8,40.07c.24-.38.42-.44.76-.29.14.06.23.12.34-.04.12-.17.31-.11.48-.1.13.01.18.09.21.2.07.25-.08.53-.32.61-.13.04-.22.08-.3.23-.18.31-.49.47-.87.47-.18,0-.32-.09-.34-.26-.05-.3,0-.61.05-.82Z" class="cls-3"/><path data-cppathid="10068" d="M50.28,36.71c-.14-.06-.34-.2-.42-.45-.12-.35.07-.63.45-.6.16.01.31-.03.46-.06.38-.07.38-.07.54.3.1.23.13.47.07.71-.1.38-.35.52-.7.35-.11-.05-.21-.13-.39-.25Z" class="cls-3"/><path data-cppathid="10069" d="M47.6,32.42c-.14-.06-.34-.2-.42-.45-.12-.35.07-.63.45-.6.16.01.31-.03.46-.06.38-.07.38-.07.54.3.1.23.13.47.07.72-.1.38-.35.52-.7.35-.11-.05-.21-.13-.39-.25Z" class="cls-3"/><path data-cppathid="10070" d="M42.46,36.2c.33.2.4.39.32.83-.03.17.08.38-.18.49-.23.1-.42.19-.59-.06-.09-.13-.25-.11-.37-.18-.3-.18-.38-.65-.13-.91.12-.12.23-.27.44-.08.12.11.17.03.21-.14.04-.13.21,0,.31.04Z" class="cls-3"/><path data-cppathid="10071" d="M27.9,40.37c.09.18.26.14.41.15.28.02.43.31.19.51-.1.09-.12.14-.07.25.09.23,0,.44-.21.53-.21.1-.44.09-.64-.07-.35-.29-.4-.48-.19-.92.04-.09.02-.17.02-.25,0-.12-.02-.25.13-.31.13-.06.17-.05.36.11Z" class="cls-3"/><path data-cppathid="10072" d="M15.16,40.38c.35.21.37.72.04,1.09-.09.1-.21.19-.32.27-.51.35-.62.3-.68-.31-.01-.1-.05-.2-.07-.3-.02-.11-.05-.21.14-.16.09.02.11-.1.12-.19.01-.12-.17-.26.02-.37.2-.11.42-.19.65-.08.03.02.06.03.09.05Z" class="cls-3"/><path data-cppathid="10073" d="M61.93,41.32s-.12-.09-.2-.18c-.36-.43-.16-.96.39-1.07.22-.05.33.02.45.28.06.13.1.27.3.2.09-.03.12.04.13.12.03.29-.02.57-.26.75-.24.18-.49.12-.81-.09Z" class="cls-3"/><path data-cppathid="10074" d="M45.91,45.3s-.12-.09-.2-.18c-.36-.43-.16-.96.39-1.07.22-.04.33.02.45.28.06.13.1.27.3.2.09-.03.12.04.13.12.03.29-.02.57-.26.75-.24.18-.49.12-.81-.09Z" class="cls-3"/><path data-cppathid="10075" d="M33.68,33.06c-.11.21-.31.32-.58.28-.24-.04-.4-.21-.47-.44-.05-.16-.06-.31.12-.4.14-.07.26-.16.02-.26,0,0,0-.07.03-.09.03-.04.07-.07.12-.1.3-.14.69-.11.84.05.19.21.17.58-.08.96Z" class="cls-3"/><path data-cppathid="10076" d="M28.32,36.38c-.17.2-.39.31-.65.25-.27-.06-.4-.26-.43-.53,0-.05-.01-.1-.01-.16,0-.24-.06-.51.24-.63.23-.09.71.1.88.34.17.23.16.49-.03.72Z" class="cls-3"/><path data-cppathid="10077" d="M35.25,39.03c-.19-.11-.24-.3-.2-.52.04-.22.14-.38.36-.47.15-.05.22.04.31.13.04.04.05.03.22-.09.02-.01.02-.05.07-.03.03.02.06.03.09.05.34.28.45.6.28.84-.18.26-.77.31-1.12.08Z" class="cls-3"/><path data-cppathid="10078" d="M17.19,40.31c-.29-.18-.42-.46-.44-.78-.02-.2.08-.37.29-.44.22-.08.43-.03.53.17.07.15.14.28.3.34.24.09.17.29.13.44-.09.32-.52.46-.81.28Z" class="cls-3"/><path data-cppathid="10079" d="M28.93,42.19c-.34-.21-.43-.43-.3-.74.14-.33.46-.48.8-.38.19.06.34.27.36.52.02.29-.14.5-.34.66-.17.14-.36,0-.52-.07Z" class="cls-3"/><path data-cppathid="10080" d="M47.41,37.73c-.39-.28-.38-.49.01-.71.23-.13.48-.24.73-.05.14.11.21,0,.31-.05.11-.07.2.01.24.11.04.1-.03.19-.11.2-.22.03-.33.11-.3.36.02.15-.12.24-.27.27-.24.06-.45,0-.61-.13Z" class="cls-3"/><path data-cppathid="10081" d="M64.4,39.09c-.3.43-.64.44-.93-.01-.1-.16-.31-.33-.17-.56.14-.22.38-.21.61-.21.14,0,.27.05.39.13.27.19.3.38.1.65Z" class="cls-3"/><path data-cppathid="10082" d="M59.98,38.43c.14-.2.3-.38.51-.51.29-.2.34-.2.54.06.04.06.08.11.12.17.21.35.17.45-.24.49-.23.02-.43.03-.55.27-.07.15-.2.18-.35.09-.15-.09-.22-.22-.14-.4.03-.06.07-.12.11-.17Z" class="cls-3"/><path data-cppathid="10083" d="M56.09,45.91c.14-.2.3-.38.51-.51.29-.2.34-.2.54.06.04.05.08.11.12.17.21.35.17.45-.24.49-.23.02-.43.03-.55.27-.07.15-.2.18-.35.09-.15-.09-.22-.22-.14-.4.03-.06.07-.12.11-.17Z" class="cls-3"/><path data-cppathid="10084" d="M42.72,32.72c-.08-.14-.2-.22-.4-.16-.08.02-.16-.06-.17-.16-.01-.1.06-.18.14-.19.19-.01.29-.12.39-.27.14-.19.37-.19.57-.1.21.09.42.18.48.44,0,.03,0,.07,0,.1-.09.29-.72.51-1,.33Z" class="cls-3"/><path data-cppathid="10085" d="M46.94,40.88c.09-.1.23-.21.39-.28.29-.13.43-.04.5.29.03.15.06.3.02.46-.08.33-.23.44-.55.4-.47-.07-.63-.44-.36-.87Z" class="cls-3"/><path data-cppathid="10086" d="M57.58,34.55c.09-.1.23-.21.39-.28.29-.13.43-.04.5.29.03.15.06.3.02.46-.08.33-.23.44-.55.4-.47-.07-.63-.44-.36-.87Z" class="cls-3"/><path data-cppathid="10087" d="M55.25,36.32c.09-.1.23-.21.39-.28.29-.13.43-.04.5.29.03.15.06.3.02.46-.08.33-.23.44-.55.4-.47-.07-.63-.43-.36-.87Z" class="cls-3"/><path data-cppathid="10088" d="M38.29,39.28s.13.09.19.17c.14.18.1.34-.1.46-.1.06-.21.13-.32.17-.21.07-.41.08-.57-.1-.14-.16-.15-.5-.03-.69.14-.22.47-.24.84,0Z" class="cls-3"/><path data-cppathid="10089" d="M30.75,42.49c-.06-.05-.12-.11-.18-.17-.13-.13-.24-.26-.15-.46.1-.22.3-.34.53-.37.19-.02.32.1.41.27.06.11.1.22.09.35-.01.19-.04.39-.22.51-.19.13-.31-.1-.49-.12Z" class="cls-3"/><path data-cppathid="10090" d="M34.65,40.11c-.32-.21-.43-.44-.29-.63.18-.26.65-.35.9-.19.22.14.27.55.1.81-.12.19-.43.19-.7,0Z" class="cls-3"/><path data-cppathid="10091" d="M42.85,39.99c-.17.28-.38.32-.66.15-.17-.11-.27-.27-.32-.46-.07-.27.02-.38.3-.41.1,0,.21-.02.31,0,.46.05.59.34.36.73Z" class="cls-3"/><path data-cppathid="10092" d="M12.95,42.7c.14.05.24.14.23.3-.02.13-.14.19-.24.25-.11.05-.23.06-.35.1-.12.03-.22-.01-.25-.12-.06-.22-.28-.47-.08-.68.19-.2.41,0,.6.1.03.02.06.03.1.05Z" class="cls-3"/><path data-cppathid="10093" d="M38.83,35.35s.06.1.07.16c0,.07-.02.14-.03.2-.08.5-.16.55-.64.4-.16-.05-.29-.14-.31-.31-.03-.18.11-.23.24-.29.11-.05.2-.15.31-.19.11-.04.23-.08.37.03Z" class="cls-3"/><path data-cppathid="10094" d="M18.46,40.88c.17.12.23.5.11.66-.12.15-.38.16-.57.02-.22-.17-.3-.4-.18-.57.14-.21.42-.25.64-.11Z" class="cls-3"/><path data-cppathid="10095" d="M32.37,40.35c.15-.22.34-.28.53-.17.25.16.32.41.17.62-.12.16-.45.25-.6.16-.14-.09-.19-.46-.09-.61Z" class="cls-3"/><path data-cppathid="10096" d="M47.24,38.8c.08.06.08.38,0,.47-.07.08-.34.09-.44.02-.15-.12-.19-.33-.08-.46.11-.15.34-.16.52-.03Z" class="cls-3"/><path data-cppathid="10097" d="M46.2,38.69c-.09.12-.2.23-.38.13-.13-.07-.21-.31-.14-.45.04-.1.35-.19.46-.15.14.06.17.29.07.47Z" class="cls-3"/><path data-cppathid="10098" d="M36.11,41.87c.26.15.31.32.21.48-.1.16-.24.18-.4.1-.17-.08-.22-.27-.12-.43.1-.15.23-.2.31-.15Z" class="cls-3"/><path data-cppathid="10099" d="M27.66,33.57c.15.1.15.24.07.4-.07.16-.21.23-.38.2-.12-.02-.22-.35-.16-.45.08-.14.31-.22.47-.14Z" class="cls-3"/><path data-cppathid="10100" d="M39.8,38.23c.23.13.29.33.21.48-.07.14-.32.2-.45.1-.14-.11-.17-.25-.07-.41.09-.15.2-.24.3-.17Z" class="cls-3"/><path data-cppathid="10101" d="M40.15,39.71c.08-.12.33-.15.46-.05.14.11.1.27.02.37-.09.11-.23.22-.4.13-.15-.08-.18-.29-.08-.45Z" class="cls-3"/><path data-cppathid="10102" d="M39.68,31.11c.08-.14.31-.2.43-.11.13.09.25.21.15.39-.08.16-.37.24-.49.13-.14-.12-.1-.28-.08-.42Z" class="cls-3"/><path data-cppathid="10103" d="M41.23,33.82c.16.1.18.24.1.4-.1.18-.25.22-.43.13-.19-.1-.14-.26-.1-.4.04-.15.29-.21.43-.13Z" class="cls-3"/><path data-cppathid="10104" d="M44.8,38.98c-.09.09-.22.13-.38.06-.15-.07-.21-.32-.11-.45.1-.13.24-.19.4-.09.16.09.21.28.08.48Z" class="cls-3"/><path data-cppathid="10105" d="M33.02,38.18c.08-.12.2-.17.35-.09.16.09.22.29.16.44-.07.16-.24.19-.44.07-.12-.07-.15-.26-.06-.42Z" class="cls-3"/><path data-cppathid="10106" d="M24.24,35.76c-.11.09-.24.19-.41.13-.16-.06-.22-.28-.13-.45.06-.11.28-.15.42-.07.14.09.15.22.12.38Z" class="cls-3"/><path data-cppathid="10107" d="M25.28,36.3c.12.09.15.22.08.36-.07.15-.25.2-.4.12-.15-.09-.16-.22-.09-.36.07-.15.27-.21.41-.13Z" class="cls-3"/><path data-cppathid="10108" d="M43.18,33.71c.12.12.17.26.08.41-.08.14-.19.19-.35.12-.16-.08-.22-.25-.14-.39.07-.13.3-.21.41-.14Z" class="cls-3"/><path data-cppathid="10109" d="M45.91,33.35c.09.11.13.22.07.37-.08.18-.24.27-.37.19-.15-.09-.15-.23-.1-.37.04-.12.29-.24.4-.2Z" class="cls-3"/><path data-cppathid="10110" d="M33.64,34.26c.07.07.14.13.07.22-.08.1-.21.14-.31.04-.07-.07-.13-.19-.06-.28.1-.13.21-.03.3.02Z" class="cls-3"/><path data-cppathid="10111" d="M35.16,40.94c-.11.07-.22.11-.34.04-.09-.05-.11-.14-.06-.22.08-.13.19-.13.31-.04.09.06.1.13.09.22Z" class="cls-3"/><path data-cppathid="10112" d="M54.37,37.72c.11.08.14.19.08.31-.05.09-.13.12-.22.06-.1-.08-.17-.18-.09-.31.05-.09.13-.1.23-.06Z" class="cls-3"/><path data-cppathid="10113" d="M56.33,40.55c.07-.06.16-.09.23-.04.13.1.12.23.04.36-.05.07-.12.07-.18.03-.12-.09-.18-.2-.09-.35Z" class="cls-3"/><path data-cppathid="10114" d="M40.28,32.93c.06.04.12.1.07.17-.06.11-.17.18-.3.13-.1-.03-.12-.13-.08-.21.07-.13.18-.14.31-.09Z" class="cls-3"/><path data-cppathid="10115" d="M53.56,35.74c.07.05.14.1.1.2-.07.14-.19.13-.3.07-.08-.05-.1-.13-.05-.22.07-.11.16-.12.26-.05Z" class="cls-3"/><path data-cppathid="10116" d="M58.23,38.38c.08.1.14.2.04.31-.07.07-.15.07-.22,0-.09-.08-.08-.19-.03-.28.05-.09.14-.08.22-.04Z" class="cls-3"/><path data-cppathid="10117" d="M51.43,37.43c.08-.1.19-.16.31-.1.1.05.06.14.02.22-.05.1-.12.17-.24.1-.08-.05-.11-.12-.09-.22Z" class="cls-3"/><path data-cppathid="10118" d="M46.32,36.72c.11.06.12.11.09.19-.05.11-.1.23-.26.16-.08-.04-.13-.12-.09-.21.05-.14.19-.11.26-.14Z" class="cls-3"/></g><g><path data-cppathid="10119" d="M40.71,36.96c.08-.19.27-.32.47-.3.17.01.34.06.51-.02.09-.05.16.02.22.08.08.07.17.18.28.03,0-.01.05,0,.08,0,.13.06.27.34.25.52-.02.18-.13.28-.3.33-.05.02-.11.04-.17.03-.29,0-.52.11-.72.32-.13.13-.29.22-.46.12-.18-.1-.26-.27-.2-.47.03-.12,0-.23-.01-.34-.01-.1,0-.2.04-.3Z" class="cls-3"/><path data-cppathid="10120" d="M25.01,36.29c-.03.09-.07.22-.12.34-.1.24-.28.35-.54.33-.29-.03-.58-.21-.58-.43,0-.27.11-.54.32-.71.14-.11.25-.21.32-.37.11-.25.4-.33.66-.21.17.08.25.33.17.56-.03.08-.07.16-.11.23s-.08.16-.13.26Z" class="cls-3"/><path data-cppathid="10121" d="M30.19,32.99c.17.08.28.17.37.29.08.11.13.25.05.36-.18.26-.38.51-.69.62-.11.04-.22.08-.33,0-.05-.03-.1-.07-.16-.03-.24.16-.35-.05-.43-.19-.12-.19-.14-.41-.02-.62.14-.25.77-.52,1.05-.47.07.01.14.03.17.04Z" class="cls-3"/><path data-cppathid="10122" d="M34.21,41.09c-.2-.15-.45-.31-.68-.5-.2-.17-.21-.3-.05-.52.06-.08.13-.15.21-.22.19-.17.25-.17.44-.02.07.05.12.15.19.16.18.02.27.1.31.29.01.06.1.14.2.07.15-.1.15-.11.21,0,.01.03.02.05.03.08.07.2.18.41-.02.6-.2.19-.43.21-.68.12-.04-.01-.08-.03-.17-.07Z" class="cls-3"/><path data-cppathid="10123" d="M49.44,40.99c-.13-.08-.26-.21-.33-.39-.13-.3-.06-.52.24-.61.21-.07.39-.12.47-.37.05-.16.41-.23.58-.16.12.05.21.27.17.45-.02.1-.06.19-.12.28-.1.17-.2.34-.26.53-.12.36-.4.45-.75.27Z" class="cls-3"/><path data-cppathid="10124" d="M41.79,44.93c-.13-.08-.26-.21-.33-.39-.13-.3-.06-.52.24-.61.21-.07.39-.12.47-.37.05-.16.41-.23.58-.16.12.05.21.27.17.45-.02.1-.06.19-.12.28-.1.17-.2.34-.26.53-.12.36-.4.45-.75.27Z" class="cls-3"/><path data-cppathid="10125" d="M42.36,42.2c-.11.24-.32.35-.56.25-.35-.15-.7-.14-1.05-.11-.19.01-.26-.05-.26-.24,0-.13-.04-.25.02-.38.09-.18.2-.21.36-.08q.25.21.47,0s.08-.09.13-.1c.22-.04.39-.09.3-.38-.02-.06.07-.13.15-.12.09,0,.19.04.16.15-.05.23-.04.39.24.44.08.02.16.12.12.25-.03.11-.06.22-.08.33Z" class="cls-3"/><path data-cppathid="10126" d="M40.04,37.51c-.06.06-.1.13-.16.16-.24.16-.48.31-.72.46-.16.1-.3.04-.42-.1-.15-.17-.12-.38-.15-.57-.01-.08.07-.12.13-.15.11-.05.21-.1.26-.21.05-.12.1-.12.2-.03.05.04.13-.05.15-.12.06-.16.17-.27.3-.35.26-.15.51-.02.5.28,0,.21-.06.42-.09.62Z" class="cls-3"/><path data-cppathid="10127" d="M35.91,38.12c.12.2.31.13.49.02.02-.01.05-.02.08-.03.47-.12.6-.01.56.47-.02.2-.16.31-.31.19-.15-.11-.26-.08-.4-.02-.08.04-.18.05-.25,0-.18-.13-.31-.01-.47.06-.14.06-.2.1-.19.27.01.18-.13.29-.29.28-.11,0-.18-.08-.23-.17-.05-.1.01-.18.08-.22.31-.17.32-.41.19-.71-.09-.22.04-.36.28-.3.14.03.27.09.45.16Z" class="cls-3"/><path data-cppathid="10128" d="M33.46,36.1c-.29-.14-.42-.5-.29-.74.08-.14.26-.21.36-.15.18.1.25,0,.36-.08.23-.16.44-.09.61.17.15.23.11.44-.13.58-.19.11-.4.19-.6.27-.13.06-.25-.01-.32-.05Z" class="cls-3"/><path data-cppathid="10129" d="M25.13,37.46c.04-.11.11-.22.24-.27.12-.05.23-.05.2-.25-.02-.13.17-.17.3-.15.13.03.26.24.19.33-.17.2-.09.4-.07.61.03.23-.08.39-.25.45-.19.07-.55,0-.64-.13-.15-.2-.06-.38.04-.58Z" class="cls-3"/><path data-cppathid="10130" d="M43.75,40c-.16.32-.45.41-.75.21-.07-.05-.14-.11-.2-.17-.17-.18-.23-.41-.14-.59.08-.17.38-.31.59-.28.06,0,.13.02.12.09-.03.13.06.14.14.17.33.13.39.27.24.57Z" class="cls-3"/><path data-cppathid="10131" d="M25.66,41.19c.08-.15.21-.18.35-.07.19.14.33.32.42.54.04.09.06.19.11.28.06.13.21.27.07.39-.14.13-.32.26-.54.23-.13-.02-.2-.11-.17-.24.02-.08.06-.16.08-.25.01-.08,0-.18-.11-.2-.1-.01-.2,0-.25-.13-.02-.06.02-.5.04-.55Z" class="cls-3"/><path data-cppathid="10132" d="M30.78,38.1c-.09.17-.2.33-.41.32-.24,0-.38-.18-.51-.35-.02-.02-.02-.07-.01-.08.26-.15.11-.33.05-.51,0-.02.01-.05.03-.08.1-.15.37-.24.58-.2.21.05.32.19.36.39.03.17,0,.34-.08.5Z" class="cls-3"/><path data-cppathid="10133" d="M49.64,41.75c.13-.28.39-.38.62-.28.25.12.46.49.27.8-.16.27-.45.38-.73.24-.24-.12-.31-.45-.16-.76Z" class="cls-3"/><path data-cppathid="10134" d="M38.09,43.94c.13-.28.39-.38.62-.28.25.12.46.49.27.8-.16.27-.45.38-.73.24-.24-.12-.31-.45-.16-.76Z" class="cls-3"/><path data-cppathid="10135" d="M20.57,42.57c.13-.28.39-.38.62-.28.25.12.46.49.27.8-.16.27-.45.38-.73.24-.24-.12-.31-.45-.16-.76Z" class="cls-3"/><path data-cppathid="10136" d="M27.16,36.99c-.11-.05-.25-.16-.23-.36.03-.22.09-.42.32-.52.04-.02.09-.04.12-.03.17.08.31.23.55.16.08-.03.23.38.19.53-.04.17-.15.27-.32.31-.19.05-.39.03-.64-.09Z" class="cls-3"/><path data-cppathid="10137" d="M28.43,40.57c.31.16.37.29.29.58-.1.36-.42.57-.74.49-.26-.07-.41-.39-.29-.64.25,0,.16-.17.19-.31.03-.15.2-.19.35-.18.08,0,.16.05.2.06Z" class="cls-3"/><path data-cppathid="10138" d="M11.88,42.4s.02-.04.06-.08c.15-.14.46-.11.67.06.24.19.35.49.25.67-.11.21-.4.33-.62.28-.12-.03-.09-.12-.13-.19-.04-.08-.02-.29-.23-.14-.04.03-.08-.06-.09-.12-.02-.14-.01-.29.09-.48Z" class="cls-3"/><path data-cppathid="10139" d="M21.58,38.61c-.19.35-.37.36-.59.06-.13-.18-.25-.37-.11-.6.08-.13-.01-.17-.07-.25-.07-.09-.01-.17.07-.21.08-.04.16,0,.17.07.05.18.12.26.32.21.12-.03.21.08.25.2.07.19.04.37-.05.51Z" class="cls-3"/><path data-cppathid="10140" d="M29.74,36.3c-.19-.1-.24-.31-.35-.47-.07-.11.03-.25.17-.29.15-.04.28,0,.42.04.11.02.24.06.25-.13,0-.03.05-.06.08-.1.08-.08.17-.09.27-.03.1.06.13.15.1.26-.03.11-.13.19-.23.15-.23-.09-.25.04-.28.2-.02.1-.05.2-.09.29-.08.17-.17.19-.35.08Z" class="cls-3"/><path data-cppathid="10141" d="M24.2,38.69c-.09-.07-.19-.17-.26-.29-.13-.23-.08-.35.19-.44.12-.04.24-.08.38-.06.27.03.39.14.38.41-.01.39-.29.56-.68.38Z" class="cls-3"/><path data-cppathid="10142" d="M38.6,32.74c.04-.06.07-.13.12-.17.14-.09.23-.28.43-.22.17.06.2.23.22.39.03.2-.03.37-.19.49-.11.09-.34.03-.51-.11-.14-.11-.13-.24-.07-.39Z" class="cls-3"/><path data-cppathid="10143" d="M44.37,36.47c-.26-.12-.48-.52-.38-.69.07-.12.46-.26.58-.21.18.09.25.46.14.74-.06.15-.21.23-.34.17Z" class="cls-3"/><path data-cppathid="10144" d="M40.6,36.48c-.22-.11-.29-.26-.21-.45.1-.21.45-.43.58-.36.18.1.25.43.13.66-.11.22-.26.26-.5.15Z" class="cls-3"/><path data-cppathid="10145" d="M43.48,32.45c.12-.1.22-.34.44-.29.2.05.35.24.43.44.05.12-.02.18-.13.23-.22.09-.45.04-.67.03-.15,0-.19-.21-.07-.41Z" class="cls-3"/><path data-cppathid="10146" d="M52.64,41.84s.09.08.09.11c0,.18.07.37-.02.55-.1.18-.27.21-.4.04-.11-.15-.29-.23-.34-.43-.03-.12-.02-.21.09-.25.19-.07.39-.04.58-.02Z" class="cls-3"/><path data-cppathid="10147" d="M50.81,40.57c.07-.14.23-.22.35-.15.11.07.21.19.13.31-.11.16-.05.24.05.37.16.2.1.34-.14.41-.18.05-.25,0-.28-.21-.02-.19.04-.38-.14-.53-.06-.05.03-.13.03-.19Z" class="cls-3"/><path data-cppathid="10148" d="M41.8,40.89c-.15-.22-.39-.38-.43-.67-.01-.1.05-.15.15-.18.17-.04.34,0,.51.03.05,0,.1.05.12.11.05.16-.08.59-.22.67-.03.02-.08.02-.13.03Z" class="cls-3"/><path data-cppathid="10149" d="M33.73,33.22c-.05.16-.14.22-.27.16-.15-.06-.39-.02-.42-.23-.03-.22.17-.3.34-.38.05-.02.1-.06.15-.08.14-.06.22.01.26.14.04.14,0,.28-.06.4Z" class="cls-3"/><path data-cppathid="10150" d="M45.47,36.85c.1-.21.21-.28.35-.21.15.07.2.25.1.44-.01.03-.03.05-.04.08-.09.13-.27.22-.36.15-.11-.1-.18-.22-.09-.38.01-.02.03-.05.04-.08Z" class="cls-3"/><path data-cppathid="10151" d="M37.44,41.88c.06-.1.16-.2.31-.23.11-.02.2,0,.26.1.06.09.07.19,0,.28-.08.1-.18.18-.32.19-.1.01-.2.06-.28-.03-.07-.09-.03-.19.04-.31Z" class="cls-3"/><path data-cppathid="10152" d="M22.47,38.65c.04-.07.3-.11.39-.05.08.05.11.27.06.35-.08.13-.25.18-.37.11-.13-.08-.16-.26-.07-.42Z" class="cls-3"/><path data-cppathid="10153" d="M49.8,38.54c.07-.13.3-.17.42-.08.12.08.14.2.06.33-.08.12-.26.17-.37.08-.11-.09-.16-.2-.11-.34Z" class="cls-3"/><path data-cppathid="10154" d="M22.48,39.51c.1.07.21.14.15.3-.05.11-.23.2-.36.16-.08-.03-.19-.27-.17-.36.03-.12.22-.17.38-.1Z" class="cls-3"/><path data-cppathid="10155" d="M16.54,41.12c.07.04.18.3.15.37-.04.09-.25.13-.38.07-.14-.07-.19-.18-.13-.31.05-.1.27-.19.36-.14Z" class="cls-3"/><path data-cppathid="10156" d="M32.51,38.89c.07-.13.27-.2.36-.12.1.09.16.21.08.35-.07.12-.17.2-.32.13-.15-.06-.2-.22-.12-.36Z" class="cls-3"/><path data-cppathid="10157" d="M27.95,38.26c.05-.12.16-.13.27-.08.16.07.21.2.14.35-.06.12-.21.17-.32.11-.13-.07-.17-.23-.09-.38Z" class="cls-3"/><path data-cppathid="10158" d="M22.86,40.63c.08.06.13.17.08.3-.04.13-.24.2-.35.13-.12-.07-.18-.18-.12-.32.06-.14.21-.2.39-.12Z" class="cls-3"/><path data-cppathid="10159" d="M40.15,31.77c.05-.08.1-.21.27-.14.15.07.24.23.16.34-.08.11-.2.16-.34.1-.12-.05-.19-.13-.1-.3Z" class="cls-3"/><path data-cppathid="10160" d="M38.55,35.94c.1-.07.19-.16.34-.09.12.06.16.19.1.33-.06.12-.16.16-.28.13-.11-.03-.21-.27-.16-.37Z" class="cls-3"/><path data-cppathid="10161" d="M42,35.42c-.11-.06-.13-.15-.07-.25.07-.1.14-.22.3-.14.13.07.2.2.14.31-.05.1-.25.14-.38.07Z" class="cls-3"/><path data-cppathid="10162" d="M18.14,40.27c.08-.09.17-.13.3-.09.15.05.24.17.19.28-.06.13-.17.14-.29.12-.1-.02-.23-.22-.2-.31Z" class="cls-3"/><path data-cppathid="10163" d="M37.55,31.28c.08.05.16.1.1.2-.07.11-.19.11-.29.05-.08-.04-.11-.13-.06-.22.07-.13.16-.06.25-.03Z" class="cls-3"/><path data-cppathid="10164" d="M34.18,31.96c.08.06.08.15.04.25-.03.07-.11.1-.17.09-.06,0-.11-.23-.07-.3.03-.05.13-.08.2-.04Z" class="cls-3"/><path data-cppathid="10165" d="M46.27,37.54c.07.04.11.11.07.17-.05.09-.15.14-.25.12-.06-.01-.09-.1-.05-.18.05-.1.11-.16.23-.12Z" class="cls-3"/><path data-cppathid="10166" d="M33.15,36.95c.07-.08.16-.08.23-.04.1.06.03.15,0,.21-.03.06-.08.14-.16.08-.08-.06-.1-.16-.06-.26Z" class="cls-3"/><path data-cppathid="10167" d="M31.06,34.74c.07-.08.16-.14.25-.05.05.05.1.12.04.18-.07.08-.17.11-.27.04-.06-.04-.08-.11-.02-.18Z" class="cls-3"/><path data-cppathid="10168" d="M38.83,30.94c.07-.06.15-.13.26-.07.06.03.06.1.04.15-.06.11-.15.11-.25.07-.05-.03-.07-.08-.05-.15Z" class="cls-3"/><path data-cppathid="10169" d="M20.86,39.6c.04-.09.08-.11.14-.09.09.03.2.06.16.19-.02.07-.08.12-.16.1-.12-.03-.11-.14-.14-.2Z" class="cls-3"/><path data-cppathid="10170" d="M52.04,37.56c-.08-.07-.11-.16-.09-.26.01-.06.07-.04.09,0,.04.08.11.16.08.26,0,0-.04,0-.07,0Z" class="cls-3"/></g></g><g><g><path data-cppathid="10171" d="M89.12,27.92c.19-.27.67-.22.79.12.1.29.23.5.49.64.17.1.28.31.23.56-.02.1-.02.2-.02.31,0,.33-.13.5-.41.58-.06.02-.11.02-.17.03-.44.09-.55-.24-.5-.58.02-.11.04-.23.07-.34.06-.27.05-.3-.16-.42-.19-.1-.35-.23-.41-.48-.03-.15-.01-.28.09-.42Z" class="cls-3"/><path data-cppathid="10172" d="M76.94,35.84c-.26-.25-.25-.54.05-.77.12-.09.2-.17.27-.32.1-.24.48-.36.69-.23.14.08.17.23.17.39,0,.17-.09.29-.21.37-.02.01-.06-.02-.09-.04-.03-.01-.07-.07-.07.04,0,.1-.02.2-.03.3-.05.36-.21.48-.52.41-.1-.02-.19-.09-.26-.15Z" class="cls-3"/><path data-cppathid="10173" d="M93.9,37.15c.11.16.28.18.34.36.05.15.04.25-.09.31-.04.02-.09.03-.13.03-.12.01-.25.13-.34-.03-.1-.18-.06-.54.06-.64.09-.07.14-.12.1-.24-.04-.11-.07-.22-.2-.21-.17.01-.22-.11-.22-.27,0-.19.14-.3.28-.2.16.11.33.15.51.2.2.05.3.2.27.38-.04.23-.2.37-.41.35-.04,0-.09-.01-.16-.03Z" class="cls-3"/><path data-cppathid="10174" d="M89.86,33.68c.08-.07.17-.17.15.06.01,0,.03,0,.03,0,.18-.15.37-.2.59-.14.05.01.09-.07.14-.1.14-.1.23-.06.27.12.03.12,0,.23-.02.34-.02.16-.14.13-.24.15-.07.01-.11.09-.15.14-.15.18-.35.24-.56.21-.31-.04-.41-.24-.29-.57.03-.07.06-.14.09-.2Z" class="cls-3"/><path data-cppathid="10175" d="M90.5,35.61c-.23-.2-.2-.58.05-.78.1-.08.22-.14.32-.08.14.09.33,0,.44.19.19.31.12.59-.2.71-.31.12-.45.11-.61-.03Z" class="cls-3"/><path data-cppathid="10176" d="M94.38,32.03c-.33.43-.75.4-1,.17-.11-.1-.16-.21-.08-.36.03-.05.04-.12.05-.18.05-.26.1-.3.28-.19.11.07.21.07.32.07.14,0,.27.05.38.14.13.11.14.21.04.35Z" class="cls-3"/><path data-cppathid="10177" d="M97.99,34.49c-.12.05-.11.18-.13.29-.03.2-.23.29-.35.1-.05-.08-.08-.1-.16-.08-.16.04-.28-.04-.33-.2-.05-.16-.03-.33.1-.46.21-.23.34-.25.61-.07.05.04.11.03.16.04.08.01.16,0,.19.12.03.1.02.13-.1.26Z" class="cls-3"/><path data-cppathid="10178" d="M94.95,33.07c-.16.23-.59.26-.78.06-.17-.18-.15-.51.04-.72.09-.09.17-.17.28,0,.04.06.15.17.18-.04,0-.05.05-.05.08-.04.22.08.35.55.2.75Z" class="cls-3"/><path data-cppathid="10179" d="M81.85,28.63c.15-.2.36-.3.51-.22.18.09.29.29.28.52,0,.12-.02.19-.15.2-.11,0-.24.03-.15.23.02.04-.05.08-.1.08-.19,0-.37-.03-.5-.2-.1-.14-.04-.41.1-.61Z" class="cls-3"/><path data-cppathid="10180" d="M80.91,28.15c.1.09.16.17.21.28.09.21.07.36-.06.49-.14.15-.36.2-.51.12-.04-.02-.05-.05-.05-.09-.02-.14.08-.37-.19-.3,0,0-.02-.04-.03-.07-.02-.17.1-.5.21-.54.16-.07.31-.03.43.1Z" class="cls-3"/><path data-cppathid="10181" d="M95.21,33.78c.07.04.12.22.2,0,.01-.03.09,0,.11.05.05.13.1.26.11.4,0,.05,0,.1-.03.15-.07.18-.28.26-.5.2-.24-.06-.42-.24-.41-.44,0-.22.15-.43.34-.48q.06-.02.19.12Z" class="cls-3"/><path data-cppathid="10182" d="M84.27,31.16c-.18.24-.38.26-.58.07-.09-.08-.16-.18-.19-.31-.04-.17-.07-.34.05-.47.12-.13.29-.15.45-.09.06.02.24.03.08.19.03.04.06.07.09.11.06.07.19.06.18.2,0,.12-.03.23-.09.31Z" class="cls-3"/><path data-cppathid="10183" d="M85,27.48c.25.24.23.4-.07.54-.05.02-.11.06-.16.06-.19-.02-.36-.05-.47.19-.03.06-.12.06-.18,0-.05-.05-.11-.09-.11-.18,0-.11.08-.17.15-.17.15,0,.18-.06.21-.22.08-.47.3-.54.63-.22Z" class="cls-3"/><path data-cppathid="10184" d="M100.56,35.13c-.12-.14-.17-.31-.12-.5.06-.19.2-.27.38-.27.03,0,.07,0,.1,0,.15.03.34,0,.39.23.04.18-.12.51-.29.62-.16.11-.33.08-.47-.08Z" class="cls-3"/><path data-cppathid="10185" d="M93.94,29.43c.08-.13.14-.33.32-.28.17.05.14.27.19.42.04.13,0,.21-.14.25-.17.05-.33.11-.49-.04-.1-.1-.15-.03-.23.04-.13.13-.26.13-.36.03-.09-.09-.09-.25,0-.38.11-.15.27-.2.39-.11.04.03.06.07.1.1.11.09.14.09.21-.03Z" class="cls-3"/><path data-cppathid="10186" d="M94.53,37.45c.18-.26.36-.28.57-.05.06.06.11.13.15.21.14.29.03.54-.25.61-.08.02-.16.01-.24,0-.03,0-.07-.02-.09-.05-.08-.07.13-.14.01-.22-.07-.04-.17.01-.22-.08-.06-.1-.02-.29.07-.43Z" class="cls-3"/><path data-cppathid="10187" d="M82.16,26.92c.16.14.18.54.05.79-.1.18-.28.22-.48.11-.19-.1-.23-.24-.11-.45.04-.08.09-.15-.01-.22-.01,0-.02-.05-.01-.07.06-.18.44-.28.57-.16Z" class="cls-3"/><path data-cppathid="10188" d="M96.73,35.1c.17-.23.31-.28.5-.16.21.13.28.38.19.62-.05.13-.2.23-.37.22-.19,0-.32-.15-.41-.31-.08-.14.03-.26.09-.38Z" class="cls-3"/><path data-cppathid="10189" d="M85.86,27.84c.02.05.05.11.06.17.04.25,0,.5.07.75.03.11-.03.25-.18.27-.15.02-.21-.1-.22-.22-.02-.16-.01-.31-.18-.36,0,0-.01-.02-.02-.03-.07-.11-.03-.22.14-.42.09-.1.18-.19.34-.16Z" class="cls-3"/><path data-cppathid="10190" d="M82.36,32.71c.13-.17.31-.25.45-.19.13.06.22.27.21.49,0,.1-.05.17-.13.21-.2.1-.4.02-.6-.04-.06-.02-.06-.1-.06-.16-.01-.13.07-.21.13-.3Z" class="cls-3"/><path data-cppathid="10191" d="M88.51,39.88c.13-.17.31-.25.45-.19.13.06.22.27.21.49,0,.1-.05.17-.13.21-.2.1-.4.02-.6-.04-.06-.02-.06-.1-.06-.16-.01-.13.07-.21.13-.3Z" class="cls-3"/><path data-cppathid="10192" d="M78.71,30.99s.05-.06.07-.08c.13-.12.37-.14.48-.04.08.08.13.43.06.55-.04.07-.11.11-.17.12-.19.05-.36-.02-.52-.12-.06-.04-.06-.1-.06-.17,0-.11.07-.18.14-.26Z" class="cls-3"/><path data-cppathid="10193" d="M76.69,38.6c-.1-.08-.11-.18-.09-.3.03-.22.17-.33.33-.4.15-.07.26.01.29.2.02.1.03.2.03.3-.02.32-.19.43-.44.28-.04-.02-.08-.05-.11-.08Z" class="cls-3"/><path data-cppathid="10194" d="M96.4,36.41s.08-.08.13-.12c.09-.08.19-.16.31-.07.14.1.2.25.2.42,0,.14-.09.23-.2.28-.08.04-.15.05-.23.03-.13-.03-.25-.06-.31-.2-.07-.15.09-.22.11-.35Z" class="cls-3"/><path data-cppathid="10195" d="M93.06,38s-.02.04-.05.06c-.1.08-.19.2-.34.12-.12-.06-.24-.31-.22-.45.01-.13.14-.27.28-.31.04-.01.09,0,.14,0,.13.02.25.04.33.18.05.09.01.2-.14.4Z" class="cls-3"/><path data-cppathid="10196" d="M87.55,36.06c.14-.19.36-.25.48-.14.12.11.16.37.08.53-.07.12-.51.24-.62.16-.07-.06-.1-.14-.06-.23.05-.12.1-.23.13-.31Z" class="cls-3"/><path data-cppathid="10197" d="M86.8,38.68c.11-.15.22-.19.32-.09.18.2.29.49.18.65-.09.13-.39.19-.51.1-.14-.11-.13-.45.02-.67Z" class="cls-3"/><path data-cppathid="10198" d="M77.77,30.94c-.09.16-.2.12-.34.03-.12-.07-.28-.11-.29-.28-.02-.2.17-.21.28-.29.18-.14.3-.11.42.04.1.13.09.28-.06.5Z" class="cls-3"/><path data-cppathid="10199" d="M86.86,35.15c.07-.08.11-.13.15-.17.15-.13.27-.15.37-.07.1.09.16.33.12.46-.05.15-.19.23-.37.21-.08,0-.15-.05-.22-.1-.15-.11-.16-.22-.06-.33Z" class="cls-3"/><path data-cppathid="10200" d="M82.87,27.66c-.16-.16-.19-.28-.09-.42.14-.2.35-.24.48-.1.13.13.16.46.06.61-.09.13-.25.1-.45-.08Z" class="cls-3"/><path data-cppathid="10201" d="M81.09,26.78c-.15-.13-.16-.3-.04-.47.12-.17.38-.25.49-.15.09.09.05.53-.05.66-.09.11-.24.09-.4-.04Z" class="cls-3"/><path data-cppathid="10202" d="M79.95,38.96c-.1-.09-.11-.24,0-.33.04-.03.08-.06.12-.07.12-.03.24-.18.35-.09.13.11.13.32.16.49.02.11-.06.18-.18.18-.18,0-.29-.14-.44-.19Z" class="cls-3"/><path data-cppathid="10203" d="M91.35,38c.09.11.09.24.09.37-.02.3-.05.32-.31.31-.06,0-.11,0-.17,0-.14-.03-.18-.13-.12-.28.07-.19.23-.27.36-.39.03-.03.11,0,.16,0Z" class="cls-3"/><path data-cppathid="10204" d="M76.38,40.75c.09.11.09.24.09.37-.02.3-.05.32-.31.31-.06,0-.11,0-.17,0-.14-.03-.18-.13-.12-.28.07-.19.23-.27.36-.39.03-.03.11,0,.16,0Z" class="cls-3"/><path data-cppathid="10205" d="M80.39,33.9c-.07-.16-.14-.32-.11-.51.02-.09.08-.14.18-.12.17.02.29.14.44.2.08.03.08.17.03.24-.12.15-.28.22-.45.25-.03,0-.06-.03-.1-.05Z" class="cls-3"/><path data-cppathid="10206" d="M93.78,38.08c.08.12.19.2.24.34.06.16,0,.31-.14.3-.14,0-.34.07-.42-.08-.08-.16-.03-.38.04-.56.05-.12.18-.11.27,0Z" class="cls-3"/><path data-cppathid="10207" d="M86.33,30.8c-.07-.08-.19-.14-.14-.27.06-.15.14-.29.3-.34.09-.03.17.02.18.12.02.14.03.28.02.41-.02.2-.14.26-.28.16-.03-.02-.05-.05-.08-.07Z" class="cls-3"/><path data-cppathid="10208" d="M97.66,37.78c.13.13.16.28.07.4-.12.17-.29.2-.42.07-.1-.1-.13-.35-.06-.46.07-.09.31-.1.4-.02Z" class="cls-3"/><path data-cppathid="10209" d="M84.26,36.91c-.06-.07-.07-.17-.04-.27.04-.11.14-.17.22-.14.13.05.27.08.37.19.07.07.07.16-.01.23-.09.08-.44.08-.53,0Z" class="cls-3"/><path data-cppathid="10210" d="M91.41,28.85c-.1-.08-.14-.48-.07-.56.09-.09.22-.05.28.02.07.08.16.19.14.33-.01.07,0,.18-.07.2-.09.03-.2,0-.27,0Z" class="cls-3"/><path data-cppathid="10211" d="M94.85,30.82c.06-.09.12-.18.23-.14.07.02.11.08.13.16.03.12-.02.19-.09.26-.13.11-.32.16-.37.09-.05-.07,0-.22.11-.37Z" class="cls-3"/><path data-cppathid="10212" d="M77.54,32.8c-.08.09-.19.1-.27.01-.08-.08-.09-.27-.03-.35.05-.07.21-.07.28,0,.09.08.1.24.02.34Z" class="cls-3"/><path data-cppathid="10213" d="M90.23,37.25c-.08.1-.22.11-.3.02-.07-.08-.09-.25-.03-.32.07-.08.25-.1.31-.01.07.09.11.2.02.31Z" class="cls-3"/><path data-cppathid="10214" d="M81.4,32.33c.1.09.13.24.06.33-.08.11-.19.07-.28.03-.1-.05-.12-.25-.05-.34.06-.09.18-.1.27-.02Z" class="cls-3"/><path data-cppathid="10215" d="M85.94,37.86s.02-.13.05-.21c.04-.08.25-.12.3-.07.05.06.09.3.05.35-.07.08-.25.07-.41-.07Z" class="cls-3"/><path data-cppathid="10216" d="M90.14,30.99c.09.08.11.25.04.34-.07.09-.23.1-.31,0-.09-.1-.03-.22-.01-.32.01-.08.21-.09.28-.03Z" class="cls-3"/><path data-cppathid="10217" d="M96,37.67c.1.11.11.3.02.4-.06.07-.21.07-.27-.02-.06-.09-.1-.21,0-.3.08-.07.15-.16.24-.07Z" class="cls-3"/><path data-cppathid="10218" d="M76.62,36.93c-.09-.09-.1-.26-.03-.34.09-.09.19-.05.28.01.06.05.08.28.03.35-.05.07-.21.05-.28-.02Z" class="cls-3"/><path data-cppathid="10219" d="M92.96,36.7c-.07.11-.22.15-.3.06-.08-.09-.1-.18-.02-.3.08-.13.16-.12.26-.04.11.08.13.18.06.29Z" class="cls-3"/><path data-cppathid="10220" d="M92.46,33.08c-.07-.09-.1-.2-.03-.31.05-.08.22-.1.27-.05.09.08.09.27,0,.37-.08.09-.16.05-.25-.02Z" class="cls-3"/><path data-cppathid="10221" d="M99.03,38.43c.07.07.1.16.03.26-.07.11-.21.14-.3.08-.1-.07-.11-.19-.01-.33.05-.08.18-.09.28-.01Z" class="cls-3"/><path data-cppathid="10222" d="M82.67,38.63c.08.08.1.22.03.31-.07.1-.19.11-.27.04-.08-.08-.1-.23-.03-.3.08-.1.17-.11.27-.04Z" class="cls-3"/><path data-cppathid="10223" d="M86.4,36.14c.09.08.1.25.02.35-.07.09-.16.1-.24,0-.06-.07-.12-.17-.05-.27.06-.09.22-.13.27-.08Z" class="cls-3"/><path data-cppathid="10224" d="M78.66,27.33c.07.06.07.23,0,.31-.07.07-.14.13-.24.05-.09-.08-.11-.21-.04-.3.06-.08.22-.11.28-.06Z" class="cls-3"/><path data-cppathid="10225" d="M88.92,36.53c-.07.09-.19.11-.27.03s-.07-.18,0-.27c.07-.09.19-.1.27-.03.07.07.07.19,0,.27Z" class="cls-3"/><path data-cppathid="10226" d="M86.25,33.81c.09.1.08.21.01.31-.07.1-.16.07-.24,0-.08-.07-.09-.23-.02-.31.06-.07.18-.07.24,0Z" class="cls-3"/><path data-cppathid="10227" d="M88.16,25.74c.06.09.1.19.01.3-.07.09-.16.11-.24.03-.09-.08-.09-.21-.01-.3.07-.08.15-.13.24-.03Z" class="cls-3"/><path data-cppathid="10228" d="M92.49,33.73c.05.08.05.16-.01.21-.06.05-.15.1-.22.02-.04-.05-.03-.13.02-.17.06-.05.12-.13.21-.06Z" class="cls-3"/><path data-cppathid="10229" d="M81.3,36.39c.08.07.06.16.03.24-.03.08-.09.05-.13.01-.06-.06-.12-.13-.07-.22.03-.06.11-.08.18-.03Z" class="cls-3"/><path data-cppathid="10230" d="M85.51,31.2c.06.07.12.14.04.23-.04.04-.1.05-.16,0-.08-.07-.07-.17-.03-.24.02-.05.1-.03.15.01Z" class="cls-3"/><path data-cppathid="10231" d="M92.38,34.9c-.07.04-.12.06-.17.01-.07-.08-.04-.16.02-.23.04-.05.1-.07.14-.02.05.08.04.17,0,.24Z" class="cls-3"/><path data-cppathid="10232" d="M76.17,35.66c-.07.07-.14.04-.19-.01-.06-.06-.04-.14.02-.2.03-.03.08-.07.12-.02.06.07.1.14.05.23Z" class="cls-3"/><path data-cppathid="10233" d="M90.01,34.93c-.06.06-.13.04-.18,0-.06-.04-.1-.11-.04-.19.04-.06.1-.07.15-.04.07.05.11.13.08.23Z" class="cls-3"/><path data-cppathid="10234" d="M89.29,35.02c-.06-.05-.02-.12,0-.16.05-.11.13-.07.19-.02.04.04.1.09.05.16-.07.11-.16.06-.25.02Z" class="cls-3"/><path data-cppathid="10235" d="M95.6,35.33c-.06.07-.22.09-.25.03-.03-.07,0-.12.04-.17.05-.06.12-.08.18-.02.04.04.06.1.03.16Z" class="cls-3"/><path data-cppathid="10236" d="M85.92,36.41c-.07.06-.13.04-.19,0-.06-.05-.09-.12-.03-.2.04-.05.11-.04.15,0,.05.05.1.11.06.2Z" class="cls-3"/><path data-cppathid="10237" d="M83.35,32.92c-.04.06-.09.08-.14.04-.06-.06-.06-.13,0-.19.04-.04.08-.1.14-.04.06.06.05.13.01.2Z" class="cls-3"/><path data-cppathid="10238" d="M80.15,37.79c-.06-.07-.06-.13-.02-.18.06-.08.12-.05.18,0,.04.05.07.12.02.17-.06.06-.13.04-.18,0Z" class="cls-3"/><path data-cppathid="10239" d="M82.07,32.04s.06.08.03.14c-.04.08-.11.08-.17.03-.04-.04-.1-.09-.05-.15.05-.06.12-.05.18-.01Z" class="cls-3"/><path data-cppathid="10240" d="M93.21,32.41c-.06.03-.12.05-.18-.02-.04-.05-.05-.11,0-.16.06-.08.12-.03.17.02.04.04.06.1.01.16Z" class="cls-3"/></g><g><path data-cppathid="10241" d="M94.75,36.46c-.08-.04-.18-.1-.28-.16-.2-.12-.27-.31-.22-.56.05-.28.24-.54.43-.51.23.03.46.17.58.4.08.15.15.27.29.36.21.13.24.43.11.67-.09.16-.31.21-.51.1-.07-.04-.13-.09-.19-.13-.06-.05-.13-.09-.21-.15Z" class="cls-3"/><path data-cppathid="10242" d="M77.44,29.42c.14.13.36.24.43.43.11.25.14.56.16.85,0,.13-.1.26-.26.25-.14,0-.28-.04-.33-.22-.05-.16-.08-.31-.27-.34-.1-.01-.08-.2-.17-.26-.06-.04-.16-.18-.13.06,0,.04-.06.05-.08.02-.03-.04-.05-.1-.07-.15-.07-.23-.15-.46.04-.66.15-.16.44-.14.67.02Z" class="cls-3"/><path data-cppathid="10243" d="M100.33,36.71s.1.09.15.17c.14.22.16.45.05.58-.11.14-.43.2-.6.14-.12-.05.14-.17-.03-.18-.08,0-.16.05-.25.06-.26.03-.61-.19-.71-.45-.03-.07-.05-.16.01-.23.21-.22,1.08-.3,1.37-.09Z" class="cls-3"/><path data-cppathid="10244" d="M102.74,41.13s.1.09.15.17c.14.22.16.45.05.58-.11.14-.43.2-.6.14-.12-.05.14-.17-.03-.18-.08,0-.16.05-.25.06-.26.03-.61-.19-.71-.45-.03-.07-.05-.16.01-.23.21-.22,1.08-.3,1.37-.09Z" class="cls-3"/><path data-cppathid="10245" d="M72.12,37.15c.46.38.39.79,0,1.12-.2.17-.41.12-.55-.1-.05-.08-.08-.18-.13-.25-.07-.11-.2-.17-.18-.34.02-.16.06-.3.15-.42.13-.18.42-.19.65-.05.02.01.04.03.06.05Z" class="cls-3"/><path data-cppathid="10246" d="M75.46,34.77c.18-.3.3-.36.54-.23.1.05.17.1.25-.03.08-.14.22-.09.35-.08.09,0,.13.08.15.16.05.2-.06.43-.23.49-.09.03-.16.07-.22.18-.13.25-.35.38-.62.38-.13,0-.23-.07-.25-.21-.04-.25,0-.49.04-.66Z" class="cls-3"/><path data-cppathid="10247" d="M69.68,30.21c.18-.3.3-.36.54-.23.1.05.17.1.25-.03.08-.14.22-.09.34-.08.09,0,.13.08.15.16.05.2-.06.43-.23.49-.09.03-.16.07-.22.18-.13.25-.35.38-.62.38-.13,0-.23-.07-.25-.21-.04-.25,0-.49.04-.66Z" class="cls-3"/><path data-cppathid="10248" d="M95.17,32.03c-.1-.05-.24-.16-.3-.36-.09-.29.05-.51.32-.49.12,0,.22-.02.33-.05.27-.06.28-.05.39.24.07.19.09.38.05.58-.07.31-.25.42-.5.28-.08-.04-.15-.1-.28-.2Z" class="cls-3"/><path data-cppathid="10249" d="M75.09,30.75c.22.14.24.16.14.37-.07.14-.08.37-.26.37-.18,0-.21-.2-.27-.35-.08-.22-.14-.23-.28-.05-.03.03-.04.07-.07.1-.1.13-.22.19-.37.14-.17-.06-.22-.22-.23-.39-.01-.17.05-.31.2-.36.19-.07.39-.23.58.03.04.06.11.06.17.04.16-.05.29.03.39.1Z" class="cls-3"/><path data-cppathid="10250" d="M89.56,31.63c.23.16.29.32.23.67-.02.14.05.3-.13.4-.16.08-.3.16-.42-.04-.07-.11-.18-.09-.26-.15-.21-.14-.27-.52-.1-.73.08-.1.16-.22.31-.07.09.09.12.02.15-.11.03-.1.15,0,.22.03Z" class="cls-3"/><path data-cppathid="10251" d="M79.12,35.01c.07.14.18.11.3.12.2.01.31.25.13.41-.07.07-.08.11-.05.21.06.19,0,.35-.15.43-.15.08-.32.07-.46-.06-.25-.23-.28-.39-.14-.74.03-.07.02-.13.02-.2,0-.09-.01-.2.09-.25.09-.05.12-.04.26.09Z" class="cls-3"/><path data-cppathid="10252" d="M93.73,36.45c.09.05.18.13.21.26.03.12.02.23.2.22.11,0,.13.18.09.31-.04.13-.23.23-.3.15-.16-.18-.33-.14-.52-.13-.2,0-.33-.12-.36-.29-.04-.2.06-.53.18-.61.18-.12.34-.01.5.1Z" class="cls-3"/><path data-cppathid="10253" d="M74.34,37.49c-.1.08-.18.21-.27.33-.13.18-.5.03-.58-.22-.06-.2-.07-.4-.07-.61,0-.09.04-.16.12-.2.22-.12.67.04.81.25.1.15.08.28,0,.44Z" class="cls-3"/><path data-cppathid="10254" d="M84.13,42.5c-.1.08-.18.21-.26.33-.13.18-.5.03-.58-.22-.06-.2-.07-.4-.07-.61,0-.09.04-.16.12-.2.22-.12.67.04.81.25.1.15.08.28,0,.44Z" class="cls-3"/><path data-cppathid="10255" d="M98.1,37.28s-.1-.04-.14-.04c-.2-.02-.36-.08-.42-.34-.06-.28-.03-.54.15-.75.11-.13.25-.18.41-.07.11.07.22.15.29.26.04.06.08.16-.03.2-.09.03-.1.09-.06.15.15.2.06.33-.08.46-.05.05-.09.09-.14.14h.02Z" class="cls-3"/><path data-cppathid="10256" d="M69.19,33.74s-.1-.04-.14-.04c-.2-.02-.36-.08-.42-.34-.06-.28-.03-.54.15-.75.11-.13.25-.18.41-.07.11.07.22.15.29.26.04.06.08.16-.03.2-.09.03-.1.09-.06.15.15.2.06.33-.08.46-.05.05-.09.09-.14.14h.02Z" class="cls-3"/><path data-cppathid="10257" d="M90.45,36.53c.12.1.13.23.03.35-.14.17-.31.28-.51.34-.08.03-.17.04-.25.07-.12.04-.25.17-.34.02-.09-.16-.19-.34-.14-.55.03-.12.11-.18.22-.14.07.03.13.08.2.1.07.02.16.03.18-.08.02-.1.03-.2.14-.22.06-.01.43.07.47.11Z" class="cls-3"/><path data-cppathid="10258" d="M78.77,38.51c.03-.08.2-.18-.02-.25-.03-.01,0-.11.03-.14.12-.08.24-.16.38-.18.05,0,.1,0,.15.01.18.06.28.31.26.59-.03.3-.19.54-.38.56-.21.03-.44-.13-.51-.35q-.02-.07.09-.25Z" class="cls-3"/><path data-cppathid="10259" d="M75.72,44.33c.03-.08.2-.18-.02-.25-.03-.01,0-.11.03-.14.12-.08.24-.16.38-.18.05,0,.1,0,.15.01.18.06.28.31.26.59-.03.3-.19.54-.38.56-.21.03-.44-.13-.51-.35q-.02-.07.09-.25Z" class="cls-3"/><path data-cppathid="10260" d="M93.92,38.47c.06-.1.16-.23.34-.18.18.05.36.14.42.37.01.04.02.1,0,.12-.09.16-.23.28-.19.52.01.08-.35.18-.48.12-.14-.06-.22-.18-.24-.35-.03-.19.01-.39.15-.61Z" class="cls-3"/><path data-cppathid="10261" d="M96.63,42.31c.06-.1.16-.23.34-.18.18.05.36.14.42.37.01.04.02.1,0,.12-.09.16-.23.28-.19.52.01.08-.35.18-.48.12-.14-.06-.22-.18-.24-.35-.03-.19.01-.39.15-.61Z" class="cls-3"/><path data-cppathid="10262" d="M83.27,29.1c-.08.17-.22.26-.42.22-.17-.03-.28-.17-.34-.35-.04-.13-.05-.25.09-.32.1-.06.19-.13.01-.21,0,0,0-.06.02-.07.02-.03.05-.06.09-.08.21-.11.49-.09.6.04.14.17.12.47-.06.78Z" class="cls-3"/><path data-cppathid="10263" d="M96.13,29.85s.08.08.13.15c.12.16.2.33.13.54-.07.22-.25.31-.44.34-.19.03-.23-.02-.24-.27,0-.07-.02-.15-.08-.18-.05-.03-.16.06-.15-.09.01-.16.05-.31.13-.43.12-.18.31-.21.53-.05Z" class="cls-3"/><path data-cppathid="10264" d="M79.42,31.79c-.12.16-.28.25-.47.2-.19-.05-.29-.21-.31-.43,0-.04-.01-.08,0-.13,0-.19-.04-.41.17-.51.16-.08.51.08.63.28.12.18.11.39-.02.58Z" class="cls-3"/><path data-cppathid="10265" d="M82.39,38.87c-.27-.19-.31-.4-.12-.7.05-.08.11-.15.19-.21.26-.21.52-.11.62.23.03.09.03.19.04.29,0,.04-.01.08-.03.12-.06.1-.15-.14-.21.02-.04.09.03.2-.05.28-.09.08-.28.07-.43-.03Z" class="cls-3"/><path data-cppathid="10266" d="M77.08,26.97c-.27-.19-.31-.4-.12-.7.05-.08.11-.15.19-.21.26-.21.52-.11.62.23.03.09.03.19.04.29,0,.04-.01.08-.03.12-.06.1-.15-.14-.21.01-.04.09.03.2-.05.28-.09.08-.28.07-.43-.03Z" class="cls-3"/><path data-cppathid="10267" d="M81.02,26.45c.1.08.19.19.2.36,0,.13,0,.25-.15.29-.11.03-.26.06-.15.27,0,0-.02.05-.04.06-.18.06-.35.02-.5-.09-.11-.09-.12-.24-.09-.38.04-.2.12-.37.27-.49.16-.13.29-.13.47,0Z" class="cls-3"/><path data-cppathid="10268" d="M84.39,33.92c-.14-.09-.17-.24-.14-.42.03-.18.1-.31.26-.38.11-.04.16.03.22.1.03.03.04.03.16-.07.01-.01.01-.04.05-.02.02.01.04.03.06.04.25.23.32.49.2.68-.13.21-.55.25-.8.06Z" class="cls-3"/><path data-cppathid="10269" d="M71.44,34.97c-.21-.14-.3-.37-.32-.63-.01-.16.06-.3.21-.36.16-.07.31-.03.38.14.05.12.1.22.21.27.17.07.12.24.09.35-.06.26-.37.37-.58.23Z" class="cls-3"/><path data-cppathid="10270" d="M79.85,36.48c-.25-.17-.31-.35-.21-.59.1-.27.33-.39.58-.31.14.05.24.22.26.42.02.24-.1.41-.25.54-.12.11-.26,0-.37-.06Z" class="cls-3"/><path data-cppathid="10271" d="M93.11,32.86c-.28-.22-.27-.4.01-.58.17-.1.35-.2.53-.04.1.09.15,0,.22-.04.08-.06.14,0,.18.09.03.08-.02.15-.08.16-.16.02-.24.09-.22.29.01.12-.09.19-.2.22-.17.05-.32,0-.44-.11Z" class="cls-3"/><path data-cppathid="10272" d="M89.75,28.81c-.06-.11-.14-.18-.29-.13-.06.02-.11-.05-.12-.13,0-.08.04-.15.1-.15.14,0,.2-.1.28-.21.1-.16.26-.15.41-.08.15.07.3.15.34.35,0,.03,0,.06,0,.08-.06.23-.52.41-.72.27Z" class="cls-3"/><path data-cppathid="10273" d="M92.77,35.4c.07-.08.16-.17.28-.22.21-.1.31-.04.36.23.02.12.04.24.01.37-.05.26-.16.36-.39.32-.34-.06-.45-.35-.26-.7Z" class="cls-3"/><path data-cppathid="10274" d="M87.31,26.37c-.06.1-.11.19-.22.23-.13.05-.24.06-.3-.12-.03-.09-.09-.17-.12-.26-.07-.23-.04-.42.08-.49.14-.1.41-.08.53.04.11.1.14.31.07.5-.01.04-.04.07-.05.1Z" class="cls-3"/><path data-cppathid="10275" d="M86.56,34.12s.09.07.14.13c.1.14.07.28-.07.37-.07.05-.15.1-.23.13-.15.06-.3.07-.41-.08-.1-.13-.11-.41-.02-.56.1-.18.34-.19.6,0Z" class="cls-3"/><path data-cppathid="10276" d="M81.16,36.72s-.09-.09-.13-.14c-.09-.1-.17-.21-.11-.37.08-.18.22-.28.38-.3.13-.02.23.08.3.21.04.09.07.18.06.28,0,.16-.03.31-.16.41-.14.1-.22-.08-.35-.1Z" class="cls-3"/><path data-cppathid="10277" d="M83.96,34.79c-.23-.17-.3-.36-.21-.51.13-.21.47-.29.65-.15.16.12.19.44.07.65-.09.15-.31.15-.5,0Z" class="cls-3"/><path data-cppathid="10278" d="M70.94,40.02c-.19.33-.47.32-.64-.02-.02-.05-.03-.11-.06-.15-.16-.33,0-.45.3-.44.13,0,.24.04.34.14.15.15.17.29.05.48Z" class="cls-3"/><path data-cppathid="10279" d="M74.04,33.15c-.08.15-.31.21-.51.14-.16-.06-.27-.23-.25-.41,0-.09.06-.12.12-.14.19-.07.37-.14.57-.18.16-.03.23.07.19.25-.03.12-.07.24-.11.35Z" class="cls-3"/><path data-cppathid="10280" d="M72.68,39.75c-.14-.09-.25-.38-.2-.52.04-.12.27-.26.41-.25.15,0,.3.17.29.38,0,.16.06.36-.08.47-.14.1-.29-.03-.42-.07Z" class="cls-3"/><path data-cppathid="10281" d="M89.83,34.69c-.12.22-.27.26-.47.12-.12-.09-.19-.22-.23-.38-.05-.22.01-.31.22-.33.07,0,.15-.01.22,0,.33.04.42.27.25.59Z" class="cls-3"/><path data-cppathid="10282" d="M92.73,28.78c-.17-.13-.18-.26-.04-.41.04-.05.09-.1.14-.14.13-.09.27-.18.41-.07.11.08.13.44.05.58-.09.15-.25.19-.43.1-.05-.02-.09-.05-.13-.07Z" class="cls-3"/><path data-cppathid="10283" d="M85.85,27.26c.05.06.12.13.16.21.05.09.04.19-.05.26-.04.03-.09.05-.14.07-.13.05-.29.2-.38.08-.1-.14-.17-.35-.15-.55.02-.18.13-.25.29-.17.08.04.15.09.25.1Z" class="cls-3"/><path data-cppathid="10284" d="M84.29,38.01c.09.06.14.14.15.24,0,.11-.08.17-.16.21-.03.02-.07.03-.11.04-.38.09-.55-.11-.45-.54.03-.14.16-.21.25-.13.1.09.2.16.32.18Z" class="cls-3"/><path data-cppathid="10285" d="M86.95,30.94s.04.08.05.13c0,.05-.01.11-.02.16-.06.41-.12.44-.46.32-.12-.04-.2-.11-.22-.25-.02-.14.08-.18.17-.24.08-.04.14-.12.22-.15.08-.03.17-.06.27.02Z" class="cls-3"/><path data-cppathid="10286" d="M72.34,35.43c.12.09.17.4.08.53-.08.12-.28.13-.41.02-.16-.14-.21-.32-.13-.46.1-.17.3-.21.46-.09Z" class="cls-3"/><path data-cppathid="10287" d="M82.32,34.99c.11-.18.25-.23.38-.14.18.13.23.33.12.5-.08.13-.32.2-.43.13-.1-.07-.14-.37-.06-.49Z" class="cls-3"/><path data-cppathid="10288" d="M75.95,39.32c-.1-.06-.19-.12-.16-.26.02-.09.07-.14.14-.18.11-.06.19,0,.26.08.12.14.19.37.13.44-.06.07-.21.04-.37-.08Z" class="cls-3"/><path data-cppathid="10289" d="M92.98,33.72c.06.05.06.31,0,.38-.05.07-.24.08-.31.01-.11-.1-.13-.27-.06-.38.08-.12.24-.13.37-.02Z" class="cls-3"/><path data-cppathid="10290" d="M98.09,37.29c.07.1.15.19.18.32.03.12-.03.22-.11.3-.07.07-.14.03-.21-.02-.09-.06-.09-.15-.09-.25,0-.19.16-.24.25-.35h-.02Z" class="cls-3"/><path data-cppathid="10291" d="M92.24,33.63c-.07.09-.14.19-.27.11-.09-.06-.15-.25-.1-.36.03-.08.25-.16.33-.12.1.05.12.24.05.38Z" class="cls-3"/><path data-cppathid="10292" d="M85,36.21c.19.12.22.26.15.39-.07.13-.18.15-.29.08-.12-.07-.16-.22-.08-.35.07-.12.16-.16.22-.12Z" class="cls-3"/><path data-cppathid="10293" d="M78.95,29.52c.11.08.1.19.05.32-.05.13-.15.19-.27.16-.08-.02-.16-.28-.12-.36.06-.12.23-.18.34-.12Z" class="cls-3"/><path data-cppathid="10294" d="M87.65,33.27c.17.11.21.26.15.39-.05.11-.23.16-.32.08-.1-.09-.12-.2-.05-.33.07-.12.14-.19.22-.14Z" class="cls-3"/><path data-cppathid="10295" d="M91.47,27.67c-.04.06-.28.14-.34.1-.08-.05-.09-.26-.02-.38.08-.13.18-.16.28-.09.08.06.13.28.08.37Z" class="cls-3"/><path data-cppathid="10296" d="M70.22,38.02c.09.08.1.2.05.32-.05.13-.2.19-.28.1-.08-.08-.17-.18-.1-.33.07-.14.21-.19.34-.1Z" class="cls-3"/><path data-cppathid="10297" d="M86.14,37.51c-.11-.09-.13-.25-.04-.36.07-.09.16-.12.26-.05.11.07.14.23.07.36-.07.11-.19.14-.29.05Z" class="cls-3"/><path data-cppathid="10298" d="M82.42,37.04c.1-.14.28-.17.38-.08.08.07.09.25.01.34-.08.09-.19.14-.29.03-.08-.08-.17-.17-.1-.29Z" class="cls-3"/><path data-cppathid="10299" d="M75.73,30.68c-.08.13-.24.17-.34.09-.09-.07-.12-.17-.05-.28.08-.13.23-.18.31-.1.08.09.15.19.09.3Z" class="cls-3"/><path data-cppathid="10300" d="M87.9,34.46c.06-.09.24-.12.33-.04.1.09.07.22.01.3-.07.09-.17.18-.29.11-.11-.06-.13-.24-.05-.37Z" class="cls-3"/><path data-cppathid="10301" d="M87.57,27.52c.06-.11.22-.16.31-.09.09.08.18.17.11.32-.06.13-.26.2-.35.11-.1-.1-.07-.23-.06-.34Z" class="cls-3"/><path data-cppathid="10302" d="M88.68,29.71c.12.08.13.19.07.32-.07.15-.18.18-.31.11-.14-.08-.1-.21-.07-.32.03-.12.21-.17.31-.1Z" class="cls-3"/><path data-cppathid="10303" d="M91.23,33.87c-.06.07-.16.11-.27.05-.11-.06-.15-.25-.08-.36.07-.11.17-.15.29-.08.11.08.15.23.06.39Z" class="cls-3"/><path data-cppathid="10304" d="M68.06,38.84c.1.06.13.21.06.33-.07.12-.16.17-.28.11-.1-.05-.15-.23-.1-.32.06-.12.23-.18.32-.12Z" class="cls-3"/><path data-cppathid="10305" d="M86.77,38.48c.08-.09.17-.15.29-.07.11.07.14.25.07.36-.06.1-.21.13-.29.05-.09-.09-.13-.2-.06-.34Z" class="cls-3"/><path data-cppathid="10306" d="M82.79,33.23c.06-.1.15-.14.25-.07.11.07.16.24.11.36-.05.13-.17.15-.32.06-.08-.06-.11-.21-.05-.34Z" class="cls-3"/><path data-cppathid="10307" d="M76.49,31.29c-.08.08-.17.16-.29.11-.12-.05-.16-.23-.09-.36.05-.09.2-.12.3-.05.1.07.11.18.09.31Z" class="cls-3"/><path data-cppathid="10308" d="M77.24,31.73c.09.08.1.18.06.29-.05.12-.18.16-.29.1-.11-.07-.12-.17-.07-.29.05-.12.2-.17.29-.1Z" class="cls-3"/><path data-cppathid="10309" d="M90.08,29.62c.09.09.12.21.06.34-.06.11-.14.16-.25.09-.11-.07-.16-.2-.1-.31.05-.1.21-.17.29-.11Z" class="cls-3"/><path data-cppathid="10310" d="M92.04,29.32c.07.08.1.18.05.3-.05.14-.17.22-.26.16-.1-.07-.1-.18-.07-.3.03-.1.21-.2.29-.16Z" class="cls-3"/><path data-cppathid="10311" d="M83.24,30.07c.05.05.1.11.05.18-.06.08-.15.11-.22.03-.05-.05-.09-.15-.05-.23.07-.11.15-.03.22.02Z" class="cls-3"/><path data-cppathid="10312" d="M84.32,35.46c-.08.06-.16.09-.25.03-.06-.04-.08-.11-.04-.18.06-.1.14-.1.23-.04.06.05.07.11.06.18Z" class="cls-3"/><path data-cppathid="10313" d="M98.09,32.84c.08.06.1.15.06.25-.03.07-.09.1-.15.05-.07-.06-.12-.14-.07-.25.04-.07.09-.08.17-.05Z" class="cls-3"/><path data-cppathid="10314" d="M99.5,35.12c.05-.05.11-.08.16-.03.09.08.09.18.03.29-.03.06-.09.06-.13.02-.09-.07-.13-.16-.07-.28Z" class="cls-3"/><path data-cppathid="10315" d="M88,28.98s.08.08.05.14c-.05.09-.12.15-.21.11-.07-.03-.09-.11-.06-.17.05-.1.13-.11.22-.07Z" class="cls-3"/><path data-cppathid="10316" d="M80.21,37.84c.08.06.11.25.06.3-.06.05-.12.02-.17-.02-.07-.06-.09-.13-.04-.22.03-.06.09-.08.15-.06Z" class="cls-3"/><path data-cppathid="10317" d="M97.51,31.24c.05.04.1.08.07.16-.05.12-.14.1-.22.05-.06-.04-.07-.11-.04-.18.05-.09.11-.1.19-.04Z" class="cls-3"/><path data-cppathid="10318" d="M100.86,33.37c.06.08.1.16.03.25-.05.06-.11.05-.16,0-.06-.06-.06-.15-.02-.23.03-.07.1-.06.15-.03Z" class="cls-3"/><path data-cppathid="10319" d="M101.07,37.75c.05-.07.12-.06.17-.03.09.05.05.14.02.22-.03.07-.1.11-.15.07-.08-.06-.08-.16-.04-.26Z" class="cls-3"/><path data-cppathid="10320" d="M95.99,32.61c.06-.08.14-.13.22-.08.07.04.04.12.01.18-.04.08-.09.14-.17.08-.06-.04-.08-.1-.06-.18Z" class="cls-3"/><path data-cppathid="10321" d="M92.33,32.04c.08.05.09.09.06.15-.04.09-.07.19-.18.13-.06-.03-.09-.09-.07-.17.04-.11.13-.09.19-.11Z" class="cls-3"/></g><g><path data-cppathid="10322" d="M88.3,32.24c.06-.15.19-.25.34-.24.12,0,.24.05.36-.02.07-.04.11.01.16.06.06.05.12.15.2.03,0,0,.04,0,.06,0,.09.05.19.28.18.42-.01.15-.1.22-.21.26-.04.01-.08.03-.12.03-.21,0-.37.09-.52.26-.09.11-.21.18-.33.1-.13-.08-.19-.21-.14-.38.03-.09,0-.18,0-.27,0-.08,0-.16.03-.24Z" class="cls-3"/><path data-cppathid="10323" d="M77.05,31.72c-.02.08-.05.17-.09.27-.07.19-.2.28-.38.26-.21-.02-.41-.17-.41-.34,0-.22.08-.44.23-.58.1-.09.18-.17.23-.3.08-.2.29-.27.47-.17.12.07.18.26.12.46-.02.07-.05.13-.08.19-.03.06-.05.13-.09.21Z" class="cls-3"/><path data-cppathid="10324" d="M67.13,35.6c-.02.08-.05.17-.09.27-.07.19-.2.28-.39.26-.21-.02-.41-.17-.41-.34,0-.22.08-.44.23-.58.1-.09.18-.17.23-.3.08-.2.29-.27.47-.17.12.07.18.26.12.46-.02.07-.05.13-.08.19-.03.06-.05.13-.09.21Z" class="cls-3"/><path data-cppathid="10325" d="M80.76,29.04c.12.06.2.14.26.23.06.09.09.2.03.29-.13.21-.27.41-.5.5-.08.03-.16.07-.24,0-.03-.03-.07-.05-.11-.02-.18.13-.25-.04-.31-.16-.08-.15-.1-.33-.02-.5.1-.2.55-.42.76-.38.05,0,.1.03.12.03Z" class="cls-3"/><path data-cppathid="10326" d="M83.64,35.58c-.14-.12-.32-.25-.49-.41-.15-.14-.15-.24-.03-.42.04-.06.09-.12.15-.18.14-.14.18-.14.32-.02.05.04.09.12.14.13.13.02.2.08.23.23,0,.05.07.11.15.06.11-.08.11-.09.15,0,0,.02.02.04.02.06.05.16.13.33-.02.48-.14.15-.31.17-.49.1-.03-.01-.06-.03-.12-.06Z" class="cls-3"/><path data-cppathid="10327" d="M94.56,35.48c-.1-.06-.18-.17-.24-.31-.09-.24-.04-.42.18-.5.15-.05.28-.09.34-.3.04-.13.3-.19.41-.13.09.04.15.22.12.37-.02.08-.05.16-.08.22-.07.14-.14.27-.19.43-.09.29-.29.37-.54.22Z" class="cls-3"/><path data-cppathid="10328" d="M89.48,36.47c-.08.19-.23.28-.4.2-.25-.12-.5-.11-.76-.09-.14.01-.19-.04-.18-.19,0-.1-.03-.2.01-.31.07-.15.14-.17.26-.07q.18.17.34,0s.06-.08.09-.08c.16-.03.28-.08.22-.31-.01-.05.05-.1.11-.1.06,0,.14.03.12.12-.04.18-.03.32.17.36.06.01.11.1.08.2-.02.09-.04.18-.06.27Z" class="cls-3"/><path data-cppathid="10329" d="M80.11,41.43c-.08.19-.23.28-.4.2-.25-.12-.5-.11-.76-.09-.14.01-.19-.04-.18-.19,0-.1-.03-.2.01-.31.07-.15.14-.17.26-.07q.18.17.34,0s.06-.08.09-.08c.16-.03.28-.08.22-.31-.01-.05.05-.1.11-.1.06,0,.14.03.12.12-.04.18-.03.32.17.36.06.01.11.1.08.2-.02.09-.04.18-.06.27Z" class="cls-3"/><path data-cppathid="10330" d="M88.41,43.52c-.08.19-.23.28-.4.2-.25-.12-.5-.11-.76-.09-.14.01-.19-.04-.18-.19,0-.1-.03-.2.01-.31.07-.15.14-.17.26-.07q.18.17.34,0s.06-.08.09-.08c.16-.03.28-.08.22-.31-.01-.05.05-.1.11-.1.06,0,.14.03.12.12-.04.18-.03.32.17.36.06.01.11.1.08.2-.02.09-.04.18-.06.27Z" class="cls-3"/><path data-cppathid="10331" d="M87.82,32.69c-.04.05-.08.1-.12.13-.17.13-.34.25-.52.37-.12.08-.21.03-.3-.08-.1-.13-.09-.3-.11-.46,0-.07.05-.09.09-.12.08-.04.15-.08.19-.17.04-.09.07-.09.14-.03.04.03.09-.04.11-.1.04-.13.12-.22.22-.28.19-.12.37-.02.36.23,0,.17-.05.34-.07.5Z" class="cls-3"/><path data-cppathid="10332" d="M84.86,33.18c.09.16.22.1.35.02.02-.01.04-.02.06-.02.34-.1.43,0,.4.38-.01.16-.12.25-.23.16-.11-.09-.19-.06-.28-.02-.06.03-.13.04-.18,0-.13-.11-.22,0-.33.05-.1.05-.14.08-.14.22,0,.14-.09.24-.21.22-.08,0-.13-.06-.16-.14-.04-.08,0-.15.06-.18.23-.14.23-.33.14-.57-.07-.18.03-.29.2-.25.1.02.19.08.32.13Z" class="cls-3"/><path data-cppathid="10333" d="M83.11,31.56c-.21-.11-.3-.41-.21-.6.06-.12.18-.17.26-.12.13.08.18,0,.26-.06.17-.13.32-.07.44.14.11.18.08.35-.09.47-.13.09-.28.15-.43.22-.1.05-.18,0-.23-.04Z" class="cls-3"/><path data-cppathid="10334" d="M74.03,36.99c.1-.23.2-.3.47-.28.1,0,.21-.08.3.08.08.14.14.26,0,.4-.07.07-.05.17-.08.26-.08.21-.35.3-.52.16-.08-.07-.17-.13-.08-.28.06-.09,0-.11-.09-.13-.08-.01-.01-.14,0-.21Z" class="cls-3"/><path data-cppathid="10335" d="M84.48,37.24c.06-.17.16-.22.28-.25.13-.03.25-.05.38-.1.14-.06.25,0,.31.14.07.14.06.27-.04.38-.06.07-.14.14-.2.21-.14.15-.14.16-.34.04-.03-.01-.08-.03-.08-.03-.06.12-.11.16-.18.02-.07-.14-.16-.27-.11-.41Z" class="cls-3"/><path data-cppathid="10336" d="M89.06,41.77c.06-.17.16-.22.28-.25.13-.03.25-.05.38-.1.14-.06.25,0,.31.14.07.14.06.27-.04.38-.06.07-.14.14-.2.21-.14.15-.14.16-.34.04-.03-.01-.08-.03-.08-.03-.06.12-.11.16-.18.02-.07-.14-.16-.27-.11-.41Z" class="cls-3"/><path data-cppathid="10337" d="M77.13,32.66c.03-.09.08-.18.17-.22.09-.04.16-.04.14-.21-.01-.1.12-.14.21-.12.1.02.19.19.13.26-.12.16-.07.32-.05.49.02.18-.06.32-.18.36-.14.05-.39,0-.46-.11-.11-.16-.04-.31.03-.47Z" class="cls-3"/><path data-cppathid="10338" d="M67.13,37.84c.22.12.29.23.28.39-.02.2-.19.42-.34.46-.05.01-.08-.02-.09-.06-.02-.07-.07-.12-.13-.13-.09,0-.02.09-.05.12-.02.04-.06.02-.08,0-.14-.14-.21-.31-.18-.52.02-.18.2-.31.4-.29.08,0,.16.04.19.05Z" class="cls-3"/><path data-cppathid="10339" d="M90.48,34.69c-.11.26-.32.33-.54.17-.05-.04-.1-.09-.14-.14-.12-.14-.16-.33-.1-.48.06-.13.27-.25.42-.23.04,0,.09.02.08.08-.02.1.04.12.1.14.24.1.28.22.17.46Z" class="cls-3"/><path data-cppathid="10340" d="M77.32,28.55s-.02.09-.02.14c0,.19-.02.34-.21.42-.2.08-.39.09-.56-.06-.11-.09-.16-.21-.09-.37.04-.11.09-.21.16-.29.04-.05.11-.09.15,0,.03.08.08.08.11.04.13-.16.23-.09.34.02.04.04.08.08.11.11h0Z" class="cls-3"/><path data-cppathid="10341" d="M82.67,36.93s.06.05.1.09c.15.15.16.16.04.33-.07.1-.1.17-.08.31.03.2-.1.31-.32.33-.16.01-.27-.08-.28-.28,0-.14,0-.3.09-.39.1-.1.18-.16.16-.33-.02-.11.14-.15.3-.05Z" class="cls-3"/><path data-cppathid="10342" d="M77.51,35.67c.06-.12.15-.14.25-.06.13.11.24.26.3.43.03.07.05.15.08.23.04.1.15.21.05.31-.1.1-.23.21-.39.18-.09-.02-.14-.09-.12-.19.01-.07.05-.13.06-.2,0-.07,0-.15-.08-.16-.07,0-.15,0-.18-.1-.02-.05.01-.4.03-.44Z" class="cls-3"/><path data-cppathid="10343" d="M81.18,33.18c-.06.14-.14.26-.3.26-.17,0-.27-.15-.37-.28-.01-.01-.02-.06-.01-.06.18-.12.08-.27.04-.41,0-.02.01-.04.02-.06.07-.12.26-.2.42-.16.15.04.23.15.25.31.02.14,0,.28-.06.41Z" class="cls-3"/><path data-cppathid="10344" d="M94.7,36.1c.09-.22.28-.31.45-.22.18.09.33.39.19.64-.12.21-.32.3-.52.19-.17-.1-.22-.36-.12-.61Z" class="cls-3"/><path data-cppathid="10345" d="M78.59,32.28c-.08-.04-.18-.13-.16-.29.02-.18.07-.34.23-.42.03-.01.07-.03.09-.02.12.07.22.19.39.12.06-.02.16.3.13.43-.03.14-.11.22-.23.25-.14.04-.28.03-.46-.08Z" class="cls-3"/><path data-cppathid="10346" d="M79.49,35.17c.22.13.26.23.2.47-.07.29-.3.46-.53.39-.19-.06-.29-.32-.21-.51.18,0,.12-.14.14-.25.02-.12.14-.15.25-.15.06,0,.12.04.14.05Z" class="cls-3"/><path data-cppathid="10347" d="M93.9,41.28c.22.13.26.23.2.47-.07.29-.3.46-.53.39-.19-.06-.29-.32-.21-.51.18,0,.12-.14.14-.25.02-.12.14-.15.25-.15.06,0,.12.04.14.05Z" class="cls-3"/><path data-cppathid="10348" d="M70.76,43.21c.22.13.26.23.2.47-.07.29-.3.46-.53.39-.19-.06-.29-.32-.21-.51.18,0,.12-.14.14-.25.03-.12.14-.15.25-.15.06,0,.12.04.14.05Z" class="cls-3"/><path data-cppathid="10349" d="M83.67,27.11s.07.03.11.03c.04,0,.08-.02.04-.09-.01-.02-.02-.04-.03-.06.04-.02.3.08.32.12.07.2-.03.52-.18.6-.21.11-.55,0-.64-.19-.07-.16,0-.39.13-.49.1-.07.18-.04.25.06Z" class="cls-3"/><path data-cppathid="10350" d="M74.05,28.03s.07.03.11.03c.04,0,.08-.02.04-.09-.01-.02-.02-.04-.03-.06.04-.02.3.08.32.12.07.2-.03.52-.18.6-.21.11-.55,0-.64-.19-.07-.16,0-.39.13-.49.1-.07.18-.04.25.06Z" class="cls-3"/><path data-cppathid="10351" d="M74.59,33.6c-.14.28-.26.29-.42.05-.09-.14-.18-.3-.08-.48.06-.1-.01-.14-.05-.2-.05-.07,0-.13.05-.17.06-.04.11,0,.13.06.03.14.09.21.23.17.09-.02.15.06.18.16.05.15.03.3-.04.42Z" class="cls-3"/><path data-cppathid="10352" d="M80.44,31.72c-.14-.08-.17-.25-.25-.38-.05-.08.02-.2.12-.24.11-.03.2,0,.3.03.08.02.17.05.18-.1,0-.03.04-.05.06-.08.06-.07.12-.08.2-.03.07.05.09.12.07.21-.02.09-.09.15-.16.12-.16-.07-.18.03-.2.16-.01.08-.04.16-.07.23-.06.14-.12.16-.25.07Z" class="cls-3"/><path data-cppathid="10353" d="M71.97,37.1c-.07.06-.12.15-.07.28.02.05-.02.11-.08.13-.06.02-.11-.02-.12-.08-.02-.13-.09-.18-.18-.24-.12-.08-.14-.23-.1-.37.04-.14.08-.29.22-.35.02,0,.04,0,.06,0,.17.03.35.44.26.64Z" class="cls-3"/><path data-cppathid="10354" d="M76.47,33.66c-.06-.05-.14-.13-.19-.23-.09-.18-.06-.28.13-.35.09-.03.17-.06.27-.05.2.02.28.12.27.33,0,.32-.21.45-.49.31Z" class="cls-3"/><path data-cppathid="10355" d="M70.42,39.59c.08.05.15.08.19.18.05.12.07.21-.06.29-.06.03-.11.1-.18.13-.16.09-.3.08-.37-.02-.08-.12-.09-.37-.02-.49.06-.11.21-.16.36-.12.03,0,.06.03.08.04Z" class="cls-3"/><path data-cppathid="10356" d="M62.41,34.31c.08.05.15.08.19.18.05.12.07.21-.06.29-.06.03-.11.1-.18.13-.16.09-.3.08-.37-.02-.08-.12-.09-.37-.02-.49.06-.11.21-.16.36-.12.03,0,.06.03.08.04Z" class="cls-3"/><path data-cppathid="10357" d="M85.74,39.29s-.08-.04-.12-.09c-.09-.1-.19-.19-.12-.35.06-.16.17-.25.33-.28.07-.01.12.03.16.08.14.15.17.45.08.64-.06.12-.11.13-.32,0Z" class="cls-3"/><path data-cppathid="10358" d="M87.97,27.09c.15.09.22.21.19.34-.04.16-.12.3-.27.35-.05.02-.12,0-.17-.05-.07-.08-.14-.16-.18-.27-.1-.27-.05-.38.21-.39.08,0,.17-.03.22.03Z" class="cls-3"/><path data-cppathid="10359" d="M95.41,37.67c.1.04.13.13.14.25.01.2-.09.33-.22.43-.12.09-.23.05-.29-.11-.03-.08-.06-.17-.08-.26-.04-.28.09-.42.33-.35.04.01.08.03.12.05Z" class="cls-3"/><path data-cppathid="10360" d="M90.09,36.59s.07-.1.12-.15c.12-.12.26-.15.37-.08.09.06.17.29.14.43-.02.11-.08.19-.19.2-.09,0-.18,0-.27,0-.2-.03-.27-.19-.17-.39Z" class="cls-3"/><path data-cppathid="10361" d="M89.54,37.64c-.07.18-.16.2-.3.08-.04-.03-.09-.07-.12-.11-.09-.1-.18-.22-.12-.37.06-.13.18-.19.31-.21.1-.02.18.04.23.14.08.15.07.31,0,.47Z" class="cls-3"/><path data-cppathid="10362" d="M86.8,28.84s.05-.11.09-.14c.1-.07.17-.23.31-.18.12.05.14.19.16.31.02.16-.02.3-.14.4-.08.07-.24.02-.37-.09-.1-.09-.09-.19-.05-.31Z" class="cls-3"/><path data-cppathid="10363" d="M76.23,36.43c.17.09.22.23.13.42-.05.12-.14.2-.25.25-.15.07-.22.02-.26-.17-.01-.07-.03-.14-.03-.21,0-.31.16-.42.4-.29Z" class="cls-3"/><path data-cppathid="10364" d="M90.93,31.84c-.19-.1-.34-.42-.27-.56.05-.1.33-.21.41-.17.13.07.18.37.1.59-.05.13-.15.18-.24.13Z" class="cls-3"/><path data-cppathid="10365" d="M88.22,31.85c-.16-.09-.21-.21-.15-.36.07-.17.32-.35.41-.29.13.08.18.35.1.53-.08.18-.19.21-.36.12Z" class="cls-3"/><path data-cppathid="10366" d="M71.66,34.35c-.08.17-.17.19-.29.08-.04-.04-.08-.07-.11-.12-.08-.11-.15-.23-.09-.37.05-.11.31-.17.42-.1.12.07.16.21.12.39-.01.04-.03.09-.04.13Z" class="cls-3"/><path data-cppathid="10367" d="M51.84,32.91c-.08.17-.17.19-.29.08-.04-.04-.08-.07-.11-.12-.08-.11-.15-.23-.09-.37.05-.11.31-.17.42-.1.12.07.16.21.12.39-.01.04-.03.09-.04.13Z" class="cls-3"/><path data-cppathid="10368" d="M90.29,28.6c.09-.08.16-.28.31-.23.15.04.25.19.31.36.03.09-.02.15-.09.18-.16.07-.32.03-.48.03-.11,0-.14-.17-.05-.33Z" class="cls-3"/><path data-cppathid="10369" d="M87.71,37.92c.03-.06.07-.08.13-.09.14-.04.29,0,.43.01.1.01.14.17.08.28-.06.12-.19.18-.27.28-.01.01-.04.01-.06.01-.11,0-.34-.34-.31-.46,0-.01,0-.02,0-.03Z" class="cls-3"/><path data-cppathid="10370" d="M96.85,36.17s.07.06.07.09c0,.15.05.3-.02.44-.07.14-.19.17-.28.04-.08-.12-.21-.19-.25-.35-.02-.1-.02-.17.06-.2.14-.05.28-.03.42-.02Z" class="cls-3"/><path data-cppathid="10371" d="M92.49,38.13c.11.05.14.19.07.29-.03.04-.06.07-.09.09-.1.05-.18.21-.29.16-.13-.07-.17-.25-.23-.4-.03-.09.02-.17.12-.2.15-.05.28.05.42.06Z" class="cls-3"/><path data-cppathid="10372" d="M95.54,35.14c.05-.11.17-.18.25-.12.08.05.15.15.09.25-.08.13-.04.19.03.3.11.17.07.28-.1.33-.13.04-.18,0-.2-.17-.02-.15.03-.31-.1-.43-.04-.04.02-.1.02-.16Z" class="cls-3"/><path data-cppathid="10373" d="M89.08,35.42c-.1-.18-.28-.31-.31-.54,0-.08.04-.12.1-.14.12-.04.24,0,.36.02.04,0,.07.04.08.09.03.13-.06.47-.16.54-.02.02-.06.02-.09.03Z" class="cls-3"/><path data-cppathid="10374" d="M81.41,26.72c-.12-.07-.13-.16-.08-.27.08-.14.22-.2.35-.28.07-.04.14.02.17.1.06.17-.03.31-.05.47,0,.02-.05.05-.08.04-.11-.02-.22-.05-.31-.07Z" class="cls-3"/><path data-cppathid="10375" d="M81.94,24.56c-.12-.07-.13-.16-.08-.27.08-.14.22-.2.35-.28.07-.04.14.02.17.1.06.17-.03.31-.05.47,0,.02-.05.05-.08.04-.11-.02-.22-.05-.31-.07Z" class="cls-3"/><path data-cppathid="10376" d="M83.3,29.23c-.04.13-.1.17-.19.13-.11-.05-.28-.01-.3-.18-.02-.17.12-.25.24-.31.04-.02.07-.05.11-.07.1-.05.16.01.19.11.03.12,0,.23-.04.32Z" class="cls-3"/><path data-cppathid="10377" d="M79.1,28.81s.38-.34.41-.33c.07.01.14.04.16.14.01.08.03.16-.05.21-.1.07-.23.07-.34.14-.08.05-.21-.09-.19-.16Z" class="cls-3"/><path data-cppathid="10378" d="M91.71,32.15c.07-.17.15-.22.25-.17.11.06.14.2.07.36,0,.02-.02.04-.03.06-.06.11-.2.18-.26.12-.08-.08-.13-.18-.07-.3.01-.02.02-.04.03-.06Z" class="cls-3"/><path data-cppathid="10379" d="M85.95,36.22c.04-.08.11-.16.22-.19.08-.02.14,0,.18.08.04.08.05.16,0,.23-.06.08-.13.14-.23.16-.07.01-.15.05-.2-.03-.05-.07-.02-.15.03-.25Z" class="cls-3"/><path data-cppathid="10380" d="M87.24,26.32c-.12-.08-.16-.21-.1-.32.06-.11.17-.15.26-.09.08.05.1.2.04.31-.05.08-.11.14-.19.1Z" class="cls-3"/><path data-cppathid="10381" d="M75.23,33.63c.03-.06.22-.09.28-.04.05.04.08.22.04.29-.06.11-.18.15-.27.09-.09-.06-.12-.21-.05-.34Z" class="cls-3"/><path data-cppathid="10382" d="M94.82,33.51c.05-.1.21-.13.3-.07.09.07.1.16.04.27-.06.1-.19.14-.27.07-.08-.07-.11-.16-.08-.27Z" class="cls-3"/><path data-cppathid="10383" d="M93.47,27.96c.04-.07.12-.08.22-.04.1.05.15.23.09.32-.07.09-.16.1-.25.06-.09-.05-.13-.19-.06-.34Z" class="cls-3"/><path data-cppathid="10384" d="M77.33,28.57c.06-.08.13-.16.21-.2.09-.04.16,0,.22.07.05.06.03.13,0,.19-.03.09-.1.1-.18.11-.14.02-.19-.12-.27-.19h0Z" class="cls-3"/><path data-cppathid="10385" d="M75.23,34.32c.07.05.15.11.1.24-.03.09-.17.16-.26.13-.06-.02-.14-.21-.12-.29.02-.09.16-.14.27-.08Z" class="cls-3"/><path data-cppathid="10386" d="M75.41,38.59c.06-.16.17-.22.27-.18.09.04.14.2.09.29-.05.1-.13.13-.23.08-.09-.05-.15-.11-.12-.18Z" class="cls-3"/><path data-cppathid="10387" d="M70.97,35.63c.05.03.13.25.1.3-.03.08-.18.11-.27.06-.1-.06-.14-.15-.09-.25.04-.08.19-.15.26-.11Z" class="cls-3"/><path data-cppathid="10388" d="M81.34,36.58c.05-.09.13-.11.23-.09.07.02.15.17.14.24-.03.1-.18.15-.29.1-.07-.04-.11-.14-.07-.25Z" class="cls-3"/><path data-cppathid="10389" d="M82.42,33.81c.05-.1.2-.16.26-.1.07.07.12.17.06.28-.05.09-.12.16-.23.11-.1-.05-.14-.18-.09-.29Z" class="cls-3"/><path data-cppathid="10390" d="M79.15,33.3c.04-.1.11-.1.2-.06.11.06.15.16.1.28-.04.1-.15.14-.23.09-.09-.05-.12-.18-.07-.31Z" class="cls-3"/><path data-cppathid="10391" d="M89.09,38.12c.05-.13.15-.1.24-.07.08.02.13.17.1.25-.03.1-.17.17-.26.12-.08-.04-.12-.2-.09-.3Z" class="cls-3"/><path data-cppathid="10392" d="M90.24,38.37c-.08-.05-.14-.22-.1-.29.05-.09.23-.12.3-.06.08.07.06.17.04.25-.02.07-.2.13-.24.1Z" class="cls-3"/><path data-cppathid="10393" d="M67.95,38.03c.08.05.11.15.09.26-.01.09-.17.14-.26.11-.1-.04-.14-.15-.1-.25.05-.11.16-.17.26-.12Z" class="cls-3"/><path data-cppathid="10394" d="M76.25,38.24c-.07-.04-.11-.21-.06-.3.06-.1.15-.09.22-.04.07.05.14.14.11.26-.03.11-.16.15-.26.09Z" class="cls-3"/><path data-cppathid="10395" d="M71.24,39.24c-.08-.04-.14-.19-.09-.27.05-.09.1-.18.22-.13.1.04.17.22.11.32-.06.1-.16.09-.24.09Z" class="cls-3"/><path data-cppathid="10396" d="M84.97,38.63c-.09-.04-.14-.19-.11-.3.02-.08.15-.13.23-.09.09.04.14.19.1.29-.05.11-.14.12-.23.1Z" class="cls-3"/><path data-cppathid="10397" d="M83.89,38.15c.05-.11.15-.15.26-.09.1.05.12.15.06.26-.05.1-.17.14-.26.07-.07-.05-.1-.15-.06-.24Z" class="cls-3"/><path data-cppathid="10398" d="M95.78,39.12c.09.06.14.21.09.29-.07.1-.16.09-.24.05-.07-.03-.12-.22-.09-.3.03-.07.17-.1.25-.05Z" class="cls-3"/><path data-cppathid="10399" d="M72.72,38c.05-.12.13-.14.23-.1.11.05.15.15.11.27-.04.14-.14.11-.23.1-.09-.02-.14-.18-.11-.28Z" class="cls-3"/><path data-cppathid="10400" d="M75.5,35.23c.06.05.09.14.06.25-.03.1-.17.16-.25.11-.08-.06-.13-.14-.08-.26.04-.11.15-.16.28-.09Z" class="cls-3"/><path data-cppathid="10401" d="M87.9,28.05c.03-.06.07-.17.2-.11.11.05.17.19.12.27-.06.09-.15.13-.24.08-.09-.04-.14-.11-.07-.24Z" class="cls-3"/><path data-cppathid="10402" d="M79.28,38.87c-.07-.06-.13-.14-.08-.26.04-.11.17-.15.25-.1.08.05.11.18.06.26-.06.09-.13.14-.24.09Z" class="cls-3"/><path data-cppathid="10403" d="M88.56,26.75c.07-.05.14-.12.23-.1.09.02.12.15.09.29-.03.13-.11.12-.19.1-.08-.02-.16-.2-.13-.29Z" class="cls-3"/><path data-cppathid="10404" d="M86.75,31.43c.07-.06.14-.13.24-.08.09.04.12.15.07.27-.04.1-.11.13-.2.11-.08-.02-.15-.22-.11-.3Z" class="cls-3"/><path data-cppathid="10405" d="M81.26,38.84c.09.06.13.19.09.3-.05.11-.13.11-.21.06-.09-.05-.12-.16-.08-.26.04-.1.13-.14.2-.1Z" class="cls-3"/><path data-cppathid="10406" d="M67.33,40.62c.05-.09.2-.13.28-.07.07.04.07.18,0,.28-.05.08-.13.11-.22.08-.05-.02-.09-.24-.07-.28Z" class="cls-3"/><path data-cppathid="10407" d="M90.17,39.05c-.09-.05-.12-.17-.08-.26.05-.1.15-.14.23-.1.09.05.13.17.08.26-.05.1-.13.14-.23.1Z" class="cls-3"/><path data-cppathid="10408" d="M89.23,31c-.08-.05-.1-.12-.05-.2.05-.08.1-.18.22-.11.09.06.14.16.1.25-.04.08-.18.12-.27.06Z" class="cls-3"/><path data-cppathid="10409" d="M81.39,37.73c.05-.14.17-.19.26-.13.08.05.12.12.08.23-.04.11-.14.15-.23.1-.07-.04-.14-.1-.11-.2Z" class="cls-3"/><path data-cppathid="10410" d="M72.52,36.71c.06-.09.14-.13.24-.09.09.04.13.11.09.22-.04.11-.13.17-.22.13-.08-.04-.14-.18-.11-.26Z" class="cls-3"/><path data-cppathid="10411" d="M67.72,38.64c.09.04.14.16.1.25-.04.1-.12.12-.21.08-.09-.03-.15-.17-.1-.25.05-.08.12-.13.21-.08Z" class="cls-3"/><path data-cppathid="10412" d="M72.12,34.94c.06-.07.12-.11.21-.08.11.04.17.14.14.23-.04.1-.12.11-.21.1-.07-.01-.16-.17-.14-.25Z" class="cls-3"/><path data-cppathid="10413" d="M86.04,27.66c.06.04.12.08.07.16-.05.09-.14.09-.21.04-.06-.03-.08-.1-.04-.18.05-.1.12-.05.18-.03Z" class="cls-3"/><path data-cppathid="10414" d="M83.63,28.21c.06.05.06.12.03.2-.02.06-.08.08-.12.08-.05,0-.08-.19-.05-.24.02-.04.1-.06.14-.04Z" class="cls-3"/><path data-cppathid="10415" d="M72.26,38.7s.05-.08.09-.06c.07.03.12.09.1.19-.01.07-.07.09-.12.07-.08-.03-.09-.11-.07-.2Z" class="cls-3"/><path data-cppathid="10416" d="M92.29,32.71c.05.03.08.09.05.14-.04.07-.11.12-.18.1-.05-.01-.06-.08-.04-.14.03-.08.08-.13.17-.1Z" class="cls-3"/><path data-cppathid="10417" d="M82.89,32.24c.05-.07.12-.06.17-.03.07.05.02.12,0,.17-.02.05-.06.11-.11.06-.06-.05-.07-.13-.05-.21Z" class="cls-3"/><path data-cppathid="10418" d="M81.39,30.46c.05-.07.11-.11.18-.04.04.04.07.1.03.15-.05.06-.12.09-.19.04-.04-.03-.06-.09-.02-.14Z" class="cls-3"/><path data-cppathid="10419" d="M86.96,27.39c.05-.05.11-.11.18-.05.04.03.05.08.03.12-.04.09-.11.09-.18.05-.04-.02-.05-.07-.03-.12Z" class="cls-3"/><path data-cppathid="10420" d="M74.13,30.97c-.06-.05-.1-.11-.08-.2.02-.07.08-.05.13-.03.06.03.11.07.08.15-.02.06-.06.09-.12.08Z" class="cls-3"/><path data-cppathid="10421" d="M74.07,34.4c.03-.08.06-.09.1-.07.07.02.14.05.11.16-.02.06-.06.1-.12.08-.08-.02-.08-.11-.1-.16Z" class="cls-3"/><path data-cppathid="10422" d="M92.53,39.19c.06.05.08.1.05.16-.04.08-.1.07-.16.03-.05-.03-.08-.09-.05-.14.04-.07.1-.06.15-.05Z" class="cls-3"/><path data-cppathid="10423" d="M69.49,37.95s-.09-.07-.07-.14c.02-.08.08-.06.12-.05.05.02.1.05.07.12-.02.07-.07.07-.13.06Z" class="cls-3"/><path data-cppathid="10424" d="M96.43,32.71c-.05-.06-.08-.13-.07-.21,0-.05.05-.03.06,0,.03.07.08.13.06.21,0,0-.03,0-.05,0Z" class="cls-3"/></g></g></g><path data-cppathid="10425" d="M96.5,32.99c-1.3.08-2.03-.37-2.21-1.33l19.01-26.73c.23-.32.58-.56.98-.6.94-.08,1.78.12,2.55.52.42.22.53.77.25,1.15l-20.57,26.99Z" class="cls-4"/><g><path data-cppathid="10426" d="M35.64,65.58c.55,0,1.28.14,2.18.41.11.03.19.05.26.05.05,0,.22-.05.48-.15.09-.03.18-.05.27-.05.36,0,.74.28,1.14.85.4.57.6,1.11.6,1.63,0,.3-.09.56-.27.76-.18.21-.4.31-.66.31-.22,0-.39-.04-.52-.13-.13-.09-.43-.34-.89-.77-.65-.6-1.28-.9-1.9-.9-.3,0-.54.07-.72.22-.18.15-.27.34-.27.57,0,.47.41.82,1.23,1.06,1.11.33,1.82.57,2.14.72,1.37.67,2.05,1.65,2.05,2.94,0,1.15-.47,2.08-1.4,2.8-.96.74-2.21,1.11-3.75,1.11-.69,0-1.41-.08-2.18-.25-.76-.16-1.31-.36-1.65-.58-.26-.17-.49-.55-.7-1.12-.21-.58-.31-1.14-.31-1.69,0-.26.05-.46.16-.6.13-.17.3-.26.51-.26s.4.1.59.31c.11.12.38.5.8,1.14.2.3.51.55.95.75.43.2.88.3,1.34.3.4,0,.72-.07.97-.22.25-.15.37-.34.37-.57,0-.22-.1-.4-.29-.56-.19-.16-.51-.3-.94-.44-.77-.24-1.35-.46-1.76-.67-.4-.2-.78-.46-1.13-.76-.85-.75-1.27-1.61-1.27-2.56,0-.47.11-.93.33-1.38.22-.45.53-.84.94-1.16.9-.76,2-1.14,3.3-1.14Z" class="cls-3"/><path data-cppathid="10427" d="M53.23,69.84v1.97c0,1.19-.09,2.03-.27,2.52-.38,1.04-1.22,1.8-2.51,2.27-.78.29-1.67.43-2.66.43-1.72,0-3.11-.41-4.14-1.23-.5-.4-.85-.87-1.05-1.4-.19-.53-.29-1.3-.29-2.31,0-.39.01-1.04.04-1.93.02-.63.02-1.05.02-1.26,0-.45-.03-.76-.1-.93-.07-.17-.21-.33-.44-.48-.35-.23-.53-.49-.53-.77,0-.21.09-.4.27-.56.18-.16.42-.27.71-.33.59-.12,1.29-.18,2.1-.18.89,0,1.62.07,2.21.2.58.13.86.42.86.88,0,.23-.08.41-.25.54-.04.03-.2.12-.48.25-.17.08-.29.21-.35.41-.06.2-.09.53-.09.98s-.02,1.48-.06,3.03c-.03.92.22,1.63.75,2.11.43.4.98.6,1.66.6.43,0,.82-.08,1.17-.24.35-.16.61-.37.8-.65.15-.21.24-.44.3-.7.05-.26.08-.61.08-1.06v-1.77c-.03-1.36-.07-2.16-.12-2.39-.05-.23-.22-.42-.52-.55-.28-.12-.47-.24-.57-.34-.1-.1-.15-.23-.15-.38,0-.32.19-.56.58-.71.38-.15,1-.22,1.85-.22s1.44.07,1.81.22c.37.15.56.38.56.69,0,.16-.03.27-.1.35-.06.08-.23.19-.51.35-.28.16-.45.33-.49.52-.04.19-.07.87-.08,2.07Z" class="cls-3"/><path data-cppathid="10428" d="M61.15,65.58c.7,0,1.37.1,1.99.3.28.09.47.14.57.14s.33-.06.68-.19c.11-.04.23-.06.35-.06.3,0,.59.18.86.53.44.57.66,1.19.66,1.87,0,.46-.12.84-.35,1.12-.23.28-.54.43-.92.43-.31,0-.62-.11-.92-.34-.09-.07-.31-.32-.67-.76-.59-.72-1.27-1.09-2.04-1.09-.7,0-1.25.26-1.66.77-.41.51-.62,1.2-.62,2.06,0,1.28.33,2.38.98,3.28.25.33.54.59.89.79.34.2.68.29,1.02.29.28,0,.51-.09.69-.28.18-.19.27-.42.27-.71,0-.26-.08-.44-.23-.55-.06-.04-.11-.07-.17-.08-.05,0-.21-.01-.46-.01-.23,0-.42-.07-.58-.22-.15-.15-.23-.33-.23-.56,0-.45.3-.76.89-.95.65-.2,1.4-.31,2.25-.31.91,0,1.67.09,2.29.28.59.18.88.51.88.99,0,.19-.07.36-.2.5-.13.14-.31.23-.52.25-.19.03-.31.07-.37.12-.06.06-.11.19-.17.42-.23.85-.68,1.57-1.35,2.14-.46.39-1.02.7-1.67.92-.65.22-1.34.33-2.06.33-1.18,0-2.26-.27-3.24-.81-1.01-.55-1.78-1.33-2.31-2.32-.44-.83-.66-1.72-.66-2.68s.26-1.9.79-2.77c.56-.94,1.34-1.67,2.35-2.18.88-.45,1.87-.68,3-.68Z" class="cls-3"/><path data-cppathid="10429" d="M77.59,71.24l1.52,3.26c.15.3.27.5.36.59.1.09.24.16.44.19.39.06.58.26.58.59,0,.39-.24.67-.71.85-.47.17-1.25.26-2.32.26-1.21,0-2.12-.05-2.7-.15-.27-.05-.48-.15-.64-.29-.16-.15-.24-.33-.24-.54,0-.16.04-.29.12-.37.08-.09.24-.17.46-.25.25-.09.38-.23.38-.44,0-.36-.22-.57-.65-.64-.47-.06-1.13-.1-1.98-.1-.71,0-1.14.04-1.28.13-.09.05-.16.15-.23.29s-.1.27-.1.4c0,.12.02.19.07.23.05.03.19.09.45.17.33.1.49.29.49.58,0,.64-.77.96-2.3.96-.87,0-1.51-.06-1.92-.18-.38-.11-.56-.36-.56-.74,0-.17.04-.3.12-.39.08-.09.23-.17.45-.25.35-.12.61-.3.79-.52.18-.22.44-.7.77-1.43l1.14-2.49c.42-.91.7-1.6.84-2.05.14-.45.22-.9.22-1.33,0-.46.03-.78.08-.96.05-.18.17-.36.34-.53.37-.38.84-.56,1.42-.56.54,0,1.06.21,1.56.64.69.58,1.69,2.27,3,5.07ZM71.98,72.26h1.58c.29,0,.44-.06.44-.19,0-.18-.2-.61-.6-1.3-.18-.32-.32-.53-.42-.64-.1-.11-.2-.16-.31-.16-.19,0-.35.18-.48.54-.02.05-.1.24-.23.57-.23.55-.34.88-.34.98,0,.13.12.2.37.2Z" class="cls-3"/><path data-cppathid="10430" d="M86.09,72.19c-.2,0-.33.06-.39.19-.06.12-.08.41-.08.86,0,.68.04,1.21.13,1.6.03.11.07.19.12.25.05.06.16.13.31.22.32.18.48.41.48.7,0,.35-.22.61-.67.75-.45.15-1.21.22-2.28.22-1.99,0-2.98-.38-2.98-1.13,0-.13.03-.23.09-.31.06-.08.19-.19.4-.33.24-.16.4-.34.48-.55.08-.21.14-.58.17-1.1.03-.38.04-1.75.04-4.1,0-.75-.04-1.26-.11-1.52-.08-.27-.24-.46-.48-.59-.24-.11-.4-.22-.48-.31-.08-.09-.12-.22-.12-.37,0-.2.08-.37.23-.52.15-.15.37-.26.64-.33.23-.06.55-.09.95-.09.18,0,.62.03,1.33.08.13.01.35.02.64.02.48,0,1.13-.03,1.94-.1.51-.04.87-.06,1.07-.06,1.15,0,2.1.28,2.85.83.68.5,1.02,1.19,1.02,2.08,0,.49-.12.94-.35,1.35-.24.41-.56.71-.98.91-.17.09-.26.19-.26.31,0,.16.13.28.4.38.56.2.98.51,1.24.93.26.41.45,1.05.56,1.9.05.35.12.58.21.69.09.1.3.21.64.3.1.03.19.1.26.21.07.1.1.22.1.35,0,.17-.06.33-.19.5-.13.17-.3.3-.5.4-.45.21-1.07.31-1.85.31-1.05,0-1.8-.28-2.25-.83-.2-.25-.38-.56-.52-.94-.14-.38-.31-.96-.5-1.76-.12-.51-.28-.87-.47-1.08-.19-.21-.46-.32-.82-.34ZM85.62,68.07l-.09,1.88v.07c0,.19.03.32.08.39.06.06.17.1.34.1.47,0,.82-.12,1.03-.37.22-.24.32-.64.32-1.17,0-1.04-.37-1.56-1.1-1.56-.21,0-.36.05-.44.15-.09.1-.13.27-.15.52Z" class="cls-3"/></g></g></g></svg>