<?xml version="1.0" encoding="UTF-8"?>
<svg xmlns="http://www.w3.org/2000/svg" onmouseup="{ if(window.parent.document.onmouseup) window.parent.document.onmouseup(arguments[0]);}" viewBox="0 0 109.79 50" id="Layer_2"><defs><style>
      .cls-1 {
        fill: #fff;
      }

      .cls-2 {
        fill: #e6dde6;
      }

      .cls-3 {
        fill: #6b4343;
      }

      .cls-4 {
        fill: #d6b2b2;
      }

      .cls-5 {
        fill: #e6c3c3;
      }

      .cls-6 {
        fill: #ba8484;
      }

      .cls-7 {
        fill: #f7e2e2;
      }

      .cls-8 {
        fill: #cfa4a4;
      }

      .cls-9 {
        fill: #f7f2f7;
      }

      .cls-10 {
        fill: #a88585;
      }
    </style></defs><g data-name="Ñëîé_2" id="_Ñëîé_2"><g><path data-cppathid="10000" d="M4.04,33.6c.24-1.18,11.65-5.24,17.72-5.49,11.53-.47,87.62-4.75,86.98,6.8-.82,14.7-107.55,12.96-104.7-1.31Z" class="cls-3"/><ellipse data-cppathid="10001" transform="translate(-5.82 9.98) rotate(-12.02)" ry="12.25" rx="17.47" cy="32.63" cx="44.5" class="cls-10"/><ellipse data-cppathid="10002" transform="translate(-1.66 9.26) rotate(-12.02)" ry="12.25" rx="17.47" cy="12.52" cx="43.14" class="cls-4"/><ellipse data-cppathid="10003" transform="translate(-5.11 16) rotate(-12.02)" ry="12.25" rx="17.47" cy="32.26" cx="73.41" class="cls-3"/><ellipse data-cppathid="10004" transform="translate(-5.47 6.02) rotate(-12.02)" ry="12.25" rx="17.47" cy="28.97" cx="25.86" class="cls-5"/><g><path data-cppathid="10005" d="M90.68,10.51c.14,6.1-6.06,12.16-14.72,14-8.46,1.8-16.38-1-18.95-6.37-.3-.62-.53-1.28-.68-1.98-1.42-6.61,5.09-13.61,14.53-15.61,9.44-2.01,18.23,1.72,19.65,8.34.11.54.18,1.07.18,1.63Z" class="cls-5"/><path data-cppathid="10006" d="M90.68,10.51c.14,6.1-6.06,12.16-14.72,14-8.46,1.8-16.38-1-18.95-6.37,1.42-1.72,3.65-3.52,7.04-5.32,12.52-6.64,21.58-4.5,26.64-2.31Z" class="cls-8"/></g><ellipse data-cppathid="10007" transform="translate(4.74 68.24) rotate(-45)" ry="17.47" rx="12.25" cy="28.4" cx="84.74" class="cls-5"/><path data-cppathid="10008" d="M67.96,34.14c-4.74,9.3-13.86,14.16-20.39,10.84-4.17-2.11-6.27-7.05-5.99-12.77.14-3.23,1.03-6.72,2.75-10.09,4.73-9.3,13.85-14.16,20.39-10.84,2.16,1.1,3.76,2.94,4.76,5.27,2.05,4.71,1.66,11.36-1.51,17.59Z" class="cls-2"/><path data-cppathid="10009" d="M69.47,16.55c-.14,3.25-1.04,6.72-2.75,10.09-4.74,9.3-13.86,14.16-20.39,10.84-2.16-1.1-3.76-2.94-4.76-5.27.14-3.23,1.03-6.72,2.75-10.09,4.73-9.3,13.85-14.16,20.39-10.84,2.16,1.1,3.76,2.94,4.76,5.27Z" class="cls-9"/><path data-cppathid="10010" d="M109.74,38.87c.17.87-.11,1.71-.36,2.45-1.19,3.78-5.42,5.51-9.39,6.22-14.36,2.55-92.28,4.48-98.02-1.42-1.15-1.19-1.72-2.45-1.87-3.68-.12-.83-.17-1.69.14-2.45,1.8-4.45,5.36-10.89,5.52-4.45.14,5.55,79.55,6.08,98.78-1.17,4.36-1.65,3.59-3.62,5.2,4.5Z" class="cls-6"/><path data-cppathid="10011" d="M109.38,41.31c-1.19,3.78-5.42,5.51-9.39,6.22-14.36,2.55-92.28,4.48-98.02-1.42-1.15-1.19-1.72-2.45-1.87-3.68,11.57,2.48,47.96,8.14,109.28-1.12Z" class="cls-3"/><path data-cppathid="10012" d="M20.04,22.46c-.59-1.01-2.59-.95-4.48.13s-2.94,2.79-2.35,3.81c.59,1.01,2.59.95,4.48-.13,1.89-1.09,2.94-2.79,2.35-3.81Z" class="cls-7"/><path data-cppathid="10013" d="M74.63,18.95c-.83.83-.25,2.75,1.29,4.29,1.54,1.54,3.46,2.12,4.29,1.29.83-.83.25-2.75-1.29-4.29-1.54-1.54-3.46-2.12-4.29-1.29Z" class="cls-7"/><path data-cppathid="10014" d="M37.55,4.86c-.59-1.01-2.59-.95-4.48.13s-2.94,2.79-2.35,3.81c.59,1.01,2.59.95,4.48-.13,1.89-1.09,2.94-2.79,2.35-3.81Z" class="cls-5"/><path data-cppathid="10015" d="M70.67,3.18c-.59-1.01-2.59-.95-4.48.13-1.89,1.09-2.94,2.79-2.35,3.81.59,1.01,2.59.95,4.48-.13,1.89-1.09,2.94-2.79,2.35-3.81Z" class="cls-7"/><path data-cppathid="10016" d="M58.28,14.28c-.02-.43-.16-.7-.38-.86-.04-.17-.13-.33-.28-.48-.62-.61-1.62-.35-2.29.03-.98.55-1.89,1.39-2.67,2.19-.67.69-1.74,1.7-1.86,2.71-.08.62.27,1.29.89,1.47.33.1.72.04,1.1-.09.99-.05,2.24-.89,2.79-1.32.44-.35,1.26-1.16,1.84-2.03.44-.48.87-1.06.85-1.62Z" class="cls-1"/></g></g></svg>