<?xml version="1.0" encoding="UTF-8"?>
<svg xmlns="http://www.w3.org/2000/svg" onmouseup="{ if(window.parent.document.onmouseup) window.parent.document.onmouseup(arguments[0]);}" viewBox="0 0 189.02 90.4" id="Layer_2"><defs><style>
      .cls-1 {
        fill: #9dcbe4;
      }

      .cls-2 {
        fill: #fff;
      }

      .cls-3 {
        fill: #d3d3d3;
      }

      .cls-4 {
        fill: #80bcd6;
      }

      .cls-5 {
        fill: #ffe78b;
      }

      .cls-6 {
        fill: #b9c0d6;
      }

      .cls-7 {
        fill: #eaeaea;
      }

      .cls-8 {
        fill: #797f91;
      }

      .cls-9 {
        fill: #ffd06d;
      }

      .cls-10 {
        fill: #fffe95;
      }

      .cls-11 {
        fill: #3c4049;
      }

      .cls-12 {
        fill: #c5dfeb;
      }

      .cls-13 {
        fill: #b7b7b7;
      }
    </style></defs><g data-name="Ñëîé_2" id="_Ñëîé_2"><g><g><ellipse data-cppathid="10000" ry="17.68" rx="85.31" cy="35.72" cx="103.71" class="cls-7"/><g><ellipse data-cppathid="10001" ry="15.92" rx="77.65" cy="36.61" cx="103.71" class="cls-3"/><path data-cppathid="10002" d="M57.9,36.73c5.06,5.42,6.71,3.63,18.47,6.14,11.77,2.5,24.49,5.9,29.01,5.18,4.52-.72,5.88-3.37,25.32-2.76,19.43.61,29.65-6.34,29.69-9.57.04-3.24-15.6-7.69-23.4-7.33-7.8.36-79.09,8.34-79.09,8.34Z" class="cls-13"/><path data-cppathid="10003" d="M57.9,36.73s.66-1.09.6-2.92c-.19-6.68-.55-22.49.09-25.13.81-3.36,43.51.19,46.52,3.24s2.11,29.27,1.4,32.37c-.43,1.86-16.6,1.22-32.05-2.86-9.53-2.52-17.47-1.96-16.56-4.71Z" class="cls-5"/><path data-cppathid="10004" d="M144.29,6.58c1.61,18.57.08,17.26,1.38,26.65.24,1.7-6.25,4.07-10.61,5.59-3.89,1.35-4.5.84-14.22,2.54-6.86,1.2-9.37,3.45-14.99,3.45-2.77,0-2.66-30.2-.75-32.87,1.92-2.66,38.77-10.12,39.18-5.35Z" class="cls-9"/><path data-cppathid="10005" d="M58.59,8.69C62.57,5.32,92.06.81,96.71.09c4.65-.72,48.64,2.93,47.57,6.49s-35.29,7.93-39.95,8.84c-1.69.33-5.35-2.34-16.57-.95-9.53,1.18-10.98-2.61-15.59-3.3-8.96-1.33-14.9-1.37-13.58-2.48Z" class="cls-10"/><path data-cppathid="10006" d="M61.35,15.1c2.38,17.27,20.08,22.94,22.54,24.2,2.46,1.25-10.08,1.07-18.52-2.86-8.44-3.93-4.28-23.18-4.02-21.34Z" class="cls-10"/></g></g><g><g><path data-cppathid="10007" d="M79.46,64.87l-1.86,12.68-.64-.09c-1.7-1.17-3.54-1.36-4.67-1.33-.69.01-1.12.1-1.12.1-.05.27-.23.8-.47,1.28-.17.31-.35.61-.54.78-.18.08-.37.14-.56.17l-.69-.09.16-1.07,1.99-13.67,1.1.16,7.3,1.07Z" class="cls-4"/><g><g><path data-cppathid="10008" d="M79.46,64.86h0c-.26.26-.44.61-.5,1.01l-1.58,10.85c0,.06-.01.12-.01.18,0,.04,0,.08,0,.11,0,.06,0,.12,0,.18,0,.05.01.1.02.15,0,.03.01.05.02.09s.02.07.03.1c0,.01,0,.02.01.03.02.06.04.12.07.18.03.05.05.1.08.14.02.04.04.07.07.11.03.04.06.07.08.11,0,.01.02.03.03.04.01.02.03.04.05.05.03.04.07.07.11.1.03.03.08.06.11.08.1.07.19.12.3.16.02,0,.04.02.06.03.21.07.42.1.66.07,1.32-.16,3.28-.35,5.87-.52,5.23-.34,13.72,5.67,23.16,5.8.35,0,.69.01,1.03.02.13,0,.27,0,.4.01.23.01.45.02.68.03.58.02,1.15.06,1.68.1.19.01.38.03.57.04.24.02.47.04.7.06.22.02.44.04.66.07.21.03.42.05.63.08.22.03.43.06.64.09.18.02.36.05.54.07.46.07.89.14,1.32.22.24.05.48.1.71.14.18.04.36.07.54.12.26.06.52.11.77.18.12.03.25.06.37.09.02,0,.04,0,.06.01.09.02.17.04.25.06.02,0,.04.01.05.02.41.11.8.23,1.18.34.81.26,1.53.52,2.18.8.11.05.23.09.34.14.74.32,1.38.64,1.95.95.23.12.44.24.65.36.33.19.64.37.93.54.18.11.36.21.52.3,0,0,.01.01.03.01.09.05.17.1.26.14.03.01.06.03.08.04.1.06.2.11.28.15.09.05.18.09.26.13.07.03.14.06.21.09.08.03.17.06.25.09.12.04.24.06.35.08.07,0,.13.01.19.02.07,0,.14,0,.21,0,.07,0,.14-.01.21-.03.07-.01.14-.04.21-.06.08-.03.16-.06.24-.09.02,0,.05-.02.07-.03.07-.02.14-.05.21-.09.05-.02.1-.04.15-.07.18-.08.35-.16.51-.25.16-.09.32-.18.46-.28h0c.17-.11.33-.22.49-.34h0c1.38-1.04,2.44-2.63,3.24-4.29.2-.39.37-.77.52-1.16h0c.09-.24.18-.46.26-.68.72-1.9,1.08-3.61,1.18-4.28.13-.89-.08-1.71-.62-2.46-1.47-2.05-5.44-3.6-11.98-4.56l-43.94-6.41c-.49-.07-.95.11-1.31.43ZM130.47,76.19c1.3.19,2.19,1.4,2,2.7-.03.21-.09.42-.17.61-.57.53-1.36.82-2.18.7-1.26-.18-2.17-1.23-2.23-2.45.37-1.05,1.44-1.72,2.58-1.56Z" class="cls-8"/><path data-cppathid="10009" transform="translate(7.32 146.08) rotate(-81.71)" d="M87.92,62.09h.37c.7,0,1.28.57,1.28,1.28v10.89c0,.7-.57,1.28-1.28,1.28h-.37c-.7,0-1.28-.57-1.28-1.28v-10.88c0-.7.57-1.28,1.28-1.28Z" class="cls-6"/><path data-cppathid="10010" transform="translate(24.29 172.68) rotate(-81.69)" d="M111.83,68.27h.37c.7,0,1.28.57,1.28,1.28v5.5c0,.7-.57,1.28-1.28,1.28h-.37c-.7,0-1.28-.57-1.28-1.28v-5.5c0-.7.57-1.28,1.28-1.28Z" class="cls-6"/><path data-cppathid="10011" d="M89.65,76.02c5.9,1.88,9.97,5.57,17.11,5.21,6.35-.32,20.12,1.84,25.33,7.04-.64.47-1.35.87-2.14,1.15-2.7.95-4.74-5.27-21.86-5.51-9.44-.13-17.93-6.14-23.16-5.8-2.59.17-4.55.36-5.87.52-1.02.12-1.86-.82-1.7-1.91l.17-1.2c2.24,1.72,6.94-1.15,12.1.5Z" class="cls-11"/><path data-cppathid="10012" d="M128.78,89.43c6.1-4.65,7.89-14.05,7.89-14.05,0,0,4.52,2.07.14,10.03-4.37,7.96-8.03,4.02-8.03,4.02Z" class="cls-6"/><path data-cppathid="10013" d="M136.51,85.07c-1.62,3.33-5.86,5.14-6.3,4.41-.32-.53,2.93-3.05,4.57-5.19.78-1.03,1.73.78,1.73.78Z" class="cls-2"/><path data-cppathid="10014" d="M137.23,83.7c-.43.54-1.66-.92-1.47-1.43.19-.51,2.29.4,1.47,1.43Z" class="cls-2"/></g><path data-cppathid="10015" d="M130.87,75.05c1.42.21,2.41,1.53,2.2,2.95-.09.6-.37,1.12-.77,1.51.08-.19.14-.4.17-.61.19-1.3-.71-2.51-2-2.7-1.14-.17-2.21.51-2.58,1.56,0-.17,0-.33.02-.51.21-1.42,1.53-2.4,2.96-2.19Z" class="cls-11"/></g><path data-cppathid="10016" d="M73.65,67.36l-1.17,7.98c-.03.27-.1.54-.19.78-.22.57-.56,1.07-1,1.45-.33.31-.71.55-1.13.71-.18.08-.37.14-.56.17-.42.1-.87.13-1.32.07-.37-.06-.73-.11-1.11-.17-.54-.09-1.09-.17-1.65-.26-.14-.01-.29-.05-.44-.07-.71-.1-1.43-.22-2.15-.32-.72-.11-1.45-.23-2.19-.33-.97-.15-1.97-.3-2.97-.44-1.23-.18-2.45-.37-3.69-.55-.11-.01-.23-.03-.35-.06-1.11-.16-2.25-.32-3.38-.49-.15-.02-.3-.05-.45-.07-1.44-.22-2.9-.45-4.36-.66-.96-.15-1.94-.3-2.9-.46-1.36-.22-2.71-.44-4.07-.66-.88-.15-1.76-.31-2.65-.46-.18-.03-.37-.07-.55-.09-.94-.17-1.89-.34-2.82-.52-.56-.1-1.12-.21-1.67-.31-.84-.16-1.67-.32-2.5-.49-.69-.14-1.37-.27-2.05-.42-.69-.14-1.36-.29-2.03-.44-.45-.1-.89-.21-1.33-.31-.64-.15-1.26-.3-1.87-.46-.49-.13-.97-.24-1.44-.37-.33-.09-.65-.18-.96-.27-.4-.1-.79-.22-1.18-.33-.33-.1-.66-.21-1-.3-.01,0-.01-.01-.01-.01-.33-.1-.66-.21-1-.31-.32-.11-.64-.22-.95-.33-.25-.08-.49-.16-.73-.25-.1-.03-.22-.08-.33-.11-.37-.13-.72-.26-1.07-.4-.07-.02-.14-.05-.19-.08-.41-.16-.81-.32-1.2-.48-.19-.09-.4-.17-.6-.26-.24-.1-.48-.22-.73-.32-.17-.08-.36-.17-.53-.25-.16-.08-.32-.15-.47-.23-.87-.44-1.67-.87-2.41-1.33-.17-.1-.34-.22-.5-.32-.11-.08-.22-.15-.33-.23-.14-.08-.27-.17-.4-.27-1.02-.71-1.89-1.45-2.61-2.23-.31-.32-.6-.65-.85-.99-.05-.05-.08-.1-.13-.15-.06-.08-.11-.16-.17-.24-.13-.18-.24-.37-.37-.56-.05-.08-.1-.17-.15-.25-.07-.13-.14-.25-.22-.39-.08-.16-.17-.33-.24-.52-.05-.09-.09-.21-.13-.31-.38-1.03-.25-2.07.22-2.93.7-1.34,2.19-2.26,3.89-2l1.9.27.95.14,8.17,1.19,28.45,4.16,14.65,2.13,3.84.56,8.17,1.19c.64.09,1.21.34,1.7.71,1.08.79,1.7,2.14,1.49,3.56Z" class="cls-1"/><path data-cppathid="10017" d="M43.81,59.2l-8.43,14.23c-3.78-.66-7.5-1.38-11.07-2.18-6.53-1.46-11.7-3.14-15.59-5.08l6.63-11.12,28.45,4.15Z" class="cls-12"/><path data-cppathid="10018" d="M62.3,61.9l-8.57,14.44c-1.26-.18-2.54-.37-3.82-.56l8.55-14.43,3.83.56Z" class="cls-12"/></g><path data-cppathid="10019" d="M71.29,77.58c-.33.31-.71.55-1.13.71-.18.08-.37.14-.56.17-.42.1-.87.13-1.32.07-.37-.06-.73-.11-1.11-.17-.54-.09-1.09-.17-1.65-.26-.14-.01-.29-.05-.44-.07-.71-.1-1.43-.22-2.15-.32-.72-.11-1.45-.23-2.19-.33-.97-.15-1.97-.3-2.97-.44-1.23-.18-2.45-.37-3.69-.55-.11-.01-.23-.03-.35-.06-1.11-.16-2.25-.32-3.38-.49-.15-.02-.3-.05-.45-.07-1.44-.22-2.9-.45-4.36-.66-.96-.15-1.94-.3-2.9-.46-1.36-.22-2.71-.44-4.07-.66-.88-.15-1.76-.31-2.65-.46-.18-.03-.37-.07-.55-.09-.94-.17-1.89-.34-2.82-.52-.56-.1-1.12-.21-1.67-.31-.84-.16-1.67-.32-2.5-.49-.69-.14-1.37-.27-2.05-.42-.69-.14-1.36-.29-2.03-.44-.45-.1-.89-.21-1.33-.31-.64-.15-1.26-.3-1.87-.46-.49-.13-.97-.24-1.44-.37-.33-.09-.65-.18-.96-.28-.4-.1-.79-.22-1.18-.33-.33-.1-.66-.21-1-.3-.01,0-.01-.01-.01-.01-.33-.1-.66-.21-1-.31-.32-.11-.64-.22-.95-.33-.25-.08-.49-.16-.73-.25-.1-.03-.22-.08-.33-.11-.37-.13-.72-.26-1.07-.4-.07-.02-.14-.05-.19-.07-.09-.05-.19-.08-.29-.11-.31-.13-.62-.25-.92-.38-.19-.09-.4-.17-.6-.26-.24-.1-.48-.22-.73-.32-.17-.08-.36-.17-.53-.25-.16-.08-.32-.15-.47-.23-.87-.44-1.67-.87-2.41-1.33-.17-.1-.34-.22-.5-.32-.11-.08-.22-.15-.33-.23-.14-.08-.27-.17-.4-.27-1.44-1.01-2.59-2.08-3.46-3.22-.11-.13-.21-.26-.3-.39-.13-.18-.24-.37-.37-.56-.05-.08-.1-.17-.15-.25-.07-.13-.14-.25-.22-.39-.08-.16-.17-.33-.24-.52-.05-.09-.09-.21-.13-.31-.38-1.03-.25-2.07.22-2.93.34,2.47,2.07,6.39,8.77,9.9,2.53,1.33,5.76,2.6,9.9,3.71,5.25,1.32,10.88,2.46,16.78,3.49,4.7.82,9.56,1.58,14.55,2.3,1.27.18,2.55.36,3.85.54,4.86.66,9.79,1.29,14.78,1.91.54.07,1.09.14,1.63.21.19.02.4.05.6.07Z" class="cls-4"/></g></g></g></svg>