<?xml version="1.0" encoding="UTF-8"?>
<svg xmlns="http://www.w3.org/2000/svg" onmouseup="{ if(window.parent.document.onmouseup) window.parent.document.onmouseup(arguments[0]);}" viewBox="0 0 83.67 102.15" id="Layer_2"><defs><style>
      .cls-1 {
        fill: #e08283;
      }

      .cls-2 {
        fill: #dba866;
      }

      .cls-3 {
        fill: #a86262;
      }

      .cls-4 {
        fill: #9b000b;
      }

      .cls-5 {
        fill: #f9e6e6;
      }

      .cls-6 {
        fill: #256558;
      }

      .cls-7 {
        fill: #cf000f;
      }

      .cls-8 {
        fill: #ecb4b5;
      }
    </style></defs><g id="Sweet_Icons"><g><path data-cppathid="10000" d="M59.37,30.91c0,9.09-7.84,16.46-17.52,16.46s-17.52-7.37-17.52-16.46,7.84-16.46,17.52-16.46,17.52,7.37,17.52,16.46h0Z" class="cls-2"/><path data-cppathid="10001" d="M81.29,49.85H2.76c.05-5.63,3.11-10.6,7.74-13.53,2.54-6.15,8.89-10.52,16.33-10.52,6.1,0,11.45,2.93,14.59,7.37,2.79-5.63,8.83-9.55,15.88-9.55,9.08,0,16.55,6.5,17.43,14.8,3.66,2.74,6.12,6.8,6.55,11.43Z" class="cls-2"/><path data-cppathid="10002" d="M57.58,23.39c-2.42-4.9-9.01-8.95-16.63-8.95-8.5,0-15.49,4.91-17.1,10.71-8.67.77-20.29,13.46-10.6,13.46,5.68,0-1.8,6.89,11.61,3.7,3.83-.91,14.03.88,19.12,1.19.13,0,5.54,1.4,5.66,1.42,12.1,2.44,9.47-1.6,14.16-1.83,10.11-.48,10.27-2.3,10.27-7.06,0-6.74-7.29-12.25-16.49-12.64h0Z" class="cls-5"/><g><path data-cppathid="10003" d="M49.12,16.46c0,4.2-3.62,7.6-8.09,7.6s-8.09-3.4-8.09-7.6,3.62-7.6,8.09-7.6,8.09,3.4,8.09,7.6h0Z" class="cls-7"/><path data-cppathid="10004" d="M49.17,16.46c0,4.19-3.62,7.59-8.09,7.59-.26,0-.53-.01-.79-.04,4.07-.39,7.25-3.62,7.25-7.55s-3.18-7.17-7.25-7.56c.26-.03.53-.04.79-.04,4.47,0,8.09,3.4,8.09,7.6Z" class="cls-4"/><path data-cppathid="10005" d="M42.29,8.9h-.9c0-4.91,3.49-8.9,7.78-8.9v.84c-3.79,0-6.88,3.61-6.88,8.06h0Z" class="cls-6"/></g><g><path data-cppathid="10006" d="M82.16,57.42l-10.84,42.2c-.35,1.4-1.83,2.53-3.26,2.53H15.8c-1.43,0-2.9-1.13-3.25-2.53L1.7,57.42c-.34-1.36.49-2.48,1.87-2.52.03-.01.06-.01.09-.01h76.54c.26,0,.51.04.73.12.99.31,1.52,1.28,1.23,2.41Z" class="cls-1"/><path data-cppathid="10007" d="M23.3,94.67c.24.93-.25,1.84-1.09,2.03-.84.19-1.72-.41-1.96-1.34l-9.17-35.5c-.24-.93.25-1.84,1.09-2.03.84-.19,1.73.41,1.96,1.34l9.17,35.5Z" class="cls-3"/><path data-cppathid="10008" d="M34.03,94.57c.16.95-.41,1.82-1.26,1.95-.85.13-1.68-.54-1.84-1.49l-6.01-35.31c-.16-.94.41-1.82,1.26-1.95.85-.13,1.68.54,1.85,1.48l6.01,35.31Z" class="cls-3"/><path data-cppathid="10009" d="M61.53,94.37c-.24.93.25,1.84,1.09,2.04.84.19,1.72-.41,1.96-1.34l9.17-35.5c.24-.93-.25-1.84-1.09-2.03-.84-.19-1.72.41-1.96,1.34l-9.17,35.5Z" class="cls-3"/><path data-cppathid="10010" d="M50.35,94.57c-.16.95.41,1.82,1.26,1.95.85.13,1.68-.54,1.84-1.49l6.01-35.31c.16-.94-.41-1.82-1.26-1.95-.86-.13-1.69.54-1.84,1.48l-6.01,35.31Z" class="cls-3"/><path data-cppathid="10011" d="M43.5,95.01c0,.96-.71,1.74-1.57,1.74s-1.57-.78-1.57-1.74v-35.79c0-.96.71-1.74,1.57-1.74s1.57.78,1.57,1.74v35.79Z" class="cls-3"/><path data-cppathid="10012" d="M33.44,65.83c0,.8-.69,1.45-1.55,1.45s-1.54-.65-1.54-1.45.69-1.45,1.54-1.45,1.55.65,1.55,1.45h0Z" class="cls-8"/><path data-cppathid="10013" d="M38.96,57.55c0,.8-.69,1.45-1.54,1.45s-1.54-.65-1.54-1.45.69-1.45,1.54-1.45,1.54.65,1.54,1.45h0Z" class="cls-8"/><path data-cppathid="10014" d="M51.6,61.9c0,.8-.69,1.46-1.54,1.46s-1.55-.65-1.55-1.46.69-1.45,1.55-1.45,1.54.65,1.54,1.45h0Z" class="cls-8"/><path data-cppathid="10015" d="M48.51,90.26c0,.8-.69,1.45-1.54,1.45s-1.55-.65-1.55-1.45.69-1.45,1.55-1.45,1.54.65,1.54,1.45h0Z" class="cls-8"/><path data-cppathid="10016" d="M50.71,73.11c0,.8-.69,1.45-1.54,1.45s-1.55-.65-1.55-1.45.69-1.45,1.55-1.45,1.54.65,1.54,1.45h0Z" class="cls-8"/><path data-cppathid="10017" d="M48.51,82.57c0,.8-.69,1.45-1.54,1.45s-1.55-.65-1.55-1.45.69-1.45,1.55-1.45,1.54.65,1.54,1.45h0Z" class="cls-8"/><path data-cppathid="10018" d="M38.96,72.3c0,.8-.69,1.45-1.54,1.45s-1.54-.65-1.54-1.45.69-1.45,1.54-1.45,1.54.65,1.54,1.45h0Z" class="cls-8"/><path data-cppathid="10019" d="M20.28,59c0,.8-.69,1.45-1.55,1.45s-1.54-.65-1.54-1.45.69-1.45,1.54-1.45,1.55.65,1.55,1.45h0Z" class="cls-8"/><path data-cppathid="10020" d="M25.28,70.24c0,.8-.69,1.45-1.55,1.45s-1.54-.65-1.54-1.45.69-1.45,1.54-1.45,1.55.65,1.55,1.45h0Z" class="cls-8"/><path data-cppathid="10021" d="M24.63,78.42c0,.8-.69,1.45-1.54,1.45s-1.54-.65-1.54-1.45.69-1.45,1.54-1.45,1.54.65,1.54,1.45h0Z" class="cls-8"/><path data-cppathid="10022" d="M37.41,82.57c0,.8-.69,1.45-1.54,1.45s-1.55-.65-1.55-1.45.69-1.45,1.55-1.45,1.54.65,1.54,1.45h0Z" class="cls-8"/><path data-cppathid="10023" d="M28.38,87.21c0,.8-.69,1.45-1.54,1.45s-1.55-.65-1.55-1.45.69-1.45,1.55-1.45,1.54.65,1.54,1.45h0Z" class="cls-8"/><path data-cppathid="10024" d="M38.96,91.71c0,.8-.69,1.45-1.54,1.45s-1.54-.65-1.54-1.45.69-1.45,1.54-1.45,1.54.65,1.54,1.45h0Z" class="cls-8"/><path data-cppathid="10025" d="M50.06,98.51c0,.8-.69,1.45-1.55,1.45s-1.55-.65-1.55-1.45.69-1.45,1.55-1.45,1.55.65,1.55,1.45h0Z" class="cls-8"/><path data-cppathid="10026" d="M59.75,92.42c0,.8-.69,1.45-1.54,1.45s-1.54-.65-1.54-1.45.69-1.45,1.54-1.45,1.54.65,1.54,1.45h0Z" class="cls-8"/><path data-cppathid="10027" d="M59.75,82.57c0,.8-.69,1.45-1.54,1.45s-1.54-.65-1.54-1.45.69-1.45,1.54-1.45,1.54.65,1.54,1.45h0Z" class="cls-8"/><path data-cppathid="10028" d="M66.1,73.75c0,.8-.69,1.45-1.54,1.45s-1.54-.65-1.54-1.45.69-1.45,1.54-1.45,1.54.65,1.54,1.45h0Z" class="cls-8"/><path data-cppathid="10029" d="M64.18,65.27c0,.8-.69,1.45-1.54,1.45s-1.55-.65-1.55-1.45.69-1.45,1.55-1.45,1.54.65,1.54,1.45h0Z" class="cls-8"/><path data-cppathid="10030" d="M69.19,57.48c0,.8-.69,1.45-1.55,1.45s-1.55-.65-1.55-1.45.69-1.45,1.55-1.45,1.55.65,1.55,1.45h0Z" class="cls-8"/><path data-cppathid="10031" d="M77.28,68.17c0,.8-.69,1.45-1.54,1.45s-1.55-.65-1.55-1.45.69-1.45,1.55-1.45,1.54.65,1.54,1.45h0Z" class="cls-8"/><path data-cppathid="10032" d="M74.19,79.87c0,.8-.69,1.45-1.55,1.45s-1.54-.65-1.54-1.45.69-1.45,1.54-1.45,1.55.65,1.55,1.45h0Z" class="cls-8"/><path data-cppathid="10033" d="M69.19,95.6c0,.8-.69,1.45-1.55,1.45s-1.55-.65-1.55-1.45.69-1.45,1.55-1.45,1.55.65,1.55,1.45h0Z" class="cls-8"/><path data-cppathid="10034" d="M28.37,97.05c0,.8-.69,1.45-1.54,1.45s-1.54-.65-1.54-1.45.69-1.45,1.54-1.45,1.54.65,1.54,1.45h0Z" class="cls-8"/><path data-cppathid="10035" d="M16.27,90.26c0,.8-.69,1.45-1.54,1.45s-1.55-.65-1.55-1.45.69-1.45,1.55-1.45,1.54.65,1.54,1.45h0Z" class="cls-8"/><path data-cppathid="10036" d="M14.72,76.96c0,.8-.69,1.45-1.55,1.45s-1.54-.65-1.54-1.45.69-1.45,1.54-1.45,1.55.65,1.55,1.45h0Z" class="cls-8"/><path data-cppathid="10037" d="M9.63,65.27c0,.8-.69,1.45-1.54,1.45s-1.54-.65-1.54-1.45.69-1.45,1.54-1.45,1.54.65,1.54,1.45h0Z" class="cls-8"/></g><path data-cppathid="10038" d="M83.67,52.59c0,.79-.78,1.43-1.74,1.43H1.74c-.95,0-1.74-.63-1.74-1.43s.79-1.43,1.74-1.43h80.19c.96,0,1.74.65,1.74,1.43Z" class="cls-3"/></g></g></svg>