<?xml version="1.0" encoding="UTF-8"?>
<svg xmlns="http://www.w3.org/2000/svg" onmouseup="{ if(window.parent.document.onmouseup) window.parent.document.onmouseup(arguments[0]);}" viewBox="0 0 100.1 100" version="1.1" xmlns:xlink="http://www.w3.org/1999/xlink"><defs><style>
      .cls-1 {
        fill: url(#linear-gradient-2);
      }

      .cls-2 {
        fill: #fff;
      }

      .cls-3 {
        fill: none;
      }

      .cls-4 {
        fill: url(#linear-gradient-4);
      }

      .cls-5 {
        fill: url(#linear-gradient-3);
        stroke: #945821;
        stroke-miterlimit: 10;
        stroke-width: 1.5px;
      }

      .cls-6 {
        fill: #854e1e;
      }

      .cls-7 {
        opacity: .3;
      }

      .cls-8 {
        fill: url(#linear-gradient);
      }
    </style><linearGradient gradientUnits="userSpaceOnUse" gradientTransform="translate(0 102) scale(1 -1)" y2="2" x2="50" y1="102" x1="50" id="linear-gradient"><stop stop-color="#d8a551" offset="0"/><stop stop-color="#6e4527" offset="1"/></linearGradient><linearGradient gradientUnits="userSpaceOnUse" gradientTransform="translate(0 102) scale(1 -1)" y2="3.5" x2="50" y1="96.5" x1="50" id="linear-gradient-2"><stop stop-opacity=".8" stop-color="#bb773d" offset="0"/><stop stop-opacity=".8" stop-color="#bb773d" offset="1"/></linearGradient><linearGradient gradientUnits="userSpaceOnUse" gradientTransform="translate(0 102) scale(1 -1)" y2="11.5" x2="50" y1="90.5" x1="50" id="linear-gradient-3"><stop stop-color="#a6c8b2" offset="0"/><stop stop-color="#80b192" offset=".2"/><stop stop-color="#fff" offset="1"/></linearGradient><linearGradient gradientUnits="userSpaceOnUse" gradientTransform="translate(0 102) scale(1 -1)" y2="15.8" x2="50" y1="86.2" x1="50" id="linear-gradient-4"><stop stop-opacity=".7" stop-color="#fff" offset=".2"/><stop stop-opacity="0" stop-color="#fff" offset=".4"/><stop stop-opacity="0" stop-color="#fff" offset="1"/></linearGradient></defs><g><g id="Layer_2"><g id="Layer_1-2"><g><circle data-cppathid="10000" r="50" cy="50" cx="50" class="cls-8"/><circle data-cppathid="10001" r="46.5" cy="52" cx="50" class="cls-1"/><g class="cls-7"><path data-cppathid="10002" d="M90.9,21.3L20.5,9.6c-4.1,3-7.7,6.6-10.7,10.6l74.2,5.9-78.4,1C2.1,33.8.1,41.3,0,49.3l99.4-7.1c-1.2-7.7-4.2-14.8-8.5-21Z" class="cls-3"/><path data-cppathid="10003" d="M50,0c-10.4,0-20,3.2-28,8.6l62.5,5.2C75.5,5.3,63.4,0,50,0Z" class="cls-3"/><path data-cppathid="10004" d="M100,50c0-1.5,0-2.9-.2-4.3,0,2.4.1,4.8,0,7.2L0,50c0,6.6,1.3,12.8,3.6,18.6l94.1-3.7c1.5-4.7,2.3-9.7,2.3-14.9Z" class="cls-3"/><path data-cppathid="10005" d="M16.4,87c8.9,8.1,20.7,13,33.6,13s22.3-4,30.8-10.7l-64.5-2.4h0Z" class="cls-3"/><path data-cppathid="10006" d="M97.6,65.4L7.1,75.7c2,3.4,4.5,6.5,7.2,9.3l77-6.8c2.7-3.9,4.8-8.2,6.3-12.8h0Z" class="cls-3"/><path data-cppathid="10007" d="M9.8,20.2c-1.6,2.1-3,4.4-4.3,6.8l78.4-1L9.8,20.2Z" class="cls-6"/><path data-cppathid="10008" d="M99.8,45.7c0-1.2-.2-2.3-.4-3.5L.2,49.3c0,.2.2.4.2.7H.3l99.7,2.9c0-2.4-.2-4.8-.2-7.2Z" class="cls-6"/><path data-cppathid="10009" d="M97.7,64.9l-94.1,3.7c1,2.4,2.2,4.8,3.5,7.1l90.5-10.3c0-.1,0-.3.1-.4Z" class="cls-6"/><path data-cppathid="10010" d="M84.5,13.8l-62.5-5.2c-.5.3-1,.7-1.5,1l70.4,11.7c-1.9-2.7-4.1-5.2-6.4-7.5h0Z" class="cls-6"/><path data-cppathid="10011" d="M91.3,78.2l-77,6.8c.7.7,1.4,1.3,2,2l64.5,2.4c4-3.2,7.6-6.9,10.5-11.2h0Z" class="cls-6"/></g><circle data-cppathid="10012" r="39.5" cy="51" cx="50" class="cls-5"/><path data-cppathid="10013" d="M14.8,51c0-19.4,15.7-35.2,35.2-35.2s35.2,15.7,35.2,35.2-15.7,35.2-35.2,35.2S14.8,70.4,14.8,51Z" class="cls-4"/><path data-cppathid="10014" d="M49.6,5.5c.3,1.7-3.5,3.8-8.6,4.8-5.1,1-9.5.5-9.8-1.2-.3-1.7,3.5-3.8,8.6-4.8,5.1-1,9.5-.5,9.8,1.2Z" class="cls-2"/></g></g></g></g></svg>