<?xml version="1.0" encoding="UTF-8"?>
<svg xmlns="http://www.w3.org/2000/svg" onmouseup="{ if(window.parent.document.onmouseup) window.parent.document.onmouseup(arguments[0]);}" viewBox="0 0 45.51 40" id="Layer_2"><defs><style>
      .cls-1 {
        fill: #4c6a57;
      }
    </style></defs><g data-name="Layer_1" id="Layer_1-2"><g><path data-cppathid="10000" d="M28.36,0h-5.12c-5.45,0-10.23,3.75-12.93,9.38H1.75c-.96,0-1.75,1.02-1.75,2.29v16.66c0,1.26.78,2.29,1.75,2.29h8.56c2.7,5.64,7.48,9.38,12.93,9.38h5.12c.79,0,1.43-.84,1.43-1.87V1.87c0-1.04-.64-1.87-1.43-1.87Z" class="cls-1"/><g><path data-cppathid="10001" d="M33.79,10.33c2.52,2.65,3.86,6.12,3.78,9.78-.09,3.66-1.6,7.06-4.24,9.58-.23.22-.59.21-.81-.02-.22-.23-.21-.59.02-.81,5.01-4.78,5.2-12.74.43-17.75-.22-.23-.21-.59.02-.81s.59-.21.81.02Z" class="cls-1"/><path data-cppathid="10002" d="M32.93,30.34c-.28,0-.56-.11-.77-.33-.4-.42-.39-1.1.04-1.5,2.33-2.22,3.66-5.22,3.73-8.44.08-3.23-1.1-6.28-3.32-8.61-.4-.42-.39-1.1.04-1.5.42-.4,1.1-.39,1.5.04h0c2.61,2.74,4,6.34,3.91,10.13-.09,3.79-1.65,7.31-4.4,9.93-.2.2-.47.29-.73.29ZM33.38,10.64s-.04,0-.06.02c-.03.03-.03.08,0,.12,2.4,2.52,3.67,5.83,3.59,9.31-.08,3.49-1.52,6.73-4.04,9.13-.02.02-.02.04-.03.06,0,.02,0,.04.02.06.02.02.04.02.06.03.02,0,.04,0,.06-.02,2.55-2.43,4.01-5.72,4.09-9.24.09-3.53-1.21-6.88-3.64-9.43-.02-.02-.04-.03-.06-.03Z" class="cls-1"/></g><g><path data-cppathid="10003" d="M36.42,7.76c3.19,3.35,4.89,7.74,4.78,12.37-.11,4.63-2.02,8.93-5.37,12.13-.23.22-.59.21-.81-.02s-.21-.59.02-.81c6.46-6.16,6.71-16.42.55-22.88-.22-.23-.21-.59.02-.81.23-.22.59-.21.81.02Z" class="cls-1"/><path data-cppathid="10004" d="M35.43,32.9c-.28,0-.56-.11-.77-.33-.4-.42-.39-1.1.04-1.5,6.27-5.97,6.51-15.93.54-22.19-.4-.42-.39-1.1.04-1.5.42-.4,1.1-.39,1.5.04h0c3.28,3.45,5.03,7.96,4.91,12.72-.11,4.76-2.08,9.19-5.52,12.47-.2.2-.47.29-.73.29ZM36.01,8.07s-.04,0-.06.02c-.03.03-.03.08,0,.12,6.34,6.66,6.09,17.23-.57,23.58-.03.03-.03.08,0,.12.02.02.04.02.06.03.02,0,.04,0,.06-.02,3.26-3.1,5.11-7.29,5.22-11.78.11-4.5-1.54-8.77-4.64-12.02-.02-.02-.04-.03-.06-.03Z" class="cls-1"/></g><g><path data-cppathid="10005" d="M39.18,5.06c1.97,2.07,3.47,4.46,4.47,7.11.97,2.56,1.42,5.25,1.36,7.99-.07,2.75-.65,5.41-1.74,7.92-1.13,2.6-2.75,4.91-4.81,6.88-.23.22-.59.21-.81-.02s-.21-.59.02-.81c7.99-7.61,8.29-20.3.68-28.28-.22-.23-.21-.59.02-.81s.59-.21.81.02Z" class="cls-1"/><path data-cppathid="10006" d="M38.07,35.6s-.02,0-.03,0c-.28,0-.55-.12-.74-.33-.4-.42-.39-1.1.04-1.5,7.79-7.42,8.09-19.8.67-27.59-.4-.42-.39-1.1.04-1.5.42-.4,1.1-.39,1.5.04h0c2.01,2.11,3.55,4.56,4.58,7.27.99,2.62,1.45,5.37,1.39,8.18-.07,2.81-.67,5.53-1.78,8.1-1.15,2.66-2.81,5.03-4.92,7.04-.2.19-.46.29-.73.29ZM38.77,5.37s-.04,0-.06.02c-.02.02-.02.04-.03.06,0,.02,0,.04.02.06,7.79,8.18,7.48,21.18-.7,28.97-.03.03-.03.08,0,.12.02.02.04.02.06.03.02,0,.04,0,.06-.02,2.02-1.92,3.6-4.18,4.7-6.72,1.06-2.45,1.63-5.05,1.7-7.73.06-2.68-.38-5.31-1.32-7.81-.98-2.59-2.45-4.92-4.37-6.94-.02-.02-.04-.03-.06-.03Z" class="cls-1"/></g></g></g></svg>