<?xml version="1.0" encoding="UTF-8"?>
<svg xmlns="http://www.w3.org/2000/svg" onmouseup="{ if(window.parent.document.onmouseup) window.parent.document.onmouseup(arguments[0]);}" viewBox="0 0 46.84 40" id="Layer_2"><defs><style>
      .cls-1 {
        fill: #4c6a57;
      }
    </style></defs><g data-name="Layer_1" id="Layer_1-2"><g><path data-cppathid="10000" d="M28.36,0h-5.12c-5.45,0-10.23,3.75-12.93,9.38H1.75c-.96,0-1.75,1.02-1.75,2.29v16.66c0,1.26.78,2.29,1.75,2.29h8.56c2.7,5.64,7.48,9.38,12.93,9.38h5.12c.79,0,1.43-.84,1.43-1.87V1.87c0-1.04-.64-1.87-1.43-1.87Z" class="cls-1"/><path data-cppathid="10001" d="M46.47,13.45l-5.71,5.86,5.65,5.51c.48.47.49,1.23.02,1.71h0c-.47.48-1.23.49-1.71.02l-5.65-5.51-5.77,5.91c-.5.51-1.31.52-1.82.02h0c-.51-.5-.52-1.31-.02-1.82l5.77-5.91-5.65-5.51c-.48-.47-.49-1.23-.02-1.71h0c.47-.48,1.23-.49,1.71-.02l5.65,5.51,5.71-5.86c.5-.51,1.31-.52,1.82-.02h0c.51.5.52,1.31.02,1.82Z" class="cls-1"/></g></g></svg>