<?xml version="1.0" encoding="UTF-8"?>
<svg xmlns="http://www.w3.org/2000/svg" onmouseup="{ if(window.parent.document.onmouseup) window.parent.document.onmouseup(arguments[0]);}" viewBox="0 0 245.96 98" id="Layer_2" xmlns:xlink="http://www.w3.org/1999/xlink"><defs><style>
      .cls-1 {
        fill: url(#linear-gradient-2);
      }

      .cls-2 {
        opacity: .3;
      }

      .cls-3, .cls-4 {
        fill: #fff;
      }

      .cls-5 {
        fill: none;
      }

      .cls-6 {
        fill: url(#linear-gradient-4);
      }

      .cls-7 {
        fill: #854e1e;
      }

      .cls-8 {
        fill: url(#linear-gradient-3);
        stroke: #b21d4e;
        stroke-miterlimit: 10;
        stroke-width: 1.5px;
      }

      .cls-4 {
        font-family: Fredoka-Bold, Fredoka;
        font-size: 48px;
        font-variation-settings: 'wght' 700, 'wdth' 100;
        font-weight: 700;
      }

      .cls-9 {
        fill: url(#linear-gradient);
      }
    </style><linearGradient gradientUnits="userSpaceOnUse" y2="95.12" x2="122.98" y1="-1.44" x1="122.98" id="linear-gradient"><stop stop-color="#d8a551" offset="0"/><stop stop-color="#6e4527" offset="1"/></linearGradient><linearGradient gradientUnits="userSpaceOnUse" y2="93.32" x2="122.98" y1="3.66" x1="122.98" id="linear-gradient-2"><stop stop-opacity=".8" stop-color="#bb773d" offset="0"/><stop stop-opacity=".8" stop-color="#bb773d" offset="1"/></linearGradient><linearGradient gradientUnits="userSpaceOnUse" y2="88.43" x2="122.98" y1="7.32" x1="122.98" id="linear-gradient-3"><stop stop-color="#c14a71" offset="0"/><stop stop-color="#d07794" offset=".17"/><stop stop-color="#b21d4e" offset="1"/></linearGradient><linearGradient gradientUnits="userSpaceOnUse" y2="84.28" x2="122.98" y1="11.85" x1="122.98" id="linear-gradient-4"><stop stop-opacity=".25" stop-color="#fff" offset=".16"/><stop stop-opacity="0" stop-color="#fff" offset=".42"/><stop stop-opacity="0" stop-color="#fff" offset="1"/></linearGradient></defs><g data-name="Layer_1" id="Layer_1-2"><g><g><path data-cppathid="10000" d="M245.96,49c0,26.95-23.35,49-51.88,49H51.88C23.35,98,0,75.95,0,49S23.35,0,51.88,0h142.2c28.54,0,51.88,22.05,51.88,49Z" class="cls-9"/><path data-cppathid="10001" d="M241.09,50.5c0,24.79-22.42,45.5-49.83,45.5H54.7c-27.41,0-49.83-20.71-49.83-45.5S27.29,5,54.7,5h136.57c27.41,0,49.83,20.71,49.83,45.5Z" class="cls-1"/><g class="cls-2"><path data-cppathid="10002" d="M242.61,65.95L9.37,76.69c2.68,3.61,5.84,6.87,9.42,9.68l215.98-7.38c3.28-3.91,5.94-8.3,7.84-13.04Z" class="cls-5"/><path data-cppathid="10003" d="M245.75,52.97L.04,50.06c.2,6.83,1.89,13.32,4.79,19.19l237.98-3.77c1.54-3.96,2.54-8.16,2.94-12.51Z" class="cls-5"/><path data-cppathid="10004" d="M21.14,88.26c8.62,6.02,19.26,9.74,30.74,9.74h142.2c9.69,0,18.77-2.62,26.55-7.03l-199.48-2.72Z" class="cls-5"/><path data-cppathid="10005" d="M236.69,20.86L23.61,7.69c-4.95,3.06-9.32,6.89-12.91,11.32l218.18,6.3L5.76,26.37c-3.67,6.71-5.76,14.31-5.76,22.34,0,.19.01.37.02.56l245.45-7.2c-1.13-7.79-4.22-15.01-8.78-21.21Z" class="cls-5"/><path data-cppathid="10006" d="M194.08,0H51.88c-9.83,0-19.05,2.47-26.91,7.01l204.53,6.22c-9.29-8.23-21.76-13.23-35.43-13.23Z" class="cls-5"/><path data-cppathid="10007" d="M10.7,19.01c-1.87,2.3-3.52,4.76-4.94,7.36l223.11-1.05L10.7,19.01Z" class="cls-7"/><path data-cppathid="10008" d="M245.96,48.71c0-2.25-.18-4.47-.49-6.64L.02,49.27c0,.27.01.53.02.8l245.71,2.91c.13-1.41.21-2.83.21-4.27Z" class="cls-7"/><path data-cppathid="10009" d="M242.81,65.49l-237.98,3.77c1.29,2.61,2.81,5.1,4.55,7.43l233.24-10.74c.06-.15.13-.31.19-.46Z" class="cls-7"/><path data-cppathid="10010" d="M229.51,13.01L24.98,6.86c-.46.27-.92.55-1.37.83l213.08,13.17c-2.1-2.85-4.51-5.48-7.18-7.85Z" class="cls-7"/><path data-cppathid="10011" d="M234.77,79l-215.98,7.38c.76.6,1.55,1.18,2.35,1.74l199.48,2.64c5.44-3.08,10.23-7.08,14.15-11.76Z" class="cls-7"/></g><path data-cppathid="10012" d="M234.65,49.69c0,22.39-21.2,41.16-47.11,41.16H58.42c-25.91,0-47.11-18.77-47.11-41.16S32.51,8.53,58.42,8.53h129.11c25.91,0,47.11,18.77,47.11,41.16Z" class="cls-8"/><path data-cppathid="10013" d="M228.94,49.69c0,20-20.12,36.75-44.7,36.75H61.72c-24.59,0-44.7-16.76-44.7-36.75S37.14,12.93,61.72,12.93h122.51c24.59,0,44.7,16.76,44.7,36.75Z" class="cls-6"/><path data-cppathid="10014" d="M57.7,4.24c.18,1.65-3.78,3.42-8.83,3.97-5.06.55-9.3-.34-9.48-1.99-.18-1.65,3.78-3.42,8.83-3.97,5.06-.55,9.3.34,9.48,1.99Z" class="cls-3"/></g><text data-cppathid="10015" transform="translate(43.86 66.15)" class="cls-4"><tspan data-cppathid="10016" y="0" x="0">MASUK</tspan></text></g></g></svg>