<?xml version="1.0" encoding="UTF-8"?>
<svg xmlns="http://www.w3.org/2000/svg" onmouseup="{ if(window.parent.document.onmouseup) window.parent.document.onmouseup(arguments[0]);}" viewBox="0 0 100.05 100" id="Layer_2" xmlns:xlink="http://www.w3.org/1999/xlink"><defs><style>
      .cls-1 {
        fill: url(#linear-gradient-2);
      }

      .cls-2 {
        opacity: .3;
      }

      .cls-3 {
        fill: #fff;
      }

      .cls-4 {
        fill: #355070;
      }

      .cls-5 {
        fill: none;
      }

      .cls-6 {
        fill: url(#linear-gradient-4);
      }

      .cls-7 {
        fill: #854e1e;
      }

      .cls-8 {
        fill: url(#linear-gradient-3);
        stroke: #945821;
        stroke-miterlimit: 10;
        stroke-width: 1.5px;
      }

      .cls-9 {
        fill: url(#linear-gradient);
      }
    </style><linearGradient gradientUnits="userSpaceOnUse" gradientTransform="translate(91.34 -7.36) rotate(80.78)" y2="100" x2="50" y1="0" x1="50" id="linear-gradient"><stop stop-color="#d8a551" offset="0"/><stop stop-color="#6e4527" offset="1"/></linearGradient><linearGradient gradientUnits="userSpaceOnUse" gradientTransform="translate(93.32 -5.68) rotate(80.78)" y2="98.5" x2="50" y1="5.5" x1="50" id="linear-gradient-2"><stop stop-opacity=".8" stop-color="#bb773d" offset="0"/><stop stop-opacity=".8" stop-color="#bb773d" offset="1"/></linearGradient><linearGradient gradientUnits="userSpaceOnUse" gradientTransform="translate(92.33 -6.52) rotate(80.78)" y2="90.5" x2="50" y1="11.5" x1="50" id="linear-gradient-3"><stop stop-color="#aeb9c5" offset="0"/><stop stop-color="#8596a9" offset=".17"/><stop stop-color="#fff" offset="1"/></linearGradient><linearGradient gradientUnits="userSpaceOnUse" y2="86.17" x2="50" y1="15.83" x1="50" id="linear-gradient-4"><stop stop-opacity=".7" stop-color="#fff" offset=".16"/><stop stop-opacity="0" stop-color="#fff" offset=".42"/><stop stop-opacity="0" stop-color="#fff" offset="1"/></linearGradient></defs><g data-name="Layer_1" id="Layer_1-2"><g><g><circle data-cppathid="10000" transform="translate(-7.36 91.34) rotate(-80.78)" r="50" cy="50" cx="50" class="cls-9"/><circle data-cppathid="10001" transform="translate(-9.34 93.02) rotate(-80.78)" r="46.5" cy="52" cx="50" class="cls-1"/><g class="cls-2"><path data-cppathid="10002" d="M90.91,21.27L20.54,9.61c-4.08,2.98-7.7,6.56-10.71,10.62l74.18,5.85-78.44.99C2.11,33.76.12,41.32.02,49.34l99.38-7.11c-1.2-7.72-4.18-14.84-8.49-20.96Z" class="cls-5"/><path data-cppathid="10003" d="M50,0c-10.38,0-20.01,3.16-28,8.57l62.49,5.24C75.51,5.26,63.37,0,50,0Z" class="cls-5"/><path data-cppathid="10004" d="M100,50c0-1.46-.08-2.89-.2-4.32.06,2.4.11,4.8.08,7.21L0,50c0,6.57,1.28,12.84,3.59,18.59l94.14-3.65c1.48-4.72,2.27-9.74,2.27-14.94Z" class="cls-5"/><path data-cppathid="10005" d="M16.35,86.98c8.88,8.09,20.69,13.02,33.65,13.02,11.64,0,22.34-3.99,30.83-10.65l-64.49-2.37Z" class="cls-5"/><path data-cppathid="10006" d="M97.59,65.36L7.08,75.65c2.03,3.4,4.46,6.53,7.22,9.34l77-6.81c2.67-3.91,4.8-8.22,6.29-12.83Z" class="cls-5"/><path data-cppathid="10007" d="M9.83,20.23c-1.6,2.15-3.02,4.44-4.26,6.84l78.44-.99L9.83,20.23Z" class="cls-7"/><path data-cppathid="10008" d="M99.8,45.68c-.1-1.16-.23-2.31-.41-3.45L.18,49.34c0,.22.15.44.15.66H.33s99.71,2.89,99.71,2.89c.03-2.4-.18-4.8-.24-7.21Z" class="cls-7"/><path data-cppathid="10009" d="M97.73,64.94l-94.14,3.65c.98,2.45,2.15,4.81,3.49,7.06l90.51-10.29c.04-.14.1-.28.14-.42Z" class="cls-7"/><path data-cppathid="10010" d="M84.48,13.81l-62.49-5.24c-.49.33-.98.68-1.46,1.04l70.37,11.66c-1.89-2.69-4.05-5.19-6.43-7.46Z" class="cls-7"/><path data-cppathid="10011" d="M91.3,78.18l-77,6.81c.67.68,1.35,1.35,2.05,1.99l64.49,2.37c4.03-3.16,7.57-6.92,10.46-11.16Z" class="cls-7"/></g><circle data-cppathid="10012" transform="translate(-8.35 92.18) rotate(-80.78)" r="39.5" cy="51" cx="50" class="cls-8"/><path data-cppathid="10013" d="M14.83,51c0-19.42,15.74-35.17,35.17-35.17s35.17,15.74,35.17,35.17-15.74,35.17-35.17,35.17S14.83,70.42,14.83,51Z" class="cls-6"/><path data-cppathid="10014" d="M49.6,5.47c.33,1.66-3.53,3.82-8.62,4.83-5.09,1.01-9.49.49-9.81-1.17-.33-1.66,3.53-3.82,8.62-4.83,5.09-1.01,9.49-.49,9.81,1.17Z" class="cls-3"/></g><g><path data-cppathid="10015" d="M49.64,63.46h-3.55c-.83,0-1.46-.73-1.35-1.55.61-4.41,3.73-7.56,6.52-10.37,2.98-3,5.56-5.59,5.56-9.36,0-5.01-4.07-9.08-9.08-9.08-4.6,0-8.41,3.44-9,7.88-.09.68-.66,1.19-1.35,1.19h-3.51c-.8,0-1.44-.69-1.36-1.49.75-7.74,7.29-13.8,15.22-13.8,8.43,0,15.29,6.86,15.29,15.29,0,2.89-.84,5.56-2.55,8.18-1.39,2.12-3.13,3.87-4.81,5.56-2.24,2.25-4.21,4.23-4.7,6.46-.14.62-.69,1.07-1.33,1.07Z" class="cls-4"/><circle data-cppathid="10016" r="4.11" cy="72.78" cx="47.75" class="cls-4"/></g></g></g></svg>